<svg width="135" height="41" viewBox="0 0 135 41" fill="none" xmlns="http://www.w3.org/2000/svg">
<path d="M134.105 35.7771C134.105 36.7939 133.7 37.7689 132.981 38.4875C132.261 39.2061 131.285 39.6092 130.268 39.6082L4.7317 39.6082C2.61293 39.6104 0.893385 37.8953 0.890625 35.7771V5.2257C0.893385 3.10669 2.61212 1.3902 4.7317 1.38965H130.268C132.386 1.38965 134.104 3.10727 134.104 5.22571L134.105 35.7771L134.105 35.7771Z" fill="white"/>
<path d="M130.268 40.5H4.73155C2.12273 40.5 0.00551665 38.3878 1.90838e-06 35.7787L0 5.2273C0.00386113 2.61691 2.12048 0.502203 4.73156 0.5L130.267 0.5C132.878 0.503301 134.994 2.61737 134.999 5.2273V35.7777C135.001 38.3824 132.875 40.5 130.268 40.5H130.268Z" fill="#A6A6A6"/>
<path d="M134.105 35.7771C134.105 36.7939 133.7 37.7689 132.981 38.4875C132.261 39.2061 131.285 39.6092 130.268 39.6082L4.7317 39.6082C2.61293 39.6104 0.893385 37.8953 0.890625 35.7771V5.2257C0.893385 3.10669 2.61212 1.3902 4.7317 1.38965H130.268C132.386 1.38965 134.104 3.10727 134.104 5.22571L134.105 35.7771L134.105 35.7771Z" fill="black"/>
<path fill-rule="evenodd" clip-rule="evenodd" d="M28.2495 6.71924C28.4156 8.22865 27.8173 9.71606 26.9428 10.8094C26.0303 11.8857 24.5705 12.7089 23.1487 12.6029C22.9627 11.1505 23.683 9.60603 24.4895 8.66377C25.401 7.59448 26.9838 6.77525 28.2495 6.71924ZM32.9036 15.4265C32.745 15.5212 30.1155 17.0902 30.1443 20.29H30.1443C30.1783 24.153 33.5261 25.4314 33.5661 25.4454C33.5461 25.5354 33.0419 27.2899 31.7862 29.0694C30.7376 30.6368 29.639 32.1702 27.8941 32.1972C27.0645 32.2163 26.5043 31.9781 25.9207 31.7298C25.3118 31.4708 24.6773 31.201 23.6848 31.201C22.6329 31.201 21.9704 31.4796 21.3315 31.7482C20.7788 31.9806 20.2437 32.2056 19.4895 32.2363C17.8276 32.2973 16.558 30.5638 15.4714 29.0094C13.2992 25.8375 11.6083 20.0709 13.8755 16.1468C14.9741 14.2223 16.9772 12.983 19.1183 12.95C20.0612 12.9307 20.9655 13.294 21.7583 13.6124C22.3645 13.8559 22.9055 14.0733 23.3486 14.0733C23.7378 14.0733 24.2636 13.8646 24.8765 13.6215C25.8423 13.2382 27.0242 12.7693 28.2283 12.8959C29.0517 12.9199 31.395 13.221 32.9068 15.4246L32.9036 15.4265Z" fill="white"/>
<path fill-rule="evenodd" clip-rule="evenodd" d="M86.9049 31.0443C87.6923 30.3332 88.0885 29.4119 88.0885 28.2786C88.0885 27.3593 87.8184 26.5881 87.2751 25.97C86.7358 25.3518 85.8933 24.8136 84.7467 24.3515C83.8122 23.9834 83.1658 23.6403 82.8116 23.3252C82.4034 22.9831 82.1983 22.547 82.1983 22.0219C82.1983 21.5457 82.3784 21.1446 82.7336 20.8155C83.1559 20.4474 83.7462 20.2624 84.4986 20.2624C85.4511 20.2624 86.3026 20.4664 87.057 20.8745L87.5922 19.1361C86.7908 18.715 85.7813 18.5039 84.5696 18.5039C83.2129 18.5039 82.1223 18.853 81.2999 19.5512C80.4774 20.2504 80.0652 21.1446 80.0652 22.2369C80.0652 23.9094 81.2318 25.1807 83.5631 26.05C84.4205 26.3651 85.0309 26.7082 85.4001 27.0763C85.7673 27.4454 85.9544 27.8985 85.9544 28.4397C85.9544 29.0438 85.7283 29.5279 85.281 29.89C84.8348 30.2511 84.2094 30.4332 83.405 30.4332C82.2864 30.4332 81.2589 30.1571 80.3233 29.603L79.8301 31.3804C80.6965 31.9336 81.8452 32.2097 83.2779 32.2097C84.8288 32.2097 86.0384 31.8206 86.9049 31.0443ZM53.6942 32.0126H51.422L50.1773 28.1025H45.851L44.6653 32.0126H42.4531L46.7404 18.701H49.3879L53.6942 32.0126ZM49.8025 26.4622L48.6769 22.9862C48.5578 22.6311 48.3337 21.7949 48.0055 20.4785H47.9655C47.8334 21.0447 47.6223 21.8809 47.3331 22.9862L46.2266 26.4622H49.8025ZM63.3683 30.9654C64.2558 30.0181 64.6991 28.7277 64.6991 27.0953C64.6991 25.6339 64.3199 24.4556 63.5645 23.5583C62.808 22.6631 61.8625 22.2159 60.7299 22.2159C59.2811 22.2159 58.2016 22.7891 57.4902 23.9354H57.4501L57.3311 22.414H55.4551C55.5071 23.4923 55.5341 24.5436 55.5341 25.5689V35.9047H57.6673V30.8683C58.2226 31.7766 59.1371 32.2297 60.4088 32.2297C61.5864 32.2297 62.5739 31.8086 63.3683 30.9654ZM62.5237 27.173C62.5237 26.2387 62.3136 25.4685 61.8913 24.8613C61.4301 24.2301 60.8108 23.9141 60.0343 23.9141C59.5081 23.9141 59.0298 24.0901 58.6026 24.4372C58.1743 24.7873 57.8942 25.2444 57.7631 25.8106C57.7046 26.0223 57.6714 26.2402 57.6641 26.4598V28.0612C57.6641 28.7584 57.8782 29.3475 58.3064 29.8297C58.7346 30.3098 59.2909 30.5509 59.9753 30.5509C60.7787 30.5509 61.4041 30.2398 61.8513 29.6226C62.2996 29.0035 62.5237 28.1872 62.5237 27.173ZM74.4104 30.9653C75.2979 30.0181 75.7411 28.7277 75.7411 27.0953C75.7411 25.6339 75.3609 24.4555 74.6065 23.5583C73.8481 22.663 72.9026 22.2159 71.771 22.2159C70.3212 22.2159 69.2416 22.7891 68.5312 23.9354H68.4912L68.3721 22.414H66.4961C66.5482 23.4923 66.5752 24.5436 66.5752 25.5689V35.9047H68.7083V30.8683C69.2636 31.7766 70.1781 32.2297 71.4498 32.2297C72.6284 32.2297 73.615 31.8086 74.4104 30.9653ZM73.5677 27.173C73.5677 26.2387 73.3566 25.4685 72.9343 24.8613C72.4731 24.2301 71.8557 23.9141 71.0793 23.9141C70.553 23.9141 70.0748 24.0901 69.6456 24.4372C69.2173 24.7873 68.9382 25.2444 68.8071 25.8106C68.7421 26.0747 68.707 26.2897 68.707 26.4598V28.0612C68.707 28.7584 68.9222 29.3475 69.3484 29.8297C69.7766 30.3088 70.3329 30.5509 71.0193 30.5509C71.8237 30.5509 72.4491 30.2398 72.8953 29.6226C73.3436 29.0035 73.5677 28.1872 73.5677 27.173ZM95.1577 24.0145H92.8064V28.6748C92.8064 29.8601 93.2206 30.4512 94.0511 30.4512C94.4323 30.4512 94.7484 30.4192 94.9986 30.3522L95.0576 31.9717C94.6374 32.1287 94.0841 32.2077 93.3987 32.2077C92.5563 32.2077 91.8979 31.9507 91.4227 31.4365C90.9494 30.9224 90.7113 30.0611 90.7113 28.8488V24.0105H89.3105V22.41H90.7113V20.6526L92.8064 20.0204V22.41H95.1577V24.0145H95.1577ZM104.481 30.7681C105.324 29.8208 105.746 28.6095 105.746 27.1341C105.746 25.6977 105.339 24.5274 104.52 23.6211C103.664 22.6869 102.532 22.2188 101.123 22.2188C99.6616 22.2188 98.4989 22.6929 97.6355 23.6412C96.774 24.5884 96.3418 25.8067 96.3418 27.2942C96.3418 28.7155 96.76 29.8939 97.5965 30.8291C98.4329 31.7624 99.5545 32.2295 100.965 32.2295C102.427 32.2295 103.6 31.7434 104.481 30.7681ZM103.534 27.1833C103.534 26.3041 103.344 25.5499 102.963 24.9187C102.516 24.1565 101.875 23.7754 101.046 23.7754C100.191 23.7754 99.5361 24.1565 99.0899 24.9187C98.7077 25.5499 98.5176 26.3171 98.5176 27.2233C98.5176 28.1036 98.7077 28.8598 99.0899 29.489C99.5511 30.2512 100.194 30.6323 101.028 30.6323C101.843 30.6323 102.483 30.2432 102.945 29.47C103.337 28.8238 103.534 28.0646 103.534 27.1833ZM112.009 24.2304C112.235 24.2296 112.46 24.2494 112.682 24.2894L112.68 22.2548C112.522 22.2298 112.344 22.2158 112.146 22.2158C111.591 22.2166 111.05 22.3969 110.605 22.73C110.118 23.1111 109.764 23.6202 109.538 24.2514H109.479L109.401 22.4149H107.543C107.586 23.4216 107.607 24.4291 107.605 25.4367V32.0125H109.738V26.9761C109.738 26.2129 109.916 25.5807 110.27 25.0806C110.679 24.5125 111.259 24.2304 112.009 24.2304ZM122.224 26.7592C122.229 27.0834 122.203 27.4073 122.146 27.7264H115.747C115.771 28.6747 116.081 29.4009 116.675 29.901C117.214 30.3472 117.912 30.5712 118.768 30.5712C119.716 30.5712 120.58 30.4212 121.358 30.1181L121.692 31.5975C120.783 31.9936 119.711 32.1907 118.473 32.1907C116.984 32.1907 115.816 31.7525 114.965 30.8783C114.117 30.0031 113.691 28.8267 113.691 27.3533C113.691 25.9069 114.087 24.7016 114.878 23.7403C115.707 22.7141 116.826 22.2009 118.235 22.2009C119.619 22.2009 120.666 22.7141 121.378 23.7403C121.941 24.5536 122.224 25.5618 122.224 26.7592ZM119.774 24.5665C120.063 25.0276 120.203 25.5728 120.188 26.206L115.746 26.204C115.811 25.5608 116.022 25.0066 116.377 24.5455C116.81 23.9653 117.378 23.6763 118.075 23.6763C118.837 23.6763 119.405 23.9724 119.774 24.5665Z" fill="white"/>
<path fill-rule="evenodd" clip-rule="evenodd" d="M71.1277 13.9371H70.0781V7.05518H71.1277V13.9371ZM43.7012 13.9171C44.1284 13.9661 44.6417 13.9951 45.235 13.9951C47.7493 13.9951 49.0801 12.7727 49.0801 10.5101C49.0801 8.54859 47.9535 7.34525 45.5072 7.34525C44.9025 7.34353 44.2987 7.38901 43.7012 7.48129V13.9171ZM44.75 8.23843C44.9831 8.19041 45.2643 8.17041 45.5945 8.17041C47.1483 8.17041 47.9737 9.01564 47.9737 10.5391C47.9737 12.2475 47.0613 13.1598 45.4584 13.1598C45.1182 13.1598 44.8761 13.1508 44.75 13.1308V8.23843ZM52.5906 14.0444C51.2119 14.0444 50.3184 13.0151 50.3184 11.6177C50.3184 10.1613 51.2309 9.12305 52.6686 9.12305C54.0274 9.12305 54.9409 10.1033 54.9409 11.5407C54.9409 13.0151 53.9994 14.0444 52.5906 14.0444ZM51.3887 11.5871C51.3887 10.5969 51.8739 9.88867 52.6313 9.88867C53.3687 9.88867 53.854 10.6069 53.854 11.5671C53.854 12.5094 53.3587 13.2666 52.6213 13.2666C51.8839 13.2666 51.3887 12.5584 51.3887 11.5871ZM62.8035 9.21977L61.3277 13.9371H60.3662L59.7549 11.8885C59.6028 11.3874 59.4763 10.879 59.3756 10.3651L59.3556 10.3651C59.2786 10.8792 59.1325 11.3944 58.9774 11.8885L58.3271 13.9371H57.3555L55.9668 9.21977H57.0444L57.5787 11.4624C57.7047 11.9965 57.8108 12.5007 57.8988 12.9768H57.9189C57.9959 12.5797 58.122 12.0836 58.3071 11.4724L58.9774 9.22077H59.8319L60.4732 11.4244C60.6283 11.9585 60.7544 12.4827 60.8524 12.9778H60.8804C60.9485 12.4927 61.0556 11.9775 61.2006 11.4244L61.7739 9.22077L62.8035 9.21977ZM67.1892 13.9374H68.2378H68.2378L68.2388 11.1126C68.2388 9.88025 67.5885 9.12305 66.5979 9.12305C65.9566 9.12305 65.3842 9.44313 65.1021 9.94727H65.0731L65.0241 9.21907H64.1016C64.1306 9.7042 64.1406 10.1513 64.1406 10.5684V13.9374H65.1892V11.1316C65.1892 10.5104 65.6164 9.97628 66.2377 9.97628C66.869 9.97628 67.1892 10.3944 67.1892 11.2286V13.9374ZM72.6797 11.6175C72.6797 13.0149 73.5742 14.0442 74.9519 14.0442C76.3597 14.0442 77.3022 13.0149 77.3012 11.5405C77.3012 10.1031 76.3887 9.1228 75.029 9.1228C73.5922 9.1228 72.6797 10.1611 72.6797 11.6175ZM74.9888 9.88867C74.2314 9.88867 73.7461 10.5969 73.7461 11.5871C73.7461 12.5584 74.2424 13.2666 74.9778 13.2666C75.7162 13.2666 76.2104 12.5094 76.2104 11.5671C76.2114 10.6069 75.7272 9.88867 74.9888 9.88867ZM81.3594 13.394L81.4354 13.9371H81.4355L82.381 13.9381C82.334 13.657 82.3129 13.288 82.3129 12.8118V11.0743C82.3129 9.77298 81.6906 9.1228 80.4579 9.1228C79.8186 9.1228 79.2743 9.25884 78.838 9.53091L79.0511 10.2201C79.4104 9.98704 79.8186 9.87001 80.2838 9.87001C80.9342 9.87001 81.2634 10.1811 81.2634 10.8023V10.8893C79.5154 10.8893 78.5059 11.4915 78.5059 12.6558C78.5059 13.452 79.1062 14.0442 79.9516 14.0442C80.544 14.0442 81.0112 13.8311 81.3314 13.394H81.3594ZM81.2919 11.5874C80.1273 11.5874 79.543 11.8695 79.543 12.5387C79.543 13.0338 79.8441 13.2759 80.2624 13.2759C80.7956 13.2759 81.2919 12.8688 81.2919 12.3156V11.5874ZM87.354 13.1799L87.403 13.9371H88.3365C88.3085 13.549 88.2975 13.1218 88.2975 12.6657V7.05518H87.2479V9.76292H87.2269C86.9748 9.3348 86.5275 9.12174 85.8962 9.12174C84.7036 9.12174 83.8301 10.161 83.8301 11.6364C83.8301 13.0438 84.6725 14.0441 85.8102 14.0441C86.5175 14.0441 87.0238 13.752 87.325 13.1799H87.354ZM87.2479 11.1613C87.2479 10.5011 86.8107 9.93799 86.1433 9.93799C85.3659 9.93799 84.8906 10.6272 84.8906 11.5974C84.8906 12.5487 85.3839 13.1999 86.1223 13.1999C86.7816 13.1999 87.2479 12.6267 87.2479 11.9475V11.1613ZM92.6817 11.6174C92.6817 13.0148 93.5751 14.0441 94.9529 14.0441C96.3626 14.0441 97.3042 13.0148 97.3031 11.5404C97.3031 10.103 96.3906 9.12275 95.0309 9.12275C93.5941 9.12275 92.6817 10.161 92.6817 11.6174ZM94.9919 9.88896C94.2355 9.88896 93.7502 10.5971 93.7502 11.5874C93.7502 12.5587 94.2455 13.2669 94.9819 13.2669C95.7203 13.2669 96.2146 12.5097 96.2146 11.5674C96.2166 10.6072 95.7313 9.88896 94.9919 9.88896ZM101.892 13.9374H102.942V11.1116C102.942 9.87928 102.291 9.12207 101.3 9.12207C100.66 9.12207 100.086 9.44316 99.8052 9.9473H99.7762L99.7272 9.2191H98.8047C98.8337 9.70423 98.8437 10.1514 98.8437 10.5685V13.9374H99.8933V11.1316C99.8933 10.5105 100.32 9.97631 100.941 9.97631C101.572 9.97631 101.892 10.3944 101.892 11.2287V13.9374ZM109.997 10.006H108.843V12.2966C108.843 12.8798 109.045 13.1708 109.453 13.1708C109.638 13.1708 109.793 13.1508 109.919 13.1218L109.948 13.918C109.744 13.9961 109.472 14.0351 109.134 14.0351C108.308 14.0351 107.813 13.579 107.813 12.3846V10.006H107.125V9.21976H107.813V8.35552L108.843 8.04443V9.21876H109.997V10.006ZM114.502 13.9371H115.549V11.1313C115.549 9.89796 114.939 9.12174 113.94 9.12174C113.33 9.12174 112.852 9.37481 112.522 9.88896H112.501V7.05518H111.453V13.9371H112.501V11.0933C112.501 10.3461 113.007 9.97698 113.55 9.97698C114.183 9.97698 114.502 10.4041 114.502 11.2483V13.9371ZM121.235 11.8305H118.089C118.109 12.7238 118.7 13.2279 119.575 13.2279C120.041 13.2279 120.469 13.1499 120.847 13.0049L121.01 13.7331C120.564 13.9271 120.039 14.0241 119.427 14.0241C117.952 14.0241 117.078 13.0919 117.078 11.6465C117.078 10.2001 117.973 9.11279 119.309 9.11279C120.515 9.11279 121.271 10.006 121.271 11.3554C121.278 11.5147 121.266 11.6741 121.235 11.8305ZM119.236 9.84082C118.634 9.84082 118.158 10.365 118.09 11.0832L119.236 9.84082ZM118.09 11.0832H120.274H118.09Z" fill="white"/>
</svg>
