<svg width="136" height="40" viewBox="0 0 136 40" fill="none" xmlns="http://www.w3.org/2000/svg">
<path d="M130.75 40H5.75C2.95 40 0.75 37.8 0.75 35V5C0.75 2.2 2.95 0 5.75 0H130.75C133.55 0 135.75 2.2 135.75 5V35C135.75 37.8 133.55 40 130.75 40Z" fill="black"/>
<path fill-rule="evenodd" clip-rule="evenodd" d="M5.75 0H130.75C133.55 0 135.75 2.3 135.75 5V35C135.75 37.8 133.55 40 130.75 40H5.75C2.95 40 0.75 37.8 0.75 35V5C0.75 2.3 2.95 0 5.75 0ZM134.95 5C134.95 2.7 133.05 0.8 130.75 0.8H5.75C3.45 0.8 1.55 2.7 1.55 5V35C1.55 37.3 3.45 39.2 5.75 39.2H130.75C133.05 39.2 134.95 37.3 134.95 35V5Z" fill="#A6A6A6"/>
<path fill-rule="evenodd" clip-rule="evenodd" d="M47.4504 12.2004C47.9504 11.7004 48.1504 11.0004 48.1504 10.2004L48.1504 10.2004V9.80039H45.2504V10.6004H47.4504C47.4504 11.1004 47.2504 11.5004 46.9504 11.8004C46.4504 12.3004 45.9504 12.5004 45.2504 12.5004C44.6504 12.5004 44.1504 12.2004 43.6504 11.8004C43.1504 11.4004 42.9504 10.8004 42.9504 10.1004C42.9504 9.40039 43.1504 8.80039 43.6504 8.40039C44.0504 7.90039 44.6504 7.70039 45.2504 7.70039C45.9504 7.70039 46.4504 7.90039 46.8504 8.40039L47.3504 7.90039C47.1504 7.60039 46.8504 7.40039 46.4504 7.20039C46.0504 7.00039 45.6504 6.90039 45.2504 6.90039C44.3504 6.90039 43.6504 7.20039 43.0504 7.80039C42.4504 8.40039 42.1504 9.10039 42.1504 10.0004C42.1504 10.9004 42.4504 11.6004 43.0504 12.2004C43.6504 12.8004 44.3504 13.1004 45.2504 13.1004C46.1504 13.1004 46.8504 12.8004 47.4504 12.2004ZM50.05 7.70049H52.75V7.00049H49.25V13.0005H52.75V12.2005H50.05V10.3005H52.55V9.60049H50.05V7.70049ZM56.0508 13.0005H55.2508V7.70049H53.5508V7.00049H57.7508V7.70049H56.0508V13.0005ZM60.6504 7.00039V13.0004H61.4504V7.00039H60.6504ZM64.7504 13.0004H64.0504V7.70039H62.3504V7.00039H66.4504V7.70039H64.7504V13.0004ZM72.1508 13.1004C73.0508 13.1004 73.7508 12.8004 74.3508 12.2004C74.9508 11.6004 75.2508 10.9004 75.2508 10.0004C75.2508 9.10039 74.9508 8.40039 74.3508 7.80039C73.7508 7.20039 73.0508 6.90039 72.1508 6.90039C71.2508 6.90039 70.5508 7.20039 69.9508 7.80039C69.3508 8.40039 69.0508 9.10039 69.0508 10.0004C69.0508 10.9004 69.3508 11.6004 69.9508 12.2004C70.5508 12.8004 71.2508 13.1004 72.1508 13.1004ZM70.5504 11.7004C70.9504 12.1004 71.5504 12.4004 72.1504 12.4004C72.7504 12.4004 73.3504 12.2004 73.7504 11.7004C74.1504 11.3004 74.4504 10.7004 74.4504 10.0004C74.4504 9.30039 74.2504 8.70039 73.7504 8.30039C73.3504 7.90039 72.7504 7.60039 72.1504 7.60039C71.5504 7.60039 70.9504 7.80039 70.5504 8.30039C70.1504 8.70039 69.8504 9.30039 69.8504 10.0004C69.8504 10.7004 70.0504 11.3004 70.5504 11.7004ZM76.3504 7.00039V13.0004H77.0504V8.10039L80.1504 13.0004H80.9504V7.00039H80.1504V11.7004L77.2504 7.00039H76.3504Z" fill="white"/>
<path d="M48.1504 10.2004L48.1261 10.1034L48.0504 10.1223V10.2004H48.1504ZM47.4504 12.2004L47.3797 12.1297L47.4504 12.2004ZM48.1504 10.2004L48.1747 10.2974L48.2504 10.2785V10.2004H48.1504ZM48.1504 9.80039H48.2504V9.70039H48.1504V9.80039ZM45.2504 9.80039V9.70039H45.1504V9.80039H45.2504ZM45.2504 10.6004H45.1504V10.7004H45.2504V10.6004ZM47.4504 10.6004H47.5504V10.5004H47.4504V10.6004ZM46.9504 11.8004L47.0211 11.8711L47.0211 11.8711L46.9504 11.8004ZM43.6504 8.40039L43.7129 8.47848L43.7215 8.47154L43.7285 8.46286L43.6504 8.40039ZM46.8504 8.40039L46.7723 8.46286L46.8421 8.5501L46.9211 8.4711L46.8504 8.40039ZM47.3504 7.90039L47.4211 7.9711L47.4791 7.91313L47.4336 7.84492L47.3504 7.90039ZM46.4504 7.20039L46.4951 7.11095L46.4951 7.11095L46.4504 7.20039ZM43.0504 7.80039L43.1211 7.8711H43.1211L43.0504 7.80039ZM43.0504 12.2004L42.9797 12.2711L42.9797 12.2711L43.0504 12.2004ZM52.75 7.70049V7.80049H52.85V7.70049H52.75ZM50.05 7.70049V7.60049H49.95V7.70049H50.05ZM52.75 7.00049H52.85V6.90049H52.75V7.00049ZM49.25 7.00049V6.90049H49.15V7.00049H49.25ZM49.25 13.0005H49.15V13.1005H49.25V13.0005ZM52.75 13.0005V13.1005H52.85V13.0005H52.75ZM52.75 12.2005H52.85V12.1005H52.75V12.2005ZM50.05 12.2005H49.95V12.3005H50.05V12.2005ZM50.05 10.3005V10.2005H49.95V10.3005H50.05ZM52.55 10.3005V10.4005H52.65V10.3005H52.55ZM52.55 9.60049H52.65V9.50049H52.55V9.60049ZM50.05 9.60049H49.95V9.70049H50.05V9.60049ZM55.2508 13.0005H55.1508V13.1005H55.2508V13.0005ZM56.0508 13.0005V13.1005H56.1508V13.0005H56.0508ZM55.2508 7.70049H55.3508V7.60049H55.2508V7.70049ZM53.5508 7.70049H53.4508V7.80049H53.5508V7.70049ZM53.5508 7.00049V6.90049H53.4508V7.00049H53.5508ZM57.7508 7.00049H57.8508V6.90049H57.7508V7.00049ZM57.7508 7.70049V7.80049H57.8508V7.70049H57.7508ZM56.0508 7.70049V7.60049H55.9508V7.70049H56.0508ZM60.6504 13.0004H60.5504V13.1004H60.6504V13.0004ZM60.6504 7.00039V6.90039H60.5504V7.00039H60.6504ZM61.4504 13.0004V13.1004H61.5504V13.0004H61.4504ZM61.4504 7.00039H61.5504V6.90039H61.4504V7.00039ZM64.0504 13.0004H63.9504V13.1004H64.0504V13.0004ZM64.7504 13.0004V13.1004H64.8504V13.0004H64.7504ZM64.0504 7.70039H64.1504V7.60039H64.0504V7.70039ZM62.3504 7.70039H62.2504V7.80039H62.3504V7.70039ZM62.3504 7.00039V6.90039H62.2504V7.00039H62.3504ZM66.4504 7.00039H66.5504V6.90039H66.4504V7.00039ZM66.4504 7.70039V7.80039H66.5504V7.70039H66.4504ZM64.7504 7.70039V7.60039H64.6504V7.70039H64.7504ZM74.3508 12.2004L74.2801 12.1297L74.2801 12.1297L74.3508 12.2004ZM74.3508 7.80039L74.2801 7.8711L74.2801 7.8711L74.3508 7.80039ZM69.9508 7.80039L70.0215 7.8711V7.8711L69.9508 7.80039ZM69.9508 12.2004L70.0215 12.1297V12.1297L69.9508 12.2004ZM70.5504 11.7004L70.6215 11.6292L70.6129 11.6223L70.5504 11.7004ZM73.7504 11.7004L73.6793 11.6292L73.6723 11.6379L73.7504 11.7004ZM73.7504 8.30039L73.6793 8.37154L73.6879 8.37848L73.7504 8.30039ZM70.5504 8.30039L70.6215 8.37154L70.6285 8.36286L70.5504 8.30039ZM76.3504 13.0004H76.2504V13.1004H76.3504V13.0004ZM76.3504 7.00039V6.90039H76.2504V7.00039H76.3504ZM77.0504 13.0004V13.1004H77.1504V13.0004H77.0504ZM77.0504 8.10039L77.1349 8.04693L76.9504 7.75529V8.10039H77.0504ZM80.1504 13.0004L80.0659 13.0539L80.0953 13.1004H80.1504V13.0004ZM80.9504 13.0004V13.1004H81.0504V13.0004H80.9504ZM80.9504 7.00039H81.0504V6.90039H80.9504V7.00039ZM80.1504 7.00039V6.90039H80.0504V7.00039H80.1504ZM80.1504 11.7004L80.0653 11.7529L80.2504 12.0529V11.7004H80.1504ZM77.2504 7.00039L77.3355 6.94788L77.3062 6.90039H77.2504V7.00039ZM48.0504 10.2004C48.0504 10.985 47.8543 11.655 47.3797 12.1297L47.5211 12.2711C48.0465 11.7457 48.2504 11.0158 48.2504 10.2004H48.0504ZM48.1261 10.1034L48.1261 10.1034L48.1746 10.2974L48.1747 10.2974L48.1261 10.1034ZM48.0504 9.80039V10.2004H48.2504V9.80039H48.0504ZM45.2504 9.90039H48.1504V9.70039H45.2504V9.90039ZM45.3504 10.6004V9.80039H45.1504V10.6004H45.3504ZM47.4504 10.5004H45.2504V10.7004H47.4504V10.5004ZM47.0211 11.8711C47.3378 11.5544 47.5504 11.1297 47.5504 10.6004H47.3504C47.3504 11.0711 47.163 11.4464 46.8797 11.7297L47.0211 11.8711ZM45.2504 12.6004C45.6102 12.6004 45.9236 12.5489 46.2133 12.4304C46.503 12.3119 46.7638 12.1284 47.0211 11.8711L46.8797 11.7297C46.637 11.9724 46.3978 12.1389 46.1375 12.2453C45.8772 12.3518 45.5906 12.4004 45.2504 12.4004V12.6004ZM43.5879 11.8785C44.0921 12.2818 44.6149 12.6004 45.2504 12.6004V12.4004C44.6859 12.4004 44.2087 12.119 43.7129 11.7223L43.5879 11.8785ZM42.8504 10.1004C42.8504 10.8188 43.0562 11.4531 43.5879 11.8785L43.7129 11.7223C43.2446 11.3477 43.0504 10.782 43.0504 10.1004H42.8504ZM43.5879 8.3223C43.0562 8.74767 42.8504 9.38197 42.8504 10.1004H43.0504C43.0504 9.41881 43.2446 8.85311 43.7129 8.47848L43.5879 8.3223ZM45.2504 7.60039C44.6294 7.60039 43.9965 7.80774 43.5723 8.33792L43.7285 8.46286C44.1043 7.99305 44.6714 7.80039 45.2504 7.80039V7.60039ZM46.9285 8.33792C46.5057 7.80944 45.9741 7.60039 45.2504 7.60039V7.80039C45.9267 7.80039 46.3951 7.99134 46.7723 8.46286L46.9285 8.33792ZM47.2797 7.82968L46.7797 8.32968L46.9211 8.4711L47.4211 7.9711L47.2797 7.82968ZM46.4057 7.28983C46.8014 7.4877 47.082 7.67811 47.2672 7.95586L47.4336 7.84492C47.2188 7.52267 46.8994 7.31308 46.4951 7.11095L46.4057 7.28983ZM45.2504 7.00039C45.6331 7.00039 46.0179 7.09595 46.4057 7.28983L46.4951 7.11095C46.0829 6.90483 45.6677 6.80039 45.2504 6.80039V7.00039ZM43.1211 7.8711C43.7023 7.28989 44.3769 7.00039 45.2504 7.00039V6.80039C44.3239 6.80039 43.5985 7.11089 42.9797 7.72968L43.1211 7.8711ZM42.2504 10.0004C42.2504 9.12686 42.5399 8.45231 43.1211 7.8711L42.9797 7.72968C42.3609 8.34847 42.0504 9.07392 42.0504 10.0004H42.2504ZM43.1211 12.1297C42.5399 11.5485 42.2504 10.8739 42.2504 10.0004H42.0504C42.0504 10.9269 42.3609 11.6523 42.9797 12.2711L43.1211 12.1297ZM45.2504 13.0004C44.3769 13.0004 43.7023 12.7109 43.1211 12.1297L42.9797 12.2711C43.5985 12.8899 44.3239 13.2004 45.2504 13.2004V13.0004ZM47.3797 12.1297C46.7985 12.7109 46.1239 13.0004 45.2504 13.0004V13.2004C46.1769 13.2004 46.9023 12.8899 47.5211 12.2711L47.3797 12.1297ZM52.75 7.60049H50.05V7.80049H52.75V7.60049ZM52.65 7.00049V7.70049H52.85V7.00049H52.65ZM49.25 7.10049H52.75V6.90049H49.25V7.10049ZM49.35 13.0005V7.00049H49.15V13.0005H49.35ZM52.75 12.9005H49.25V13.1005H52.75V12.9005ZM52.65 12.2005V13.0005H52.85V12.2005H52.65ZM50.05 12.3005H52.75V12.1005H50.05V12.3005ZM49.95 10.3005V12.2005H50.15V10.3005H49.95ZM52.55 10.2005H50.05V10.4005H52.55V10.2005ZM52.45 9.60049V10.3005H52.65V9.60049H52.45ZM50.05 9.70049H52.55V9.50049H50.05V9.70049ZM49.95 7.70049V9.60049H50.15V7.70049H49.95ZM55.2508 13.1005H56.0508V12.9005H55.2508V13.1005ZM55.1508 7.70049V13.0005H55.3508V7.70049H55.1508ZM53.5508 7.80049H55.2508V7.60049H53.5508V7.80049ZM53.4508 7.00049V7.70049H53.6508V7.00049H53.4508ZM57.7508 6.90049H53.5508V7.10049H57.7508V6.90049ZM57.8508 7.70049V7.00049H57.6508V7.70049H57.8508ZM56.0508 7.80049H57.7508V7.60049H56.0508V7.80049ZM56.1508 13.0005V7.70049H55.9508V13.0005H56.1508ZM60.7504 13.0004V7.00039H60.5504V13.0004H60.7504ZM61.4504 12.9004H60.6504V13.1004H61.4504V12.9004ZM61.3504 7.00039V13.0004H61.5504V7.00039H61.3504ZM60.6504 7.10039H61.4504V6.90039H60.6504V7.10039ZM64.0504 13.1004H64.7504V12.9004H64.0504V13.1004ZM63.9504 7.70039V13.0004H64.1504V7.70039H63.9504ZM62.3504 7.80039H64.0504V7.60039H62.3504V7.80039ZM62.2504 7.00039V7.70039H62.4504V7.00039H62.2504ZM66.4504 6.90039H62.3504V7.10039H66.4504V6.90039ZM66.5504 7.70039V7.00039H66.3504V7.70039H66.5504ZM64.7504 7.80039H66.4504V7.60039H64.7504V7.80039ZM64.8504 13.0004V7.70039H64.6504V13.0004H64.8504ZM74.2801 12.1297C73.6989 12.7109 73.0243 13.0004 72.1508 13.0004V13.2004C73.0772 13.2004 73.8027 12.8899 74.4215 12.2711L74.2801 12.1297ZM75.1508 10.0004C75.1508 10.8739 74.8613 11.5485 74.2801 12.1297L74.4215 12.2711C75.0403 11.6523 75.3508 10.9269 75.3508 10.0004H75.1508ZM74.2801 7.8711C74.8613 8.45231 75.1508 9.12686 75.1508 10.0004H75.3508C75.3508 9.07392 75.0403 8.34847 74.4215 7.72968L74.2801 7.8711ZM72.1508 7.00039C73.0243 7.00039 73.6989 7.28989 74.2801 7.8711L74.4215 7.72968C73.8027 7.11089 73.0773 6.80039 72.1508 6.80039V7.00039ZM70.0215 7.8711C70.6027 7.28989 71.2773 7.00039 72.1508 7.00039V6.80039C71.2243 6.80039 70.4989 7.11089 69.8801 7.72968L70.0215 7.8711ZM69.1508 10.0004C69.1508 9.12686 69.4403 8.45231 70.0215 7.8711L69.8801 7.72968C69.2613 8.34847 68.9508 9.07392 68.9508 10.0004H69.1508ZM70.0215 12.1297C69.4403 11.5485 69.1508 10.8739 69.1508 10.0004H68.9508C68.9508 10.9269 69.2613 11.6523 69.8801 12.2711L70.0215 12.1297ZM72.1508 13.0004C71.2772 13.0004 70.6027 12.7109 70.0215 12.1297L69.8801 12.2711C70.4989 12.8899 71.2243 13.2004 72.1508 13.2004V13.0004ZM72.1504 12.3004C71.5816 12.3004 71.006 12.0145 70.6211 11.6297L70.4797 11.7711C70.8948 12.1862 71.5192 12.5004 72.1504 12.5004V12.3004ZM73.6723 11.6379C73.2964 12.1077 72.7294 12.3004 72.1504 12.3004V12.5004C72.7714 12.5004 73.4043 12.293 73.8285 11.7629L73.6723 11.6379ZM74.3504 10.0004C74.3504 10.6714 74.0627 11.2466 73.6797 11.6297L73.8211 11.7711C74.238 11.3542 74.5504 10.7294 74.5504 10.0004H74.3504ZM73.6879 8.37848C74.1562 8.75311 74.3504 9.31881 74.3504 10.0004H74.5504C74.5504 9.28197 74.3446 8.64767 73.8129 8.2223L73.6879 8.37848ZM72.1504 7.70039C72.7192 7.70039 73.2948 7.98625 73.6797 8.3711L73.8211 8.22968C73.4059 7.81453 72.7816 7.50039 72.1504 7.50039V7.70039ZM70.6285 8.36286C71.0043 7.89305 71.5714 7.70039 72.1504 7.70039V7.50039C71.5294 7.50039 70.8965 7.70774 70.4723 8.23792L70.6285 8.36286ZM69.9504 10.0004C69.9504 9.32938 70.238 8.75416 70.6211 8.3711L70.4797 8.22968C70.0627 8.64662 69.7504 9.27141 69.7504 10.0004H69.9504ZM70.6129 11.6223C70.1446 11.2477 69.9504 10.682 69.9504 10.0004H69.7504C69.7504 10.7188 69.9562 11.3531 70.4879 11.7785L70.6129 11.6223ZM76.4504 13.0004V7.00039H76.2504V13.0004H76.4504ZM77.0504 12.9004H76.3504V13.1004H77.0504V12.9004ZM76.9504 8.10039V13.0004H77.1504V8.10039H76.9504ZM80.2349 12.9469L77.1349 8.04693L76.9659 8.15385L80.0659 13.0539L80.2349 12.9469ZM80.9504 12.9004H80.1504V13.1004H80.9504V12.9004ZM80.8504 7.00039V13.0004H81.0504V7.00039H80.8504ZM80.1504 7.10039H80.9504V6.90039H80.1504V7.10039ZM80.2504 11.7004V7.00039H80.0504V11.7004H80.2504ZM77.1653 7.0529L80.0653 11.7529L80.2355 11.6479L77.3355 6.94788L77.1653 7.0529ZM76.3504 7.10039H77.2504V6.90039H76.3504V7.10039Z" fill="white"/>
<path fill-rule="evenodd" clip-rule="evenodd" d="M48.4496 23.0996V24.8996H52.7496C52.6496 25.8996 52.2496 26.6996 51.7496 27.1996C51.1496 27.7996 50.1496 28.4996 48.4496 28.4996C45.7496 28.4996 43.7496 26.3996 43.7496 23.6996C43.7496 20.9996 45.8496 18.8996 48.4496 18.8996C49.8496 18.8996 50.9496 19.4996 51.7496 20.1996L53.0496 18.8996C51.9496 17.8996 50.5496 17.0996 48.5496 17.0996C44.9496 17.0996 41.8496 20.0996 41.8496 23.6996C41.8496 27.2996 44.9496 30.2996 48.5496 30.2996C50.5496 30.2996 51.9496 29.6996 53.1496 28.3996C54.3496 27.1996 54.7496 25.4996 54.7496 24.1996C54.7496 23.7996 54.7496 23.3996 54.6496 23.0996H48.4496ZM59.55 21.7993C57.15 21.7993 55.25 23.5993 55.25 26.0993C55.25 28.4993 57.15 30.3993 59.55 30.3993C61.95 30.3993 63.85 28.5993 63.85 26.0993C63.85 23.4993 61.95 21.7993 59.55 21.7993ZM64.5496 26.0996C64.5496 23.5996 66.4496 21.7996 68.8496 21.7996C71.2496 21.7996 73.1496 23.4996 73.1496 26.0996C73.1496 28.5996 71.2496 30.3996 68.8496 30.3996C66.4496 30.3996 64.5496 28.4996 64.5496 26.0996ZM66.4492 25.9999C66.4492 27.4999 67.5492 28.5999 68.8492 28.5999C70.1492 28.5999 71.2492 27.4999 71.2492 25.9999C71.2492 24.3999 70.1492 23.3999 68.8492 23.3999C67.5492 23.3999 66.4492 24.4999 66.4492 25.9999ZM57.1496 25.9996C57.1496 27.4996 58.2496 28.5996 59.5496 28.5996C60.8496 28.5996 61.9496 27.4996 61.9496 25.9996C61.9496 24.3996 60.8496 23.3996 59.5496 23.3996C58.2496 23.3996 57.1496 24.4996 57.1496 25.9996ZM90.25 21.7993C92.45 21.7993 93.45 23.4993 93.85 24.4993L94.05 24.9993L88.35 27.3993C88.85 28.2993 89.45 28.6993 90.45 28.6993C91.45 28.6993 92.05 28.1993 92.55 27.4993L93.95 28.4993C93.55 29.1993 92.35 30.3993 90.45 30.3993C88.05 30.3993 86.25 28.4993 86.25 26.0993C86.25 23.4993 88.05 21.7993 90.25 21.7993ZM88.0496 25.8996C88.0496 24.2996 89.3496 23.3996 90.2496 23.3996C90.9496 23.3996 91.6496 23.7996 91.8496 24.2996L88.0496 25.8996ZM85.2496 29.9996H83.3496V17.4996H85.2496V29.9996ZM80.3492 22.6997C79.8492 22.1997 79.0492 21.6997 78.0492 21.6997C75.9492 21.6997 73.9492 23.5997 73.9492 25.9997C73.9492 28.3997 75.8492 30.1997 78.0492 30.1997C79.0492 30.1997 79.8492 29.6997 80.2492 29.1997H80.3492V29.7997C80.3492 31.3997 79.4492 32.2997 78.0492 32.2997C76.9492 32.2997 76.1492 31.4997 75.9492 30.7997L74.3492 31.4997C74.8492 32.5997 76.0492 33.9997 78.1492 33.9997C80.3492 33.9997 82.1492 32.6997 82.1492 29.5997V21.9997H80.3492L80.3492 22.6997ZM75.75 25.9999C75.75 27.4999 76.85 28.5999 78.15 28.5999C79.45 28.5999 80.45 27.4999 80.45 25.9999C80.45 24.4999 79.45 23.3999 78.15 23.3999C76.85 23.3999 75.75 24.4999 75.75 25.9999ZM102.55 17.4996H98.0496V29.9996H99.9496V25.2996H102.55C104.65 25.2996 106.65 23.7996 106.65 21.3996C106.65 18.9996 104.65 17.4996 102.55 17.4996ZM99.9492 23.4997H102.649C103.949 23.4997 104.749 22.3997 104.849 21.2997C104.849 20.3997 104.049 19.1997 102.649 19.1997H99.9492V23.4997ZM114.15 21.6997C112.75 21.6997 111.35 22.2997 110.85 23.5997L112.55 24.2997C112.95 23.5997 113.55 23.3997 114.25 23.3997C115.25 23.3997 116.15 23.9997 116.25 24.9997V25.0997C115.95 24.8997 115.15 24.5997 114.35 24.5997C112.55 24.5997 110.75 25.5997 110.75 27.3997C110.75 29.0997 112.25 30.1997 113.85 30.1997C115.15 30.1997 115.75 29.5997 116.25 28.9997H116.35V29.9997H118.15V25.1997C117.95 22.9997 116.25 21.6997 114.15 21.6997ZM112.449 27.4997C112.449 28.2997 113.349 28.5997 113.949 28.5997C114.949 28.5997 115.949 27.7997 116.149 26.5997L116.079 26.5714L116 26.5393C115.564 26.3613 115.168 26.1997 114.449 26.1997C113.549 26.1997 112.449 26.4997 112.449 27.4997ZM124.45 21.9996L122.35 27.3996H122.25L120.05 21.9996H118.05L121.35 29.5996L119.45 33.7996H121.35L126.45 21.9996H124.45ZM109.55 29.9996H107.65V17.4996H109.55V29.9996Z" fill="white"/>
<path d="M11.15 7.5C10.85 7.8 10.75 8.3 10.75 8.9V31C10.75 31.6 10.95 32.1 11.25 32.4L11.35 32.5L23.75 20.1V19.9L11.15 7.5Z" fill="url(#paint0_linear_686_13292)"/>
<path d="M27.7504 24.3008L23.6504 20.2008V19.9008L27.7504 15.8008L27.8504 15.9008L32.7504 18.7008C34.1504 19.5008 34.1504 20.8008 32.7504 21.6008L27.7504 24.3008Z" fill="url(#paint1_linear_686_13292)"/>
<path d="M27.8504 24.2L23.6504 20L11.1504 32.5C11.6504 33 12.3504 33 13.2504 32.6L27.8504 24.2Z" fill="url(#paint2_linear_686_13292)"/>
<path d="M27.8504 15.8006L13.2504 7.5006C12.3504 7.0006 11.6504 7.1006 11.1504 7.6006L23.6504 20.0006L27.8504 15.8006H27.8504Z" fill="url(#paint3_linear_686_13292)"/>
<path opacity="0.2" d="M27.7504 24.0996L13.2504 32.2996C12.4504 32.7996 11.7504 32.6996 11.2504 32.2996L11.1504 32.3996L11.2504 32.4996C11.7504 32.8996 12.4504 32.9996 13.2504 32.4996L27.7504 24.0996Z" fill="black"/>
<path opacity="0.12" fill-rule="evenodd" clip-rule="evenodd" d="M27.75 24.1L32.75 21.3C33.35 20.9 33.75 20.5 33.75 20C33.75 20.5 33.45 21 32.75 21.4L27.85 24.2L27.75 24.1ZM10.75 30.9C10.75 31.0417 10.7556 31.1778 10.768 31.307C10.7562 31.2081 10.75 31.1056 10.75 31V30.9ZM10.768 31.307C10.8165 31.7114 10.9595 32.0548 11.1597 32.3L10.768 31.307ZM11.1597 32.3H11.25V32.4C11.2188 32.3688 11.1887 32.3354 11.1597 32.3Z" fill="black"/>
<path opacity="0.25" d="M13.25 7.60027L32.75 18.7003C33.35 19.1003 33.75 19.5003 33.75 20.0003C33.75 19.5003 33.45 19.0003 32.75 18.6003L13.25 7.50027C11.85 6.70027 10.75 7.30027 10.75 8.90027V9.00027C10.75 7.50027 11.85 6.80027 13.25 7.60027Z" fill="white"/>
<defs>
<linearGradient id="paint0_linear_686_13292" x1="26.9133" y1="17.1525" x2="7.04524" y2="11.7805" gradientUnits="userSpaceOnUse">
<stop stop-color="#00A0FF"/>
<stop offset="0.007" stop-color="#00A1FF"/>
<stop offset="0.26" stop-color="#00BEFF"/>
<stop offset="0.512" stop-color="#00D2FF"/>
<stop offset="0.76" stop-color="#00DFFF"/>
<stop offset="1" stop-color="#00E3FF"/>
</linearGradient>
<linearGradient id="paint1_linear_686_13292" x1="34.5844" y1="11.868" x2="10.3874" y2="11.868" gradientUnits="userSpaceOnUse">
<stop stop-color="#FFE000"/>
<stop offset="0.409" stop-color="#FFBD00"/>
<stop offset="0.775" stop-color="#FFA500"/>
<stop offset="1" stop-color="#FF9C00"/>
</linearGradient>
<linearGradient id="paint2_linear_686_13292" x1="40.3215" y1="10.922" x2="24.3563" y2="-15.882" gradientUnits="userSpaceOnUse">
<stop stop-color="#FF3A44"/>
<stop offset="1" stop-color="#C31162"/>
</linearGradient>
<linearGradient id="paint3_linear_686_13292" x1="14.6623" y1="45.7281" x2="21.7356" y2="33.7418" gradientUnits="userSpaceOnUse">
<stop stop-color="#32A071"/>
<stop offset="0.069" stop-color="#2DA771"/>
<stop offset="0.476" stop-color="#15CF74"/>
<stop offset="0.801" stop-color="#06E775"/>
<stop offset="1" stop-color="#00F076"/>
</linearGradient>
</defs>
</svg>
