<svg width="136" height="40" viewBox="0 0 136 40" fill="none" xmlns="http://www.w3.org/2000/svg">
<path d="M130.75 40H5.75C2.95 40 0.75 37.8 0.75 35V5C0.75 2.2 2.95 0 5.75 0H130.75C133.55 0 135.75 2.2 135.75 5V35C135.75 37.8 133.55 40 130.75 40Z" fill="black"/>
<path fill-rule="evenodd" clip-rule="evenodd" d="M5.75 0H130.75C133.55 0 135.75 2.3 135.75 5V35C135.75 37.8 133.55 40 130.75 40H5.75C2.95 40 0.75 37.8 0.75 35V5C0.75 2.3 2.95 0 5.75 0ZM134.95 5C134.95 2.7 133.05 0.8 130.75 0.8H5.75C3.45 0.8 1.55 2.7 1.55 5V35C1.55 37.3 3.45 39.2 5.75 39.2H130.75C133.05 39.2 134.95 37.3 134.95 35V5Z" fill="#A6A6A6"/>
<path fill-rule="evenodd" clip-rule="evenodd" d="M47.4504 12.1999C47.9504 11.6999 48.1504 10.9999 48.1504 10.1999L48.1504 10.1999V9.7999H45.2504V10.5999H47.4504C47.4504 11.0999 47.2504 11.4999 46.9504 11.7999C46.4504 12.2999 45.9504 12.4999 45.2504 12.4999C44.6504 12.4999 44.1504 12.1999 43.6504 11.7999C43.1504 11.3999 42.9504 10.7999 42.9504 10.0999C42.9504 9.3999 43.1504 8.7999 43.6504 8.3999C44.0504 7.8999 44.6504 7.6999 45.2504 7.6999C45.9504 7.6999 46.4504 7.8999 46.8504 8.3999L47.3504 7.8999C47.1504 7.5999 46.8504 7.3999 46.4504 7.1999C46.0504 6.9999 45.6504 6.8999 45.2504 6.8999C44.3504 6.8999 43.6504 7.1999 43.0504 7.7999C42.4504 8.3999 42.1504 9.0999 42.1504 9.9999C42.1504 10.8999 42.4504 11.5999 43.0504 12.1999C43.6504 12.7999 44.3504 13.0999 45.2504 13.0999C46.1504 13.0999 46.8504 12.7999 47.4504 12.1999ZM50.05 7.7H52.75V7H49.25V13H52.75V12.2H50.05V10.3H52.55V9.6H50.05V7.7ZM56.0508 13H55.2508V7.7H53.5508V7H57.7508V7.7H56.0508V13ZM60.6504 6.9999V12.9999H61.4504V6.9999H60.6504ZM64.7504 12.9999H64.0504V7.6999H62.3504V6.9999H66.4504V7.6999H64.7504V12.9999ZM72.1508 13.0999C73.0508 13.0999 73.7508 12.7999 74.3508 12.1999C74.9508 11.5999 75.2508 10.8999 75.2508 9.9999C75.2508 9.0999 74.9508 8.3999 74.3508 7.7999C73.7508 7.1999 73.0508 6.8999 72.1508 6.8999C71.2508 6.8999 70.5508 7.1999 69.9508 7.7999C69.3508 8.3999 69.0508 9.0999 69.0508 9.9999C69.0508 10.8999 69.3508 11.5999 69.9508 12.1999C70.5508 12.7999 71.2508 13.0999 72.1508 13.0999ZM70.5504 11.6999C70.9504 12.0999 71.5504 12.3999 72.1504 12.3999C72.7504 12.3999 73.3504 12.1999 73.7504 11.6999C74.1504 11.2999 74.4504 10.6999 74.4504 9.9999C74.4504 9.2999 74.2504 8.6999 73.7504 8.2999C73.3504 7.8999 72.7504 7.5999 72.1504 7.5999C71.5504 7.5999 70.9504 7.7999 70.5504 8.2999C70.1504 8.6999 69.8504 9.2999 69.8504 9.9999C69.8504 10.6999 70.0504 11.2999 70.5504 11.6999ZM76.3504 6.9999V12.9999H77.0504V8.0999L80.1504 12.9999H80.9504V6.9999H80.1504V11.6999L77.2504 6.9999H76.3504Z" fill="white"/>
<path d="M48.1504 10.1999L48.1261 10.1029L48.0504 10.1218V10.1999H48.1504ZM47.4504 12.1999L47.3797 12.1292L47.4504 12.1999ZM48.1504 10.1999L48.1747 10.2969L48.2504 10.278V10.1999H48.1504ZM48.1504 9.7999H48.2504V9.6999H48.1504V9.7999ZM45.2504 9.7999V9.6999H45.1504V9.7999H45.2504ZM45.2504 10.5999H45.1504V10.6999H45.2504V10.5999ZM47.4504 10.5999H47.5504V10.4999H47.4504V10.5999ZM46.9504 11.7999L47.0211 11.8706L47.0211 11.8706L46.9504 11.7999ZM43.6504 8.3999L43.7129 8.47799L43.7215 8.47105L43.7285 8.46237L43.6504 8.3999ZM46.8504 8.3999L46.7723 8.46237L46.8421 8.54962L46.9211 8.47061L46.8504 8.3999ZM47.3504 7.8999L47.4211 7.97061L47.4791 7.91264L47.4336 7.84443L47.3504 7.8999ZM46.4504 7.1999L46.4951 7.11046L46.4951 7.11046L46.4504 7.1999ZM43.0504 7.7999L43.1211 7.87061H43.1211L43.0504 7.7999ZM43.0504 12.1999L42.9797 12.2706L42.9797 12.2706L43.0504 12.1999ZM52.75 7.7V7.8H52.85V7.7H52.75ZM50.05 7.7V7.6H49.95V7.7H50.05ZM52.75 7H52.85V6.9H52.75V7ZM49.25 7V6.9H49.15V7H49.25ZM49.25 13H49.15V13.1H49.25V13ZM52.75 13V13.1H52.85V13H52.75ZM52.75 12.2H52.85V12.1H52.75V12.2ZM50.05 12.2H49.95V12.3H50.05V12.2ZM50.05 10.3V10.2H49.95V10.3H50.05ZM52.55 10.3V10.4H52.65V10.3H52.55ZM52.55 9.6H52.65V9.5H52.55V9.6ZM50.05 9.6H49.95V9.7H50.05V9.6ZM55.2508 13H55.1508V13.1H55.2508V13ZM56.0508 13V13.1H56.1508V13H56.0508ZM55.2508 7.7H55.3508V7.6H55.2508V7.7ZM53.5508 7.7H53.4508V7.8H53.5508V7.7ZM53.5508 7V6.9H53.4508V7H53.5508ZM57.7508 7H57.8508V6.9H57.7508V7ZM57.7508 7.7V7.8H57.8508V7.7H57.7508ZM56.0508 7.7V7.6H55.9508V7.7H56.0508ZM60.6504 12.9999H60.5504V13.0999H60.6504V12.9999ZM60.6504 6.9999V6.8999H60.5504V6.9999H60.6504ZM61.4504 12.9999V13.0999H61.5504V12.9999H61.4504ZM61.4504 6.9999H61.5504V6.8999H61.4504V6.9999ZM64.0504 12.9999H63.9504V13.0999H64.0504V12.9999ZM64.7504 12.9999V13.0999H64.8504V12.9999H64.7504ZM64.0504 7.6999H64.1504V7.5999H64.0504V7.6999ZM62.3504 7.6999H62.2504V7.7999H62.3504V7.6999ZM62.3504 6.9999V6.8999H62.2504V6.9999H62.3504ZM66.4504 6.9999H66.5504V6.8999H66.4504V6.9999ZM66.4504 7.6999V7.7999H66.5504V7.6999H66.4504ZM64.7504 7.6999V7.5999H64.6504V7.6999H64.7504ZM74.3508 12.1999L74.2801 12.1292L74.2801 12.1292L74.3508 12.1999ZM74.3508 7.7999L74.2801 7.87061L74.2801 7.87061L74.3508 7.7999ZM69.9508 7.7999L70.0215 7.87061V7.87061L69.9508 7.7999ZM69.9508 12.1999L70.0215 12.1292V12.1292L69.9508 12.1999ZM70.5504 11.6999L70.6215 11.6288L70.6129 11.6218L70.5504 11.6999ZM73.7504 11.6999L73.6793 11.6288L73.6723 11.6374L73.7504 11.6999ZM73.7504 8.2999L73.6793 8.37105L73.6879 8.37799L73.7504 8.2999ZM70.5504 8.2999L70.6215 8.37105L70.6285 8.36237L70.5504 8.2999ZM76.3504 12.9999H76.2504V13.0999H76.3504V12.9999ZM76.3504 6.9999V6.8999H76.2504V6.9999H76.3504ZM77.0504 12.9999V13.0999H77.1504V12.9999H77.0504ZM77.0504 8.0999L77.1349 8.04644L76.9504 7.7548V8.0999H77.0504ZM80.1504 12.9999L80.0659 13.0534L80.0953 13.0999H80.1504V12.9999ZM80.9504 12.9999V13.0999H81.0504V12.9999H80.9504ZM80.9504 6.9999H81.0504V6.8999H80.9504V6.9999ZM80.1504 6.9999V6.8999H80.0504V6.9999H80.1504ZM80.1504 11.6999L80.0653 11.7524L80.2504 12.0524V11.6999H80.1504ZM77.2504 6.9999L77.3355 6.94739L77.3062 6.8999H77.2504V6.9999ZM48.0504 10.1999C48.0504 10.9845 47.8543 11.6546 47.3797 12.1292L47.5211 12.2706C48.0465 11.7452 48.2504 11.0153 48.2504 10.1999H48.0504ZM48.1261 10.1029L48.1261 10.1029L48.1746 10.2969L48.1747 10.2969L48.1261 10.1029ZM48.0504 9.7999V10.1999H48.2504V9.7999H48.0504ZM45.2504 9.8999H48.1504V9.6999H45.2504V9.8999ZM45.3504 10.5999V9.7999H45.1504V10.5999H45.3504ZM47.4504 10.4999H45.2504V10.6999H47.4504V10.4999ZM47.0211 11.8706C47.3378 11.5539 47.5504 11.1292 47.5504 10.5999H47.3504C47.3504 11.0706 47.163 11.4459 46.8797 11.7292L47.0211 11.8706ZM45.2504 12.5999C45.6102 12.5999 45.9236 12.5485 46.2133 12.43C46.503 12.3114 46.7638 12.1279 47.0211 11.8706L46.8797 11.7292C46.637 11.9719 46.3978 12.1384 46.1375 12.2448C45.8772 12.3513 45.5906 12.3999 45.2504 12.3999V12.5999ZM43.5879 11.878C44.0921 12.2813 44.6149 12.5999 45.2504 12.5999V12.3999C44.6859 12.3999 44.2087 12.1185 43.7129 11.7218L43.5879 11.878ZM42.8504 10.0999C42.8504 10.8183 43.0562 11.4526 43.5879 11.878L43.7129 11.7218C43.2446 11.3472 43.0504 10.7815 43.0504 10.0999H42.8504ZM43.5879 8.32182C43.0562 8.74718 42.8504 9.38148 42.8504 10.0999H43.0504C43.0504 9.41832 43.2446 8.85262 43.7129 8.47799L43.5879 8.32182ZM45.2504 7.5999C44.6294 7.5999 43.9965 7.80725 43.5723 8.33743L43.7285 8.46237C44.1043 7.99256 44.6714 7.7999 45.2504 7.7999V7.5999ZM46.9285 8.33743C46.5057 7.80895 45.9741 7.5999 45.2504 7.5999V7.7999C45.9267 7.7999 46.3951 7.99085 46.7723 8.46237L46.9285 8.33743ZM47.2797 7.82919L46.7797 8.32919L46.9211 8.47061L47.4211 7.97061L47.2797 7.82919ZM46.4057 7.28934C46.8014 7.48721 47.082 7.67762 47.2672 7.95537L47.4336 7.84443C47.2188 7.52218 46.8994 7.31259 46.4951 7.11046L46.4057 7.28934ZM45.2504 6.9999C45.6331 6.9999 46.0179 7.09546 46.4057 7.28934L46.4951 7.11046C46.0829 6.90434 45.6677 6.7999 45.2504 6.7999V6.9999ZM43.1211 7.87061C43.7023 7.2894 44.3769 6.9999 45.2504 6.9999V6.7999C44.3239 6.7999 43.5985 7.1104 42.9797 7.72919L43.1211 7.87061ZM42.2504 9.9999C42.2504 9.12637 42.5399 8.45182 43.1211 7.87061L42.9797 7.72919C42.3609 8.34798 42.0504 9.07343 42.0504 9.9999H42.2504ZM43.1211 12.1292C42.5399 11.548 42.2504 10.8734 42.2504 9.9999H42.0504C42.0504 10.9264 42.3609 11.6518 42.9797 12.2706L43.1211 12.1292ZM45.2504 12.9999C44.3769 12.9999 43.7023 12.7104 43.1211 12.1292L42.9797 12.2706C43.5985 12.8894 44.3239 13.1999 45.2504 13.1999V12.9999ZM47.3797 12.1292C46.7985 12.7104 46.1239 12.9999 45.2504 12.9999V13.1999C46.1769 13.1999 46.9023 12.8894 47.5211 12.2706L47.3797 12.1292ZM52.75 7.6H50.05V7.8H52.75V7.6ZM52.65 7V7.7H52.85V7H52.65ZM49.25 7.1H52.75V6.9H49.25V7.1ZM49.35 13V7H49.15V13H49.35ZM52.75 12.9H49.25V13.1H52.75V12.9ZM52.65 12.2V13H52.85V12.2H52.65ZM50.05 12.3H52.75V12.1H50.05V12.3ZM49.95 10.3V12.2H50.15V10.3H49.95ZM52.55 10.2H50.05V10.4H52.55V10.2ZM52.45 9.6V10.3H52.65V9.6H52.45ZM50.05 9.7H52.55V9.5H50.05V9.7ZM49.95 7.7V9.6H50.15V7.7H49.95ZM55.2508 13.1H56.0508V12.9H55.2508V13.1ZM55.1508 7.7V13H55.3508V7.7H55.1508ZM53.5508 7.8H55.2508V7.6H53.5508V7.8ZM53.4508 7V7.7H53.6508V7H53.4508ZM57.7508 6.9H53.5508V7.1H57.7508V6.9ZM57.8508 7.7V7H57.6508V7.7H57.8508ZM56.0508 7.8H57.7508V7.6H56.0508V7.8ZM56.1508 13V7.7H55.9508V13H56.1508ZM60.7504 12.9999V6.9999H60.5504V12.9999H60.7504ZM61.4504 12.8999H60.6504V13.0999H61.4504V12.8999ZM61.3504 6.9999V12.9999H61.5504V6.9999H61.3504ZM60.6504 7.0999H61.4504V6.8999H60.6504V7.0999ZM64.0504 13.0999H64.7504V12.8999H64.0504V13.0999ZM63.9504 7.6999V12.9999H64.1504V7.6999H63.9504ZM62.3504 7.7999H64.0504V7.5999H62.3504V7.7999ZM62.2504 6.9999V7.6999H62.4504V6.9999H62.2504ZM66.4504 6.8999H62.3504V7.0999H66.4504V6.8999ZM66.5504 7.6999V6.9999H66.3504V7.6999H66.5504ZM64.7504 7.7999H66.4504V7.5999H64.7504V7.7999ZM64.8504 12.9999V7.6999H64.6504V12.9999H64.8504ZM74.2801 12.1292C73.6989 12.7104 73.0243 12.9999 72.1508 12.9999V13.1999C73.0772 13.1999 73.8027 12.8894 74.4215 12.2706L74.2801 12.1292ZM75.1508 9.9999C75.1508 10.8734 74.8613 11.548 74.2801 12.1292L74.4215 12.2706C75.0403 11.6518 75.3508 10.9264 75.3508 9.9999H75.1508ZM74.2801 7.87061C74.8613 8.45182 75.1508 9.12637 75.1508 9.9999H75.3508C75.3508 9.07343 75.0403 8.34798 74.4215 7.72919L74.2801 7.87061ZM72.1508 6.9999C73.0243 6.9999 73.6989 7.2894 74.2801 7.87061L74.4215 7.72919C73.8027 7.1104 73.0773 6.7999 72.1508 6.7999V6.9999ZM70.0215 7.87061C70.6027 7.2894 71.2773 6.9999 72.1508 6.9999V6.7999C71.2243 6.7999 70.4989 7.1104 69.8801 7.72919L70.0215 7.87061ZM69.1508 9.9999C69.1508 9.12637 69.4403 8.45182 70.0215 7.87061L69.8801 7.72919C69.2613 8.34798 68.9508 9.07343 68.9508 9.9999H69.1508ZM70.0215 12.1292C69.4403 11.548 69.1508 10.8734 69.1508 9.9999H68.9508C68.9508 10.9264 69.2613 11.6518 69.8801 12.2706L70.0215 12.1292ZM72.1508 12.9999C71.2772 12.9999 70.6027 12.7104 70.0215 12.1292L69.8801 12.2706C70.4989 12.8894 71.2243 13.1999 72.1508 13.1999V12.9999ZM72.1504 12.2999C71.5816 12.2999 71.006 12.014 70.6211 11.6292L70.4797 11.7706C70.8948 12.1858 71.5192 12.4999 72.1504 12.4999V12.2999ZM73.6723 11.6374C73.2964 12.1072 72.7294 12.2999 72.1504 12.2999V12.4999C72.7714 12.4999 73.4043 12.2926 73.8285 11.7624L73.6723 11.6374ZM74.3504 9.9999C74.3504 10.6709 74.0627 11.2461 73.6797 11.6292L73.8211 11.7706C74.238 11.3537 74.5504 10.7289 74.5504 9.9999H74.3504ZM73.6879 8.37799C74.1562 8.75262 74.3504 9.31833 74.3504 9.9999H74.5504C74.5504 9.28148 74.3446 8.64718 73.8129 8.22182L73.6879 8.37799ZM72.1504 7.6999C72.7192 7.6999 73.2948 7.98576 73.6797 8.37061L73.8211 8.22919C73.4059 7.81404 72.7816 7.4999 72.1504 7.4999V7.6999ZM70.6285 8.36237C71.0043 7.89256 71.5714 7.6999 72.1504 7.6999V7.4999C71.5294 7.4999 70.8965 7.70725 70.4723 8.23743L70.6285 8.36237ZM69.9504 9.9999C69.9504 9.32889 70.238 8.75367 70.6211 8.37061L70.4797 8.22919C70.0627 8.64613 69.7504 9.27092 69.7504 9.9999H69.9504ZM70.6129 11.6218C70.1446 11.2472 69.9504 10.6815 69.9504 9.9999H69.7504C69.7504 10.7183 69.9562 11.3526 70.4879 11.778L70.6129 11.6218ZM76.4504 12.9999V6.9999H76.2504V12.9999H76.4504ZM77.0504 12.8999H76.3504V13.0999H77.0504V12.8999ZM76.9504 8.0999V12.9999H77.1504V8.0999H76.9504ZM80.2349 12.9464L77.1349 8.04644L76.9659 8.15337L80.0659 13.0534L80.2349 12.9464ZM80.9504 12.8999H80.1504V13.0999H80.9504V12.8999ZM80.8504 6.9999V12.9999H81.0504V6.9999H80.8504ZM80.1504 7.0999H80.9504V6.8999H80.1504V7.0999ZM80.2504 11.6999V6.9999H80.0504V11.6999H80.2504ZM77.1653 7.05241L80.0653 11.7524L80.2355 11.6474L77.3355 6.94739L77.1653 7.05241ZM76.3504 7.0999H77.2504V6.8999H76.3504V7.0999Z" fill="white"/>
<path fill-rule="evenodd" clip-rule="evenodd" d="M48.4496 23.1001V24.9001H52.7496C52.6496 25.9001 52.2496 26.7001 51.7496 27.2001C51.1496 27.8001 50.1496 28.5001 48.4496 28.5001C45.7496 28.5001 43.7496 26.4001 43.7496 23.7001C43.7496 21.0001 45.8496 18.9001 48.4496 18.9001C49.8496 18.9001 50.9496 19.5001 51.7496 20.2001L53.0496 18.9001C51.9496 17.9001 50.5496 17.1001 48.5496 17.1001C44.9496 17.1001 41.8496 20.1001 41.8496 23.7001C41.8496 27.3001 44.9496 30.3001 48.5496 30.3001C50.5496 30.3001 51.9496 29.7001 53.1496 28.4001C54.3496 27.2001 54.7496 25.5001 54.7496 24.2001C54.7496 23.8001 54.7496 23.4001 54.6496 23.1001H48.4496ZM59.55 21.7998C57.15 21.7998 55.25 23.5998 55.25 26.0998C55.25 28.4998 57.15 30.3998 59.55 30.3998C61.95 30.3998 63.85 28.5998 63.85 26.0998C63.85 23.4998 61.95 21.7998 59.55 21.7998ZM64.5496 26.1001C64.5496 23.6001 66.4496 21.8001 68.8496 21.8001C71.2496 21.8001 73.1496 23.5001 73.1496 26.1001C73.1496 28.6001 71.2496 30.4001 68.8496 30.4001C66.4496 30.4001 64.5496 28.5001 64.5496 26.1001ZM66.4492 26.0004C66.4492 27.5004 67.5492 28.6004 68.8492 28.6004C70.1492 28.6004 71.2492 27.5004 71.2492 26.0004C71.2492 24.4004 70.1492 23.4004 68.8492 23.4004C67.5492 23.4004 66.4492 24.5004 66.4492 26.0004ZM57.1496 26.0001C57.1496 27.5001 58.2496 28.6001 59.5496 28.6001C60.8496 28.6001 61.9496 27.5001 61.9496 26.0001C61.9496 24.4001 60.8496 23.4001 59.5496 23.4001C58.2496 23.4001 57.1496 24.5001 57.1496 26.0001ZM90.25 21.7998C92.45 21.7998 93.45 23.4998 93.85 24.4998L94.05 24.9998L88.35 27.3998C88.85 28.2998 89.45 28.6998 90.45 28.6998C91.45 28.6998 92.05 28.1998 92.55 27.4998L93.95 28.4998C93.55 29.1998 92.35 30.3998 90.45 30.3998C88.05 30.3998 86.25 28.4998 86.25 26.0998C86.25 23.4998 88.05 21.7998 90.25 21.7998ZM88.0496 25.9001C88.0496 24.3001 89.3496 23.4001 90.2496 23.4001C90.9496 23.4001 91.6496 23.8001 91.8496 24.3001L88.0496 25.9001ZM85.2496 30.0001H83.3496V17.5001H85.2496V30.0001ZM80.3492 22.7002C79.8492 22.2002 79.0492 21.7002 78.0492 21.7002C75.9492 21.7002 73.9492 23.6002 73.9492 26.0002C73.9492 28.4002 75.8492 30.2002 78.0492 30.2002C79.0492 30.2002 79.8492 29.7002 80.2492 29.2002H80.3492V29.8002C80.3492 31.4002 79.4492 32.3002 78.0492 32.3002C76.9492 32.3002 76.1492 31.5002 75.9492 30.8002L74.3492 31.5002C74.8492 32.6002 76.0492 34.0002 78.1492 34.0002C80.3492 34.0002 82.1492 32.7002 82.1492 29.6002V22.0002H80.3492L80.3492 22.7002ZM75.75 26.0004C75.75 27.5004 76.85 28.6004 78.15 28.6004C79.45 28.6004 80.45 27.5004 80.45 26.0004C80.45 24.5004 79.45 23.4004 78.15 23.4004C76.85 23.4004 75.75 24.5004 75.75 26.0004ZM102.55 17.5001H98.0496V30.0001H99.9496V25.3001H102.55C104.65 25.3001 106.65 23.8001 106.65 21.4001C106.65 19.0001 104.65 17.5001 102.55 17.5001ZM99.9492 23.5002H102.649C103.949 23.5002 104.749 22.4002 104.849 21.3002C104.849 20.4002 104.049 19.2002 102.649 19.2002H99.9492V23.5002ZM114.15 21.7002C112.75 21.7002 111.35 22.3002 110.85 23.6002L112.55 24.3002C112.95 23.6002 113.55 23.4002 114.25 23.4002C115.25 23.4002 116.15 24.0002 116.25 25.0002V25.1002C115.95 24.9002 115.15 24.6002 114.35 24.6002C112.55 24.6002 110.75 25.6002 110.75 27.4002C110.75 29.1002 112.25 30.2002 113.85 30.2002C115.15 30.2002 115.75 29.6002 116.25 29.0002H116.35V30.0002H118.15V25.2002C117.95 23.0002 116.25 21.7002 114.15 21.7002ZM112.449 27.5002C112.449 28.3002 113.349 28.6002 113.949 28.6002C114.949 28.6002 115.949 27.8002 116.149 26.6002L116.079 26.5719L116 26.5398C115.564 26.3618 115.168 26.2002 114.449 26.2002C113.549 26.2002 112.449 26.5002 112.449 27.5002ZM124.45 22.0001L122.35 27.4001H122.25L120.05 22.0001H118.05L121.35 29.6001L119.45 33.8001H121.35L126.45 22.0001H124.45ZM109.55 30.0001H107.65V17.5001H109.55V30.0001Z" fill="white"/>
<path d="M11.15 7.5C10.85 7.8 10.75 8.3 10.75 8.9V31C10.75 31.6 10.95 32.1 11.25 32.4L11.35 32.5L23.75 20.1V19.9L11.15 7.5Z" fill="url(#paint0_linear_63_1547)"/>
<path d="M27.7504 24.2998L23.6504 20.1998V19.8998L27.7504 15.7998L27.8504 15.8998L32.7504 18.6998C34.1504 19.4998 34.1504 20.7998 32.7504 21.5998L27.7504 24.2998Z" fill="url(#paint1_linear_63_1547)"/>
<path d="M27.8504 24.2L23.6504 20L11.1504 32.5C11.6504 33 12.3504 33 13.2504 32.6L27.8504 24.2Z" fill="url(#paint2_linear_63_1547)"/>
<path d="M27.8504 15.7996L13.2504 7.49962C12.3504 6.99962 11.6504 7.09962 11.1504 7.59962L23.6504 19.9996L27.8504 15.7996H27.8504Z" fill="url(#paint3_linear_63_1547)"/>
<path opacity="0.2" d="M27.7504 24.0996L13.2504 32.2996C12.4504 32.7996 11.7504 32.6996 11.2504 32.2996L11.1504 32.3996L11.2504 32.4996C11.7504 32.8996 12.4504 32.9996 13.2504 32.4996L27.7504 24.0996Z" fill="black"/>
<path opacity="0.12" fill-rule="evenodd" clip-rule="evenodd" d="M27.75 24.1L32.75 21.3C33.35 20.9 33.75 20.5 33.75 20C33.75 20.5 33.45 21 32.75 21.4L27.85 24.2L27.75 24.1ZM10.75 30.9C10.75 31.0417 10.7556 31.1778 10.768 31.307C10.7562 31.2081 10.75 31.1056 10.75 31V30.9ZM10.768 31.307C10.8165 31.7114 10.9595 32.0548 11.1597 32.3L10.768 31.307ZM11.1597 32.3H11.25V32.4C11.2188 32.3688 11.1887 32.3354 11.1597 32.3Z" fill="black"/>
<path opacity="0.25" d="M13.25 7.59978L32.75 18.6998C33.35 19.0998 33.75 19.4998 33.75 19.9998C33.75 19.4998 33.45 18.9998 32.75 18.5998L13.25 7.49978C11.85 6.69978 10.75 7.29978 10.75 8.89978V8.99978C10.75 7.49978 11.85 6.79978 13.25 7.59978Z" fill="white"/>
<defs>
<linearGradient id="paint0_linear_63_1547" x1="26.9133" y1="17.1525" x2="7.04524" y2="11.7805" gradientUnits="userSpaceOnUse">
<stop stop-color="#00A0FF"/>
<stop offset="0.007" stop-color="#00A1FF"/>
<stop offset="0.26" stop-color="#00BEFF"/>
<stop offset="0.512" stop-color="#00D2FF"/>
<stop offset="0.76" stop-color="#00DFFF"/>
<stop offset="1" stop-color="#00E3FF"/>
</linearGradient>
<linearGradient id="paint1_linear_63_1547" x1="34.5844" y1="11.8671" x2="10.3874" y2="11.8671" gradientUnits="userSpaceOnUse">
<stop stop-color="#FFE000"/>
<stop offset="0.409" stop-color="#FFBD00"/>
<stop offset="0.775" stop-color="#FFA500"/>
<stop offset="1" stop-color="#FF9C00"/>
</linearGradient>
<linearGradient id="paint2_linear_63_1547" x1="40.3215" y1="10.922" x2="24.3563" y2="-15.882" gradientUnits="userSpaceOnUse">
<stop stop-color="#FF3A44"/>
<stop offset="1" stop-color="#C31162"/>
</linearGradient>
<linearGradient id="paint3_linear_63_1547" x1="14.6623" y1="45.7272" x2="21.7356" y2="33.7409" gradientUnits="userSpaceOnUse">
<stop stop-color="#32A071"/>
<stop offset="0.069" stop-color="#2DA771"/>
<stop offset="0.476" stop-color="#15CF74"/>
<stop offset="0.801" stop-color="#06E775"/>
<stop offset="1" stop-color="#00F076"/>
</linearGradient>
</defs>
</svg>
