<svg width="135" height="40" viewBox="0 0 135 40" fill="none" xmlns="http://www.w3.org/2000/svg">
<path d="M134.104 35.2781C134.104 36.2948 133.699 37.2699 132.98 37.9885C132.26 38.707 131.285 39.1102 130.268 39.1091L4.73072 39.1091C2.61195 39.1114 0.892409 37.3963 0.889648 35.2781V4.72668C0.892408 2.60767 2.61115 0.891175 4.73072 0.890625H130.267C132.386 0.890625 134.103 2.60825 134.103 4.72668L134.104 35.2781L134.104 35.2781Z" fill="white"/>
<path d="M130.268 40H4.73155C2.12273 40 0.00551665 37.8878 1.90838e-06 35.2787L0 4.7273C0.00386113 2.11691 2.12048 0.00220264 4.73156 0L130.267 4.76968e-07C132.878 0.0033011 134.994 2.11737 134.999 4.7273V35.2777C135.001 37.8824 132.875 40 130.268 40H130.268Z" fill="#A6A6A6"/>
<path d="M134.104 35.2781C134.104 36.2948 133.699 37.2699 132.98 37.9885C132.26 38.707 131.285 39.1102 130.268 39.1091L4.73072 39.1091C2.61195 39.1114 0.892409 37.3963 0.889648 35.2781V4.72668C0.892408 2.60767 2.61115 0.891175 4.73072 0.890625H130.267C132.386 0.890625 134.103 2.60825 134.103 4.72668L134.104 35.2781L134.104 35.2781Z" fill="black"/>
<path fill-rule="evenodd" clip-rule="evenodd" d="M28.2495 6.21875C28.4156 7.72816 27.8173 9.21557 26.9428 10.3089C26.0303 11.3852 24.5705 12.2084 23.1487 12.1024C22.9627 10.65 23.683 9.10555 24.4895 8.16328C25.401 7.09399 26.9838 6.27477 28.2495 6.21875ZM32.9036 14.9267C32.745 15.0213 30.1155 16.5903 30.1443 19.7901H30.1443C30.1783 23.6532 33.5261 24.9316 33.5661 24.9456C33.5461 25.0356 33.0419 26.7901 31.7862 28.5696C30.7376 30.137 29.639 31.6704 27.8941 31.6974C27.0645 31.7165 26.5043 31.4783 25.9207 31.23C25.3118 30.971 24.6773 30.7011 23.6848 30.7011C22.6329 30.7011 21.9704 30.9797 21.3315 31.2484C20.7788 31.4808 20.2437 31.7058 19.4895 31.7364C17.8276 31.7974 16.558 30.064 15.4714 28.5095C13.2992 25.3377 11.6083 19.5711 13.8755 15.647C14.9741 13.7225 16.9772 12.4831 19.1183 12.4501C20.0612 12.4309 20.9655 12.7941 21.7583 13.1126C22.3645 13.3561 22.9055 13.5734 23.3486 13.5734C23.7378 13.5734 24.2636 13.3648 24.8765 13.1216C25.8423 12.7384 27.0242 12.2694 28.2283 12.3961C29.0517 12.4201 31.395 12.7212 32.9068 14.9248L32.9036 14.9267Z" fill="white"/>
<path fill-rule="evenodd" clip-rule="evenodd" d="M86.9041 30.5443C87.6916 29.8332 88.0878 28.9119 88.0878 27.7786C88.0878 26.8593 87.8176 26.0881 87.2743 25.47C86.735 24.8518 85.8926 24.3136 84.746 23.8515C83.8115 23.4834 83.1651 23.1403 82.8109 22.8252C82.4027 22.4831 82.1976 22.047 82.1976 21.5219C82.1976 21.0457 82.3777 20.6446 82.7329 20.3155C83.1551 19.9474 83.7454 19.7624 84.4978 19.7624C85.4503 19.7624 86.3018 19.9664 87.0562 20.3745L87.5915 18.6361C86.7901 18.215 85.7805 18.0039 84.5689 18.0039C83.2122 18.0039 82.1216 18.353 81.2991 19.0512C80.4767 19.7504 80.0645 20.6446 80.0645 21.7369C80.0645 23.4094 81.2311 24.6807 83.5623 25.55C84.4198 25.8651 85.0301 26.2082 85.3993 26.5763C85.7665 26.9454 85.9536 27.3985 85.9536 27.9397C85.9536 28.5438 85.7275 29.0279 85.2803 29.39C84.834 29.7511 84.2087 29.9332 83.4043 29.9332C82.2856 29.9332 81.2581 29.6571 80.3226 29.103L79.8293 30.8804C80.6958 31.4336 81.8444 31.7097 83.2772 31.7097C84.828 31.7097 86.0377 31.3206 86.9041 30.5443ZM53.6942 31.5126H51.422L50.1773 27.6025H45.851L44.6653 31.5126H42.4531L46.7404 18.201H49.3879L53.6942 31.5126ZM49.8025 25.9622L48.6769 22.4862C48.5578 22.1311 48.3337 21.2949 48.0055 19.9785H47.9655C47.8334 20.5447 47.6223 21.3809 47.3331 22.4862L46.2266 25.9622H49.8025ZM63.3674 30.4662C64.2549 29.5189 64.6981 28.2286 64.6981 26.5961C64.6981 25.1347 64.3189 23.9564 63.5635 23.0592C62.8071 22.1639 61.8616 21.7168 60.7289 21.7168C59.2802 21.7168 58.2006 22.29 57.4892 23.4363H57.4492L57.3301 21.9148H55.4541C55.5061 22.9931 55.5331 24.0444 55.5331 25.0697V35.4056H57.6663V30.3692C58.2216 31.2774 59.1361 31.7306 60.4078 31.7306C61.5854 31.7306 62.5729 31.3094 63.3674 30.4662ZM62.5247 26.673C62.5247 25.7387 62.3146 24.9685 61.8923 24.3613C61.4311 23.7301 60.8117 23.4141 60.0353 23.4141C59.509 23.4141 59.0308 23.5901 58.6035 23.9372C58.1753 24.2873 57.8952 24.7444 57.7641 25.3106C57.7056 25.5223 57.6723 25.7402 57.665 25.9598V27.5612C57.665 28.2584 57.8792 28.8475 58.3074 29.3297C58.7356 29.8098 59.2919 30.0509 59.9763 30.0509C60.7797 30.0509 61.4051 29.7398 61.8523 29.1226C62.3006 28.5035 62.5247 27.6872 62.5247 26.673ZM74.4104 30.4662C75.2978 29.5189 75.7411 28.2286 75.7411 26.5961C75.7411 25.1347 75.3609 23.9564 74.6065 23.0592C73.8481 22.1639 72.9026 21.7168 71.771 21.7168C70.3212 21.7168 69.2416 22.29 68.5312 23.4363H68.4912L68.3721 21.9148H66.4961C66.5481 22.9931 66.5752 24.0444 66.5752 25.0697V35.4056H68.7083V30.3692C69.2636 31.2774 70.1781 31.7306 71.4498 31.7306C72.6284 31.7306 73.615 31.3094 74.4104 30.4662ZM73.5667 26.673C73.5667 25.7387 73.3556 24.9685 72.9333 24.3613C72.4721 23.7301 71.8548 23.4141 71.0784 23.4141C70.5521 23.4141 70.0738 23.5901 69.6446 23.9372C69.2164 24.2873 68.9372 24.7444 68.8061 25.3106C68.7411 25.5747 68.7061 25.7897 68.7061 25.9598V27.5612C68.7061 28.2584 68.9212 28.8475 69.3474 29.3297C69.7756 29.8088 70.332 30.0509 71.0183 30.0509C71.8228 30.0509 72.4481 29.7398 72.8943 29.1226C73.3426 28.5035 73.5667 27.6872 73.5667 26.673ZM95.1587 23.5136H92.8074V28.1739C92.8074 29.3592 93.2216 29.9504 94.0521 29.9504C94.4333 29.9504 94.7494 29.9184 94.9996 29.8514L95.0586 31.4708C94.6384 31.6279 94.0851 31.7069 93.3997 31.7069C92.5573 31.7069 91.8989 31.4498 91.4236 30.9357C90.9504 30.4215 90.7122 29.5603 90.7122 28.348V23.5096H89.3115V21.9092H90.7122V20.1517L92.8074 19.5195V21.9092H95.1587V23.5136H95.1587ZM104.481 30.2681C105.324 29.3208 105.746 28.1095 105.746 26.6341C105.746 25.1977 105.339 24.0274 104.52 23.1211C103.664 22.1869 102.532 21.7188 101.123 21.7188C99.6616 21.7188 98.4989 22.1929 97.6355 23.1412C96.774 24.0884 96.3418 25.3067 96.3418 26.7942C96.3418 28.2155 96.76 29.3939 97.5965 30.3291C98.4329 31.2624 99.5545 31.7295 100.965 31.7295C102.427 31.7295 103.6 31.2434 104.481 30.2681ZM103.535 26.6833C103.535 25.804 103.345 25.0498 102.964 24.4187C102.517 23.6565 101.876 23.2754 101.047 23.2754C100.192 23.2754 99.537 23.6565 99.0907 24.4187C98.7085 25.0498 98.5184 25.8171 98.5184 26.7233C98.5184 27.6035 98.7085 28.3598 99.0907 28.9889C99.552 29.7511 100.195 30.1322 101.029 30.1322C101.844 30.1322 102.484 29.7431 102.946 28.9699C103.338 28.3237 103.535 27.5645 103.535 26.6833ZM112.01 23.7313C112.236 23.7306 112.461 23.7503 112.683 23.7904L112.681 21.7558C112.523 21.7308 112.345 21.7168 112.147 21.7168C111.592 21.7176 111.051 21.8979 110.606 22.2309C110.119 22.612 109.765 23.1212 109.539 23.7524H109.48L109.402 21.9159H107.544C107.587 22.9225 107.608 23.9301 107.606 24.9377V31.5135H109.739V26.4771C109.739 25.7139 109.917 25.0817 110.271 24.5816C110.68 24.0134 111.26 23.7314 112.01 23.7313ZM122.223 26.2592C122.229 26.5834 122.202 26.9073 122.145 27.2264H115.746C115.77 28.1747 116.08 28.9009 116.674 29.401C117.214 29.8472 117.911 30.0712 118.767 30.0712C119.715 30.0712 120.579 29.9212 121.357 29.6181L121.691 31.0975C120.782 31.4936 119.71 31.6907 118.472 31.6907C116.983 31.6907 115.815 31.2526 114.964 30.3783C114.116 29.5031 113.691 28.3267 113.691 26.8533C113.691 25.4069 114.086 24.2016 114.877 23.2403C115.706 22.2141 116.825 21.7009 118.234 21.7009C119.618 21.7009 120.665 22.2141 121.377 23.2403C121.94 24.0536 122.223 25.0619 122.223 26.2592ZM119.775 24.066C120.064 24.5272 120.204 25.0723 120.189 25.7055L115.747 25.7035C115.812 25.0603 116.023 24.5061 116.378 24.045C116.811 23.4649 117.379 23.1758 118.076 23.1758C118.838 23.1758 119.406 23.4719 119.775 24.066Z" fill="white"/>
<path fill-rule="evenodd" clip-rule="evenodd" d="M71.1287 13.4366H70.0791V6.55469H71.1287V13.4366ZM43.7021 13.4156C44.1294 13.4646 44.6427 13.4936 45.236 13.4936C47.7503 13.4936 49.0811 12.2713 49.0811 10.0087C49.0811 8.04713 47.9545 6.8438 45.5081 6.8438C44.9035 6.84207 44.2997 6.88756 43.7021 6.97984V13.4156ZM44.75 7.73794C44.9831 7.68993 45.2643 7.66992 45.5945 7.66992C47.1483 7.66992 47.9737 8.51515 47.9737 10.0386C47.9737 11.747 47.0613 12.6593 45.4584 12.6593C45.1182 12.6593 44.8761 12.6503 44.75 12.6303V7.73794ZM52.5916 13.5444C51.2128 13.5444 50.3193 12.5151 50.3193 11.1177C50.3193 9.66133 51.2318 8.62305 52.6696 8.62305C54.0284 8.62305 54.9418 9.60332 54.9418 11.0407C54.9418 12.5151 54.0003 13.5444 52.5916 13.5444ZM51.3896 11.0871C51.3896 10.0969 51.8749 9.38867 52.6323 9.38867C53.3697 9.38867 53.855 10.1069 53.855 11.0671C53.855 12.0094 53.3597 12.7666 52.6223 12.7666C51.8849 12.7666 51.3896 12.0584 51.3896 11.0871ZM62.8045 8.71875L61.3287 13.436H60.3671L59.7558 11.3875C59.6038 10.8864 59.4772 10.3779 59.3766 9.86407L59.3566 9.86407C59.2796 10.3782 59.1335 10.8933 58.9784 11.3875L58.328 13.436H57.3565L55.9678 8.71875H57.0453L57.5796 10.9614C57.7057 11.4955 57.8118 11.9997 57.8998 12.4758H57.9198C57.9969 12.0787 58.1229 11.5825 58.308 10.9714L58.9784 8.71975H59.8329L60.4742 10.9234C60.6293 11.4575 60.7554 11.9816 60.8534 12.4768H60.8814C60.9495 11.9916 61.0565 11.4765 61.2016 10.9234L61.7749 8.71975L62.8045 8.71875ZM67.1892 13.4374H68.2378H68.2378L68.2388 10.6126C68.2388 9.38025 67.5885 8.62305 66.5979 8.62305C65.9566 8.62305 65.3842 8.94313 65.1021 9.44727H65.0731L65.0241 8.71907H64.1016C64.1306 9.2042 64.1406 9.65133 64.1406 10.0684V13.4374H65.1892V10.6316C65.1892 10.0104 65.6164 9.47628 66.2377 9.47628C66.869 9.47628 67.1892 9.89439 67.1892 10.7286V13.4374ZM72.6797 11.1177C72.6797 12.5151 73.5742 13.5444 74.9519 13.5444C76.3597 13.5444 77.3022 12.5151 77.3012 11.0407C77.3012 9.60332 76.3887 8.62305 75.029 8.62305C73.5922 8.62305 72.6797 9.66133 72.6797 11.1177ZM74.9907 9.38867C74.2333 9.38867 73.748 10.0969 73.748 11.0871C73.748 12.0584 74.2443 12.7666 74.9797 12.7666C75.7181 12.7666 76.2124 12.0094 76.2124 11.0671C76.2134 10.1069 75.7291 9.38867 74.9907 9.38867ZM81.3594 12.8942L81.4354 13.4374H81.4355L82.381 13.4384C82.334 13.1573 82.3129 12.7882 82.3129 12.3121V10.5746C82.3129 9.27322 81.6906 8.62305 80.4579 8.62305C79.8186 8.62305 79.2743 8.75908 78.838 9.03116L79.0511 9.72034C79.4104 9.48728 79.8186 9.37025 80.2838 9.37025C80.9342 9.37025 81.2634 9.68133 81.2634 10.3025V10.3895C79.5154 10.3895 78.5059 10.9917 78.5059 12.156C78.5059 12.9522 79.1062 13.5444 79.9516 13.5444C80.544 13.5444 81.0112 13.3313 81.3314 12.8942H81.3594ZM81.2919 11.0879C80.1273 11.0879 79.543 11.37 79.543 12.0392C79.543 12.5343 79.8441 12.7764 80.2624 12.7764C80.7956 12.7764 81.2919 12.3692 81.2919 11.8161V11.0879ZM87.3557 12.6794L87.4048 13.4366H88.3383C88.3103 13.0485 88.2993 12.6214 88.2993 12.1652V6.55469H87.2497V9.26243H87.2287C86.9765 8.83431 86.5293 8.62126 85.8979 8.62126C84.7053 8.62126 83.8318 9.66054 83.8318 11.1359C83.8318 12.5433 84.6743 13.5436 85.8119 13.5436C86.5193 13.5436 87.0255 13.2515 87.3267 12.6794H87.3557ZM87.2497 10.6608C87.2497 10.0006 86.8124 9.43748 86.1451 9.43748C85.3676 9.43748 84.8924 10.1267 84.8924 11.0969C84.8924 12.0482 85.3857 12.6994 86.1241 12.6994C86.7834 12.6994 87.2497 12.1262 87.2497 11.447V10.6608ZM92.6826 11.1177C92.6826 12.5151 93.5761 13.5444 94.9538 13.5444C96.3636 13.5444 97.3051 12.5151 97.3041 11.0407C97.3041 9.60332 96.3916 8.62305 95.0319 8.62305C93.5951 8.62305 92.6826 9.66133 92.6826 11.1177ZM94.9929 9.38847C94.2365 9.38847 93.7512 10.0967 93.7512 11.0869C93.7512 12.0582 94.2465 12.7664 94.9829 12.7664C95.7213 12.7664 96.2155 12.0092 96.2155 11.0669C96.2175 10.1067 95.7322 9.38847 94.9929 9.38847ZM101.893 13.4364H102.943V10.6106C102.943 9.3783 102.292 8.62109 101.301 8.62109C100.661 8.62109 100.087 8.94218 99.8062 9.44632H99.7772L99.7281 8.71812H98.8057C98.8347 9.20325 98.8447 9.65038 98.8447 10.0675V13.4364H99.8943V10.6306C99.8943 10.0095 100.32 9.47533 100.942 9.47533C101.573 9.47533 101.893 9.89344 101.893 10.7277V13.4364ZM109.998 9.50646H108.844V11.7971C108.844 12.3803 109.046 12.6713 109.454 12.6713C109.639 12.6713 109.794 12.6513 109.919 12.6223L109.949 13.4185C109.745 13.4966 109.473 13.5356 109.135 13.5356C108.309 13.5356 107.814 13.0794 107.814 11.8851V9.50646H107.126V8.72025H107.814V7.85601L108.844 7.54492V8.71924H109.998V9.50646ZM114.502 13.4366H115.549V10.6308C115.549 9.39747 114.939 8.62126 113.94 8.62126C113.33 8.62126 112.852 8.87432 112.522 9.38847H112.501V6.55469H111.453V13.4366H112.501V10.5928C112.501 9.84559 113.007 9.47649 113.55 9.47649C114.183 9.47649 114.502 9.90361 114.502 10.7478V13.4366ZM121.236 11.3291H118.09C118.11 12.2223 118.701 12.7265 119.576 12.7265C120.042 12.7265 120.47 12.6484 120.848 12.5034L121.011 13.2316C120.565 13.4256 120.04 13.5227 119.428 13.5227C117.953 13.5227 117.079 12.5904 117.079 11.145C117.079 9.69863 117.974 8.61133 119.31 8.61133C120.516 8.61133 121.272 9.50458 121.272 10.8539C121.279 11.0132 121.267 11.1727 121.236 11.3291ZM119.237 9.33984C118.635 9.33984 118.159 9.86399 118.091 10.5822L119.237 9.33984ZM118.091 10.5822H120.275H118.091Z" fill="white"/>
</svg>
