<svg width="135" height="40" viewBox="0 0 135 40" fill="none" xmlns="http://www.w3.org/2000/svg">
<path d="M130 40H5C2.2 40 0 37.8 0 35V5C0 2.2 2.2 0 5 0H130C132.8 0 135 2.2 135 5V35C135 37.8 132.8 40 130 40Z" fill="black"/>
<path fill-rule="evenodd" clip-rule="evenodd" d="M5 0H130C132.8 0 135 2.3 135 5V35C135 37.8 132.8 40 130 40H5C2.2 40 0 37.8 0 35V5C0 2.3 2.2 0 5 0ZM134.201 4.99999C134.201 2.69999 132.301 0.799988 130.001 0.799988H5.00078C2.70078 0.799988 0.800781 2.69999 0.800781 4.99999V35C0.800781 37.3 2.70078 39.2 5.00078 39.2H130.001C132.301 39.2 134.201 37.3 134.201 35V4.99999Z" fill="#A6A6A6"/>
<path fill-rule="evenodd" clip-rule="evenodd" d="M46.7004 12.2004C47.2004 11.7004 47.4004 11.0004 47.4004 10.2004L47.4004 10.2004V9.80039H44.5004V10.6004H46.7004C46.7004 11.1004 46.5004 11.5004 46.2004 11.8004C45.7004 12.3004 45.2004 12.5004 44.5004 12.5004C43.9004 12.5004 43.4004 12.2004 42.9004 11.8004C42.4004 11.4004 42.2004 10.8004 42.2004 10.1004C42.2004 9.40039 42.4004 8.80039 42.9004 8.40039C43.3004 7.90039 43.9004 7.70039 44.5004 7.70039C45.2004 7.70039 45.7004 7.90039 46.1004 8.40039L46.6004 7.90039C46.4004 7.60039 46.1004 7.40039 45.7004 7.20039C45.3004 7.00039 44.9004 6.90039 44.5004 6.90039C43.6004 6.90039 42.9004 7.20039 42.3004 7.80039C41.7004 8.40039 41.4004 9.10039 41.4004 10.0004C41.4004 10.9004 41.7004 11.6004 42.3004 12.2004C42.9004 12.8004 43.6004 13.1004 44.5004 13.1004C45.4004 13.1004 46.1004 12.8004 46.7004 12.2004ZM49.3 7.70049H52V7.00049H48.5V13.0005H52V12.2005H49.3V10.3005H51.8V9.60049H49.3V7.70049ZM55.3008 13.0005H54.5008V7.70049H52.8008V7.00049H57.0008V7.70049H55.3008V13.0005ZM59.9004 7.00039V13.0004H60.7004V7.00039H59.9004ZM63.9996 13.0004H63.2996V7.70037H61.5996V7.00037H65.6996V7.70037H63.9996V13.0004ZM71.4008 13.1004C72.3008 13.1004 73.0008 12.8004 73.6008 12.2004C74.2008 11.6004 74.5008 10.9004 74.5008 10.0004C74.5008 9.10039 74.2008 8.40039 73.6008 7.80039C73.0008 7.20039 72.3008 6.90039 71.4008 6.90039C70.5008 6.90039 69.8008 7.20039 69.2008 7.80039C68.6008 8.40039 68.3008 9.10039 68.3008 10.0004C68.3008 10.9004 68.6008 11.6004 69.2008 12.2004C69.8008 12.8004 70.5008 13.1004 71.4008 13.1004ZM69.7996 11.7004C70.1996 12.1004 70.7996 12.4004 71.3996 12.4004C71.9996 12.4004 72.5996 12.2004 72.9996 11.7004C73.3996 11.3004 73.6996 10.7004 73.6996 10.0004C73.6996 9.3004 73.4996 8.7004 72.9996 8.3004C72.5996 7.9004 71.9996 7.6004 71.3996 7.6004C70.7996 7.6004 70.1996 7.8004 69.7996 8.3004C69.3996 8.7004 69.0996 9.3004 69.0996 10.0004C69.0996 10.7004 69.2996 11.3004 69.7996 11.7004ZM75.5996 7.00037V13.0004H76.2996V8.10037L79.3996 13.0004H80.1996V7.00037H79.3996V11.7004L76.4996 7.00037H75.5996Z" fill="white"/>
<path d="M47.4004 10.2004L47.3761 10.1034L47.3004 10.1223V10.2004H47.4004ZM46.7004 12.2004L46.6297 12.1297L46.7004 12.2004ZM47.4004 10.2004L47.4247 10.2974L47.5004 10.2785V10.2004H47.4004ZM47.4004 9.80039H47.5004V9.70039H47.4004V9.80039ZM44.5004 9.80039V9.70039H44.4004V9.80039H44.5004ZM44.5004 10.6004H44.4004V10.7004H44.5004V10.6004ZM46.7004 10.6004H46.8004V10.5004H46.7004V10.6004ZM46.2004 11.8004L46.2711 11.8711L46.2711 11.8711L46.2004 11.8004ZM42.9004 8.40039L42.9629 8.47848L42.9715 8.47154L42.9785 8.46286L42.9004 8.40039ZM46.1004 8.40039L46.0223 8.46286L46.0921 8.5501L46.1711 8.4711L46.1004 8.40039ZM46.6004 7.90039L46.6711 7.9711L46.7291 7.91313L46.6836 7.84492L46.6004 7.90039ZM45.7004 7.20039L45.7451 7.11095L45.7451 7.11095L45.7004 7.20039ZM42.3004 7.80039L42.3711 7.8711H42.3711L42.3004 7.80039ZM42.3004 12.2004L42.2297 12.2711L42.2297 12.2711L42.3004 12.2004ZM52 7.70049V7.80049H52.1V7.70049H52ZM49.3 7.70049V7.60049H49.2V7.70049H49.3ZM52 7.00049H52.1V6.90049H52V7.00049ZM48.5 7.00049V6.90049H48.4V7.00049H48.5ZM48.5 13.0005H48.4V13.1005H48.5V13.0005ZM52 13.0005V13.1005H52.1V13.0005H52ZM52 12.2005H52.1V12.1005H52V12.2005ZM49.3 12.2005H49.2V12.3005H49.3V12.2005ZM49.3 10.3005V10.2005H49.2V10.3005H49.3ZM51.8 10.3005V10.4005H51.9V10.3005H51.8ZM51.8 9.60049H51.9V9.50049H51.8V9.60049ZM49.3 9.60049H49.2V9.70049H49.3V9.60049ZM54.5008 13.0005H54.4008V13.1005H54.5008V13.0005ZM55.3008 13.0005V13.1005H55.4008V13.0005H55.3008ZM54.5008 7.70049H54.6008V7.60049H54.5008V7.70049ZM52.8008 7.70049H52.7008V7.80049H52.8008V7.70049ZM52.8008 7.00049V6.90049H52.7008V7.00049H52.8008ZM57.0008 7.00049H57.1008V6.90049H57.0008V7.00049ZM57.0008 7.70049V7.80049H57.1008V7.70049H57.0008ZM55.3008 7.70049V7.60049H55.2008V7.70049H55.3008ZM59.9004 13.0004H59.8004V13.1004H59.9004V13.0004ZM59.9004 7.00039V6.90039H59.8004V7.00039H59.9004ZM60.7004 13.0004V13.1004H60.8004V13.0004H60.7004ZM60.7004 7.00039H60.8004V6.90039H60.7004V7.00039ZM63.2996 13.0004H63.1996V13.1004H63.2996V13.0004ZM63.9996 13.0004V13.1004H64.0996V13.0004H63.9996ZM63.2996 7.70037H63.3996V7.60037H63.2996V7.70037ZM61.5996 7.70037H61.4996V7.80037H61.5996V7.70037ZM61.5996 7.00037V6.90037H61.4996V7.00037H61.5996ZM65.6996 7.00037H65.7996V6.90037H65.6996V7.00037ZM65.6996 7.70037V7.80037H65.7996V7.70037H65.6996ZM63.9996 7.70037V7.60037H63.8996V7.70037H63.9996ZM73.6008 12.2004L73.5301 12.1297L73.5301 12.1297L73.6008 12.2004ZM73.6008 7.80039L73.5301 7.8711L73.5301 7.8711L73.6008 7.80039ZM69.2008 7.80039L69.2715 7.8711V7.8711L69.2008 7.80039ZM69.2008 12.2004L69.2715 12.1297V12.1297L69.2008 12.2004ZM69.7996 11.7004L69.8708 11.6293L69.8621 11.6223L69.7996 11.7004ZM72.9996 11.7004L72.9285 11.6293L72.9215 11.6379L72.9996 11.7004ZM72.9996 8.3004L72.9285 8.37155L72.9371 8.37849L72.9996 8.3004ZM69.7996 8.3004L69.8708 8.37155L69.8777 8.36287L69.7996 8.3004ZM75.5996 13.0004H75.4996V13.1004H75.5996V13.0004ZM75.5996 7.00037V6.90037H75.4996V7.00037H75.5996ZM76.2996 13.0004V13.1004H76.3996V13.0004H76.2996ZM76.2996 8.10037L76.3841 8.0469L76.1996 7.75526V8.10037H76.2996ZM79.3996 13.0004L79.3151 13.0538L79.3446 13.1004H79.3996V13.0004ZM80.1996 13.0004V13.1004H80.2996V13.0004H80.1996ZM80.1996 7.00037H80.2996V6.90037H80.1996V7.00037ZM79.3996 7.00037V6.90037H79.2996V7.00037H79.3996ZM79.3996 11.7004L79.3145 11.7529L79.4996 12.0529V11.7004H79.3996ZM76.4996 7.00037L76.5847 6.94786L76.5554 6.90037H76.4996V7.00037ZM47.3004 10.2004C47.3004 10.985 47.1043 11.655 46.6297 12.1297L46.7711 12.2711C47.2965 11.7457 47.5004 11.0158 47.5004 10.2004H47.3004ZM47.3761 10.1034L47.3761 10.1034L47.4246 10.2974L47.4247 10.2974L47.3761 10.1034ZM47.3004 9.80039V10.2004H47.5004V9.80039H47.3004ZM44.5004 9.90039H47.4004V9.70039H44.5004V9.90039ZM44.6004 10.6004V9.80039H44.4004V10.6004H44.6004ZM46.7004 10.5004H44.5004V10.7004H46.7004V10.5004ZM46.2711 11.8711C46.5878 11.5544 46.8004 11.1297 46.8004 10.6004H46.6004C46.6004 11.0711 46.413 11.4464 46.1297 11.7297L46.2711 11.8711ZM44.5004 12.6004C44.8602 12.6004 45.1736 12.5489 45.4633 12.4304C45.753 12.3119 46.0138 12.1284 46.2711 11.8711L46.1297 11.7297C45.887 11.9724 45.6478 12.1389 45.3875 12.2453C45.1272 12.3518 44.8406 12.4004 44.5004 12.4004V12.6004ZM42.8379 11.8785C43.3421 12.2818 43.8649 12.6004 44.5004 12.6004V12.4004C43.9359 12.4004 43.4587 12.119 42.9629 11.7223L42.8379 11.8785ZM42.1004 10.1004C42.1004 10.8188 42.3062 11.4531 42.8379 11.8785L42.9629 11.7223C42.4946 11.3477 42.3004 10.782 42.3004 10.1004H42.1004ZM42.8379 8.3223C42.3062 8.74767 42.1004 9.38197 42.1004 10.1004H42.3004C42.3004 9.41881 42.4946 8.85311 42.9629 8.47848L42.8379 8.3223ZM44.5004 7.60039C43.8794 7.60039 43.2465 7.80774 42.8223 8.33792L42.9785 8.46286C43.3543 7.99305 43.9214 7.80039 44.5004 7.80039V7.60039ZM46.1785 8.33792C45.7557 7.80944 45.2241 7.60039 44.5004 7.60039V7.80039C45.1767 7.80039 45.6451 7.99134 46.0223 8.46286L46.1785 8.33792ZM46.5297 7.82968L46.0297 8.32968L46.1711 8.4711L46.6711 7.9711L46.5297 7.82968ZM45.6557 7.28983C46.0514 7.4877 46.332 7.67811 46.5172 7.95586L46.6836 7.84492C46.4688 7.52267 46.1494 7.31308 45.7451 7.11095L45.6557 7.28983ZM44.5004 7.00039C44.8831 7.00039 45.2679 7.09595 45.6557 7.28983L45.7451 7.11095C45.3329 6.90483 44.9177 6.80039 44.5004 6.80039V7.00039ZM42.3711 7.8711C42.9523 7.28989 43.6269 7.00039 44.5004 7.00039V6.80039C43.5739 6.80039 42.8485 7.11089 42.2297 7.72968L42.3711 7.8711ZM41.5004 10.0004C41.5004 9.12686 41.7899 8.45231 42.3711 7.8711L42.2297 7.72968C41.6109 8.34847 41.3004 9.07392 41.3004 10.0004H41.5004ZM42.3711 12.1297C41.7899 11.5485 41.5004 10.8739 41.5004 10.0004H41.3004C41.3004 10.9269 41.6109 11.6523 42.2297 12.2711L42.3711 12.1297ZM44.5004 13.0004C43.6269 13.0004 42.9523 12.7109 42.3711 12.1297L42.2297 12.2711C42.8485 12.8899 43.5739 13.2004 44.5004 13.2004V13.0004ZM46.6297 12.1297C46.0485 12.7109 45.3739 13.0004 44.5004 13.0004V13.2004C45.4269 13.2004 46.1523 12.8899 46.7711 12.2711L46.6297 12.1297ZM52 7.60049H49.3V7.80049H52V7.60049ZM51.9 7.00049V7.70049H52.1V7.00049H51.9ZM48.5 7.10049H52V6.90049H48.5V7.10049ZM48.6 13.0005V7.00049H48.4V13.0005H48.6ZM52 12.9005H48.5V13.1005H52V12.9005ZM51.9 12.2005V13.0005H52.1V12.2005H51.9ZM49.3 12.3005H52V12.1005H49.3V12.3005ZM49.2 10.3005V12.2005H49.4V10.3005H49.2ZM51.8 10.2005H49.3V10.4005H51.8V10.2005ZM51.7 9.60049V10.3005H51.9V9.60049H51.7ZM49.3 9.70049H51.8V9.50049H49.3V9.70049ZM49.2 7.70049V9.60049H49.4V7.70049H49.2ZM54.5008 13.1005H55.3008V12.9005H54.5008V13.1005ZM54.4008 7.70049V13.0005H54.6008V7.70049H54.4008ZM52.8008 7.80049H54.5008V7.60049H52.8008V7.80049ZM52.7008 7.00049V7.70049H52.9008V7.00049H52.7008ZM57.0008 6.90049H52.8008V7.10049H57.0008V6.90049ZM57.1008 7.70049V7.00049H56.9008V7.70049H57.1008ZM55.3008 7.80049H57.0008V7.60049H55.3008V7.80049ZM55.4008 13.0005V7.70049H55.2008V13.0005H55.4008ZM60.0004 13.0004V7.00039H59.8004V13.0004H60.0004ZM60.7004 12.9004H59.9004V13.1004H60.7004V12.9004ZM60.6004 7.00039V13.0004H60.8004V7.00039H60.6004ZM59.9004 7.10039H60.7004V6.90039H59.9004V7.10039ZM63.2996 13.1004H63.9996V12.9004H63.2996V13.1004ZM63.1996 7.70037V13.0004H63.3996V7.70037H63.1996ZM61.5996 7.80037H63.2996V7.60037H61.5996V7.80037ZM61.4996 7.00037V7.70037H61.6996V7.00037H61.4996ZM65.6996 6.90037H61.5996V7.10037H65.6996V6.90037ZM65.7996 7.70037V7.00037H65.5996V7.70037H65.7996ZM63.9996 7.80037H65.6996V7.60037H63.9996V7.80037ZM64.0996 13.0004V7.70037H63.8996V13.0004H64.0996ZM73.5301 12.1297C72.9489 12.7109 72.2743 13.0004 71.4008 13.0004V13.2004C72.3272 13.2004 73.0527 12.8899 73.6715 12.2711L73.5301 12.1297ZM74.4008 10.0004C74.4008 10.8739 74.1113 11.5485 73.5301 12.1297L73.6715 12.2711C74.2903 11.6523 74.6008 10.9269 74.6008 10.0004H74.4008ZM73.5301 7.8711C74.1113 8.45231 74.4008 9.12686 74.4008 10.0004H74.6008C74.6008 9.07392 74.2903 8.34847 73.6715 7.72968L73.5301 7.8711ZM71.4008 7.00039C72.2743 7.00039 72.9489 7.28989 73.5301 7.8711L73.6715 7.72968C73.0527 7.11089 72.3273 6.80039 71.4008 6.80039V7.00039ZM69.2715 7.8711C69.8527 7.28989 70.5273 7.00039 71.4008 7.00039V6.80039C70.4743 6.80039 69.7489 7.11089 69.1301 7.72968L69.2715 7.8711ZM68.4008 10.0004C68.4008 9.12686 68.6903 8.45231 69.2715 7.8711L69.1301 7.72968C68.5113 8.34847 68.2008 9.07392 68.2008 10.0004H68.4008ZM69.2715 12.1297C68.6903 11.5485 68.4008 10.8739 68.4008 10.0004H68.2008C68.2008 10.9269 68.5113 11.6523 69.1301 12.2711L69.2715 12.1297ZM71.4008 13.0004C70.5272 13.0004 69.8527 12.7109 69.2715 12.1297L69.1301 12.2711C69.7489 12.8899 70.4743 13.2004 71.4008 13.2004V13.0004ZM71.3996 12.3004C70.8308 12.3004 70.2552 12.0145 69.8703 11.6297L69.7289 11.7711C70.1441 12.1863 70.7684 12.5004 71.3996 12.5004V12.3004ZM72.9215 11.6379C72.5457 12.1077 71.9786 12.3004 71.3996 12.3004V12.5004C72.0206 12.5004 72.6535 12.2931 73.0777 11.7629L72.9215 11.6379ZM73.5996 10.0004C73.5996 10.6714 73.312 11.2466 72.9289 11.6297L73.0703 11.7711C73.4873 11.3542 73.7996 10.7294 73.7996 10.0004H73.5996ZM72.9371 8.37849C73.4054 8.75312 73.5996 9.31883 73.5996 10.0004H73.7996C73.7996 9.28198 73.5938 8.64768 73.0621 8.22232L72.9371 8.37849ZM71.3996 7.7004C71.9684 7.7004 72.544 7.98626 72.9289 8.37112L73.0703 8.22969C72.6552 7.81454 72.0308 7.5004 71.3996 7.5004V7.7004ZM69.8777 8.36287C70.2536 7.89306 70.8206 7.7004 71.3996 7.7004V7.5004C70.7786 7.5004 70.1457 7.70775 69.7215 8.23793L69.8777 8.36287ZM69.1996 10.0004C69.1996 9.32939 69.4873 8.75418 69.8703 8.37111L69.7289 8.22969C69.312 8.64663 68.9996 9.27142 68.9996 10.0004H69.1996ZM69.8621 11.6223C69.3938 11.2477 69.1996 10.682 69.1996 10.0004H68.9996C68.9996 10.7188 69.2054 11.3531 69.7371 11.7785L69.8621 11.6223ZM75.6996 13.0004V7.00037H75.4996V13.0004H75.6996ZM76.2996 12.9004H75.5996V13.1004H76.2996V12.9004ZM76.1996 8.10037V13.0004H76.3996V8.10037H76.1996ZM79.4841 12.9469L76.3841 8.0469L76.2151 8.15383L79.3151 13.0538L79.4841 12.9469ZM80.1996 12.9004H79.3996V13.1004H80.1996V12.9004ZM80.0996 7.00037V13.0004H80.2996V7.00037H80.0996ZM79.3996 7.10037H80.1996V6.90037H79.3996V7.10037ZM79.4996 11.7004V7.00037H79.2996V11.7004H79.4996ZM76.4145 7.05288L79.3145 11.7529L79.4847 11.6479L76.5847 6.94786L76.4145 7.05288ZM75.5996 7.10037H76.4996V6.90037H75.5996V7.10037Z" fill="white"/>
<path fill-rule="evenodd" clip-rule="evenodd" d="M47.6996 23.0996V24.8996H51.9996C51.8996 25.8996 51.4996 26.6996 50.9996 27.1996C50.3996 27.7996 49.3996 28.4996 47.6996 28.4996C44.9996 28.4996 42.9996 26.3996 42.9996 23.6996C42.9996 20.9996 45.0996 18.8996 47.6996 18.8996C49.0996 18.8996 50.1996 19.4996 50.9996 20.1996L52.2996 18.8996C51.1996 17.8996 49.7996 17.0996 47.7996 17.0996C44.1996 17.0996 41.0996 20.0996 41.0996 23.6996C41.0996 27.2996 44.1996 30.2996 47.7996 30.2996C49.7996 30.2996 51.1996 29.6996 52.3996 28.3996C53.5996 27.1996 53.9996 25.4996 53.9996 24.1996C53.9996 23.7996 53.9996 23.3996 53.8996 23.0996H47.6996ZM58.8 21.7993C56.4 21.7993 54.5 23.5993 54.5 26.0993C54.5 28.4993 56.4 30.3993 58.8 30.3993C61.2 30.3993 63.1 28.5993 63.1 26.0993C63.1 23.4993 61.2 21.7993 58.8 21.7993ZM63.7988 26.0996C63.7988 23.5996 65.6988 21.7996 68.0988 21.7996C70.4988 21.7996 72.3988 23.4996 72.3988 26.0996C72.3988 28.5996 70.4988 30.3996 68.0988 30.3996C65.6988 30.3996 63.7988 28.4996 63.7988 26.0996ZM65.6992 25.9999C65.6992 27.4999 66.7992 28.5999 68.0992 28.5999C69.3992 28.5999 70.4992 27.4999 70.4992 25.9999C70.4992 24.3999 69.3992 23.3999 68.0992 23.3999C66.7992 23.3999 65.6992 24.4999 65.6992 25.9999ZM56.4004 25.9996C56.4004 27.4996 57.5004 28.5996 58.8004 28.5996C60.1004 28.5996 61.2004 27.4996 61.2004 25.9996C61.2004 24.3996 60.1004 23.3996 58.8004 23.3996C57.5004 23.3996 56.4004 24.4996 56.4004 25.9996ZM89.5 21.7993C91.7 21.7993 92.7 23.4993 93.1 24.4993L93.3 24.9993L87.6 27.3993C88.1 28.2993 88.7 28.6993 89.7 28.6993C90.7 28.6993 91.3 28.1993 91.8 27.4993L93.2 28.4993C92.8 29.1993 91.6 30.3993 89.7 30.3993C87.3 30.3993 85.5 28.4993 85.5 26.0993C85.5 23.4993 87.3 21.7993 89.5 21.7993ZM87.2988 25.8996C87.2988 24.2996 88.5988 23.3996 89.4988 23.3996C90.1988 23.3996 90.8988 23.7996 91.0988 24.2996L87.2988 25.8996ZM84.4996 29.9996H82.5996V17.4996H84.4996V29.9996ZM79.5992 22.6997C79.0992 22.1997 78.2992 21.6997 77.2992 21.6997C75.1992 21.6997 73.1992 23.5997 73.1992 25.9997C73.1992 28.3997 75.0992 30.1997 77.2992 30.1997C78.2992 30.1997 79.0992 29.6997 79.4992 29.1997H79.5992V29.7997C79.5992 31.3997 78.6992 32.2997 77.2992 32.2997C76.1992 32.2997 75.3992 31.4997 75.1992 30.7997L73.5992 31.4997C74.0992 32.5997 75.2992 33.9997 77.3992 33.9997C79.5992 33.9997 81.3992 32.6997 81.3992 29.5997V21.9997H79.5992L79.5992 22.6997ZM75 25.9999C75 27.4999 76.1 28.5999 77.4 28.5999C78.7 28.5999 79.7 27.4999 79.7 25.9999C79.7 24.4999 78.7 23.3999 77.4 23.3999C76.1 23.3999 75 24.4999 75 25.9999ZM101.799 17.4996H97.2988V29.9996H99.1988V25.2996H101.799C103.899 25.2996 105.899 23.7996 105.899 21.3996C105.899 18.9996 103.899 17.4996 101.799 17.4996ZM99.1992 23.4997H101.899C103.199 23.4997 103.999 22.3997 104.099 21.2997C104.099 20.3997 103.299 19.1997 101.899 19.1997H99.1992V23.4997ZM113.4 21.6997C112 21.6997 110.6 22.2997 110.1 23.5997L111.8 24.2997C112.2 23.5997 112.8 23.3997 113.5 23.3997C114.5 23.3997 115.4 23.9997 115.5 24.9997V25.0997C115.2 24.8997 114.4 24.5997 113.6 24.5997C111.8 24.5997 110 25.5997 110 27.3997C110 29.0997 111.5 30.1997 113.1 30.1997C114.4 30.1997 115 29.5997 115.5 28.9997H115.6V29.9997H117.4V25.1997C117.2 22.9997 115.5 21.6997 113.4 21.6997ZM111.699 27.4997C111.699 28.2997 112.599 28.5997 113.199 28.5997C114.199 28.5997 115.199 27.7997 115.399 26.5997L115.329 26.5714L115.25 26.5393C114.814 26.3613 114.418 26.1997 113.699 26.1997C112.799 26.1997 111.699 26.4997 111.699 27.4997ZM123.699 21.9996L121.599 27.3996H121.499L119.299 21.9996H117.299L120.599 29.5996L118.699 33.7996H120.599L125.699 21.9996H123.699ZM108.8 29.9996H106.9V17.4996H108.8V29.9996Z" fill="white"/>
<path d="M10.4 7.5C10.1 7.8 10 8.3 10 8.9V31C10 31.6 10.2 32.1 10.5 32.4L10.6 32.5L23 20.1V19.9L10.4 7.5Z" fill="url(#paint0_linear_686_12468)"/>
<path d="M27.0004 24.3008L22.9004 20.2008V19.9008L27.0004 15.8008L27.1004 15.9008L32.0004 18.7008C33.4004 19.5008 33.4004 20.8008 32.0004 21.6008L27.0004 24.3008Z" fill="url(#paint1_linear_686_12468)"/>
<path d="M27.1004 24.2L22.9004 20L10.4004 32.5C10.9004 33 11.6004 33 12.5004 32.6L27.1004 24.2Z" fill="url(#paint2_linear_686_12468)"/>
<path d="M27.1004 15.8006L12.5004 7.5006C11.6004 7.0006 10.9004 7.1006 10.4004 7.6006L22.9004 20.0006L27.1004 15.8006H27.1004Z" fill="url(#paint3_linear_686_12468)"/>
<path opacity="0.2" d="M27.0004 24.0996L12.5004 32.2996C11.7004 32.7996 11.0004 32.6996 10.5004 32.2996L10.4004 32.3996L10.5004 32.4996C11.0004 32.8996 11.7004 32.9996 12.5004 32.4996L27.0004 24.0996Z" fill="black"/>
<path opacity="0.12" fill-rule="evenodd" clip-rule="evenodd" d="M27 24.1L32 21.3C32.6 20.9 33 20.5 33 20C33 20.5 32.7 21 32 21.4L27.1 24.2L27 24.1ZM10 30.9C10 31.0417 10.0056 31.1778 10.018 31.307C10.0062 31.2081 10 31.1056 10 31V30.9ZM10.018 31.307C10.0665 31.7114 10.2095 32.0548 10.4097 32.3L10.018 31.307ZM10.4097 32.3H10.5V32.4C10.4688 32.3688 10.4387 32.3354 10.4097 32.3Z" fill="black"/>
<path opacity="0.25" d="M12.5 7.60027L32 18.7003C32.6 19.1003 33 19.5003 33 20.0003C33 19.5003 32.7 19.0003 32 18.6003L12.5 7.50027C11.1 6.70027 10 7.30027 10 8.90027V9.00027C10 7.50027 11.1 6.80027 12.5 7.60027Z" fill="white"/>
<defs>
<linearGradient id="paint0_linear_686_12468" x1="26.1633" y1="17.1525" x2="6.29524" y2="11.7805" gradientUnits="userSpaceOnUse">
<stop stop-color="#00A0FF"/>
<stop offset="0.007" stop-color="#00A1FF"/>
<stop offset="0.26" stop-color="#00BEFF"/>
<stop offset="0.512" stop-color="#00D2FF"/>
<stop offset="0.76" stop-color="#00DFFF"/>
<stop offset="1" stop-color="#00E3FF"/>
</linearGradient>
<linearGradient id="paint1_linear_686_12468" x1="33.8344" y1="11.868" x2="9.63739" y2="11.868" gradientUnits="userSpaceOnUse">
<stop stop-color="#FFE000"/>
<stop offset="0.409" stop-color="#FFBD00"/>
<stop offset="0.775" stop-color="#FFA500"/>
<stop offset="1" stop-color="#FF9C00"/>
</linearGradient>
<linearGradient id="paint2_linear_686_12468" x1="39.5715" y1="10.922" x2="23.6063" y2="-15.882" gradientUnits="userSpaceOnUse">
<stop stop-color="#FF3A44"/>
<stop offset="1" stop-color="#C31162"/>
</linearGradient>
<linearGradient id="paint3_linear_686_12468" x1="13.9123" y1="45.7281" x2="20.9856" y2="33.7418" gradientUnits="userSpaceOnUse">
<stop stop-color="#32A071"/>
<stop offset="0.069" stop-color="#2DA771"/>
<stop offset="0.476" stop-color="#15CF74"/>
<stop offset="0.801" stop-color="#06E775"/>
<stop offset="1" stop-color="#00F076"/>
</linearGradient>
</defs>
</svg>
