<svg width="136" height="40" viewBox="0 0 136 40" fill="none" xmlns="http://www.w3.org/2000/svg">
<path d="M130.5 40H5.5C2.7 40 0.5 37.8 0.5 35V5C0.5 2.2 2.7 0 5.5 0H130.5C133.3 0 135.5 2.2 135.5 5V35C135.5 37.8 133.3 40 130.5 40Z" fill="black"/>
<path fill-rule="evenodd" clip-rule="evenodd" d="M5.5 0H130.5C133.3 0 135.5 2.3 135.5 5V35C135.5 37.8 133.3 40 130.5 40H5.5C2.7 40 0.5 37.8 0.5 35V5C0.5 2.3 2.7 0 5.5 0ZM134.7 5C134.7 2.7 132.8 0.8 130.5 0.8H5.5C3.2 0.8 1.3 2.7 1.3 5V35C1.3 37.3 3.2 39.2 5.5 39.2H130.5C132.8 39.2 134.7 37.3 134.7 35V5Z" fill="#A6A6A6"/>
<path fill-rule="evenodd" clip-rule="evenodd" d="M47.2004 12.1999C47.7004 11.6999 47.9004 10.9999 47.9004 10.1999L47.9004 10.1999V9.7999H45.0004V10.5999H47.2004C47.2004 11.0999 47.0004 11.4999 46.7004 11.7999C46.2004 12.2999 45.7004 12.4999 45.0004 12.4999C44.4004 12.4999 43.9004 12.1999 43.4004 11.7999C42.9004 11.3999 42.7004 10.7999 42.7004 10.0999C42.7004 9.3999 42.9004 8.7999 43.4004 8.3999C43.8004 7.8999 44.4004 7.6999 45.0004 7.6999C45.7004 7.6999 46.2004 7.8999 46.6004 8.3999L47.1004 7.8999C46.9004 7.5999 46.6004 7.3999 46.2004 7.1999C45.8004 6.9999 45.4004 6.8999 45.0004 6.8999C44.1004 6.8999 43.4004 7.1999 42.8004 7.7999C42.2004 8.3999 41.9004 9.0999 41.9004 9.9999C41.9004 10.8999 42.2004 11.5999 42.8004 12.1999C43.4004 12.7999 44.1004 13.0999 45.0004 13.0999C45.9004 13.0999 46.6004 12.7999 47.2004 12.1999ZM49.8 7.7H52.5V7H49V13H52.5V12.2H49.8V10.3H52.3V9.6H49.8V7.7ZM55.8008 13H55.0008V7.7H53.3008V7H57.5008V7.7H55.8008V13ZM60.4004 6.9999V12.9999H61.2004V6.9999H60.4004ZM64.5004 12.9999H63.8004V7.6999H62.1004V6.9999H66.2004V7.6999H64.5004V12.9999ZM71.9008 13.0999C72.8008 13.0999 73.5008 12.7999 74.1008 12.1999C74.7008 11.5999 75.0008 10.8999 75.0008 9.9999C75.0008 9.0999 74.7008 8.3999 74.1008 7.7999C73.5008 7.1999 72.8008 6.8999 71.9008 6.8999C71.0008 6.8999 70.3008 7.1999 69.7008 7.7999C69.1008 8.3999 68.8008 9.0999 68.8008 9.9999C68.8008 10.8999 69.1008 11.5999 69.7008 12.1999C70.3008 12.7999 71.0008 13.0999 71.9008 13.0999ZM70.3004 11.6999C70.7004 12.0999 71.3004 12.3999 71.9004 12.3999C72.5004 12.3999 73.1004 12.1999 73.5004 11.6999C73.9004 11.2999 74.2004 10.6999 74.2004 9.9999C74.2004 9.2999 74.0004 8.6999 73.5004 8.2999C73.1004 7.8999 72.5004 7.5999 71.9004 7.5999C71.3004 7.5999 70.7004 7.7999 70.3004 8.2999C69.9004 8.6999 69.6004 9.2999 69.6004 9.9999C69.6004 10.6999 69.8004 11.2999 70.3004 11.6999ZM76.1004 6.9999V12.9999H76.8004V8.0999L79.9004 12.9999H80.7004V6.9999H79.9004V11.6999L77.0004 6.9999H76.1004Z" fill="white"/>
<path d="M47.9004 10.1999L47.8761 10.1029L47.8004 10.1218V10.1999H47.9004ZM47.2004 12.1999L47.1297 12.1292L47.2004 12.1999ZM47.9004 10.1999L47.9247 10.2969L48.0004 10.278V10.1999H47.9004ZM47.9004 9.7999H48.0004V9.6999H47.9004V9.7999ZM45.0004 9.7999V9.6999H44.9004V9.7999H45.0004ZM45.0004 10.5999H44.9004V10.6999H45.0004V10.5999ZM47.2004 10.5999H47.3004V10.4999H47.2004V10.5999ZM46.7004 11.7999L46.7711 11.8706L46.7711 11.8706L46.7004 11.7999ZM43.4004 8.3999L43.4629 8.47799L43.4715 8.47105L43.4785 8.46237L43.4004 8.3999ZM46.6004 8.3999L46.5223 8.46237L46.5921 8.54962L46.6711 8.47061L46.6004 8.3999ZM47.1004 7.8999L47.1711 7.97061L47.2291 7.91264L47.1836 7.84443L47.1004 7.8999ZM46.2004 7.1999L46.2451 7.11046L46.2451 7.11046L46.2004 7.1999ZM42.8004 7.7999L42.8711 7.87061H42.8711L42.8004 7.7999ZM42.8004 12.1999L42.7297 12.2706L42.7297 12.2706L42.8004 12.1999ZM52.5 7.7V7.8H52.6V7.7H52.5ZM49.8 7.7V7.6H49.7V7.7H49.8ZM52.5 7H52.6V6.9H52.5V7ZM49 7V6.9H48.9V7H49ZM49 13H48.9V13.1H49V13ZM52.5 13V13.1H52.6V13H52.5ZM52.5 12.2H52.6V12.1H52.5V12.2ZM49.8 12.2H49.7V12.3H49.8V12.2ZM49.8 10.3V10.2H49.7V10.3H49.8ZM52.3 10.3V10.4H52.4V10.3H52.3ZM52.3 9.6H52.4V9.5H52.3V9.6ZM49.8 9.6H49.7V9.7H49.8V9.6ZM55.0008 13H54.9008V13.1H55.0008V13ZM55.8008 13V13.1H55.9008V13H55.8008ZM55.0008 7.7H55.1008V7.6H55.0008V7.7ZM53.3008 7.7H53.2008V7.8H53.3008V7.7ZM53.3008 7V6.9H53.2008V7H53.3008ZM57.5008 7H57.6008V6.9H57.5008V7ZM57.5008 7.7V7.8H57.6008V7.7H57.5008ZM55.8008 7.7V7.6H55.7008V7.7H55.8008ZM60.4004 12.9999H60.3004V13.0999H60.4004V12.9999ZM60.4004 6.9999V6.8999H60.3004V6.9999H60.4004ZM61.2004 12.9999V13.0999H61.3004V12.9999H61.2004ZM61.2004 6.9999H61.3004V6.8999H61.2004V6.9999ZM63.8004 12.9999H63.7004V13.0999H63.8004V12.9999ZM64.5004 12.9999V13.0999H64.6004V12.9999H64.5004ZM63.8004 7.6999H63.9004V7.5999H63.8004V7.6999ZM62.1004 7.6999H62.0004V7.7999H62.1004V7.6999ZM62.1004 6.9999V6.8999H62.0004V6.9999H62.1004ZM66.2004 6.9999H66.3004V6.8999H66.2004V6.9999ZM66.2004 7.6999V7.7999H66.3004V7.6999H66.2004ZM64.5004 7.6999V7.5999H64.4004V7.6999H64.5004ZM74.1008 12.1999L74.0301 12.1292L74.0301 12.1292L74.1008 12.1999ZM74.1008 7.7999L74.0301 7.87061L74.0301 7.87061L74.1008 7.7999ZM69.7008 7.7999L69.7715 7.87061V7.87061L69.7008 7.7999ZM69.7008 12.1999L69.7715 12.1292V12.1292L69.7008 12.1999ZM70.3004 11.6999L70.3715 11.6288L70.3629 11.6218L70.3004 11.6999ZM73.5004 11.6999L73.4293 11.6288L73.4223 11.6374L73.5004 11.6999ZM73.5004 8.2999L73.4293 8.37105L73.4379 8.37799L73.5004 8.2999ZM70.3004 8.2999L70.3715 8.37105L70.3785 8.36237L70.3004 8.2999ZM76.1004 12.9999H76.0004V13.0999H76.1004V12.9999ZM76.1004 6.9999V6.8999H76.0004V6.9999H76.1004ZM76.8004 12.9999V13.0999H76.9004V12.9999H76.8004ZM76.8004 8.0999L76.8849 8.04644L76.7004 7.7548V8.0999H76.8004ZM79.9004 12.9999L79.8159 13.0534L79.8453 13.0999H79.9004V12.9999ZM80.7004 12.9999V13.0999H80.8004V12.9999H80.7004ZM80.7004 6.9999H80.8004V6.8999H80.7004V6.9999ZM79.9004 6.9999V6.8999H79.8004V6.9999H79.9004ZM79.9004 11.6999L79.8153 11.7524L80.0004 12.0524V11.6999H79.9004ZM77.0004 6.9999L77.0855 6.94739L77.0562 6.8999H77.0004V6.9999ZM47.8004 10.1999C47.8004 10.9845 47.6043 11.6546 47.1297 12.1292L47.2711 12.2706C47.7965 11.7452 48.0004 11.0153 48.0004 10.1999H47.8004ZM47.8761 10.1029L47.8761 10.1029L47.9246 10.2969L47.9247 10.2969L47.8761 10.1029ZM47.8004 9.7999V10.1999H48.0004V9.7999H47.8004ZM45.0004 9.8999H47.9004V9.6999H45.0004V9.8999ZM45.1004 10.5999V9.7999H44.9004V10.5999H45.1004ZM47.2004 10.4999H45.0004V10.6999H47.2004V10.4999ZM46.7711 11.8706C47.0878 11.5539 47.3004 11.1292 47.3004 10.5999H47.1004C47.1004 11.0706 46.913 11.4459 46.6297 11.7292L46.7711 11.8706ZM45.0004 12.5999C45.3602 12.5999 45.6736 12.5485 45.9633 12.43C46.253 12.3114 46.5138 12.1279 46.7711 11.8706L46.6297 11.7292C46.387 11.9719 46.1478 12.1384 45.8875 12.2448C45.6272 12.3513 45.3406 12.3999 45.0004 12.3999V12.5999ZM43.3379 11.878C43.8421 12.2813 44.3649 12.5999 45.0004 12.5999V12.3999C44.4359 12.3999 43.9587 12.1185 43.4629 11.7218L43.3379 11.878ZM42.6004 10.0999C42.6004 10.8183 42.8062 11.4526 43.3379 11.878L43.4629 11.7218C42.9946 11.3472 42.8004 10.7815 42.8004 10.0999H42.6004ZM43.3379 8.32182C42.8062 8.74718 42.6004 9.38148 42.6004 10.0999H42.8004C42.8004 9.41832 42.9946 8.85262 43.4629 8.47799L43.3379 8.32182ZM45.0004 7.5999C44.3794 7.5999 43.7465 7.80725 43.3223 8.33743L43.4785 8.46237C43.8543 7.99256 44.4214 7.7999 45.0004 7.7999V7.5999ZM46.6785 8.33743C46.2557 7.80895 45.7241 7.5999 45.0004 7.5999V7.7999C45.6767 7.7999 46.1451 7.99085 46.5223 8.46237L46.6785 8.33743ZM47.0297 7.82919L46.5297 8.32919L46.6711 8.47061L47.1711 7.97061L47.0297 7.82919ZM46.1557 7.28934C46.5514 7.48721 46.832 7.67762 47.0172 7.95537L47.1836 7.84443C46.9688 7.52218 46.6494 7.31259 46.2451 7.11046L46.1557 7.28934ZM45.0004 6.9999C45.3831 6.9999 45.7679 7.09546 46.1557 7.28934L46.2451 7.11046C45.8329 6.90434 45.4177 6.7999 45.0004 6.7999V6.9999ZM42.8711 7.87061C43.4523 7.2894 44.1269 6.9999 45.0004 6.9999V6.7999C44.0739 6.7999 43.3485 7.1104 42.7297 7.72919L42.8711 7.87061ZM42.0004 9.9999C42.0004 9.12637 42.2899 8.45182 42.8711 7.87061L42.7297 7.72919C42.1109 8.34798 41.8004 9.07343 41.8004 9.9999H42.0004ZM42.8711 12.1292C42.2899 11.548 42.0004 10.8734 42.0004 9.9999H41.8004C41.8004 10.9264 42.1109 11.6518 42.7297 12.2706L42.8711 12.1292ZM45.0004 12.9999C44.1269 12.9999 43.4523 12.7104 42.8711 12.1292L42.7297 12.2706C43.3485 12.8894 44.0739 13.1999 45.0004 13.1999V12.9999ZM47.1297 12.1292C46.5485 12.7104 45.8739 12.9999 45.0004 12.9999V13.1999C45.9269 13.1999 46.6523 12.8894 47.2711 12.2706L47.1297 12.1292ZM52.5 7.6H49.8V7.8H52.5V7.6ZM52.4 7V7.7H52.6V7H52.4ZM49 7.1H52.5V6.9H49V7.1ZM49.1 13V7H48.9V13H49.1ZM52.5 12.9H49V13.1H52.5V12.9ZM52.4 12.2V13H52.6V12.2H52.4ZM49.8 12.3H52.5V12.1H49.8V12.3ZM49.7 10.3V12.2H49.9V10.3H49.7ZM52.3 10.2H49.8V10.4H52.3V10.2ZM52.2 9.6V10.3H52.4V9.6H52.2ZM49.8 9.7H52.3V9.5H49.8V9.7ZM49.7 7.7V9.6H49.9V7.7H49.7ZM55.0008 13.1H55.8008V12.9H55.0008V13.1ZM54.9008 7.7V13H55.1008V7.7H54.9008ZM53.3008 7.8H55.0008V7.6H53.3008V7.8ZM53.2008 7V7.7H53.4008V7H53.2008ZM57.5008 6.9H53.3008V7.1H57.5008V6.9ZM57.6008 7.7V7H57.4008V7.7H57.6008ZM55.8008 7.8H57.5008V7.6H55.8008V7.8ZM55.9008 13V7.7H55.7008V13H55.9008ZM60.5004 12.9999V6.9999H60.3004V12.9999H60.5004ZM61.2004 12.8999H60.4004V13.0999H61.2004V12.8999ZM61.1004 6.9999V12.9999H61.3004V6.9999H61.1004ZM60.4004 7.0999H61.2004V6.8999H60.4004V7.0999ZM63.8004 13.0999H64.5004V12.8999H63.8004V13.0999ZM63.7004 7.6999V12.9999H63.9004V7.6999H63.7004ZM62.1004 7.7999H63.8004V7.5999H62.1004V7.7999ZM62.0004 6.9999V7.6999H62.2004V6.9999H62.0004ZM66.2004 6.8999H62.1004V7.0999H66.2004V6.8999ZM66.3004 7.6999V6.9999H66.1004V7.6999H66.3004ZM64.5004 7.7999H66.2004V7.5999H64.5004V7.7999ZM64.6004 12.9999V7.6999H64.4004V12.9999H64.6004ZM74.0301 12.1292C73.4489 12.7104 72.7743 12.9999 71.9008 12.9999V13.1999C72.8272 13.1999 73.5527 12.8894 74.1715 12.2706L74.0301 12.1292ZM74.9008 9.9999C74.9008 10.8734 74.6113 11.548 74.0301 12.1292L74.1715 12.2706C74.7903 11.6518 75.1008 10.9264 75.1008 9.9999H74.9008ZM74.0301 7.87061C74.6113 8.45182 74.9008 9.12637 74.9008 9.9999H75.1008C75.1008 9.07343 74.7903 8.34798 74.1715 7.72919L74.0301 7.87061ZM71.9008 6.9999C72.7743 6.9999 73.4489 7.2894 74.0301 7.87061L74.1715 7.72919C73.5527 7.1104 72.8273 6.7999 71.9008 6.7999V6.9999ZM69.7715 7.87061C70.3527 7.2894 71.0273 6.9999 71.9008 6.9999V6.7999C70.9743 6.7999 70.2489 7.1104 69.6301 7.72919L69.7715 7.87061ZM68.9008 9.9999C68.9008 9.12637 69.1903 8.45182 69.7715 7.87061L69.6301 7.72919C69.0113 8.34798 68.7008 9.07343 68.7008 9.9999H68.9008ZM69.7715 12.1292C69.1903 11.548 68.9008 10.8734 68.9008 9.9999H68.7008C68.7008 10.9264 69.0113 11.6518 69.6301 12.2706L69.7715 12.1292ZM71.9008 12.9999C71.0272 12.9999 70.3527 12.7104 69.7715 12.1292L69.6301 12.2706C70.2489 12.8894 70.9743 13.1999 71.9008 13.1999V12.9999ZM71.9004 12.2999C71.3316 12.2999 70.756 12.014 70.3711 11.6292L70.2297 11.7706C70.6448 12.1858 71.2692 12.4999 71.9004 12.4999V12.2999ZM73.4223 11.6374C73.0464 12.1072 72.4794 12.2999 71.9004 12.2999V12.4999C72.5214 12.4999 73.1543 12.2926 73.5785 11.7624L73.4223 11.6374ZM74.1004 9.9999C74.1004 10.6709 73.8127 11.2461 73.4297 11.6292L73.5711 11.7706C73.988 11.3537 74.3004 10.7289 74.3004 9.9999H74.1004ZM73.4379 8.37799C73.9062 8.75262 74.1004 9.31833 74.1004 9.9999H74.3004C74.3004 9.28148 74.0946 8.64718 73.5629 8.22182L73.4379 8.37799ZM71.9004 7.6999C72.4692 7.6999 73.0448 7.98576 73.4297 8.37061L73.5711 8.22919C73.1559 7.81404 72.5316 7.4999 71.9004 7.4999V7.6999ZM70.3785 8.36237C70.7543 7.89256 71.3214 7.6999 71.9004 7.6999V7.4999C71.2794 7.4999 70.6465 7.70725 70.2223 8.23743L70.3785 8.36237ZM69.7004 9.9999C69.7004 9.32889 69.988 8.75367 70.3711 8.37061L70.2297 8.22919C69.8127 8.64613 69.5004 9.27092 69.5004 9.9999H69.7004ZM70.3629 11.6218C69.8946 11.2472 69.7004 10.6815 69.7004 9.9999H69.5004C69.5004 10.7183 69.7062 11.3526 70.2379 11.778L70.3629 11.6218ZM76.2004 12.9999V6.9999H76.0004V12.9999H76.2004ZM76.8004 12.8999H76.1004V13.0999H76.8004V12.8999ZM76.7004 8.0999V12.9999H76.9004V8.0999H76.7004ZM79.9849 12.9464L76.8849 8.04644L76.7159 8.15337L79.8159 13.0534L79.9849 12.9464ZM80.7004 12.8999H79.9004V13.0999H80.7004V12.8999ZM80.6004 6.9999V12.9999H80.8004V6.9999H80.6004ZM79.9004 7.0999H80.7004V6.8999H79.9004V7.0999ZM80.0004 11.6999V6.9999H79.8004V11.6999H80.0004ZM76.9153 7.05241L79.8153 11.7524L79.9855 11.6474L77.0855 6.94739L76.9153 7.05241ZM76.1004 7.0999H77.0004V6.8999H76.1004V7.0999Z" fill="white"/>
<path fill-rule="evenodd" clip-rule="evenodd" d="M48.1996 23.1001V24.9001H52.4996C52.3996 25.9001 51.9996 26.7001 51.4996 27.2001C50.8996 27.8001 49.8996 28.5001 48.1996 28.5001C45.4996 28.5001 43.4996 26.4001 43.4996 23.7001C43.4996 21.0001 45.5996 18.9001 48.1996 18.9001C49.5996 18.9001 50.6996 19.5001 51.4996 20.2001L52.7996 18.9001C51.6996 17.9001 50.2996 17.1001 48.2996 17.1001C44.6996 17.1001 41.5996 20.1001 41.5996 23.7001C41.5996 27.3001 44.6996 30.3001 48.2996 30.3001C50.2996 30.3001 51.6996 29.7001 52.8996 28.4001C54.0996 27.2001 54.4996 25.5001 54.4996 24.2001C54.4996 23.8001 54.4996 23.4001 54.3996 23.1001H48.1996ZM59.3 21.7998C56.9 21.7998 55 23.5998 55 26.0998C55 28.4998 56.9 30.3998 59.3 30.3998C61.7 30.3998 63.6 28.5998 63.6 26.0998C63.6 23.4998 61.7 21.7998 59.3 21.7998ZM64.2996 26.1001C64.2996 23.6001 66.1996 21.8001 68.5996 21.8001C70.9996 21.8001 72.8996 23.5001 72.8996 26.1001C72.8996 28.6001 70.9996 30.4001 68.5996 30.4001C66.1996 30.4001 64.2996 28.5001 64.2996 26.1001ZM66.1992 26.0004C66.1992 27.5004 67.2992 28.6004 68.5992 28.6004C69.8992 28.6004 70.9992 27.5004 70.9992 26.0004C70.9992 24.4004 69.8992 23.4004 68.5992 23.4004C67.2992 23.4004 66.1992 24.5004 66.1992 26.0004ZM56.8996 26.0001C56.8996 27.5001 57.9996 28.6001 59.2996 28.6001C60.5996 28.6001 61.6996 27.5001 61.6996 26.0001C61.6996 24.4001 60.5996 23.4001 59.2996 23.4001C57.9996 23.4001 56.8996 24.5001 56.8996 26.0001ZM90 21.7998C92.2 21.7998 93.2 23.4998 93.6 24.4998L93.8 24.9998L88.1 27.3998C88.6 28.2998 89.2 28.6998 90.2 28.6998C91.2 28.6998 91.8 28.1998 92.3 27.4998L93.7 28.4998C93.3 29.1998 92.1 30.3998 90.2 30.3998C87.8 30.3998 86 28.4998 86 26.0998C86 23.4998 87.8 21.7998 90 21.7998ZM87.7996 25.9001C87.7996 24.3001 89.0996 23.4001 89.9996 23.4001C90.6996 23.4001 91.3996 23.8001 91.5996 24.3001L87.7996 25.9001ZM84.9996 30.0001H83.0996V17.5001H84.9996V30.0001ZM80.0992 22.7002C79.5992 22.2002 78.7992 21.7002 77.7992 21.7002C75.6992 21.7002 73.6992 23.6002 73.6992 26.0002C73.6992 28.4002 75.5992 30.2002 77.7992 30.2002C78.7992 30.2002 79.5992 29.7002 79.9992 29.2002H80.0992V29.8002C80.0992 31.4002 79.1992 32.3002 77.7992 32.3002C76.6992 32.3002 75.8992 31.5002 75.6992 30.8002L74.0992 31.5002C74.5992 32.6002 75.7992 34.0002 77.8992 34.0002C80.0992 34.0002 81.8992 32.7002 81.8992 29.6002V22.0002H80.0992L80.0992 22.7002ZM75.5 26.0004C75.5 27.5004 76.6 28.6004 77.9 28.6004C79.2 28.6004 80.2 27.5004 80.2 26.0004C80.2 24.5004 79.2 23.4004 77.9 23.4004C76.6 23.4004 75.5 24.5004 75.5 26.0004ZM102.3 17.5001H97.7996V30.0001H99.6996V25.3001H102.3C104.4 25.3001 106.4 23.8001 106.4 21.4001C106.4 19.0001 104.4 17.5001 102.3 17.5001ZM99.6992 23.5002H102.399C103.699 23.5002 104.499 22.4002 104.599 21.3002C104.599 20.4002 103.799 19.2002 102.399 19.2002H99.6992V23.5002ZM113.9 21.7002C112.5 21.7002 111.1 22.3002 110.6 23.6002L112.3 24.3002C112.7 23.6002 113.3 23.4002 114 23.4002C115 23.4002 115.9 24.0002 116 25.0002V25.1002C115.7 24.9002 114.9 24.6002 114.1 24.6002C112.3 24.6002 110.5 25.6002 110.5 27.4002C110.5 29.1002 112 30.2002 113.6 30.2002C114.9 30.2002 115.5 29.6002 116 29.0002H116.1V30.0002H117.9V25.2002C117.7 23.0002 116 21.7002 113.9 21.7002ZM112.199 27.5002C112.199 28.3002 113.099 28.6002 113.699 28.6002C114.699 28.6002 115.699 27.8002 115.899 26.6002L115.829 26.5719L115.75 26.5398C115.314 26.3618 114.918 26.2002 114.199 26.2002C113.299 26.2002 112.199 26.5002 112.199 27.5002ZM124.2 22.0001L122.1 27.4001H122L119.8 22.0001H117.8L121.1 29.6001L119.2 33.8001H121.1L126.2 22.0001H124.2ZM109.3 30.0001H107.4V17.5001H109.3V30.0001Z" fill="white"/>
<path d="M10.9 7.5C10.6 7.8 10.5 8.3 10.5 8.9V31C10.5 31.6 10.7 32.1 11 32.4L11.1 32.5L23.5 20.1V19.9L10.9 7.5Z" fill="url(#paint0_linear_18_4605)"/>
<path d="M27.5004 24.2998L23.4004 20.1998V19.8998L27.5004 15.7998L27.6004 15.8998L32.5004 18.6998C33.9004 19.4998 33.9004 20.7998 32.5004 21.5998L27.5004 24.2998Z" fill="url(#paint1_linear_18_4605)"/>
<path d="M27.6004 24.2L23.4004 20L10.9004 32.5C11.4004 33 12.1004 33 13.0004 32.6L27.6004 24.2Z" fill="url(#paint2_linear_18_4605)"/>
<path d="M27.6004 15.7996L13.0004 7.49962C12.1004 6.99962 11.4004 7.09962 10.9004 7.59962L23.4004 19.9996L27.6004 15.7996H27.6004Z" fill="url(#paint3_linear_18_4605)"/>
<path opacity="0.2" d="M27.5004 24.0996L13.0004 32.2996C12.2004 32.7996 11.5004 32.6996 11.0004 32.2996L10.9004 32.3996L11.0004 32.4996C11.5004 32.8996 12.2004 32.9996 13.0004 32.4996L27.5004 24.0996Z" fill="black"/>
<path opacity="0.12" fill-rule="evenodd" clip-rule="evenodd" d="M27.5 24.1L32.5 21.3C33.1 20.9 33.5 20.5 33.5 20C33.5 20.5 33.2 21 32.5 21.4L27.6 24.2L27.5 24.1ZM10.5 30.9C10.5 31.0417 10.5056 31.1778 10.518 31.307C10.5062 31.2081 10.5 31.1056 10.5 31V30.9ZM10.518 31.307C10.5665 31.7114 10.7095 32.0548 10.9097 32.3L10.518 31.307ZM10.9097 32.3H11V32.4C10.9688 32.3688 10.9387 32.3354 10.9097 32.3Z" fill="black"/>
<path opacity="0.25" d="M13 7.59978L32.5 18.6998C33.1 19.0998 33.5 19.4998 33.5 19.9998C33.5 19.4998 33.2 18.9998 32.5 18.5998L13 7.49978C11.6 6.69978 10.5 7.29978 10.5 8.89978V8.99978C10.5 7.49978 11.6 6.79978 13 7.59978Z" fill="white"/>
<defs>
<linearGradient id="paint0_linear_18_4605" x1="26.6633" y1="17.1525" x2="6.79524" y2="11.7805" gradientUnits="userSpaceOnUse">
<stop stop-color="#00A0FF"/>
<stop offset="0.007" stop-color="#00A1FF"/>
<stop offset="0.26" stop-color="#00BEFF"/>
<stop offset="0.512" stop-color="#00D2FF"/>
<stop offset="0.76" stop-color="#00DFFF"/>
<stop offset="1" stop-color="#00E3FF"/>
</linearGradient>
<linearGradient id="paint1_linear_18_4605" x1="34.3344" y1="11.8671" x2="10.1374" y2="11.8671" gradientUnits="userSpaceOnUse">
<stop stop-color="#FFE000"/>
<stop offset="0.409" stop-color="#FFBD00"/>
<stop offset="0.775" stop-color="#FFA500"/>
<stop offset="1" stop-color="#FF9C00"/>
</linearGradient>
<linearGradient id="paint2_linear_18_4605" x1="40.0715" y1="10.922" x2="24.1063" y2="-15.882" gradientUnits="userSpaceOnUse">
<stop stop-color="#FF3A44"/>
<stop offset="1" stop-color="#C31162"/>
</linearGradient>
<linearGradient id="paint3_linear_18_4605" x1="14.4123" y1="45.7272" x2="21.4856" y2="33.7409" gradientUnits="userSpaceOnUse">
<stop stop-color="#32A071"/>
<stop offset="0.069" stop-color="#2DA771"/>
<stop offset="0.476" stop-color="#15CF74"/>
<stop offset="0.801" stop-color="#06E775"/>
<stop offset="1" stop-color="#00F076"/>
</linearGradient>
</defs>
</svg>
