<svg width="136" height="40" viewBox="0 0 136 40" fill="none" xmlns="http://www.w3.org/2000/svg">
<path d="M130.5 40H5.5C2.7 40 0.5 37.8 0.5 35V5C0.5 2.2 2.7 0 5.5 0H130.5C133.3 0 135.5 2.2 135.5 5V35C135.5 37.8 133.3 40 130.5 40Z" fill="black"/>
<path fill-rule="evenodd" clip-rule="evenodd" d="M5.5 0H130.5C133.3 0 135.5 2.3 135.5 5V35C135.5 37.8 133.3 40 130.5 40H5.5C2.7 40 0.5 37.8 0.5 35V5C0.5 2.3 2.7 0 5.5 0ZM134.701 5.00005C134.701 2.70005 132.801 0.800049 130.501 0.800049H5.50078C3.20078 0.800049 1.30078 2.70005 1.30078 5.00005V35.0001C1.30078 37.3001 3.20078 39.2001 5.50078 39.2001H130.501C132.801 39.2001 134.701 37.3001 134.701 35.0001V5.00005Z" fill="#A6A6A6"/>
<path fill-rule="evenodd" clip-rule="evenodd" d="M47.2004 12.2004C47.7004 11.7004 47.9004 11.0004 47.9004 10.2004L47.9004 10.2004V9.80039H45.0004V10.6004H47.2004C47.2004 11.1004 47.0004 11.5004 46.7004 11.8004C46.2004 12.3004 45.7004 12.5004 45.0004 12.5004C44.4004 12.5004 43.9004 12.2004 43.4004 11.8004C42.9004 11.4004 42.7004 10.8004 42.7004 10.1004C42.7004 9.40039 42.9004 8.80039 43.4004 8.40039C43.8004 7.90039 44.4004 7.70039 45.0004 7.70039C45.7004 7.70039 46.2004 7.90039 46.6004 8.40039L47.1004 7.90039C46.9004 7.60039 46.6004 7.40039 46.2004 7.20039C45.8004 7.00039 45.4004 6.90039 45.0004 6.90039C44.1004 6.90039 43.4004 7.20039 42.8004 7.80039C42.2004 8.40039 41.9004 9.10039 41.9004 10.0004C41.9004 10.9004 42.2004 11.6004 42.8004 12.2004C43.4004 12.8004 44.1004 13.1004 45.0004 13.1004C45.9004 13.1004 46.6004 12.8004 47.2004 12.2004ZM49.8 7.70049H52.5V7.00049H49V13.0005H52.5V12.2005H49.8V10.3005H52.3V9.60049H49.8V7.70049ZM55.8008 13.0005H55.0008V7.70049H53.3008V7.00049H57.5008V7.70049H55.8008V13.0005ZM60.4004 7.00039V13.0004H61.2004V7.00039H60.4004ZM64.4996 13.0005H63.7996V7.70049H62.0996V7.00049H66.1996V7.70049H64.4996V13.0005ZM71.9008 13.1004C72.8008 13.1004 73.5008 12.8004 74.1008 12.2004C74.7008 11.6004 75.0008 10.9004 75.0008 10.0004C75.0008 9.10039 74.7008 8.40039 74.1008 7.80039C73.5008 7.20039 72.8008 6.90039 71.9008 6.90039C71.0008 6.90039 70.3008 7.20039 69.7008 7.80039C69.1008 8.40039 68.8008 9.10039 68.8008 10.0004C68.8008 10.9004 69.1008 11.6004 69.7008 12.2004C70.3008 12.8004 71.0008 13.1004 71.9008 13.1004ZM70.2996 11.7003C70.6996 12.1003 71.2996 12.4003 71.8996 12.4003C72.4996 12.4003 73.0996 12.2003 73.4996 11.7003C73.8996 11.3003 74.1996 10.7003 74.1996 10.0003C74.1996 9.30034 73.9996 8.70034 73.4996 8.30034C73.0996 7.90034 72.4996 7.60034 71.8996 7.60034C71.2996 7.60034 70.6996 7.80034 70.2996 8.30034C69.8996 8.70034 69.5996 9.30034 69.5996 10.0003C69.5996 10.7003 69.7996 11.3003 70.2996 11.7003ZM76.0996 7.00049V13.0005H76.7996V8.10049L79.8996 13.0005H80.6996V7.00049H79.8996V11.7005L76.9996 7.00049H76.0996Z" fill="white"/>
<path d="M47.9004 10.2004L47.8761 10.1034L47.8004 10.1223V10.2004H47.9004ZM47.2004 12.2004L47.1297 12.1297L47.2004 12.2004ZM47.9004 10.2004L47.9247 10.2974L48.0004 10.2785V10.2004H47.9004ZM47.9004 9.80039H48.0004V9.70039H47.9004V9.80039ZM45.0004 9.80039V9.70039H44.9004V9.80039H45.0004ZM45.0004 10.6004H44.9004V10.7004H45.0004V10.6004ZM47.2004 10.6004H47.3004V10.5004H47.2004V10.6004ZM46.7004 11.8004L46.7711 11.8711L46.7711 11.8711L46.7004 11.8004ZM43.4004 8.40039L43.4629 8.47848L43.4715 8.47154L43.4785 8.46286L43.4004 8.40039ZM46.6004 8.40039L46.5223 8.46286L46.5921 8.5501L46.6711 8.4711L46.6004 8.40039ZM47.1004 7.90039L47.1711 7.9711L47.2291 7.91313L47.1836 7.84492L47.1004 7.90039ZM46.2004 7.20039L46.2451 7.11095L46.2451 7.11095L46.2004 7.20039ZM42.8004 7.80039L42.8711 7.8711H42.8711L42.8004 7.80039ZM42.8004 12.2004L42.7297 12.2711L42.7297 12.2711L42.8004 12.2004ZM52.5 7.70049V7.80049H52.6V7.70049H52.5ZM49.8 7.70049V7.60049H49.7V7.70049H49.8ZM52.5 7.00049H52.6V6.90049H52.5V7.00049ZM49 7.00049V6.90049H48.9V7.00049H49ZM49 13.0005H48.9V13.1005H49V13.0005ZM52.5 13.0005V13.1005H52.6V13.0005H52.5ZM52.5 12.2005H52.6V12.1005H52.5V12.2005ZM49.8 12.2005H49.7V12.3005H49.8V12.2005ZM49.8 10.3005V10.2005H49.7V10.3005H49.8ZM52.3 10.3005V10.4005H52.4V10.3005H52.3ZM52.3 9.60049H52.4V9.50049H52.3V9.60049ZM49.8 9.60049H49.7V9.70049H49.8V9.60049ZM55.0008 13.0005H54.9008V13.1005H55.0008V13.0005ZM55.8008 13.0005V13.1005H55.9008V13.0005H55.8008ZM55.0008 7.70049H55.1008V7.60049H55.0008V7.70049ZM53.3008 7.70049H53.2008V7.80049H53.3008V7.70049ZM53.3008 7.00049V6.90049H53.2008V7.00049H53.3008ZM57.5008 7.00049H57.6008V6.90049H57.5008V7.00049ZM57.5008 7.70049V7.80049H57.6008V7.70049H57.5008ZM55.8008 7.70049V7.60049H55.7008V7.70049H55.8008ZM60.4004 13.0004H60.3004V13.1004H60.4004V13.0004ZM60.4004 7.00039V6.90039H60.3004V7.00039H60.4004ZM61.2004 13.0004V13.1004H61.3004V13.0004H61.2004ZM61.2004 7.00039H61.3004V6.90039H61.2004V7.00039ZM63.7996 13.0005H63.6996V13.1005H63.7996V13.0005ZM64.4996 13.0005V13.1005H64.5996V13.0005H64.4996ZM63.7996 7.70049H63.8996V7.60049H63.7996V7.70049ZM62.0996 7.70049H61.9996V7.80049H62.0996V7.70049ZM62.0996 7.00049V6.90049H61.9996V7.00049H62.0996ZM66.1996 7.00049H66.2996V6.90049H66.1996V7.00049ZM66.1996 7.70049V7.80049H66.2996V7.70049H66.1996ZM64.4996 7.70049V7.60049H64.3996V7.70049H64.4996ZM74.1008 12.2004L74.0301 12.1297L74.0301 12.1297L74.1008 12.2004ZM74.1008 7.80039L74.0301 7.8711L74.0301 7.8711L74.1008 7.80039ZM69.7008 7.80039L69.7715 7.8711V7.8711L69.7008 7.80039ZM69.7008 12.2004L69.7715 12.1297V12.1297L69.7008 12.2004ZM70.2996 11.7003L70.3708 11.6292L70.3621 11.6223L70.2996 11.7003ZM73.4996 11.7003L73.4285 11.6292L73.4215 11.6379L73.4996 11.7003ZM73.4996 8.30034L73.4285 8.37149L73.4371 8.37843L73.4996 8.30034ZM70.2996 8.30034L70.3708 8.37149L70.3777 8.36281L70.2996 8.30034ZM76.0996 13.0005H75.9996V13.1005H76.0996V13.0005ZM76.0996 7.00049V6.90049H75.9996V7.00049H76.0996ZM76.7996 13.0005V13.1005H76.8996V13.0005H76.7996ZM76.7996 8.10049L76.8841 8.04702L76.6996 7.75538V8.10049H76.7996ZM79.8996 13.0005L79.8151 13.054L79.8446 13.1005H79.8996V13.0005ZM80.6996 13.0005V13.1005H80.7996V13.0005H80.6996ZM80.6996 7.00049H80.7996V6.90049H80.6996V7.00049ZM79.8996 7.00049V6.90049H79.7996V7.00049H79.8996ZM79.8996 11.7005L79.8145 11.753L79.9996 12.053V11.7005H79.8996ZM76.9996 7.00049L77.0847 6.94798L77.0554 6.90049H76.9996V7.00049ZM47.8004 10.2004C47.8004 10.985 47.6043 11.655 47.1297 12.1297L47.2711 12.2711C47.7965 11.7457 48.0004 11.0158 48.0004 10.2004H47.8004ZM47.8761 10.1034L47.8761 10.1034L47.9246 10.2974L47.9247 10.2974L47.8761 10.1034ZM47.8004 9.80039V10.2004H48.0004V9.80039H47.8004ZM45.0004 9.90039H47.9004V9.70039H45.0004V9.90039ZM45.1004 10.6004V9.80039H44.9004V10.6004H45.1004ZM47.2004 10.5004H45.0004V10.7004H47.2004V10.5004ZM46.7711 11.8711C47.0878 11.5544 47.3004 11.1297 47.3004 10.6004H47.1004C47.1004 11.0711 46.913 11.4464 46.6297 11.7297L46.7711 11.8711ZM45.0004 12.6004C45.3602 12.6004 45.6736 12.5489 45.9633 12.4304C46.253 12.3119 46.5138 12.1284 46.7711 11.8711L46.6297 11.7297C46.387 11.9724 46.1478 12.1389 45.8875 12.2453C45.6272 12.3518 45.3406 12.4004 45.0004 12.4004V12.6004ZM43.3379 11.8785C43.8421 12.2818 44.3649 12.6004 45.0004 12.6004V12.4004C44.4359 12.4004 43.9587 12.119 43.4629 11.7223L43.3379 11.8785ZM42.6004 10.1004C42.6004 10.8188 42.8062 11.4531 43.3379 11.8785L43.4629 11.7223C42.9946 11.3477 42.8004 10.782 42.8004 10.1004H42.6004ZM43.3379 8.3223C42.8062 8.74767 42.6004 9.38197 42.6004 10.1004H42.8004C42.8004 9.41881 42.9946 8.85311 43.4629 8.47848L43.3379 8.3223ZM45.0004 7.60039C44.3794 7.60039 43.7465 7.80774 43.3223 8.33792L43.4785 8.46286C43.8543 7.99305 44.4214 7.80039 45.0004 7.80039V7.60039ZM46.6785 8.33792C46.2557 7.80944 45.7241 7.60039 45.0004 7.60039V7.80039C45.6767 7.80039 46.1451 7.99134 46.5223 8.46286L46.6785 8.33792ZM47.0297 7.82968L46.5297 8.32968L46.6711 8.4711L47.1711 7.9711L47.0297 7.82968ZM46.1557 7.28983C46.5514 7.4877 46.832 7.67811 47.0172 7.95586L47.1836 7.84492C46.9688 7.52267 46.6494 7.31308 46.2451 7.11095L46.1557 7.28983ZM45.0004 7.00039C45.3831 7.00039 45.7679 7.09595 46.1557 7.28983L46.2451 7.11095C45.8329 6.90483 45.4177 6.80039 45.0004 6.80039V7.00039ZM42.8711 7.8711C43.4523 7.28989 44.1269 7.00039 45.0004 7.00039V6.80039C44.0739 6.80039 43.3485 7.11089 42.7297 7.72968L42.8711 7.8711ZM42.0004 10.0004C42.0004 9.12686 42.2899 8.45231 42.8711 7.8711L42.7297 7.72968C42.1109 8.34847 41.8004 9.07392 41.8004 10.0004H42.0004ZM42.8711 12.1297C42.2899 11.5485 42.0004 10.8739 42.0004 10.0004H41.8004C41.8004 10.9269 42.1109 11.6523 42.7297 12.2711L42.8711 12.1297ZM45.0004 13.0004C44.1269 13.0004 43.4523 12.7109 42.8711 12.1297L42.7297 12.2711C43.3485 12.8899 44.0739 13.2004 45.0004 13.2004V13.0004ZM47.1297 12.1297C46.5485 12.7109 45.8739 13.0004 45.0004 13.0004V13.2004C45.9269 13.2004 46.6523 12.8899 47.2711 12.2711L47.1297 12.1297ZM52.5 7.60049H49.8V7.80049H52.5V7.60049ZM52.4 7.00049V7.70049H52.6V7.00049H52.4ZM49 7.10049H52.5V6.90049H49V7.10049ZM49.1 13.0005V7.00049H48.9V13.0005H49.1ZM52.5 12.9005H49V13.1005H52.5V12.9005ZM52.4 12.2005V13.0005H52.6V12.2005H52.4ZM49.8 12.3005H52.5V12.1005H49.8V12.3005ZM49.7 10.3005V12.2005H49.9V10.3005H49.7ZM52.3 10.2005H49.8V10.4005H52.3V10.2005ZM52.2 9.60049V10.3005H52.4V9.60049H52.2ZM49.8 9.70049H52.3V9.50049H49.8V9.70049ZM49.7 7.70049V9.60049H49.9V7.70049H49.7ZM55.0008 13.1005H55.8008V12.9005H55.0008V13.1005ZM54.9008 7.70049V13.0005H55.1008V7.70049H54.9008ZM53.3008 7.80049H55.0008V7.60049H53.3008V7.80049ZM53.2008 7.00049V7.70049H53.4008V7.00049H53.2008ZM57.5008 6.90049H53.3008V7.10049H57.5008V6.90049ZM57.6008 7.70049V7.00049H57.4008V7.70049H57.6008ZM55.8008 7.80049H57.5008V7.60049H55.8008V7.80049ZM55.9008 13.0005V7.70049H55.7008V13.0005H55.9008ZM60.5004 13.0004V7.00039H60.3004V13.0004H60.5004ZM61.2004 12.9004H60.4004V13.1004H61.2004V12.9004ZM61.1004 7.00039V13.0004H61.3004V7.00039H61.1004ZM60.4004 7.10039H61.2004V6.90039H60.4004V7.10039ZM63.7996 13.1005H64.4996V12.9005H63.7996V13.1005ZM63.6996 7.70049V13.0005H63.8996V7.70049H63.6996ZM62.0996 7.80049H63.7996V7.60049H62.0996V7.80049ZM61.9996 7.00049V7.70049H62.1996V7.00049H61.9996ZM66.1996 6.90049H62.0996V7.10049H66.1996V6.90049ZM66.2996 7.70049V7.00049H66.0996V7.70049H66.2996ZM64.4996 7.80049H66.1996V7.60049H64.4996V7.80049ZM64.5996 13.0005V7.70049H64.3996V13.0005H64.5996ZM74.0301 12.1297C73.4489 12.7109 72.7743 13.0004 71.9008 13.0004V13.2004C72.8272 13.2004 73.5527 12.8899 74.1715 12.2711L74.0301 12.1297ZM74.9008 10.0004C74.9008 10.8739 74.6113 11.5485 74.0301 12.1297L74.1715 12.2711C74.7903 11.6523 75.1008 10.9269 75.1008 10.0004H74.9008ZM74.0301 7.8711C74.6113 8.45231 74.9008 9.12686 74.9008 10.0004H75.1008C75.1008 9.07392 74.7903 8.34847 74.1715 7.72968L74.0301 7.8711ZM71.9008 7.00039C72.7743 7.00039 73.4489 7.28989 74.0301 7.8711L74.1715 7.72968C73.5527 7.11089 72.8273 6.80039 71.9008 6.80039V7.00039ZM69.7715 7.8711C70.3527 7.28989 71.0273 7.00039 71.9008 7.00039V6.80039C70.9743 6.80039 70.2489 7.11089 69.6301 7.72968L69.7715 7.8711ZM68.9008 10.0004C68.9008 9.12686 69.1903 8.45231 69.7715 7.8711L69.6301 7.72968C69.0113 8.34847 68.7008 9.07392 68.7008 10.0004H68.9008ZM69.7715 12.1297C69.1903 11.5485 68.9008 10.8739 68.9008 10.0004H68.7008C68.7008 10.9269 69.0113 11.6523 69.6301 12.2711L69.7715 12.1297ZM71.9008 13.0004C71.0272 13.0004 70.3527 12.7109 69.7715 12.1297L69.6301 12.2711C70.2489 12.8899 70.9743 13.2004 71.9008 13.2004V13.0004ZM71.8996 12.3003C71.3308 12.3003 70.7552 12.0145 70.3703 11.6296L70.2289 11.7711C70.6441 12.1862 71.2684 12.5003 71.8996 12.5003V12.3003ZM73.4215 11.6379C73.0457 12.1077 72.4786 12.3003 71.8996 12.3003V12.5003C72.5206 12.5003 73.1535 12.293 73.5777 11.7628L73.4215 11.6379ZM74.0996 10.0003C74.0996 10.6714 73.812 11.2466 73.4289 11.6296L73.5703 11.7711C73.9873 11.3541 74.2996 10.7293 74.2996 10.0003H74.0996ZM73.4371 8.37843C73.9054 8.75306 74.0996 9.31876 74.0996 10.0003H74.2996C74.2996 9.28192 74.0938 8.64762 73.5621 8.22226L73.4371 8.37843ZM71.8996 7.70034C72.4684 7.70034 73.044 7.9862 73.4289 8.37105L73.5703 8.22963C73.1552 7.81448 72.5308 7.50034 71.8996 7.50034V7.70034ZM70.3777 8.36281C70.7536 7.893 71.3206 7.70034 71.8996 7.70034V7.50034C71.2786 7.50034 70.6457 7.70769 70.2215 8.23787L70.3777 8.36281ZM69.6996 10.0003C69.6996 9.32933 69.9873 8.75411 70.3703 8.37105L70.2289 8.22963C69.812 8.64657 69.4996 9.27136 69.4996 10.0003H69.6996ZM70.3621 11.6223C69.8938 11.2476 69.6996 10.6819 69.6996 10.0003H69.4996C69.4996 10.7188 69.7054 11.3531 70.2371 11.7784L70.3621 11.6223ZM76.1996 13.0005V7.00049H75.9996V13.0005H76.1996ZM76.7996 12.9005H76.0996V13.1005H76.7996V12.9005ZM76.6996 8.10049V13.0005H76.8996V8.10049H76.6996ZM79.9841 12.947L76.8841 8.04702L76.7151 8.15395L79.8151 13.054L79.9841 12.947ZM80.6996 12.9005H79.8996V13.1005H80.6996V12.9005ZM80.5996 7.00049V13.0005H80.7996V7.00049H80.5996ZM79.8996 7.10049H80.6996V6.90049H79.8996V7.10049ZM79.9996 11.7005V7.00049H79.7996V11.7005H79.9996ZM76.9145 7.053L79.8145 11.753L79.9847 11.648L77.0847 6.94798L76.9145 7.053ZM76.0996 7.10049H76.9996V6.90049H76.0996V7.10049Z" fill="white"/>
<path fill-rule="evenodd" clip-rule="evenodd" d="M48.1996 23.0996V24.8996H52.4996C52.3996 25.8996 51.9996 26.6996 51.4996 27.1996C50.8996 27.7996 49.8996 28.4996 48.1996 28.4996C45.4996 28.4996 43.4996 26.3996 43.4996 23.6996C43.4996 20.9996 45.5996 18.8996 48.1996 18.8996C49.5996 18.8996 50.6996 19.4996 51.4996 20.1996L52.7996 18.8996C51.6996 17.8996 50.2996 17.0996 48.2996 17.0996C44.6996 17.0996 41.5996 20.0996 41.5996 23.6996C41.5996 27.2996 44.6996 30.2996 48.2996 30.2996C50.2996 30.2996 51.6996 29.6996 52.8996 28.3996C54.0996 27.1996 54.4996 25.4996 54.4996 24.1996C54.4996 23.7996 54.4996 23.3996 54.3996 23.0996H48.1996ZM59.3 21.7993C56.9 21.7993 55 23.5993 55 26.0993C55 28.4993 56.9 30.3993 59.3 30.3993C61.7 30.3993 63.6 28.5993 63.6 26.0993C63.6 23.4993 61.7 21.7993 59.3 21.7993ZM64.2988 26.0996C64.2988 23.5996 66.1988 21.7996 68.5988 21.7996C70.9988 21.7996 72.8988 23.4996 72.8988 26.0996C72.8988 28.5996 70.9988 30.3996 68.5988 30.3996C66.1988 30.3996 64.2988 28.4996 64.2988 26.0996ZM66.1992 25.9999C66.1992 27.4999 67.2992 28.5999 68.5992 28.5999C69.8992 28.5999 70.9992 27.4999 70.9992 25.9999C70.9992 24.3999 69.8992 23.3999 68.5992 23.3999C67.2992 23.3999 66.1992 24.4999 66.1992 25.9999ZM56.9004 25.9997C56.9004 27.4997 58.0004 28.5997 59.3004 28.5997C60.6004 28.5997 61.7004 27.4997 61.7004 25.9997C61.7004 24.3997 60.6004 23.3997 59.3004 23.3997C58.0004 23.3997 56.9004 24.4997 56.9004 25.9997ZM90 21.7993C92.2 21.7993 93.2 23.4993 93.6 24.4993L93.8 24.9993L88.1 27.3993C88.6 28.2993 89.2 28.6993 90.2 28.6993C91.2 28.6993 91.8 28.1993 92.3 27.4993L93.7 28.4993C93.3 29.1993 92.1 30.3993 90.2 30.3993C87.8 30.3993 86 28.4993 86 26.0993C86 23.4993 87.8 21.7993 90 21.7993ZM87.7988 25.8997C87.7988 24.2997 89.0988 23.3997 89.9988 23.3997C90.6988 23.3997 91.3988 23.7997 91.5988 24.2997L87.7988 25.8997ZM84.9996 29.9996H83.0996V17.4996H84.9996V29.9996ZM80.0992 22.6997C79.5992 22.1997 78.7992 21.6997 77.7992 21.6997C75.6992 21.6997 73.6992 23.5997 73.6992 25.9997C73.6992 28.3997 75.5992 30.1997 77.7992 30.1997C78.7992 30.1997 79.5992 29.6997 79.9992 29.1997H80.0992V29.7997C80.0992 31.3997 79.1992 32.2997 77.7992 32.2997C76.6992 32.2997 75.8992 31.4997 75.6992 30.7997L74.0992 31.4997C74.5992 32.5997 75.7992 33.9997 77.8992 33.9997C80.0992 33.9997 81.8992 32.6997 81.8992 29.5997V21.9997H80.0992L80.0992 22.6997ZM75.5 25.9999C75.5 27.4999 76.6 28.5999 77.9 28.5999C79.2 28.5999 80.2 27.4999 80.2 25.9999C80.2 24.4999 79.2 23.3999 77.9 23.3999C76.6 23.3999 75.5 24.4999 75.5 25.9999ZM102.299 17.4995H97.7988V29.9995H99.6988V25.2995H102.299C104.399 25.2995 106.399 23.7995 106.399 21.3995C106.399 18.9995 104.399 17.4995 102.299 17.4995ZM99.6992 23.4997H102.399C103.699 23.4997 104.499 22.3997 104.599 21.2997C104.599 20.3997 103.799 19.1997 102.399 19.1997H99.6992V23.4997ZM113.9 21.6997C112.5 21.6997 111.1 22.2997 110.6 23.5997L112.3 24.2997C112.7 23.5997 113.3 23.3997 114 23.3997C115 23.3997 115.9 23.9997 116 24.9997V25.0997C115.7 24.8997 114.9 24.5997 114.1 24.5997C112.3 24.5997 110.5 25.5997 110.5 27.3997C110.5 29.0997 112 30.1997 113.6 30.1997C114.9 30.1997 115.5 29.5997 116 28.9997H116.1V29.9997H117.9V25.1997C117.7 22.9997 116 21.6997 113.9 21.6997ZM112.199 27.4997C112.199 28.2997 113.099 28.5997 113.699 28.5997C114.699 28.5997 115.699 27.7997 115.899 26.5997L115.829 26.5714L115.75 26.5393C115.314 26.3613 114.918 26.1997 114.199 26.1997C113.299 26.1997 112.199 26.4997 112.199 27.4997ZM124.199 21.9995L122.099 27.3995H121.999L119.799 21.9995H117.799L121.099 29.5995L119.199 33.7995H121.099L126.199 21.9995H124.199ZM109.3 29.9995H107.4V17.4995H109.3V29.9995Z" fill="white"/>
<path d="M10.9 7.5C10.6 7.8 10.5 8.3 10.5 8.9V31C10.5 31.6 10.7 32.1 11 32.4L11.1 32.5L23.5 20.1V19.9L10.9 7.5Z" fill="url(#paint0_linear_686_10860)"/>
<path d="M27.5004 24.3008L23.4004 20.2008V19.9008L27.5004 15.8008L27.6004 15.9008L32.5004 18.7008C33.9004 19.5008 33.9004 20.8008 32.5004 21.6008L27.5004 24.3008Z" fill="url(#paint1_linear_686_10860)"/>
<path d="M27.6004 24.2L23.4004 20L10.9004 32.5C11.4004 33 12.1004 33 13.0004 32.6L27.6004 24.2Z" fill="url(#paint2_linear_686_10860)"/>
<path d="M27.6004 15.8006L13.0004 7.5006C12.1004 7.0006 11.4004 7.1006 10.9004 7.6006L23.4004 20.0006L27.6004 15.8006H27.6004Z" fill="url(#paint3_linear_686_10860)"/>
<path opacity="0.2" d="M27.5004 24.0996L13.0004 32.2996C12.2004 32.7996 11.5004 32.6996 11.0004 32.2996L10.9004 32.3996L11.0004 32.4996C11.5004 32.8996 12.2004 32.9996 13.0004 32.4996L27.5004 24.0996Z" fill="black"/>
<path opacity="0.12" fill-rule="evenodd" clip-rule="evenodd" d="M27.5 24.1L32.5 21.3C33.1 20.9 33.5 20.5 33.5 20C33.5 20.5 33.2 21 32.5 21.4L27.6 24.2L27.5 24.1ZM10.5 30.9C10.5 31.0417 10.5056 31.1778 10.518 31.307C10.5062 31.2081 10.5 31.1056 10.5 31V30.9ZM10.518 31.307C10.5665 31.7114 10.7095 32.0548 10.9097 32.3L10.518 31.307ZM10.9097 32.3H11V32.4C10.9688 32.3688 10.9387 32.3354 10.9097 32.3Z" fill="black"/>
<path opacity="0.25" d="M13 7.60027L32.5 18.7003C33.1 19.1003 33.5 19.5003 33.5 20.0003C33.5 19.5003 33.2 19.0003 32.5 18.6003L13 7.50027C11.6 6.70027 10.5 7.30027 10.5 8.90027V9.00027C10.5 7.50027 11.6 6.80027 13 7.60027Z" fill="white"/>
<defs>
<linearGradient id="paint0_linear_686_10860" x1="26.6633" y1="17.1525" x2="6.79524" y2="11.7805" gradientUnits="userSpaceOnUse">
<stop stop-color="#00A0FF"/>
<stop offset="0.007" stop-color="#00A1FF"/>
<stop offset="0.26" stop-color="#00BEFF"/>
<stop offset="0.512" stop-color="#00D2FF"/>
<stop offset="0.76" stop-color="#00DFFF"/>
<stop offset="1" stop-color="#00E3FF"/>
</linearGradient>
<linearGradient id="paint1_linear_686_10860" x1="34.3344" y1="11.868" x2="10.1374" y2="11.868" gradientUnits="userSpaceOnUse">
<stop stop-color="#FFE000"/>
<stop offset="0.409" stop-color="#FFBD00"/>
<stop offset="0.775" stop-color="#FFA500"/>
<stop offset="1" stop-color="#FF9C00"/>
</linearGradient>
<linearGradient id="paint2_linear_686_10860" x1="40.0715" y1="10.922" x2="24.1063" y2="-15.882" gradientUnits="userSpaceOnUse">
<stop stop-color="#FF3A44"/>
<stop offset="1" stop-color="#C31162"/>
</linearGradient>
<linearGradient id="paint3_linear_686_10860" x1="14.4123" y1="45.7281" x2="21.4856" y2="33.7418" gradientUnits="userSpaceOnUse">
<stop stop-color="#32A071"/>
<stop offset="0.069" stop-color="#2DA771"/>
<stop offset="0.476" stop-color="#15CF74"/>
<stop offset="0.801" stop-color="#06E775"/>
<stop offset="1" stop-color="#00F076"/>
</linearGradient>
</defs>
</svg>
