<svg width="136" height="40" viewBox="0 0 136 40" fill="none" xmlns="http://www.w3.org/2000/svg">
<path d="M134.605 35.2771C134.605 36.2939 134.2 37.2689 133.481 37.9875C132.761 38.7061 131.785 39.1092 130.768 39.1082L5.2317 39.1082C3.11293 39.1104 1.39339 37.3953 1.39062 35.2771V4.7257C1.39338 2.60669 3.11212 0.890198 5.2317 0.889648H130.768C132.886 0.889648 134.604 2.60727 134.604 4.72571L134.605 35.2771L134.605 35.2771Z" fill="white"/>
<path d="M130.768 40H5.23155C2.62273 40 0.505517 37.8878 0.500002 35.2787L0.5 4.7273C0.503861 2.11691 2.62048 0.00220264 5.23156 0L130.767 4.76968e-07C133.378 0.0033011 135.494 2.11737 135.499 4.7273V35.2777C135.501 37.8824 133.375 40 130.768 40H130.768Z" fill="#A6A6A6"/>
<path d="M134.605 35.2771C134.605 36.2939 134.2 37.2689 133.481 37.9875C132.761 38.7061 131.785 39.1092 130.768 39.1082L5.2317 39.1082C3.11293 39.1104 1.39339 37.3953 1.39062 35.2771V4.7257C1.39338 2.60669 3.11212 0.890198 5.2317 0.889648H130.768C132.886 0.889648 134.604 2.60727 134.604 4.72571L134.605 35.2771L134.605 35.2771Z" fill="black"/>
<path fill-rule="evenodd" clip-rule="evenodd" d="M28.7495 6.21875C28.9156 7.72816 28.3173 9.21557 27.4428 10.3089C26.5303 11.3852 25.0705 12.2084 23.6487 12.1024C23.4627 10.65 24.183 9.10555 24.9895 8.16328C25.901 7.09399 27.4838 6.27477 28.7495 6.21875ZM33.4036 14.9257C33.245 15.0204 30.6155 16.5894 30.6443 19.7892H30.6443C30.6783 23.6522 34.0261 24.9306 34.0661 24.9446C34.0461 25.0346 33.5419 26.7891 32.2862 28.5686C31.2376 30.136 30.139 31.6694 28.3941 31.6964C27.5645 31.7155 27.0043 31.4773 26.4207 31.229C25.8118 30.97 25.1773 30.7002 24.1848 30.7002C23.1329 30.7002 22.4704 30.9788 21.8315 31.2474C21.2788 31.4798 20.7437 31.7048 19.9895 31.7355C18.3276 31.7965 17.058 30.063 15.9714 28.5086C13.7992 25.3367 12.1083 19.5701 14.3755 15.646C15.4741 13.7215 17.4772 12.4822 19.6183 12.4491C20.5612 12.4299 21.4655 12.7931 22.2583 13.1116C22.8645 13.3551 23.4055 13.5725 23.8486 13.5725C24.2378 13.5725 24.7636 13.3638 25.3765 13.1207C26.3423 12.7374 27.5242 12.2685 28.7283 12.3951C29.5517 12.4191 31.895 12.7202 33.4068 14.9238L33.4036 14.9257Z" fill="white"/>
<path fill-rule="evenodd" clip-rule="evenodd" d="M87.4041 30.5443C88.1916 29.8332 88.5878 28.9119 88.5878 27.7786C88.5878 26.8593 88.3176 26.0881 87.7743 25.47C87.235 24.8518 86.3926 24.3136 85.246 23.8515C84.3115 23.4834 83.6651 23.1403 83.3109 22.8252C82.9027 22.4831 82.6976 22.047 82.6976 21.5219C82.6976 21.0457 82.8777 20.6446 83.2329 20.3155C83.6551 19.9474 84.2454 19.7624 84.9978 19.7624C85.9503 19.7624 86.8018 19.9664 87.5562 20.3745L88.0915 18.6361C87.2901 18.215 86.2805 18.0039 85.0689 18.0039C83.7122 18.0039 82.6216 18.353 81.7991 19.0512C80.9767 19.7504 80.5645 20.6446 80.5645 21.7369C80.5645 23.4094 81.7311 24.6807 84.0623 25.55C84.9198 25.8651 85.5301 26.2082 85.8993 26.5763C86.2665 26.9454 86.4536 27.3985 86.4536 27.9397C86.4536 28.5438 86.2275 29.0279 85.7803 29.39C85.334 29.7511 84.7087 29.9332 83.9043 29.9332C82.7856 29.9332 81.7581 29.6571 80.8226 29.103L80.3293 30.8804C81.1958 31.4336 82.3444 31.7097 83.7772 31.7097C85.328 31.7097 86.5377 31.3206 87.4041 30.5443ZM54.1942 31.5126H51.922L50.6773 27.6025H46.351L45.1653 31.5126H42.9531L47.2404 18.201H49.8879L54.1942 31.5126ZM50.3025 25.9622L49.1769 22.4862C49.0578 22.1311 48.8337 21.2949 48.5055 19.9785H48.4655C48.3334 20.5447 48.1223 21.3809 47.8331 22.4862L46.7266 25.9622H50.3025ZM63.8674 30.4653C64.7549 29.5181 65.1982 28.2277 65.1982 26.5953C65.1982 25.1339 64.8189 23.9555 64.0635 23.0583C63.3071 22.163 62.3616 21.7159 61.229 21.7159C59.7802 21.7159 58.7006 22.2891 57.9893 23.4354H57.9492L57.8302 21.914H55.9542C56.0062 22.9923 56.0332 24.0436 56.0332 25.0689V35.4047H58.1664V30.3683C58.7217 31.2766 59.6362 31.7297 60.9078 31.7297C62.0854 31.7297 63.073 31.3086 63.8674 30.4653ZM63.0247 26.673C63.0247 25.7387 62.8146 24.9685 62.3923 24.3613C61.9311 23.7301 61.3117 23.4141 60.5353 23.4141C60.009 23.4141 59.5308 23.5901 59.1035 23.9372C58.6753 24.2873 58.3952 24.7444 58.2641 25.3106C58.2056 25.5223 58.1723 25.7402 58.165 25.9598V27.5612C58.165 28.2584 58.3792 28.8475 58.8074 29.3297C59.2356 29.8098 59.7919 30.0509 60.4763 30.0509C61.2797 30.0509 61.9051 29.7398 62.3523 29.1226C62.8006 28.5035 63.0247 27.6872 63.0247 26.673ZM74.9104 30.4653C75.7979 29.5181 76.2411 28.2277 76.2411 26.5953C76.2411 25.1339 75.8609 23.9555 75.1065 23.0583C74.3481 22.163 73.4026 21.7159 72.271 21.7159C70.8212 21.7159 69.7416 22.2891 69.0312 23.4354H68.9912L68.8721 21.914H66.9961C67.0482 22.9923 67.0752 24.0436 67.0752 25.0689V35.4047H69.2083V30.3683C69.7636 31.2766 70.6781 31.7297 71.9498 31.7297C73.1284 31.7297 74.115 31.3086 74.9104 30.4653ZM74.0667 26.673C74.0667 25.7387 73.8556 24.9685 73.4333 24.3613C72.9721 23.7301 72.3548 23.4141 71.5784 23.4141C71.0521 23.4141 70.5738 23.5901 70.1446 23.9372C69.7164 24.2873 69.4372 24.7444 69.3061 25.3106C69.2411 25.5747 69.2061 25.7897 69.2061 25.9598V27.5612C69.2061 28.2584 69.4212 28.8475 69.8474 29.3297C70.2756 29.8088 70.832 30.0509 71.5183 30.0509C72.3228 30.0509 72.9481 29.7398 73.3943 29.1226C73.8426 28.5035 74.0667 27.6872 74.0667 26.673ZM95.6586 23.5144H93.3073V28.1747C93.3073 29.36 93.7216 29.9512 94.552 29.9512C94.9332 29.9512 95.2494 29.9192 95.4995 29.8522L95.5586 31.4716C95.1383 31.6287 94.585 31.7077 93.8997 31.7077C93.0572 31.7077 92.3989 31.4506 91.9236 30.9365C91.4503 30.4223 91.2122 29.5611 91.2122 28.3487V23.5104H89.8115V21.91H91.2122V20.1525L93.3073 19.5203V21.91H95.6586V23.5144H95.6586ZM104.981 30.2681C105.824 29.3208 106.246 28.1095 106.246 26.6341C106.246 25.1977 105.839 24.0274 105.02 23.1211C104.164 22.1869 103.032 21.7188 101.623 21.7188C100.162 21.7188 98.9989 22.1929 98.1355 23.1412C97.274 24.0884 96.8418 25.3067 96.8418 26.7942C96.8418 28.2155 97.26 29.3939 98.0965 30.3291C98.9329 31.2624 100.055 31.7295 101.465 31.7295C102.927 31.7295 104.1 31.2434 104.981 30.2681ZM104.035 26.6833C104.035 25.804 103.845 25.0498 103.464 24.4187C103.017 23.6565 102.376 23.2754 101.547 23.2754C100.692 23.2754 100.037 23.6565 99.5907 24.4187C99.2085 25.0498 99.0184 25.8171 99.0184 26.7233C99.0184 27.6035 99.2085 28.3598 99.5907 28.9889C100.052 29.7511 100.695 30.1322 101.529 30.1322C102.344 30.1322 102.984 29.7431 103.446 28.9699C103.838 28.3237 104.035 27.5645 104.035 26.6833ZM112.51 23.7304C112.736 23.7296 112.961 23.7494 113.183 23.7894L113.181 21.7548C113.023 21.7298 112.845 21.7158 112.647 21.7158C112.092 21.7166 111.551 21.8969 111.106 22.23C110.619 22.6111 110.265 23.1202 110.039 23.7514H109.98L109.902 21.9149H108.044C108.087 22.9216 108.108 23.9291 108.106 24.9367V31.5125H110.239V26.4761C110.239 25.7129 110.417 25.0807 110.771 24.5806C111.18 24.0125 111.76 23.7304 112.51 23.7304ZM122.723 26.2592C122.729 26.5834 122.702 26.9073 122.645 27.2264H116.246C116.27 28.1747 116.58 28.9009 117.174 29.401C117.714 29.8472 118.411 30.0712 119.267 30.0712C120.215 30.0712 121.079 29.9212 121.857 29.6181L122.191 31.0975C121.282 31.4936 120.21 31.6907 118.972 31.6907C117.483 31.6907 116.315 31.2526 115.464 30.3783C114.616 29.5031 114.191 28.3267 114.191 26.8533C114.191 25.4069 114.586 24.2016 115.377 23.2403C116.206 22.2141 117.325 21.7009 118.734 21.7009C120.118 21.7009 121.165 22.2141 121.877 23.2403C122.44 24.0536 122.723 25.0619 122.723 26.2592ZM120.275 24.066C120.564 24.5272 120.704 25.0723 120.689 25.7055L116.247 25.7035C116.312 25.0603 116.523 24.5061 116.878 24.045C117.311 23.4649 117.879 23.1758 118.576 23.1758C119.338 23.1758 119.906 23.4719 120.275 24.066Z" fill="white"/>
<path fill-rule="evenodd" clip-rule="evenodd" d="M71.6296 13.4366H70.5801V6.55469H71.6296V13.4366ZM44.2031 13.4166C44.6304 13.4656 45.1436 13.4946 45.737 13.4946C48.2513 13.4946 49.582 12.2723 49.582 10.0096C49.582 8.0481 48.4554 6.84477 46.0091 6.84477C45.4045 6.84304 44.8006 6.88853 44.2031 6.9808V13.4166ZM45.251 7.73794C45.4841 7.68993 45.7653 7.66992 46.0954 7.66992C47.6493 7.66992 48.4747 8.51515 48.4747 10.0386C48.4747 11.747 47.5622 12.6593 45.9594 12.6593C45.6192 12.6593 45.3771 12.6503 45.251 12.6303V7.73794ZM53.0925 13.5444C51.7138 13.5444 50.8203 12.5151 50.8203 11.1177C50.8203 9.66133 51.7328 8.62305 53.1706 8.62305C54.5293 8.62305 55.4428 9.60332 55.4428 11.0407C55.4428 12.5151 54.5013 13.5444 53.0925 13.5444ZM51.8906 11.0871C51.8906 10.0969 52.3759 9.38867 53.1333 9.38867C53.8707 9.38867 54.356 10.1069 54.356 11.0671C54.356 12.0094 53.8607 12.7666 53.1233 12.7666C52.3859 12.7666 51.8906 12.0584 51.8906 11.0871ZM63.3054 8.71973L61.8296 13.437H60.8681L60.2568 11.3885C60.1048 10.8874 59.9782 10.3789 59.8776 9.86505L59.8576 9.86504C59.7805 10.3792 59.6344 10.8943 59.4794 11.3885L58.829 13.437H57.8575L56.4688 8.71973H57.5463L58.0806 10.9623C58.2067 11.4965 58.3127 12.0006 58.4008 12.4768H58.4208C58.4978 12.0797 58.6239 11.5835 58.809 10.9723L59.4794 8.72073H60.3338L60.9752 10.9243C61.1303 11.4585 61.2563 11.9826 61.3544 12.4778H61.3824C61.4504 11.9926 61.5575 11.4775 61.7026 10.9243L62.2759 8.72073L63.3054 8.71973ZM67.6902 13.4374H68.7388H68.7388L68.7398 10.6126C68.7398 9.38025 68.0894 8.62305 67.0989 8.62305C66.4575 8.62305 65.8852 8.94313 65.6031 9.44727H65.5741L65.525 8.71907H64.6025C64.6315 9.2042 64.6416 9.65133 64.6416 10.0684V13.4374H65.6901V10.6316C65.6901 10.0104 66.1174 9.47628 66.7387 9.47628C67.37 9.47628 67.6902 9.89439 67.6902 10.7286V13.4374ZM73.1808 11.1169C73.1808 12.5143 74.0753 13.5436 75.453 13.5436C76.8608 13.5436 77.8033 12.5143 77.8023 11.0399C77.8023 9.60253 76.8898 8.62226 75.5301 8.62226C74.0933 8.62226 73.1808 9.66054 73.1808 11.1169ZM75.4917 9.38867C74.7343 9.38867 74.249 10.0969 74.249 11.0871C74.249 12.0584 74.7453 12.7666 75.4807 12.7666C76.2191 12.7666 76.7133 12.0094 76.7133 11.0671C76.7144 10.1069 76.2301 9.38867 75.4917 9.38867ZM81.8605 12.8934L81.9365 13.4366H81.9365L82.882 13.4376C82.835 13.1565 82.814 12.7874 82.814 12.3113V10.5738C82.814 9.27243 82.1917 8.62226 80.959 8.62226C80.3196 8.62226 79.7753 8.75829 79.3391 9.03037L79.5522 9.71955C79.9114 9.48649 80.3196 9.36946 80.7849 9.36946C81.4352 9.36946 81.7644 9.68054 81.7644 10.3017V10.3887C80.0165 10.3887 79.0069 10.9909 79.0069 12.1552C79.0069 12.9514 79.6072 13.5436 80.4527 13.5436C81.045 13.5436 81.5123 13.3306 81.8325 12.8934H81.8605ZM81.7929 11.0869C80.6283 11.0869 80.0439 11.369 80.0439 12.0382C80.0439 12.5333 80.3451 12.7754 80.7633 12.7754C81.2966 12.7754 81.7929 12.3683 81.7929 11.8151V11.0869ZM87.8567 12.6794L87.9057 13.4366H88.8393C88.8112 13.0485 88.8002 12.6214 88.8002 12.1652V6.55469H87.7506V9.26243H87.7296C87.4775 8.83431 87.0302 8.62126 86.3989 8.62126C85.2063 8.62126 84.3328 9.66054 84.3328 11.1359C84.3328 12.5433 85.1752 13.5436 86.3129 13.5436C87.0203 13.5436 87.5265 13.2515 87.8277 12.6794H87.8567ZM87.7506 10.6608C87.7506 10.0006 87.3134 9.43748 86.6461 9.43748C85.8686 9.43748 85.3934 10.1267 85.3934 11.0969C85.3934 12.0482 85.8866 12.6994 86.6251 12.6994C87.2844 12.6994 87.7506 12.1262 87.7506 11.447V10.6608ZM93.1836 11.1169C93.1836 12.5143 94.0771 13.5436 95.4548 13.5436C96.8646 13.5436 97.8061 12.5143 97.8051 11.0399C97.8051 9.60253 96.8926 8.62226 95.5329 8.62226C94.0961 8.62226 93.1836 9.66054 93.1836 11.1169ZM95.4939 9.38847C94.7374 9.38847 94.2522 10.0967 94.2522 11.0869C94.2522 12.0582 94.7474 12.7664 95.4838 12.7664C96.2222 12.7664 96.7165 12.0092 96.7165 11.0669C96.7185 10.1067 96.2332 9.38847 95.4939 9.38847ZM102.394 13.4364H103.444V10.6106C103.444 9.3783 102.792 8.62109 101.802 8.62109C101.162 8.62109 100.588 8.94218 100.307 9.44632H100.278L100.229 8.71812H99.3066C99.3357 9.20325 99.3457 9.65038 99.3457 10.0675V13.4364H100.395V10.6306C100.395 10.0095 100.821 9.47533 101.443 9.47533C102.074 9.47533 102.394 9.89344 102.394 10.7277V13.4364ZM110.499 9.50549H109.345V11.7961C109.345 12.3793 109.547 12.6704 109.955 12.6704C110.14 12.6704 110.295 12.6503 110.42 12.6213L110.449 13.4176C110.246 13.4956 109.974 13.5346 109.636 13.5346C108.81 13.5346 108.315 13.0785 108.315 11.8841V9.50549H107.627V8.71927H108.315V7.85503L109.345 7.54395V8.71827H110.499V9.50549ZM115.003 13.4366H116.05V10.6308C116.05 9.39747 115.44 8.62126 114.441 8.62126C113.831 8.62126 113.353 8.87432 113.023 9.38847H113.002V6.55469H111.954V13.4366H113.002V10.5928C113.002 9.84559 113.508 9.47649 114.051 9.47649C114.684 9.47649 115.003 9.90361 115.003 10.7478V13.4366ZM121.737 11.3301H118.591C118.611 12.2233 119.202 12.7274 120.077 12.7274C120.543 12.7274 120.971 12.6494 121.349 12.5044L121.512 13.2326C121.066 13.4266 120.541 13.5237 119.929 13.5237C118.454 13.5237 117.58 12.5914 117.58 11.146C117.58 9.6996 118.475 8.6123 119.811 8.6123C121.017 8.6123 121.773 9.50555 121.773 10.8549C121.78 11.0142 121.768 11.1737 121.737 11.3301ZM119.738 9.33984C119.136 9.33984 118.66 9.86399 118.592 10.5822L119.738 9.33984ZM118.592 10.5822H120.776H118.592Z" fill="white"/>
</svg>
