<svg width="136" height="40" viewBox="0 0 136 40" fill="none" xmlns="http://www.w3.org/2000/svg">
<path d="M134.605 35.2771C134.605 36.2939 134.2 37.2689 133.481 37.9875C132.761 38.7061 131.785 39.1092 130.768 39.1082L5.2317 39.1082C3.11293 39.1104 1.39339 37.3953 1.39062 35.2771V4.7257C1.39338 2.60669 3.11212 0.890198 5.2317 0.889648H130.768C132.886 0.889648 134.604 2.60727 134.604 4.72571L134.605 35.2771L134.605 35.2771Z" fill="white"/>
<path d="M130.768 40H5.23155C2.62273 40 0.505517 37.8878 0.500002 35.2787L0.5 4.7273C0.503861 2.11691 2.62048 0.00220264 5.23156 0L130.767 4.76968e-07C133.378 0.0033011 135.494 2.11737 135.499 4.7273V35.2777C135.501 37.8824 133.375 40 130.768 40H130.768Z" fill="#A6A6A6"/>
<path d="M134.605 35.2771C134.605 36.2939 134.2 37.2689 133.481 37.9875C132.761 38.7061 131.785 39.1092 130.768 39.1082L5.2317 39.1082C3.11293 39.1104 1.39339 37.3953 1.39062 35.2771V4.7257C1.39338 2.60669 3.11212 0.890198 5.2317 0.889648H130.768C132.886 0.889648 134.604 2.60727 134.604 4.72571L134.605 35.2771L134.605 35.2771Z" fill="black"/>
<path fill-rule="evenodd" clip-rule="evenodd" d="M28.7495 6.21875C28.9156 7.72816 28.3173 9.21557 27.4428 10.3089C26.5303 11.3852 25.0705 12.2084 23.6487 12.1024C23.4627 10.65 24.183 9.10555 24.9895 8.16328C25.901 7.09399 27.4838 6.27477 28.7495 6.21875ZM33.4036 14.926C33.245 15.0207 30.6155 16.5897 30.6443 19.7895H30.6443C30.6783 23.6525 34.0261 24.9309 34.0661 24.9449C34.0461 25.0349 33.5419 26.7894 32.2862 28.5689C31.2376 30.1363 30.139 31.6698 28.3941 31.6968C27.5645 31.7159 27.0043 31.4776 26.4207 31.2293C25.8118 30.9703 25.1773 30.7005 24.1848 30.7005C23.1329 30.7005 22.4704 30.9791 21.8315 31.2477C21.2788 31.4802 20.7437 31.7051 19.9895 31.7358C18.3276 31.7968 17.058 30.0633 15.9714 28.5089C13.7992 25.337 12.1083 19.5704 14.3755 15.6463C15.4741 13.7218 17.4772 12.4825 19.6183 12.4495C20.5612 12.4302 21.4655 12.7935 22.2583 13.1119C22.8645 13.3555 23.4055 13.5728 23.8486 13.5728C24.2378 13.5728 24.7636 13.3641 25.3765 13.121C26.3423 12.7378 27.5242 12.2688 28.7283 12.3954C29.5517 12.4195 31.895 12.7205 33.4068 14.9241L33.4036 14.926Z" fill="white"/>
<path fill-rule="evenodd" clip-rule="evenodd" d="M87.4049 30.5443C88.1923 29.8332 88.5885 28.9119 88.5885 27.7786C88.5885 26.8593 88.3184 26.0881 87.7751 25.47C87.2358 24.8518 86.3933 24.3136 85.2467 23.8515C84.3122 23.4834 83.6658 23.1403 83.3116 22.8252C82.9034 22.4831 82.6983 22.047 82.6983 21.5219C82.6983 21.0457 82.8784 20.6446 83.2336 20.3155C83.6559 19.9474 84.2462 19.7624 84.9986 19.7624C85.9511 19.7624 86.8026 19.9664 87.557 20.3745L88.0922 18.6361C87.2908 18.215 86.2813 18.0039 85.0696 18.0039C83.7129 18.0039 82.6223 18.353 81.7999 19.0512C80.9774 19.7504 80.5652 20.6446 80.5652 21.7369C80.5652 23.4094 81.7318 24.6807 84.0631 25.55C84.9205 25.8651 85.5309 26.2082 85.9001 26.5763C86.2673 26.9454 86.4544 27.3985 86.4544 27.9397C86.4544 28.5438 86.2283 29.0279 85.781 29.39C85.3348 29.7511 84.7094 29.9332 83.905 29.9332C82.7864 29.9332 81.7589 29.6571 80.8233 29.103L80.3301 30.8804C81.1965 31.4336 82.3452 31.7097 83.7779 31.7097C85.3288 31.7097 86.5384 31.3206 87.4049 30.5443ZM54.1942 31.5126H51.922L50.6773 27.6025H46.351L45.1653 31.5126H42.9531L47.2404 18.201H49.8879L54.1942 31.5126ZM50.3025 25.9622L49.1769 22.4862C49.0578 22.1311 48.8337 21.2949 48.5055 19.9785H48.4655C48.3334 20.5447 48.1223 21.3809 47.8331 22.4862L46.7266 25.9622H50.3025ZM63.8683 30.4652C64.7558 29.518 65.1991 28.2276 65.1991 26.5952C65.1991 25.1338 64.8199 23.9554 64.0645 23.0582C63.308 22.1629 62.3625 21.7158 61.2299 21.7158C59.7811 21.7158 58.7016 22.289 57.9902 23.4353H57.9501L57.8311 21.9139H55.9551C56.0071 22.9922 56.0341 24.0435 56.0341 25.0687V35.4046H58.1673V30.3682C58.7226 31.2765 59.6371 31.7296 60.9088 31.7296C62.0864 31.7296 63.0739 31.3085 63.8683 30.4652ZM63.0237 26.673C63.0237 25.7387 62.8136 24.9685 62.3913 24.3613C61.9301 23.7301 61.3108 23.4141 60.5343 23.4141C60.0081 23.4141 59.5298 23.5901 59.1026 23.9372C58.6743 24.2873 58.3942 24.7444 58.2631 25.3106C58.2046 25.5223 58.1714 25.7402 58.1641 25.9598V27.5612C58.1641 28.2584 58.3782 28.8475 58.8064 29.3297C59.2346 29.8098 59.7909 30.0509 60.4753 30.0509C61.2787 30.0509 61.9041 29.7398 62.3513 29.1226C62.7996 28.5035 63.0237 27.6872 63.0237 26.673ZM74.9104 30.4653C75.7979 29.5181 76.2411 28.2277 76.2411 26.5953C76.2411 25.1339 75.8609 23.9555 75.1065 23.0583C74.3481 22.163 73.4026 21.7159 72.271 21.7159C70.8212 21.7159 69.7416 22.2891 69.0312 23.4354H68.9912L68.8721 21.914H66.9961C67.0482 22.9923 67.0752 24.0436 67.0752 25.0689V35.4047H69.2083V30.3683C69.7636 31.2766 70.6781 31.7297 71.9498 31.7297C73.1284 31.7297 74.115 31.3086 74.9104 30.4653ZM74.0677 26.673C74.0677 25.7387 73.8566 24.9685 73.4343 24.3613C72.9731 23.7301 72.3557 23.4141 71.5793 23.4141C71.053 23.4141 70.5748 23.5901 70.1456 23.9372C69.7173 24.2873 69.4382 24.7444 69.3071 25.3106C69.2421 25.5747 69.207 25.7897 69.207 25.9598V27.5612C69.207 28.2584 69.4222 28.8475 69.8484 29.3297C70.2766 29.8088 70.8329 30.0509 71.5193 30.0509C72.3237 30.0509 72.9491 29.7398 73.3953 29.1226C73.8436 28.5035 74.0677 27.6872 74.0677 26.673ZM95.6577 23.5144H93.3064V28.1746C93.3064 29.36 93.7206 29.9511 94.5511 29.9511C94.9323 29.9511 95.2484 29.9191 95.4986 29.8521L95.5576 31.4716C95.1374 31.6286 94.5841 31.7076 93.8987 31.7076C93.0563 31.7076 92.3979 31.4505 91.9227 30.9364C91.4494 30.4223 91.2113 29.561 91.2113 28.3487V23.5104H89.8105V21.9099H91.2113V20.1524L93.3064 19.5203V21.9099H95.6577V23.5144H95.6577ZM104.981 30.2681C105.824 29.3208 106.246 28.1095 106.246 26.6341C106.246 25.1977 105.839 24.0274 105.02 23.1211C104.164 22.1869 103.032 21.7188 101.623 21.7188C100.162 21.7188 98.9989 22.1929 98.1355 23.1412C97.274 24.0884 96.8418 25.3067 96.8418 26.7942C96.8418 28.2155 97.26 29.3939 98.0965 30.3291C98.9329 31.2624 100.055 31.7295 101.465 31.7295C102.927 31.7295 104.1 31.2434 104.981 30.2681ZM104.034 26.6833C104.034 25.8041 103.844 25.0499 103.463 24.4187C103.016 23.6565 102.375 23.2754 101.546 23.2754C100.691 23.2754 100.036 23.6565 99.5899 24.4187C99.2077 25.0499 99.0176 25.8171 99.0176 26.7233C99.0176 27.6036 99.2077 28.3598 99.5899 28.989C100.051 29.7512 100.694 30.1323 101.528 30.1323C102.343 30.1323 102.983 29.7432 103.445 28.97C103.837 28.3238 104.034 27.5646 104.034 26.6833ZM112.509 23.7304C112.735 23.7296 112.96 23.7494 113.182 23.7894L113.18 21.7548C113.022 21.7298 112.844 21.7158 112.646 21.7158C112.091 21.7166 111.55 21.8969 111.105 22.23C110.618 22.6111 110.264 23.1202 110.038 23.7514H109.979L109.901 21.9149H108.043C108.086 22.9216 108.107 23.9291 108.105 24.9367V31.5125H110.238V26.4761C110.238 25.7129 110.416 25.0807 110.77 24.5806C111.179 24.0125 111.759 23.7304 112.509 23.7304ZM122.724 26.2592C122.729 26.5834 122.703 26.9073 122.646 27.2264H116.247C116.271 28.1747 116.581 28.9009 117.175 29.401C117.714 29.8472 118.412 30.0712 119.268 30.0712C120.216 30.0712 121.08 29.9212 121.858 29.6181L122.192 31.0975C121.283 31.4936 120.211 31.6907 118.973 31.6907C117.484 31.6907 116.316 31.2525 115.465 30.3783C114.617 29.5031 114.191 28.3267 114.191 26.8533C114.191 25.4069 114.587 24.2016 115.378 23.2403C116.207 22.2141 117.326 21.7009 118.735 21.7009C120.119 21.7009 121.166 22.2141 121.878 23.2403C122.441 24.0536 122.724 25.0618 122.724 26.2592ZM120.274 24.0665C120.563 24.5276 120.703 25.0728 120.688 25.706L116.246 25.704C116.311 25.0608 116.522 24.5066 116.877 24.0455C117.31 23.4653 117.878 23.1763 118.575 23.1763C119.337 23.1763 119.905 23.4724 120.274 24.0665Z" fill="white"/>
<path fill-rule="evenodd" clip-rule="evenodd" d="M71.6277 13.4366H70.5781V6.55469H71.6277V13.4366ZM44.2012 13.4166C44.6284 13.4656 45.1417 13.4946 45.735 13.4946C48.2493 13.4946 49.5801 12.2723 49.5801 10.0096C49.5801 8.0481 48.4535 6.84477 46.0072 6.84477C45.4025 6.84304 44.7987 6.88853 44.2012 6.9808V13.4166ZM45.25 7.73794C45.4831 7.68993 45.7643 7.66992 46.0945 7.66992C47.6483 7.66992 48.4737 8.51515 48.4737 10.0386C48.4737 11.747 47.5613 12.6593 45.9584 12.6593C45.6182 12.6593 45.3761 12.6503 45.25 12.6303V7.73794ZM53.0906 13.5439C51.7119 13.5439 50.8184 12.5146 50.8184 11.1172C50.8184 9.66084 51.7309 8.62256 53.1686 8.62256C54.5274 8.62256 55.4409 9.60283 55.4409 11.0402C55.4409 12.5146 54.4994 13.5439 53.0906 13.5439ZM51.8887 11.0866C51.8887 10.0964 52.3739 9.38818 53.1313 9.38818C53.8687 9.38818 54.354 10.1064 54.354 11.0666C54.354 12.0089 53.8587 12.7661 53.1213 12.7661C52.3839 12.7661 51.8887 12.0579 51.8887 11.0866ZM63.3035 8.71928L61.8277 13.4366H60.8662L60.2549 11.388C60.1028 10.8869 59.9763 10.3785 59.8756 9.8646L59.8556 9.8646C59.7786 10.3787 59.6325 10.8939 59.4774 11.388L58.8271 13.4366H57.8555L56.4668 8.71928H57.5444L58.0787 10.9619C58.2047 11.496 58.3108 12.0002 58.3988 12.4763H58.4189C58.4959 12.0792 58.622 11.5831 58.8071 10.9719L59.4774 8.72029H60.3319L60.9732 10.9239C61.1283 11.458 61.2544 11.9822 61.3524 12.4773H61.3804C61.4485 11.9922 61.5556 11.477 61.7006 10.9239L62.2739 8.72029L63.3035 8.71928ZM67.6892 13.4369H68.7378H68.7378L68.7388 10.6121C68.7388 9.37976 68.0885 8.62256 67.0979 8.62256C66.4566 8.62256 65.8842 8.94265 65.6021 9.44678H65.5731L65.5241 8.71858H64.6016C64.6306 9.20372 64.6406 9.65084 64.6406 10.068V13.4369H65.6892V10.6311C65.6892 10.0099 66.1164 9.47579 66.7377 9.47579C67.369 9.47579 67.6892 9.89391 67.6892 10.7281V13.4369ZM73.1797 11.117C73.1797 12.5144 74.0742 13.5437 75.4519 13.5437C76.8597 13.5437 77.8022 12.5144 77.8012 11.04C77.8012 9.60258 76.8887 8.62231 75.529 8.62231C74.0922 8.62231 73.1797 9.6606 73.1797 11.117ZM75.4888 9.38818C74.7314 9.38818 74.2461 10.0964 74.2461 11.0866C74.2461 12.0579 74.7424 12.7661 75.4778 12.7661C76.2162 12.7661 76.7104 12.0089 76.7104 11.0666C76.7114 10.1064 76.2272 9.38818 75.4888 9.38818ZM81.8594 12.8935L81.9354 13.4366H81.9355L82.881 13.4376C82.834 13.1566 82.8129 12.7875 82.8129 12.3113V10.5738C82.8129 9.27249 82.1906 8.62231 80.9579 8.62231C80.3186 8.62231 79.7743 8.75835 79.338 9.03042L79.5511 9.71961C79.9104 9.48655 80.3186 9.36952 80.7838 9.36952C81.4342 9.36952 81.7634 9.6806 81.7634 10.3018V10.3888C80.0154 10.3888 79.0059 10.991 79.0059 12.1553C79.0059 12.9515 79.6062 13.5437 80.4516 13.5437C81.044 13.5437 81.5112 13.3306 81.8314 12.8935H81.8594ZM81.7919 11.0869C80.6273 11.0869 80.043 11.369 80.043 12.0382C80.043 12.5333 80.3441 12.7754 80.7624 12.7754C81.2956 12.7754 81.7919 12.3683 81.7919 11.8151V11.0869ZM87.854 12.6794L87.903 13.4366H88.8365C88.8085 13.0485 88.7975 12.6214 88.7975 12.1652V6.55469H87.7479V9.26243H87.7269C87.4748 8.83431 87.0275 8.62126 86.3962 8.62126C85.2036 8.62126 84.3301 9.66054 84.3301 11.1359C84.3301 12.5433 85.1725 13.5436 86.3102 13.5436C87.0175 13.5436 87.5238 13.2515 87.825 12.6794H87.854ZM87.7479 10.6608C87.7479 10.0007 87.3107 9.4375 86.6433 9.4375C85.8659 9.4375 85.3906 10.1267 85.3906 11.097C85.3906 12.0482 85.8839 12.6994 86.6223 12.6994C87.2816 12.6994 87.7479 12.1262 87.7479 11.4471V10.6608ZM93.1817 11.1169C93.1817 12.5143 94.0751 13.5436 95.4529 13.5436C96.8626 13.5436 97.8042 12.5143 97.8031 11.0399C97.8031 9.60253 96.8906 8.62226 95.5309 8.62226C94.0941 8.62226 93.1817 9.66054 93.1817 11.1169ZM95.4919 9.38847C94.7355 9.38847 94.2502 10.0967 94.2502 11.0869C94.2502 12.0582 94.7455 12.7664 95.4819 12.7664C96.2203 12.7664 96.7146 12.0092 96.7146 11.0669C96.7166 10.1067 96.2313 9.38847 95.4919 9.38847ZM102.392 13.4369H103.442V10.6111C103.442 9.37879 102.791 8.62158 101.8 8.62158C101.16 8.62158 100.586 8.94267 100.305 9.44681H100.276L100.227 8.71861H99.3047C99.3337 9.20374 99.3437 9.65087 99.3437 10.068V13.4369H100.393V10.6311C100.393 10.01 100.82 9.47582 101.441 9.47582C102.072 9.47582 102.392 9.89393 102.392 10.7282V13.4369ZM110.497 9.50549H109.343V11.7961C109.343 12.3793 109.545 12.6704 109.953 12.6704C110.138 12.6704 110.293 12.6503 110.419 12.6213L110.448 13.4176C110.244 13.4956 109.972 13.5346 109.634 13.5346C108.808 13.5346 108.313 13.0785 108.313 11.8841V9.50549H107.625V8.71927H108.313V7.85503L109.343 7.54395V8.71827H110.497V9.50549ZM115.002 13.4366H116.049V10.6308C116.049 9.39747 115.439 8.62126 114.44 8.62126C113.83 8.62126 113.352 8.87432 113.022 9.38847H113.001V6.55469H111.953V13.4366H113.001V10.5928C113.001 9.84559 113.507 9.47649 114.05 9.47649C114.683 9.47649 115.002 9.90361 115.002 10.7478V13.4366ZM121.735 11.3301H118.589C118.609 12.2233 119.2 12.7274 120.075 12.7274C120.541 12.7274 120.969 12.6494 121.347 12.5044L121.51 13.2326C121.064 13.4266 120.539 13.5237 119.927 13.5237C118.452 13.5237 117.578 12.5914 117.578 11.146C117.578 9.6996 118.473 8.6123 119.809 8.6123C121.015 8.6123 121.771 9.50555 121.771 10.8549C121.778 11.0142 121.766 11.1737 121.735 11.3301ZM119.736 9.34033C119.134 9.34033 118.658 9.86448 118.59 10.5827L119.736 9.34033ZM118.59 10.5827H120.774H118.59Z" fill="white"/>
</svg>
