<svg width="135" height="40" viewBox="0 0 135 40" fill="none" xmlns="http://www.w3.org/2000/svg">
<path d="M134.105 35.2771C134.105 36.2939 133.7 37.2689 132.981 37.9875C132.261 38.7061 131.285 39.1092 130.268 39.1082L4.7317 39.1082C2.61293 39.1104 0.893385 37.3953 0.890625 35.2771V4.7257C0.893385 2.60669 2.61212 0.890198 4.7317 0.889648H130.268C132.386 0.889648 134.104 2.60727 134.104 4.72571L134.105 35.2771L134.105 35.2771Z" fill="white"/>
<path d="M130.268 40H4.73155C2.12273 40 0.00551665 37.8878 1.90838e-06 35.2787L0 4.7273C0.00386113 2.11691 2.12048 0.00220264 4.73156 0L130.267 4.76968e-07C132.878 0.0033011 134.994 2.11737 134.999 4.7273V35.2777C135.001 37.8824 132.875 40 130.268 40H130.268Z" fill="#A6A6A6"/>
<path d="M134.105 35.2771C134.105 36.2939 133.7 37.2689 132.981 37.9875C132.261 38.7061 131.285 39.1092 130.268 39.1082L4.7317 39.1082C2.61293 39.1104 0.893385 37.3953 0.890625 35.2771V4.7257C0.893385 2.60669 2.61212 0.890198 4.7317 0.889648H130.268C132.386 0.889648 134.104 2.60727 134.104 4.72571L134.105 35.2771L134.105 35.2771Z" fill="black"/>
<path fill-rule="evenodd" clip-rule="evenodd" d="M28.2495 6.21924C28.4156 7.72865 27.8173 9.21606 26.9428 10.3094C26.0303 11.3857 24.5705 12.2089 23.1487 12.1029C22.9627 10.6505 23.683 9.10603 24.4895 8.16377C25.401 7.09448 26.9838 6.27525 28.2495 6.21924ZM32.9036 14.9265C32.745 15.0212 30.1155 16.5902 30.1443 19.79H30.1443C30.1783 23.653 33.5261 24.9314 33.5661 24.9454C33.5461 25.0354 33.0419 26.7899 31.7862 28.5694C30.7376 30.1368 29.639 31.6702 27.8941 31.6972C27.0645 31.7163 26.5043 31.4781 25.9207 31.2298C25.3118 30.9708 24.6773 30.701 23.6848 30.701C22.6329 30.701 21.9704 30.9796 21.3315 31.2482C20.7788 31.4806 20.2437 31.7056 19.4895 31.7363C17.8276 31.7973 16.558 30.0638 15.4714 28.5094C13.2992 25.3375 11.6083 19.5709 13.8755 15.6468C14.9741 13.7223 16.9772 12.483 19.1183 12.45C20.0612 12.4307 20.9655 12.794 21.7583 13.1124C22.3645 13.3559 22.9055 13.5733 23.3486 13.5733C23.7378 13.5733 24.2636 13.3646 24.8765 13.1215C25.8423 12.7382 27.0242 12.2693 28.2283 12.3959C29.0517 12.4199 31.395 12.721 32.9068 14.9246L32.9036 14.9265Z" fill="white"/>
<path fill-rule="evenodd" clip-rule="evenodd" d="M86.9049 30.5443C87.6923 29.8332 88.0885 28.9119 88.0885 27.7786C88.0885 26.8593 87.8184 26.0881 87.2751 25.47C86.7358 24.8518 85.8933 24.3136 84.7467 23.8515C83.8122 23.4834 83.1658 23.1403 82.8116 22.8252C82.4034 22.4831 82.1983 22.047 82.1983 21.5219C82.1983 21.0457 82.3784 20.6446 82.7336 20.3155C83.1559 19.9474 83.7462 19.7624 84.4986 19.7624C85.4511 19.7624 86.3026 19.9664 87.057 20.3745L87.5922 18.6361C86.7908 18.215 85.7813 18.0039 84.5696 18.0039C83.2129 18.0039 82.1223 18.353 81.2999 19.0512C80.4774 19.7504 80.0652 20.6446 80.0652 21.7369C80.0652 23.4094 81.2318 24.6807 83.5631 25.55C84.4205 25.8651 85.0309 26.2082 85.4001 26.5763C85.7673 26.9454 85.9544 27.3985 85.9544 27.9397C85.9544 28.5438 85.7283 29.0279 85.281 29.39C84.8348 29.7511 84.2094 29.9332 83.405 29.9332C82.2864 29.9332 81.2589 29.6571 80.3233 29.103L79.8301 30.8804C80.6965 31.4336 81.8452 31.7097 83.2779 31.7097C84.8288 31.7097 86.0384 31.3206 86.9049 30.5443ZM53.6942 31.5126H51.422L50.1773 27.6025H45.851L44.6653 31.5126H42.4531L46.7404 18.201H49.3879L53.6942 31.5126ZM49.8025 25.9622L48.6769 22.4862C48.5578 22.1311 48.3337 21.2949 48.0055 19.9785H47.9655C47.8334 20.5447 47.6223 21.3809 47.3331 22.4862L46.2266 25.9622H49.8025ZM63.3683 30.4653C64.2558 29.5181 64.6991 28.2277 64.6991 26.5953C64.6991 25.1339 64.3199 23.9555 63.5645 23.0583C62.808 22.163 61.8625 21.7159 60.7299 21.7159C59.2811 21.7159 58.2016 22.2891 57.4902 23.4354H57.4501L57.3311 21.914H55.4551C55.5071 22.9923 55.5341 24.0436 55.5341 25.0689V35.4047H57.6673V30.3683C58.2226 31.2766 59.1371 31.7297 60.4088 31.7297C61.5864 31.7297 62.5739 31.3086 63.3683 30.4653ZM62.5237 26.673C62.5237 25.7387 62.3136 24.9685 61.8913 24.3613C61.4301 23.7301 60.8108 23.4141 60.0343 23.4141C59.5081 23.4141 59.0298 23.5901 58.6026 23.9372C58.1743 24.2873 57.8942 24.7444 57.7631 25.3106C57.7046 25.5223 57.6714 25.7402 57.6641 25.9598V27.5612C57.6641 28.2584 57.8782 28.8475 58.3064 29.3297C58.7346 29.8098 59.2909 30.0509 59.9753 30.0509C60.7787 30.0509 61.4041 29.7398 61.8513 29.1226C62.2996 28.5035 62.5237 27.6872 62.5237 26.673ZM74.4104 30.4653C75.2979 29.5181 75.7411 28.2277 75.7411 26.5953C75.7411 25.1339 75.3609 23.9555 74.6065 23.0583C73.8481 22.163 72.9026 21.7159 71.771 21.7159C70.3212 21.7159 69.2416 22.2891 68.5312 23.4354H68.4912L68.3721 21.914H66.4961C66.5482 22.9923 66.5752 24.0436 66.5752 25.0689V35.4047H68.7083V30.3683C69.2636 31.2766 70.1781 31.7297 71.4498 31.7297C72.6284 31.7297 73.615 31.3086 74.4104 30.4653ZM73.5677 26.673C73.5677 25.7387 73.3566 24.9685 72.9343 24.3613C72.4731 23.7301 71.8557 23.4141 71.0793 23.4141C70.553 23.4141 70.0748 23.5901 69.6456 23.9372C69.2173 24.2873 68.9382 24.7444 68.8071 25.3106C68.7421 25.5747 68.707 25.7897 68.707 25.9598V27.5612C68.707 28.2584 68.9222 28.8475 69.3484 29.3297C69.7766 29.8088 70.3329 30.0509 71.0193 30.0509C71.8237 30.0509 72.4491 29.7398 72.8953 29.1226C73.3436 28.5035 73.5677 27.6872 73.5677 26.673ZM95.1577 23.5144H92.8064V28.1747C92.8064 29.36 93.2206 29.9512 94.0511 29.9512C94.4323 29.9512 94.7484 29.9192 94.9986 29.8522L95.0576 31.4716C94.6374 31.6287 94.0841 31.7077 93.3987 31.7077C92.5563 31.7077 91.8979 31.4506 91.4227 30.9365C90.9494 30.4223 90.7113 29.5611 90.7113 28.3487V23.5104H89.3105V21.91H90.7113V20.1525L92.8064 19.5203V21.91H95.1577V23.5144H95.1577ZM104.481 30.2681C105.324 29.3208 105.746 28.1095 105.746 26.6341C105.746 25.1977 105.339 24.0274 104.52 23.1211C103.664 22.1869 102.532 21.7188 101.123 21.7188C99.6616 21.7188 98.4989 22.1929 97.6355 23.1412C96.774 24.0884 96.3418 25.3067 96.3418 26.7942C96.3418 28.2155 96.76 29.3939 97.5965 30.3291C98.4329 31.2624 99.5545 31.7295 100.965 31.7295C102.427 31.7295 103.6 31.2434 104.481 30.2681ZM103.534 26.6833C103.534 25.804 103.344 25.0498 102.963 24.4187C102.516 23.6565 101.875 23.2754 101.046 23.2754C100.191 23.2754 99.5361 23.6565 99.0899 24.4187C98.7077 25.0498 98.5176 25.8171 98.5176 26.7233C98.5176 27.6035 98.7077 28.3598 99.0899 28.9889C99.5511 29.7511 100.194 30.1322 101.028 30.1322C101.843 30.1322 102.483 29.7431 102.945 28.9699C103.337 28.3237 103.534 27.5645 103.534 26.6833ZM112.009 23.7304C112.235 23.7296 112.46 23.7494 112.682 23.7894L112.68 21.7548C112.522 21.7298 112.344 21.7158 112.146 21.7158C111.591 21.7166 111.05 21.8969 110.605 22.23C110.118 22.6111 109.764 23.1202 109.538 23.7514H109.479L109.401 21.9149H107.543C107.586 22.9216 107.607 23.9291 107.605 24.9367V31.5125H109.738V26.4761C109.738 25.7129 109.916 25.0807 110.27 24.5806C110.679 24.0125 111.259 23.7304 112.009 23.7304ZM122.224 26.2592C122.229 26.5834 122.203 26.9073 122.146 27.2264H115.747C115.771 28.1747 116.081 28.9009 116.675 29.401C117.214 29.8472 117.912 30.0712 118.768 30.0712C119.716 30.0712 120.58 29.9212 121.358 29.6181L121.692 31.0975C120.783 31.4936 119.711 31.6907 118.473 31.6907C116.984 31.6907 115.816 31.2526 114.965 30.3783C114.117 29.5031 113.691 28.3267 113.691 26.8533C113.691 25.4069 114.087 24.2016 114.878 23.2403C115.707 22.2141 116.826 21.7009 118.235 21.7009C119.619 21.7009 120.666 22.2141 121.378 23.2403C121.941 24.0536 122.224 25.0619 122.224 26.2592ZM119.774 24.0665C120.063 24.5276 120.203 25.0728 120.188 25.706L115.746 25.704C115.811 25.0608 116.022 24.5066 116.377 24.0455C116.81 23.4653 117.378 23.1763 118.075 23.1763C118.837 23.1763 119.405 23.4724 119.774 24.0665Z" fill="white"/>
<path fill-rule="evenodd" clip-rule="evenodd" d="M71.1277 13.4371H70.0781V6.55518H71.1277V13.4371ZM43.7012 13.4171C44.1284 13.4661 44.6417 13.4951 45.235 13.4951C47.7493 13.4951 49.0801 12.2727 49.0801 10.0101C49.0801 8.04859 47.9535 6.84525 45.5072 6.84525C44.9025 6.84353 44.2987 6.88901 43.7012 6.98129V13.4171ZM44.75 7.73843C44.9831 7.69041 45.2643 7.67041 45.5945 7.67041C47.1483 7.67041 47.9737 8.51564 47.9737 10.0391C47.9737 11.7475 47.0613 12.6598 45.4584 12.6598C45.1182 12.6598 44.8761 12.6508 44.75 12.6308V7.73843ZM52.5906 13.5444C51.2119 13.5444 50.3184 12.5151 50.3184 11.1177C50.3184 9.66133 51.2309 8.62305 52.6686 8.62305C54.0274 8.62305 54.9409 9.60332 54.9409 11.0407C54.9409 12.5151 53.9994 13.5444 52.5906 13.5444ZM51.3887 11.0871C51.3887 10.0969 51.8739 9.38867 52.6313 9.38867C53.3687 9.38867 53.854 10.1069 53.854 11.0671C53.854 12.0094 53.3587 12.7666 52.6213 12.7666C51.8839 12.7666 51.3887 12.0584 51.3887 11.0871ZM62.8035 8.71977L61.3277 13.4371H60.3662L59.7549 11.3885C59.6028 10.8874 59.4763 10.379 59.3756 9.86509L59.3556 9.86509C59.2786 10.3792 59.1325 10.8944 58.9774 11.3885L58.3271 13.4371H57.3555L55.9668 8.71977H57.0444L57.5787 10.9624C57.7047 11.4965 57.8108 12.0007 57.8988 12.4768H57.9189C57.9959 12.0797 58.122 11.5836 58.3071 10.9724L58.9774 8.72077H59.8319L60.4732 10.9244C60.6283 11.4585 60.7544 11.9827 60.8524 12.4778H60.8804C60.9485 11.9927 61.0556 11.4775 61.2006 10.9244L61.7739 8.72077L62.8035 8.71977ZM67.1892 13.4374H68.2378H68.2378L68.2388 10.6126C68.2388 9.38025 67.5885 8.62305 66.5979 8.62305C65.9566 8.62305 65.3842 8.94313 65.1021 9.44727H65.0731L65.0241 8.71907H64.1016C64.1306 9.2042 64.1406 9.65133 64.1406 10.0684V13.4374H65.1892V10.6316C65.1892 10.0104 65.6164 9.47628 66.2377 9.47628C66.869 9.47628 67.1892 9.89439 67.1892 10.7286V13.4374ZM72.6797 11.1174C72.6797 12.5148 73.5742 13.5441 74.9519 13.5441C76.3597 13.5441 77.3022 12.5148 77.3012 11.0404C77.3012 9.60302 76.3887 8.62275 75.029 8.62275C73.5922 8.62275 72.6797 9.66103 72.6797 11.1174ZM74.9888 9.38867C74.2314 9.38867 73.7461 10.0969 73.7461 11.0871C73.7461 12.0584 74.2424 12.7666 74.9778 12.7666C75.7162 12.7666 76.2104 12.0094 76.2104 11.0671C76.2114 10.1069 75.7272 9.38867 74.9888 9.38867ZM81.3594 12.8939L81.4354 13.4371H81.4355L82.381 13.4381C82.334 13.157 82.3129 12.7879 82.3129 12.3118V10.5743C82.3129 9.27292 81.6906 8.62275 80.4579 8.62275C79.8186 8.62275 79.2743 8.75878 78.838 9.03086L79.0511 9.72004C79.4104 9.48698 79.8186 9.36995 80.2838 9.36995C80.9342 9.36995 81.2634 9.68103 81.2634 10.3022V10.3892C79.5154 10.3892 78.5059 10.9914 78.5059 12.1557C78.5059 12.9519 79.1062 13.5441 79.9516 13.5441C80.544 13.5441 81.0112 13.331 81.3314 12.8939H81.3594ZM81.2919 11.0874C80.1273 11.0874 79.543 11.3695 79.543 12.0387C79.543 12.5338 79.8441 12.7759 80.2624 12.7759C80.7956 12.7759 81.2919 12.3688 81.2919 11.8156V11.0874ZM87.354 12.6799L87.403 13.4371H88.3365C88.3085 13.049 88.2975 12.6218 88.2975 12.1657V6.55518H87.2479V9.26292H87.2269C86.9748 8.8348 86.5275 8.62174 85.8962 8.62174C84.7036 8.62174 83.8301 9.66103 83.8301 11.1364C83.8301 12.5438 84.6725 13.5441 85.8102 13.5441C86.5175 13.5441 87.0238 13.252 87.325 12.6799H87.354ZM87.2479 10.6613C87.2479 10.0011 86.8107 9.43797 86.1433 9.43797C85.3659 9.43797 84.8906 10.1272 84.8906 11.0974C84.8906 12.0487 85.3839 12.6999 86.1223 12.6999C86.7816 12.6999 87.2479 12.1267 87.2479 11.4475V10.6613ZM92.6817 11.1174C92.6817 12.5148 93.5751 13.5441 94.9529 13.5441C96.3626 13.5441 97.3042 12.5148 97.3031 11.0404C97.3031 9.60302 96.3906 8.62275 95.0309 8.62275C93.5941 8.62275 92.6817 9.66103 92.6817 11.1174ZM94.9919 9.38896C94.2355 9.38896 93.7502 10.0971 93.7502 11.0874C93.7502 12.0587 94.2455 12.7669 94.9819 12.7669C95.7203 12.7669 96.2146 12.0097 96.2146 11.0674C96.2166 10.1072 95.7313 9.38896 94.9919 9.38896ZM101.892 13.4374H102.942V10.6116C102.942 9.37928 102.291 8.62207 101.3 8.62207C100.66 8.62207 100.086 8.94316 99.8052 9.4473H99.7762L99.7272 8.7191H98.8047C98.8337 9.20423 98.8437 9.65135 98.8437 10.0685V13.4374H99.8933V10.6316C99.8933 10.0105 100.32 9.47631 100.941 9.47631C101.572 9.47631 101.892 9.89442 101.892 10.7287V13.4374ZM109.997 9.50597H108.843V11.7966C108.843 12.3798 109.045 12.6708 109.453 12.6708C109.638 12.6708 109.793 12.6508 109.919 12.6218L109.948 13.418C109.744 13.4961 109.472 13.5351 109.134 13.5351C108.308 13.5351 107.813 13.079 107.813 11.8846V9.50597H107.125V8.71976H107.813V7.85552L108.843 7.54443V8.71876H109.997V9.50597ZM114.502 13.4371H115.549V10.6313C115.549 9.39796 114.939 8.62174 113.94 8.62174C113.33 8.62174 112.852 8.87481 112.522 9.38896H112.501V6.55518H111.453V13.4371H112.501V10.5933C112.501 9.84608 113.007 9.47698 113.55 9.47698C114.183 9.47698 114.502 9.90409 114.502 10.7483V13.4371ZM121.235 11.3305H118.089C118.109 12.2238 118.7 12.7279 119.575 12.7279C120.041 12.7279 120.469 12.6499 120.847 12.5049L121.01 13.2331C120.564 13.4271 120.039 13.5241 119.427 13.5241C117.952 13.5241 117.078 12.5919 117.078 11.1465C117.078 9.70009 117.973 8.61279 119.309 8.61279C120.515 8.61279 121.271 9.50604 121.271 10.8554C121.278 11.0147 121.266 11.1741 121.235 11.3305ZM119.236 9.34082C118.634 9.34082 118.158 9.86497 118.09 10.5832L119.236 9.34082ZM118.09 10.5832H120.274H118.09Z" fill="white"/>
</svg>
