<svg width="135" height="40" viewBox="0 0 135 40" fill="none" xmlns="http://www.w3.org/2000/svg">
<path d="M130 40H5C2.2 40 0 37.8 0 35V5C0 2.2 2.2 0 5 0H130C132.8 0 135 2.2 135 5V35C135 37.8 132.8 40 130 40Z" fill="black"/>
<path fill-rule="evenodd" clip-rule="evenodd" d="M5 0H130C132.8 0 135 2.3 135 5V35C135 37.8 132.8 40 130 40H5C2.2 40 0 37.8 0 35V5C0 2.3 2.2 0 5 0ZM134.2 5C134.2 2.7 132.3 0.8 130 0.8H5C2.7 0.8 0.8 2.7 0.8 5V35C0.8 37.3 2.7 39.2 5 39.2H130C132.3 39.2 134.2 37.3 134.2 35V5Z" fill="#A6A6A6"/>
<path fill-rule="evenodd" clip-rule="evenodd" d="M46.7004 12.1999C47.2004 11.6999 47.4004 10.9999 47.4004 10.1999L47.4004 10.1999V9.7999H44.5004V10.5999H46.7004C46.7004 11.0999 46.5004 11.4999 46.2004 11.7999C45.7004 12.2999 45.2004 12.4999 44.5004 12.4999C43.9004 12.4999 43.4004 12.1999 42.9004 11.7999C42.4004 11.3999 42.2004 10.7999 42.2004 10.0999C42.2004 9.3999 42.4004 8.7999 42.9004 8.3999C43.3004 7.8999 43.9004 7.6999 44.5004 7.6999C45.2004 7.6999 45.7004 7.8999 46.1004 8.3999L46.6004 7.8999C46.4004 7.5999 46.1004 7.3999 45.7004 7.1999C45.3004 6.9999 44.9004 6.8999 44.5004 6.8999C43.6004 6.8999 42.9004 7.1999 42.3004 7.7999C41.7004 8.3999 41.4004 9.0999 41.4004 9.9999C41.4004 10.8999 41.7004 11.5999 42.3004 12.1999C42.9004 12.7999 43.6004 13.0999 44.5004 13.0999C45.4004 13.0999 46.1004 12.7999 46.7004 12.1999ZM49.3 7.7H52V7H48.5V13H52V12.2H49.3V10.3H51.8V9.6H49.3V7.7ZM55.3008 13H54.5008V7.7H52.8008V7H57.0008V7.7H55.3008V13ZM59.9004 6.9999V12.9999H60.7004V6.9999H59.9004ZM64.0004 12.9999H63.3004V7.6999H61.6004V6.9999H65.7004V7.6999H64.0004V12.9999ZM71.4008 13.0999C72.3008 13.0999 73.0008 12.7999 73.6008 12.1999C74.2008 11.5999 74.5008 10.8999 74.5008 9.9999C74.5008 9.0999 74.2008 8.3999 73.6008 7.7999C73.0008 7.1999 72.3008 6.8999 71.4008 6.8999C70.5008 6.8999 69.8008 7.1999 69.2008 7.7999C68.6008 8.3999 68.3008 9.0999 68.3008 9.9999C68.3008 10.8999 68.6008 11.5999 69.2008 12.1999C69.8008 12.7999 70.5008 13.0999 71.4008 13.0999ZM69.8004 11.6999C70.2004 12.0999 70.8004 12.3999 71.4004 12.3999C72.0004 12.3999 72.6004 12.1999 73.0004 11.6999C73.4004 11.2999 73.7004 10.6999 73.7004 9.9999C73.7004 9.2999 73.5004 8.6999 73.0004 8.2999C72.6004 7.8999 72.0004 7.5999 71.4004 7.5999C70.8004 7.5999 70.2004 7.7999 69.8004 8.2999C69.4004 8.6999 69.1004 9.2999 69.1004 9.9999C69.1004 10.6999 69.3004 11.2999 69.8004 11.6999ZM75.6004 6.9999V12.9999H76.3004V8.0999L79.4004 12.9999H80.2004V6.9999H79.4004V11.6999L76.5004 6.9999H75.6004Z" fill="white"/>
<path d="M47.4004 10.1999L47.3761 10.1029L47.3004 10.1218V10.1999H47.4004ZM46.7004 12.1999L46.6297 12.1292L46.7004 12.1999ZM47.4004 10.1999L47.4247 10.2969L47.5004 10.278V10.1999H47.4004ZM47.4004 9.7999H47.5004V9.6999H47.4004V9.7999ZM44.5004 9.7999V9.6999H44.4004V9.7999H44.5004ZM44.5004 10.5999H44.4004V10.6999H44.5004V10.5999ZM46.7004 10.5999H46.8004V10.4999H46.7004V10.5999ZM46.2004 11.7999L46.2711 11.8706L46.2711 11.8706L46.2004 11.7999ZM42.9004 8.3999L42.9629 8.47799L42.9715 8.47105L42.9785 8.46237L42.9004 8.3999ZM46.1004 8.3999L46.0223 8.46237L46.0921 8.54962L46.1711 8.47061L46.1004 8.3999ZM46.6004 7.8999L46.6711 7.97061L46.7291 7.91264L46.6836 7.84443L46.6004 7.8999ZM45.7004 7.1999L45.7451 7.11046L45.7451 7.11046L45.7004 7.1999ZM42.3004 7.7999L42.3711 7.87061H42.3711L42.3004 7.7999ZM42.3004 12.1999L42.2297 12.2706L42.2297 12.2706L42.3004 12.1999ZM52 7.7V7.8H52.1V7.7H52ZM49.3 7.7V7.6H49.2V7.7H49.3ZM52 7H52.1V6.9H52V7ZM48.5 7V6.9H48.4V7H48.5ZM48.5 13H48.4V13.1H48.5V13ZM52 13V13.1H52.1V13H52ZM52 12.2H52.1V12.1H52V12.2ZM49.3 12.2H49.2V12.3H49.3V12.2ZM49.3 10.3V10.2H49.2V10.3H49.3ZM51.8 10.3V10.4H51.9V10.3H51.8ZM51.8 9.6H51.9V9.5H51.8V9.6ZM49.3 9.6H49.2V9.7H49.3V9.6ZM54.5008 13H54.4008V13.1H54.5008V13ZM55.3008 13V13.1H55.4008V13H55.3008ZM54.5008 7.7H54.6008V7.6H54.5008V7.7ZM52.8008 7.7H52.7008V7.8H52.8008V7.7ZM52.8008 7V6.9H52.7008V7H52.8008ZM57.0008 7H57.1008V6.9H57.0008V7ZM57.0008 7.7V7.8H57.1008V7.7H57.0008ZM55.3008 7.7V7.6H55.2008V7.7H55.3008ZM59.9004 12.9999H59.8004V13.0999H59.9004V12.9999ZM59.9004 6.9999V6.8999H59.8004V6.9999H59.9004ZM60.7004 12.9999V13.0999H60.8004V12.9999H60.7004ZM60.7004 6.9999H60.8004V6.8999H60.7004V6.9999ZM63.3004 12.9999H63.2004V13.0999H63.3004V12.9999ZM64.0004 12.9999V13.0999H64.1004V12.9999H64.0004ZM63.3004 7.6999H63.4004V7.5999H63.3004V7.6999ZM61.6004 7.6999H61.5004V7.7999H61.6004V7.6999ZM61.6004 6.9999V6.8999H61.5004V6.9999H61.6004ZM65.7004 6.9999H65.8004V6.8999H65.7004V6.9999ZM65.7004 7.6999V7.7999H65.8004V7.6999H65.7004ZM64.0004 7.6999V7.5999H63.9004V7.6999H64.0004ZM73.6008 12.1999L73.5301 12.1292L73.5301 12.1292L73.6008 12.1999ZM73.6008 7.7999L73.5301 7.87061L73.5301 7.87061L73.6008 7.7999ZM69.2008 7.7999L69.2715 7.87061V7.87061L69.2008 7.7999ZM69.2008 12.1999L69.2715 12.1292V12.1292L69.2008 12.1999ZM69.8004 11.6999L69.8715 11.6288L69.8629 11.6218L69.8004 11.6999ZM73.0004 11.6999L72.9293 11.6288L72.9223 11.6374L73.0004 11.6999ZM73.0004 8.2999L72.9293 8.37105L72.9379 8.37799L73.0004 8.2999ZM69.8004 8.2999L69.8715 8.37105L69.8785 8.36237L69.8004 8.2999ZM75.6004 12.9999H75.5004V13.0999H75.6004V12.9999ZM75.6004 6.9999V6.8999H75.5004V6.9999H75.6004ZM76.3004 12.9999V13.0999H76.4004V12.9999H76.3004ZM76.3004 8.0999L76.3849 8.04644L76.2004 7.7548V8.0999H76.3004ZM79.4004 12.9999L79.3159 13.0534L79.3453 13.0999H79.4004V12.9999ZM80.2004 12.9999V13.0999H80.3004V12.9999H80.2004ZM80.2004 6.9999H80.3004V6.8999H80.2004V6.9999ZM79.4004 6.9999V6.8999H79.3004V6.9999H79.4004ZM79.4004 11.6999L79.3153 11.7524L79.5004 12.0524V11.6999H79.4004ZM76.5004 6.9999L76.5855 6.94739L76.5562 6.8999H76.5004V6.9999ZM47.3004 10.1999C47.3004 10.9845 47.1043 11.6546 46.6297 12.1292L46.7711 12.2706C47.2965 11.7452 47.5004 11.0153 47.5004 10.1999H47.3004ZM47.3761 10.1029L47.3761 10.1029L47.4246 10.2969L47.4247 10.2969L47.3761 10.1029ZM47.3004 9.7999V10.1999H47.5004V9.7999H47.3004ZM44.5004 9.8999H47.4004V9.6999H44.5004V9.8999ZM44.6004 10.5999V9.7999H44.4004V10.5999H44.6004ZM46.7004 10.4999H44.5004V10.6999H46.7004V10.4999ZM46.2711 11.8706C46.5878 11.5539 46.8004 11.1292 46.8004 10.5999H46.6004C46.6004 11.0706 46.413 11.4459 46.1297 11.7292L46.2711 11.8706ZM44.5004 12.5999C44.8602 12.5999 45.1736 12.5485 45.4633 12.43C45.753 12.3114 46.0138 12.1279 46.2711 11.8706L46.1297 11.7292C45.887 11.9719 45.6478 12.1384 45.3875 12.2448C45.1272 12.3513 44.8406 12.3999 44.5004 12.3999V12.5999ZM42.8379 11.878C43.3421 12.2813 43.8649 12.5999 44.5004 12.5999V12.3999C43.9359 12.3999 43.4587 12.1185 42.9629 11.7218L42.8379 11.878ZM42.1004 10.0999C42.1004 10.8183 42.3062 11.4526 42.8379 11.878L42.9629 11.7218C42.4946 11.3472 42.3004 10.7815 42.3004 10.0999H42.1004ZM42.8379 8.32182C42.3062 8.74718 42.1004 9.38148 42.1004 10.0999H42.3004C42.3004 9.41832 42.4946 8.85262 42.9629 8.47799L42.8379 8.32182ZM44.5004 7.5999C43.8794 7.5999 43.2465 7.80725 42.8223 8.33743L42.9785 8.46237C43.3543 7.99256 43.9214 7.7999 44.5004 7.7999V7.5999ZM46.1785 8.33743C45.7557 7.80895 45.2241 7.5999 44.5004 7.5999V7.7999C45.1767 7.7999 45.6451 7.99085 46.0223 8.46237L46.1785 8.33743ZM46.5297 7.82919L46.0297 8.32919L46.1711 8.47061L46.6711 7.97061L46.5297 7.82919ZM45.6557 7.28934C46.0514 7.48721 46.332 7.67762 46.5172 7.95537L46.6836 7.84443C46.4688 7.52218 46.1494 7.31259 45.7451 7.11046L45.6557 7.28934ZM44.5004 6.9999C44.8831 6.9999 45.2679 7.09546 45.6557 7.28934L45.7451 7.11046C45.3329 6.90434 44.9177 6.7999 44.5004 6.7999V6.9999ZM42.3711 7.87061C42.9523 7.2894 43.6269 6.9999 44.5004 6.9999V6.7999C43.5739 6.7999 42.8485 7.1104 42.2297 7.72919L42.3711 7.87061ZM41.5004 9.9999C41.5004 9.12637 41.7899 8.45182 42.3711 7.87061L42.2297 7.72919C41.6109 8.34798 41.3004 9.07343 41.3004 9.9999H41.5004ZM42.3711 12.1292C41.7899 11.548 41.5004 10.8734 41.5004 9.9999H41.3004C41.3004 10.9264 41.6109 11.6518 42.2297 12.2706L42.3711 12.1292ZM44.5004 12.9999C43.6269 12.9999 42.9523 12.7104 42.3711 12.1292L42.2297 12.2706C42.8485 12.8894 43.5739 13.1999 44.5004 13.1999V12.9999ZM46.6297 12.1292C46.0485 12.7104 45.3739 12.9999 44.5004 12.9999V13.1999C45.4269 13.1999 46.1523 12.8894 46.7711 12.2706L46.6297 12.1292ZM52 7.6H49.3V7.8H52V7.6ZM51.9 7V7.7H52.1V7H51.9ZM48.5 7.1H52V6.9H48.5V7.1ZM48.6 13V7H48.4V13H48.6ZM52 12.9H48.5V13.1H52V12.9ZM51.9 12.2V13H52.1V12.2H51.9ZM49.3 12.3H52V12.1H49.3V12.3ZM49.2 10.3V12.2H49.4V10.3H49.2ZM51.8 10.2H49.3V10.4H51.8V10.2ZM51.7 9.6V10.3H51.9V9.6H51.7ZM49.3 9.7H51.8V9.5H49.3V9.7ZM49.2 7.7V9.6H49.4V7.7H49.2ZM54.5008 13.1H55.3008V12.9H54.5008V13.1ZM54.4008 7.7V13H54.6008V7.7H54.4008ZM52.8008 7.8H54.5008V7.6H52.8008V7.8ZM52.7008 7V7.7H52.9008V7H52.7008ZM57.0008 6.9H52.8008V7.1H57.0008V6.9ZM57.1008 7.7V7H56.9008V7.7H57.1008ZM55.3008 7.8H57.0008V7.6H55.3008V7.8ZM55.4008 13V7.7H55.2008V13H55.4008ZM60.0004 12.9999V6.9999H59.8004V12.9999H60.0004ZM60.7004 12.8999H59.9004V13.0999H60.7004V12.8999ZM60.6004 6.9999V12.9999H60.8004V6.9999H60.6004ZM59.9004 7.0999H60.7004V6.8999H59.9004V7.0999ZM63.3004 13.0999H64.0004V12.8999H63.3004V13.0999ZM63.2004 7.6999V12.9999H63.4004V7.6999H63.2004ZM61.6004 7.7999H63.3004V7.5999H61.6004V7.7999ZM61.5004 6.9999V7.6999H61.7004V6.9999H61.5004ZM65.7004 6.8999H61.6004V7.0999H65.7004V6.8999ZM65.8004 7.6999V6.9999H65.6004V7.6999H65.8004ZM64.0004 7.7999H65.7004V7.5999H64.0004V7.7999ZM64.1004 12.9999V7.6999H63.9004V12.9999H64.1004ZM73.5301 12.1292C72.9489 12.7104 72.2743 12.9999 71.4008 12.9999V13.1999C72.3272 13.1999 73.0527 12.8894 73.6715 12.2706L73.5301 12.1292ZM74.4008 9.9999C74.4008 10.8734 74.1113 11.548 73.5301 12.1292L73.6715 12.2706C74.2903 11.6518 74.6008 10.9264 74.6008 9.9999H74.4008ZM73.5301 7.87061C74.1113 8.45182 74.4008 9.12637 74.4008 9.9999H74.6008C74.6008 9.07343 74.2903 8.34798 73.6715 7.72919L73.5301 7.87061ZM71.4008 6.9999C72.2743 6.9999 72.9489 7.2894 73.5301 7.87061L73.6715 7.72919C73.0527 7.1104 72.3273 6.7999 71.4008 6.7999V6.9999ZM69.2715 7.87061C69.8527 7.2894 70.5273 6.9999 71.4008 6.9999V6.7999C70.4743 6.7999 69.7489 7.1104 69.1301 7.72919L69.2715 7.87061ZM68.4008 9.9999C68.4008 9.12637 68.6903 8.45182 69.2715 7.87061L69.1301 7.72919C68.5113 8.34798 68.2008 9.07343 68.2008 9.9999H68.4008ZM69.2715 12.1292C68.6903 11.548 68.4008 10.8734 68.4008 9.9999H68.2008C68.2008 10.9264 68.5113 11.6518 69.1301 12.2706L69.2715 12.1292ZM71.4008 12.9999C70.5272 12.9999 69.8527 12.7104 69.2715 12.1292L69.1301 12.2706C69.7489 12.8894 70.4743 13.1999 71.4008 13.1999V12.9999ZM71.4004 12.2999C70.8316 12.2999 70.256 12.014 69.8711 11.6292L69.7297 11.7706C70.1448 12.1858 70.7692 12.4999 71.4004 12.4999V12.2999ZM72.9223 11.6374C72.5464 12.1072 71.9794 12.2999 71.4004 12.2999V12.4999C72.0214 12.4999 72.6543 12.2926 73.0785 11.7624L72.9223 11.6374ZM73.6004 9.9999C73.6004 10.6709 73.3127 11.2461 72.9297 11.6292L73.0711 11.7706C73.488 11.3537 73.8004 10.7289 73.8004 9.9999H73.6004ZM72.9379 8.37799C73.4062 8.75262 73.6004 9.31833 73.6004 9.9999H73.8004C73.8004 9.28148 73.5946 8.64718 73.0629 8.22182L72.9379 8.37799ZM71.4004 7.6999C71.9692 7.6999 72.5448 7.98576 72.9297 8.37061L73.0711 8.22919C72.6559 7.81404 72.0316 7.4999 71.4004 7.4999V7.6999ZM69.8785 8.36237C70.2543 7.89256 70.8214 7.6999 71.4004 7.6999V7.4999C70.7794 7.4999 70.1465 7.70725 69.7223 8.23743L69.8785 8.36237ZM69.2004 9.9999C69.2004 9.32889 69.488 8.75367 69.8711 8.37061L69.7297 8.22919C69.3127 8.64613 69.0004 9.27092 69.0004 9.9999H69.2004ZM69.8629 11.6218C69.3946 11.2472 69.2004 10.6815 69.2004 9.9999H69.0004C69.0004 10.7183 69.2062 11.3526 69.7379 11.778L69.8629 11.6218ZM75.7004 12.9999V6.9999H75.5004V12.9999H75.7004ZM76.3004 12.8999H75.6004V13.0999H76.3004V12.8999ZM76.2004 8.0999V12.9999H76.4004V8.0999H76.2004ZM79.4849 12.9464L76.3849 8.04644L76.2159 8.15337L79.3159 13.0534L79.4849 12.9464ZM80.2004 12.8999H79.4004V13.0999H80.2004V12.8999ZM80.1004 6.9999V12.9999H80.3004V6.9999H80.1004ZM79.4004 7.0999H80.2004V6.8999H79.4004V7.0999ZM79.5004 11.6999V6.9999H79.3004V11.6999H79.5004ZM76.4153 7.05241L79.3153 11.7524L79.4855 11.6474L76.5855 6.94739L76.4153 7.05241ZM75.6004 7.0999H76.5004V6.8999H75.6004V7.0999Z" fill="white"/>
<path fill-rule="evenodd" clip-rule="evenodd" d="M47.6996 23.1001V24.9001H51.9996C51.8996 25.9001 51.4996 26.7001 50.9996 27.2001C50.3996 27.8001 49.3996 28.5001 47.6996 28.5001C44.9996 28.5001 42.9996 26.4001 42.9996 23.7001C42.9996 21.0001 45.0996 18.9001 47.6996 18.9001C49.0996 18.9001 50.1996 19.5001 50.9996 20.2001L52.2996 18.9001C51.1996 17.9001 49.7996 17.1001 47.7996 17.1001C44.1996 17.1001 41.0996 20.1001 41.0996 23.7001C41.0996 27.3001 44.1996 30.3001 47.7996 30.3001C49.7996 30.3001 51.1996 29.7001 52.3996 28.4001C53.5996 27.2001 53.9996 25.5001 53.9996 24.2001C53.9996 23.8001 53.9996 23.4001 53.8996 23.1001H47.6996ZM58.8 21.7998C56.4 21.7998 54.5 23.5998 54.5 26.0998C54.5 28.4998 56.4 30.3998 58.8 30.3998C61.2 30.3998 63.1 28.5998 63.1 26.0998C63.1 23.4998 61.2 21.7998 58.8 21.7998ZM63.7996 26.1001C63.7996 23.6001 65.6996 21.8001 68.0996 21.8001C70.4996 21.8001 72.3996 23.5001 72.3996 26.1001C72.3996 28.6001 70.4996 30.4001 68.0996 30.4001C65.6996 30.4001 63.7996 28.5001 63.7996 26.1001ZM65.6992 26.0004C65.6992 27.5004 66.7992 28.6004 68.0992 28.6004C69.3992 28.6004 70.4992 27.5004 70.4992 26.0004C70.4992 24.4004 69.3992 23.4004 68.0992 23.4004C66.7992 23.4004 65.6992 24.5004 65.6992 26.0004ZM56.3996 26.0001C56.3996 27.5001 57.4996 28.6001 58.7996 28.6001C60.0996 28.6001 61.1996 27.5001 61.1996 26.0001C61.1996 24.4001 60.0996 23.4001 58.7996 23.4001C57.4996 23.4001 56.3996 24.5001 56.3996 26.0001ZM89.5 21.7998C91.7 21.7998 92.7 23.4998 93.1 24.4998L93.3 24.9998L87.6 27.3998C88.1 28.2998 88.7 28.6998 89.7 28.6998C90.7 28.6998 91.3 28.1998 91.8 27.4998L93.2 28.4998C92.8 29.1998 91.6 30.3998 89.7 30.3998C87.3 30.3998 85.5 28.4998 85.5 26.0998C85.5 23.4998 87.3 21.7998 89.5 21.7998ZM87.2996 25.9001C87.2996 24.3001 88.5996 23.4001 89.4996 23.4001C90.1996 23.4001 90.8996 23.8001 91.0996 24.3001L87.2996 25.9001ZM84.4996 30.0001H82.5996V17.5001H84.4996V30.0001ZM79.5992 22.7002C79.0992 22.2002 78.2992 21.7002 77.2992 21.7002C75.1992 21.7002 73.1992 23.6002 73.1992 26.0002C73.1992 28.4002 75.0992 30.2002 77.2992 30.2002C78.2992 30.2002 79.0992 29.7002 79.4992 29.2002H79.5992V29.8002C79.5992 31.4002 78.6992 32.3002 77.2992 32.3002C76.1992 32.3002 75.3992 31.5002 75.1992 30.8002L73.5992 31.5002C74.0992 32.6002 75.2992 34.0002 77.3992 34.0002C79.5992 34.0002 81.3992 32.7002 81.3992 29.6002V22.0002H79.5992L79.5992 22.7002ZM75 26.0004C75 27.5004 76.1 28.6004 77.4 28.6004C78.7 28.6004 79.7 27.5004 79.7 26.0004C79.7 24.5004 78.7 23.4004 77.4 23.4004C76.1 23.4004 75 24.5004 75 26.0004ZM101.8 17.5001H97.2996V30.0001H99.1996V25.3001H101.8C103.9 25.3001 105.9 23.8001 105.9 21.4001C105.9 19.0001 103.9 17.5001 101.8 17.5001ZM99.1992 23.5002H101.899C103.199 23.5002 103.999 22.4002 104.099 21.3002C104.099 20.4002 103.299 19.2002 101.899 19.2002H99.1992V23.5002ZM113.4 21.7002C112 21.7002 110.6 22.3002 110.1 23.6002L111.8 24.3002C112.2 23.6002 112.8 23.4002 113.5 23.4002C114.5 23.4002 115.4 24.0002 115.5 25.0002V25.1002C115.2 24.9002 114.4 24.6002 113.6 24.6002C111.8 24.6002 110 25.6002 110 27.4002C110 29.1002 111.5 30.2002 113.1 30.2002C114.4 30.2002 115 29.6002 115.5 29.0002H115.6V30.0002H117.4V25.2002C117.2 23.0002 115.5 21.7002 113.4 21.7002ZM111.699 27.5002C111.699 28.3002 112.599 28.6002 113.199 28.6002C114.199 28.6002 115.199 27.8002 115.399 26.6002L115.329 26.5719L115.25 26.5398C114.814 26.3618 114.418 26.2002 113.699 26.2002C112.799 26.2002 111.699 26.5002 111.699 27.5002ZM123.7 22.0001L121.6 27.4001H121.5L119.3 22.0001H117.3L120.6 29.6001L118.7 33.8001H120.6L125.7 22.0001H123.7ZM108.8 30.0001H106.9V17.5001H108.8V30.0001Z" fill="white"/>
<path d="M10.4 7.5C10.1 7.8 10 8.3 10 8.9V31C10 31.6 10.2 32.1 10.5 32.4L10.6 32.5L23 20.1V19.9L10.4 7.5Z" fill="url(#paint0_linear_63_1547)"/>
<path d="M27.0004 24.2998L22.9004 20.1998V19.8998L27.0004 15.7998L27.1004 15.8998L32.0004 18.6998C33.4004 19.4998 33.4004 20.7998 32.0004 21.5998L27.0004 24.2998Z" fill="url(#paint1_linear_63_1547)"/>
<path d="M27.1004 24.2L22.9004 20L10.4004 32.5C10.9004 33 11.6004 33 12.5004 32.6L27.1004 24.2Z" fill="url(#paint2_linear_63_1547)"/>
<path d="M27.1004 15.7996L12.5004 7.49962C11.6004 6.99962 10.9004 7.09962 10.4004 7.59962L22.9004 19.9996L27.1004 15.7996H27.1004Z" fill="url(#paint3_linear_63_1547)"/>
<path opacity="0.2" d="M27.0004 24.0996L12.5004 32.2996C11.7004 32.7996 11.0004 32.6996 10.5004 32.2996L10.4004 32.3996L10.5004 32.4996C11.0004 32.8996 11.7004 32.9996 12.5004 32.4996L27.0004 24.0996Z" fill="black"/>
<path opacity="0.12" fill-rule="evenodd" clip-rule="evenodd" d="M27 24.1L32 21.3C32.6 20.9 33 20.5 33 20C33 20.5 32.7 21 32 21.4L27.1 24.2L27 24.1ZM10 30.9C10 31.0417 10.0056 31.1778 10.018 31.307C10.0062 31.2081 10 31.1056 10 31V30.9ZM10.018 31.307C10.0665 31.7114 10.2095 32.0548 10.4097 32.3L10.018 31.307ZM10.4097 32.3H10.5V32.4C10.4688 32.3688 10.4387 32.3354 10.4097 32.3Z" fill="black"/>
<path opacity="0.25" d="M12.5 7.59978L32 18.6998C32.6 19.0998 33 19.4998 33 19.9998C33 19.4998 32.7 18.9998 32 18.5998L12.5 7.49978C11.1 6.69978 10 7.29978 10 8.89978V8.99978C10 7.49978 11.1 6.79978 12.5 7.59978Z" fill="white"/>
<defs>
<linearGradient id="paint0_linear_63_1547" x1="26.1633" y1="17.1525" x2="6.29524" y2="11.7805" gradientUnits="userSpaceOnUse">
<stop stop-color="#00A0FF"/>
<stop offset="0.007" stop-color="#00A1FF"/>
<stop offset="0.26" stop-color="#00BEFF"/>
<stop offset="0.512" stop-color="#00D2FF"/>
<stop offset="0.76" stop-color="#00DFFF"/>
<stop offset="1" stop-color="#00E3FF"/>
</linearGradient>
<linearGradient id="paint1_linear_63_1547" x1="33.8344" y1="11.8671" x2="9.63739" y2="11.8671" gradientUnits="userSpaceOnUse">
<stop stop-color="#FFE000"/>
<stop offset="0.409" stop-color="#FFBD00"/>
<stop offset="0.775" stop-color="#FFA500"/>
<stop offset="1" stop-color="#FF9C00"/>
</linearGradient>
<linearGradient id="paint2_linear_63_1547" x1="39.5715" y1="10.922" x2="23.6063" y2="-15.882" gradientUnits="userSpaceOnUse">
<stop stop-color="#FF3A44"/>
<stop offset="1" stop-color="#C31162"/>
</linearGradient>
<linearGradient id="paint3_linear_63_1547" x1="13.9123" y1="45.7272" x2="20.9856" y2="33.7409" gradientUnits="userSpaceOnUse">
<stop stop-color="#32A071"/>
<stop offset="0.069" stop-color="#2DA771"/>
<stop offset="0.476" stop-color="#15CF74"/>
<stop offset="0.801" stop-color="#06E775"/>
<stop offset="1" stop-color="#00F076"/>
</linearGradient>
</defs>
</svg>
