<svg width="135" height="40" viewBox="0 0 135 40" fill="none" xmlns="http://www.w3.org/2000/svg">
<path d="M134.104 35.2771C134.104 36.2939 133.699 37.2689 132.98 37.9875C132.26 38.7061 131.285 39.1092 130.268 39.1082L4.73072 39.1082C2.61195 39.1104 0.892409 37.3953 0.889648 35.2771V4.7257C0.892408 2.60669 2.61115 0.890198 4.73072 0.889648H130.267C132.386 0.889648 134.103 2.60727 134.103 4.72571L134.104 35.2771L134.104 35.2771Z" fill="white"/>
<path d="M130.268 40H4.73155C2.12273 40 0.00551665 37.8878 1.90838e-06 35.2787L0 4.7273C0.00386113 2.11691 2.12048 0.00220264 4.73156 0L130.267 4.76968e-07C132.878 0.0033011 134.994 2.11737 134.999 4.7273V35.2777C135.001 37.8824 132.875 40 130.268 40H130.268Z" fill="#A6A6A6"/>
<path d="M134.104 35.2771C134.104 36.2939 133.699 37.2689 132.98 37.9875C132.26 38.7061 131.285 39.1092 130.268 39.1082L4.73072 39.1082C2.61195 39.1104 0.892409 37.3953 0.889648 35.2771V4.7257C0.892408 2.60669 2.61115 0.890198 4.73072 0.889648H130.267C132.386 0.889648 134.103 2.60727 134.103 4.72571L134.104 35.2771L134.104 35.2771Z" fill="black"/>
<path fill-rule="evenodd" clip-rule="evenodd" d="M28.2495 6.21924C28.4156 7.72865 27.8173 9.21606 26.9428 10.3094C26.0303 11.3857 24.5705 12.2089 23.1487 12.1029C22.9627 10.6505 23.683 9.10603 24.4895 8.16377C25.401 7.09448 26.9838 6.27525 28.2495 6.21924ZM32.9036 14.9265C32.745 15.0212 30.1155 16.5902 30.1443 19.79H30.1443C30.1783 23.653 33.5261 24.9314 33.5661 24.9454C33.5461 25.0354 33.0419 26.7899 31.7862 28.5694C30.7376 30.1368 29.639 31.6702 27.8941 31.6972C27.0645 31.7163 26.5043 31.4781 25.9207 31.2298C25.3118 30.9708 24.6773 30.701 23.6848 30.701C22.6329 30.701 21.9704 30.9796 21.3315 31.2482C20.7788 31.4806 20.2437 31.7056 19.4895 31.7363C17.8276 31.7973 16.558 30.0638 15.4714 28.5094C13.2992 25.3375 11.6083 19.5709 13.8755 15.6468C14.9741 13.7223 16.9772 12.483 19.1183 12.45C20.0612 12.4307 20.9655 12.794 21.7583 13.1124C22.3645 13.3559 22.9055 13.5733 23.3486 13.5733C23.7378 13.5733 24.2636 13.3646 24.8765 13.1215C25.8423 12.7382 27.0242 12.2693 28.2283 12.3959C29.0517 12.4199 31.395 12.721 32.9068 14.9246L32.9036 14.9265Z" fill="white"/>
<path fill-rule="evenodd" clip-rule="evenodd" d="M86.9041 30.5443C87.6916 29.8332 88.0878 28.9119 88.0878 27.7786C88.0878 26.8593 87.8176 26.0881 87.2743 25.47C86.735 24.8518 85.8926 24.3136 84.746 23.8515C83.8115 23.4834 83.1651 23.1403 82.8109 22.8252C82.4027 22.4831 82.1976 22.047 82.1976 21.5219C82.1976 21.0457 82.3777 20.6446 82.7329 20.3155C83.1551 19.9474 83.7454 19.7624 84.4978 19.7624C85.4503 19.7624 86.3018 19.9664 87.0562 20.3745L87.5915 18.6361C86.7901 18.215 85.7805 18.0039 84.5689 18.0039C83.2122 18.0039 82.1216 18.353 81.2991 19.0512C80.4767 19.7504 80.0645 20.6446 80.0645 21.7369C80.0645 23.4094 81.2311 24.6807 83.5623 25.55C84.4198 25.8651 85.0301 26.2082 85.3993 26.5763C85.7665 26.9454 85.9536 27.3985 85.9536 27.9397C85.9536 28.5438 85.7275 29.0279 85.2803 29.39C84.834 29.7511 84.2087 29.9332 83.4043 29.9332C82.2856 29.9332 81.2581 29.6571 80.3226 29.103L79.8293 30.8804C80.6958 31.4336 81.8444 31.7097 83.2772 31.7097C84.828 31.7097 86.0377 31.3206 86.9041 30.5443ZM53.6942 31.5126H51.422L50.1773 27.6025H45.851L44.6653 31.5126H42.4531L46.7404 18.201H49.3879L53.6942 31.5126ZM49.8025 25.9622L48.6769 22.4862C48.5578 22.1311 48.3337 21.2949 48.0055 19.9785H47.9655C47.8334 20.5447 47.6223 21.3809 47.3331 22.4862L46.2266 25.9622H49.8025ZM63.3674 30.4653C64.2549 29.5181 64.6982 28.2277 64.6982 26.5953C64.6982 25.1339 64.3189 23.9555 63.5635 23.0583C62.8071 22.163 61.8616 21.7159 60.729 21.7159C59.2802 21.7159 58.2006 22.2891 57.4893 23.4354H57.4492L57.3302 21.914H55.4542C55.5062 22.9923 55.5332 24.0436 55.5332 25.0689V35.4047H57.6664V30.3683C58.2217 31.2766 59.1362 31.7297 60.4078 31.7297C61.5854 31.7297 62.573 31.3086 63.3674 30.4653ZM62.5247 26.673C62.5247 25.7387 62.3146 24.9685 61.8923 24.3613C61.4311 23.7301 60.8117 23.4141 60.0353 23.4141C59.509 23.4141 59.0308 23.5901 58.6035 23.9372C58.1753 24.2873 57.8952 24.7444 57.7641 25.3106C57.7056 25.5223 57.6723 25.7402 57.665 25.9598V27.5612C57.665 28.2584 57.8792 28.8475 58.3074 29.3297C58.7356 29.8098 59.2919 30.0509 59.9763 30.0509C60.7797 30.0509 61.4051 29.7398 61.8523 29.1226C62.3006 28.5035 62.5247 27.6872 62.5247 26.673ZM74.4104 30.4653C75.2979 29.5181 75.7411 28.2277 75.7411 26.5953C75.7411 25.1339 75.3609 23.9555 74.6065 23.0583C73.8481 22.163 72.9026 21.7159 71.771 21.7159C70.3212 21.7159 69.2416 22.2891 68.5312 23.4354H68.4912L68.3721 21.914H66.4961C66.5482 22.9923 66.5752 24.0436 66.5752 25.0689V35.4047H68.7083V30.3683C69.2636 31.2766 70.1781 31.7297 71.4498 31.7297C72.6284 31.7297 73.615 31.3086 74.4104 30.4653ZM73.5667 26.673C73.5667 25.7387 73.3556 24.9685 72.9333 24.3613C72.4721 23.7301 71.8548 23.4141 71.0784 23.4141C70.5521 23.4141 70.0738 23.5901 69.6446 23.9372C69.2164 24.2873 68.9372 24.7444 68.8061 25.3106C68.7411 25.5747 68.7061 25.7897 68.7061 25.9598V27.5612C68.7061 28.2584 68.9212 28.8475 69.3474 29.3297C69.7756 29.8088 70.332 30.0509 71.0183 30.0509C71.8228 30.0509 72.4481 29.7398 72.8943 29.1226C73.3426 28.5035 73.5667 27.6872 73.5667 26.673ZM95.1586 23.5144H92.8073V28.1747C92.8073 29.36 93.2216 29.9512 94.052 29.9512C94.4332 29.9512 94.7494 29.9192 94.9995 29.8522L95.0586 31.4716C94.6383 31.6287 94.085 31.7077 93.3997 31.7077C92.5572 31.7077 91.8989 31.4506 91.4236 30.9365C90.9503 30.4223 90.7122 29.5611 90.7122 28.3487V23.5104H89.3115V21.91H90.7122V20.1525L92.8073 19.5203V21.91H95.1586V23.5144H95.1586ZM104.481 30.2681C105.324 29.3208 105.746 28.1095 105.746 26.6341C105.746 25.1977 105.339 24.0274 104.52 23.1211C103.664 22.1869 102.532 21.7188 101.123 21.7188C99.6616 21.7188 98.4989 22.1929 97.6355 23.1412C96.774 24.0884 96.3418 25.3067 96.3418 26.7942C96.3418 28.2155 96.76 29.3939 97.5965 30.3291C98.4329 31.2624 99.5545 31.7295 100.965 31.7295C102.427 31.7295 103.6 31.2434 104.481 30.2681ZM103.535 26.6833C103.535 25.804 103.345 25.0498 102.964 24.4187C102.517 23.6565 101.876 23.2754 101.047 23.2754C100.192 23.2754 99.537 23.6565 99.0907 24.4187C98.7085 25.0498 98.5184 25.8171 98.5184 26.7233C98.5184 27.6035 98.7085 28.3598 99.0907 28.9889C99.552 29.7511 100.195 30.1322 101.029 30.1322C101.844 30.1322 102.484 29.7431 102.946 28.9699C103.338 28.3237 103.535 27.5645 103.535 26.6833ZM112.01 23.7304C112.236 23.7296 112.461 23.7494 112.683 23.7894L112.681 21.7548C112.523 21.7298 112.345 21.7158 112.147 21.7158C111.592 21.7166 111.051 21.8969 110.606 22.23C110.119 22.6111 109.765 23.1202 109.539 23.7514H109.48L109.402 21.9149H107.544C107.587 22.9216 107.608 23.9291 107.606 24.9367V31.5125H109.739V26.4761C109.739 25.7129 109.917 25.0807 110.271 24.5806C110.68 24.0125 111.26 23.7304 112.01 23.7304ZM122.223 26.2592C122.229 26.5834 122.202 26.9073 122.145 27.2264H115.746C115.77 28.1747 116.08 28.9009 116.674 29.401C117.214 29.8472 117.911 30.0712 118.767 30.0712C119.715 30.0712 120.579 29.9212 121.357 29.6181L121.691 31.0975C120.782 31.4936 119.71 31.6907 118.472 31.6907C116.983 31.6907 115.815 31.2526 114.964 30.3783C114.116 29.5031 113.691 28.3267 113.691 26.8533C113.691 25.4069 114.086 24.2016 114.877 23.2403C115.706 22.2141 116.825 21.7009 118.234 21.7009C119.618 21.7009 120.665 22.2141 121.377 23.2403C121.94 24.0536 122.223 25.0619 122.223 26.2592ZM119.775 24.0665C120.064 24.5276 120.204 25.0728 120.189 25.706L115.747 25.704C115.812 25.0608 116.023 24.5066 116.378 24.0455C116.811 23.4653 117.379 23.1763 118.076 23.1763C118.838 23.1763 119.406 23.4724 119.775 24.0665Z" fill="white"/>
<path fill-rule="evenodd" clip-rule="evenodd" d="M71.1287 13.4371H70.0791V6.55518H71.1287V13.4371ZM43.7021 13.4171C44.1294 13.4661 44.6427 13.4951 45.236 13.4951C47.7503 13.4951 49.0811 12.2727 49.0811 10.0101C49.0811 8.04859 47.9545 6.84525 45.5081 6.84525C44.9035 6.84353 44.2997 6.88901 43.7021 6.98129V13.4171ZM44.75 7.73843C44.9831 7.69041 45.2643 7.67041 45.5945 7.67041C47.1483 7.67041 47.9737 8.51564 47.9737 10.0391C47.9737 11.7475 47.0613 12.6598 45.4584 12.6598C45.1182 12.6598 44.8761 12.6508 44.75 12.6308V7.73843ZM52.5916 13.5444C51.2128 13.5444 50.3193 12.5151 50.3193 11.1177C50.3193 9.66133 51.2318 8.62305 52.6696 8.62305C54.0284 8.62305 54.9418 9.60332 54.9418 11.0407C54.9418 12.5151 54.0003 13.5444 52.5916 13.5444ZM51.3896 11.0871C51.3896 10.0969 51.8749 9.38867 52.6323 9.38867C53.3697 9.38867 53.855 10.1069 53.855 11.0671C53.855 12.0094 53.3597 12.7666 52.6223 12.7666C51.8849 12.7666 51.3896 12.0584 51.3896 11.0871ZM62.8045 8.71977L61.3287 13.4371H60.3672L59.7558 11.3885C59.6038 10.8874 59.4772 10.379 59.3766 9.86509L59.3566 9.86509C59.2796 10.3792 59.1335 10.8944 58.9784 11.3885L58.3281 13.4371H57.3565L55.9678 8.71977H57.0454L57.5797 10.9624C57.7057 11.4965 57.8118 12.0007 57.8998 12.4768H57.9198C57.9969 12.0797 58.123 11.5836 58.308 10.9724L58.9784 8.72077H59.8329L60.4742 10.9244C60.6293 11.4585 60.7554 11.9827 60.8534 12.4778H60.8814C60.9495 11.9927 61.0565 11.4775 61.2016 10.9244L61.7749 8.72077L62.8045 8.71977ZM67.1892 13.4374H68.2378H68.2378L68.2388 10.6126C68.2388 9.38025 67.5885 8.62305 66.5979 8.62305C65.9566 8.62305 65.3842 8.94313 65.1021 9.44727H65.0731L65.0241 8.71907H64.1016C64.1306 9.2042 64.1406 9.65133 64.1406 10.0684V13.4374H65.1892V10.6316C65.1892 10.0104 65.6164 9.47628 66.2377 9.47628C66.869 9.47628 67.1892 9.89439 67.1892 10.7286V13.4374ZM72.6798 11.1174C72.6798 12.5148 73.5743 13.5441 74.952 13.5441C76.3598 13.5441 77.3023 12.5148 77.3013 11.0404C77.3013 9.60302 76.3888 8.62275 75.0291 8.62275C73.5923 8.62275 72.6798 9.66103 72.6798 11.1174ZM74.9907 9.38867C74.2333 9.38867 73.748 10.0969 73.748 11.0871C73.748 12.0584 74.2443 12.7666 74.9797 12.7666C75.7181 12.7666 76.2124 12.0094 76.2124 11.0671C76.2134 10.1069 75.7291 9.38867 74.9907 9.38867ZM81.3595 12.8939L81.4355 13.4371H81.4355L82.381 13.4381C82.334 13.157 82.313 12.7879 82.313 12.3118V10.5743C82.313 9.27292 81.6907 8.62275 80.458 8.62275C79.8187 8.62275 79.2744 8.75878 78.8381 9.03086L79.0512 9.72004C79.4105 9.48698 79.8187 9.36995 80.2839 9.36995C80.9343 9.36995 81.2634 9.68103 81.2634 10.3022V10.3892C79.5155 10.3892 78.506 10.9914 78.506 12.1557C78.506 12.9519 79.1063 13.5441 79.9517 13.5441C80.5441 13.5441 81.0113 13.331 81.3315 12.8939H81.3595ZM81.2919 11.0874C80.1273 11.0874 79.543 11.3695 79.543 12.0387C79.543 12.5338 79.8441 12.7759 80.2624 12.7759C80.7956 12.7759 81.2919 12.3688 81.2919 11.8156V11.0874ZM87.3557 12.6799L87.4048 13.4371H88.3383C88.3103 13.049 88.2993 12.6218 88.2993 12.1657V6.55518H87.2497V9.26292H87.2287C86.9765 8.8348 86.5293 8.62174 85.8979 8.62174C84.7053 8.62174 83.8318 9.66103 83.8318 11.1364C83.8318 12.5438 84.6743 13.5441 85.8119 13.5441C86.5193 13.5441 87.0255 13.252 87.3267 12.6799H87.3557ZM87.2497 10.6613C87.2497 10.0011 86.8124 9.43797 86.1451 9.43797C85.3676 9.43797 84.8924 10.1272 84.8924 11.0974C84.8924 12.0487 85.3857 12.6999 86.1241 12.6999C86.7834 12.6999 87.2497 12.1267 87.2497 11.4475V10.6613ZM92.6826 11.1174C92.6826 12.5148 93.5761 13.5441 94.9538 13.5441C96.3636 13.5441 97.3051 12.5148 97.3041 11.0404C97.3041 9.60302 96.3916 8.62275 95.0319 8.62275C93.5951 8.62275 92.6826 9.66103 92.6826 11.1174ZM94.9929 9.38896C94.2365 9.38896 93.7512 10.0971 93.7512 11.0874C93.7512 12.0587 94.2465 12.7669 94.9829 12.7669C95.7213 12.7669 96.2155 12.0097 96.2155 11.0674C96.2175 10.1072 95.7322 9.38896 94.9929 9.38896ZM101.893 13.4374H102.943V10.6116C102.943 9.37928 102.292 8.62207 101.301 8.62207C100.661 8.62207 100.087 8.94316 99.8062 9.4473H99.7772L99.7281 8.7191H98.8057C98.8347 9.20423 98.8447 9.65135 98.8447 10.0685V13.4374H99.8943V10.6316C99.8943 10.0105 100.32 9.47631 100.942 9.47631C101.573 9.47631 101.893 9.89442 101.893 10.7287V13.4374ZM109.998 9.50597H108.844V11.7966C108.844 12.3798 109.046 12.6708 109.454 12.6708C109.639 12.6708 109.794 12.6508 109.919 12.6218L109.949 13.418C109.745 13.4961 109.473 13.5351 109.135 13.5351C108.309 13.5351 107.814 13.079 107.814 11.8846V9.50597H107.126V8.71976H107.814V7.85552L108.844 7.54443V8.71876H109.998V9.50597ZM114.502 13.4371H115.549V10.6313C115.549 9.39796 114.939 8.62174 113.94 8.62174C113.33 8.62174 112.852 8.87481 112.522 9.38896H112.501V6.55518H111.453V13.4371H112.501V10.5933C112.501 9.84608 113.007 9.47698 113.55 9.47698C114.183 9.47698 114.502 9.90409 114.502 10.7483V13.4371ZM121.236 11.3305H118.09C118.11 12.2238 118.701 12.7279 119.576 12.7279C120.042 12.7279 120.47 12.6499 120.848 12.5049L121.011 13.2331C120.565 13.4271 120.04 13.5241 119.428 13.5241C117.953 13.5241 117.079 12.5919 117.079 11.1465C117.079 9.70009 117.974 8.61279 119.31 8.61279C120.516 8.61279 121.272 9.50604 121.272 10.8554C121.279 11.0147 121.267 11.1741 121.236 11.3305ZM119.237 9.34082C118.635 9.34082 118.159 9.86497 118.091 10.5832L119.237 9.34082ZM118.091 10.5832H120.275H118.091Z" fill="white"/>
</svg>
