<svg width="135" height="41" viewBox="0 0 135 41" fill="none" xmlns="http://www.w3.org/2000/svg">
<path d="M130 40.5H5C2.2 40.5 0 38.3 0 35.5V5.5C0 2.7 2.2 0.5 5 0.5H130C132.8 0.5 135 2.7 135 5.5V35.5C135 38.3 132.8 40.5 130 40.5Z" fill="black"/>
<path fill-rule="evenodd" clip-rule="evenodd" d="M5 0.5H130C132.8 0.5 135 2.8 135 5.5V35.5C135 38.3 132.8 40.5 130 40.5H5C2.2 40.5 0 38.3 0 35.5V5.5C0 2.8 2.2 0.5 5 0.5ZM134.201 5.5C134.201 3.2 132.301 1.3 130.001 1.3H5.00078C2.70078 1.3 0.800781 3.2 0.800781 5.5V35.5C0.800781 37.8 2.70078 39.7 5.00078 39.7H130.001C132.301 39.7 134.201 37.8 134.201 35.5V5.5Z" fill="#A6A6A6"/>
<path fill-rule="evenodd" clip-rule="evenodd" d="M46.7004 12.6999C47.2004 12.1999 47.4004 11.4999 47.4004 10.6999L47.4004 10.6999V10.2999H44.5004V11.0999H46.7004C46.7004 11.5999 46.5004 11.9999 46.2004 12.2999C45.7004 12.7999 45.2004 12.9999 44.5004 12.9999C43.9004 12.9999 43.4004 12.6999 42.9004 12.2999C42.4004 11.8999 42.2004 11.2999 42.2004 10.5999C42.2004 9.8999 42.4004 9.2999 42.9004 8.8999C43.3004 8.3999 43.9004 8.1999 44.5004 8.1999C45.2004 8.1999 45.7004 8.3999 46.1004 8.8999L46.6004 8.3999C46.4004 8.0999 46.1004 7.8999 45.7004 7.6999C45.3004 7.4999 44.9004 7.3999 44.5004 7.3999C43.6004 7.3999 42.9004 7.6999 42.3004 8.2999C41.7004 8.8999 41.4004 9.5999 41.4004 10.4999C41.4004 11.3999 41.7004 12.0999 42.3004 12.6999C42.9004 13.2999 43.6004 13.5999 44.5004 13.5999C45.4004 13.5999 46.1004 13.2999 46.7004 12.6999ZM49.3 8.2H52V7.5H48.5V13.5H52V12.7H49.3V10.8H51.8V10.1H49.3V8.2ZM55.3008 13.5H54.5008V8.2H52.8008V7.5H57.0008V8.2H55.3008V13.5ZM59.9004 7.4999V13.4999H60.7004V7.4999H59.9004ZM63.9996 13.4999H63.2996V8.19991H61.5996V7.49991H65.6996V8.19991H63.9996V13.4999ZM71.4008 13.5999C72.3008 13.5999 73.0008 13.2999 73.6008 12.6999C74.2008 12.0999 74.5008 11.3999 74.5008 10.4999C74.5008 9.5999 74.2008 8.8999 73.6008 8.2999C73.0008 7.6999 72.3008 7.3999 71.4008 7.3999C70.5008 7.3999 69.8008 7.6999 69.2008 8.2999C68.6008 8.8999 68.3008 9.5999 68.3008 10.4999C68.3008 11.3999 68.6008 12.0999 69.2008 12.6999C69.8008 13.2999 70.5008 13.5999 71.4008 13.5999ZM69.7996 12.1999C70.1996 12.5999 70.7996 12.8999 71.3996 12.8999C71.9996 12.8999 72.5996 12.6999 72.9996 12.1999C73.3996 11.7999 73.6996 11.1999 73.6996 10.4999C73.6996 9.7999 73.4996 9.1999 72.9996 8.7999C72.5996 8.3999 71.9996 8.0999 71.3996 8.0999C70.7996 8.0999 70.1996 8.2999 69.7996 8.7999C69.3996 9.1999 69.0996 9.7999 69.0996 10.4999C69.0996 11.1999 69.2996 11.7999 69.7996 12.1999ZM75.5996 7.49991V13.4999H76.2996V8.59991L79.3996 13.4999H80.1996V7.49991H79.3996V12.1999L76.4996 7.49991H75.5996Z" fill="white"/>
<path d="M47.4004 10.6999L47.3761 10.6029L47.3004 10.6218V10.6999H47.4004ZM46.7004 12.6999L46.6297 12.6292L46.7004 12.6999ZM47.4004 10.6999L47.4247 10.7969L47.5004 10.778V10.6999H47.4004ZM47.4004 10.2999H47.5004V10.1999H47.4004V10.2999ZM44.5004 10.2999V10.1999H44.4004V10.2999H44.5004ZM44.5004 11.0999H44.4004V11.1999H44.5004V11.0999ZM46.7004 11.0999H46.8004V10.9999H46.7004V11.0999ZM46.2004 12.2999L46.2711 12.3706L46.2711 12.3706L46.2004 12.2999ZM42.9004 8.8999L42.9629 8.97799L42.9715 8.97105L42.9785 8.96237L42.9004 8.8999ZM46.1004 8.8999L46.0223 8.96237L46.0921 9.04962L46.1711 8.97061L46.1004 8.8999ZM46.6004 8.3999L46.6711 8.47061L46.7291 8.41264L46.6836 8.34443L46.6004 8.3999ZM45.7004 7.6999L45.7451 7.61046L45.7451 7.61046L45.7004 7.6999ZM42.3004 8.2999L42.3711 8.37061H42.3711L42.3004 8.2999ZM42.3004 12.6999L42.2297 12.7706L42.2297 12.7706L42.3004 12.6999ZM52 8.2V8.3H52.1V8.2H52ZM49.3 8.2V8.1H49.2V8.2H49.3ZM52 7.5H52.1V7.4H52V7.5ZM48.5 7.5V7.4H48.4V7.5H48.5ZM48.5 13.5H48.4V13.6H48.5V13.5ZM52 13.5V13.6H52.1V13.5H52ZM52 12.7H52.1V12.6H52V12.7ZM49.3 12.7H49.2V12.8H49.3V12.7ZM49.3 10.8V10.7H49.2V10.8H49.3ZM51.8 10.8V10.9H51.9V10.8H51.8ZM51.8 10.1H51.9V10H51.8V10.1ZM49.3 10.1H49.2V10.2H49.3V10.1ZM54.5008 13.5H54.4008V13.6H54.5008V13.5ZM55.3008 13.5V13.6H55.4008V13.5H55.3008ZM54.5008 8.2H54.6008V8.1H54.5008V8.2ZM52.8008 8.2H52.7008V8.3H52.8008V8.2ZM52.8008 7.5V7.4H52.7008V7.5H52.8008ZM57.0008 7.5H57.1008V7.4H57.0008V7.5ZM57.0008 8.2V8.3H57.1008V8.2H57.0008ZM55.3008 8.2V8.1H55.2008V8.2H55.3008ZM59.9004 13.4999H59.8004V13.5999H59.9004V13.4999ZM59.9004 7.4999V7.3999H59.8004V7.4999H59.9004ZM60.7004 13.4999V13.5999H60.8004V13.4999H60.7004ZM60.7004 7.4999H60.8004V7.3999H60.7004V7.4999ZM63.2996 13.4999H63.1996V13.5999H63.2996V13.4999ZM63.9996 13.4999V13.5999H64.0996V13.4999H63.9996ZM63.2996 8.19991H63.3996V8.09991H63.2996V8.19991ZM61.5996 8.19991H61.4996V8.29991H61.5996V8.19991ZM61.5996 7.49991V7.39991H61.4996V7.49991H61.5996ZM65.6996 7.49991H65.7996V7.39991H65.6996V7.49991ZM65.6996 8.19991V8.29991H65.7996V8.19991H65.6996ZM63.9996 8.19991V8.09991H63.8996V8.19991H63.9996ZM73.6008 12.6999L73.5301 12.6292L73.5301 12.6292L73.6008 12.6999ZM73.6008 8.2999L73.5301 8.37061L73.5301 8.37061L73.6008 8.2999ZM69.2008 8.2999L69.2715 8.37061V8.37061L69.2008 8.2999ZM69.2008 12.6999L69.2715 12.6292V12.6292L69.2008 12.6999ZM69.7996 12.1999L69.8708 12.1288L69.8621 12.1218L69.7996 12.1999ZM72.9996 12.1999L72.9285 12.1288L72.9215 12.1374L72.9996 12.1999ZM72.9996 8.7999L72.9285 8.87105L72.9371 8.87799L72.9996 8.7999ZM69.7996 8.7999L69.8708 8.87105L69.8777 8.86237L69.7996 8.7999ZM75.5996 13.4999H75.4996V13.5999H75.5996V13.4999ZM75.5996 7.49991V7.39991H75.4996V7.49991H75.5996ZM76.2996 13.4999V13.5999H76.3996V13.4999H76.2996ZM76.2996 8.59991L76.3841 8.54644L76.1996 8.2548V8.59991H76.2996ZM79.3996 13.4999L79.3151 13.5534L79.3446 13.5999H79.3996V13.4999ZM80.1996 13.4999V13.5999H80.2996V13.4999H80.1996ZM80.1996 7.49991H80.2996V7.39991H80.1996V7.49991ZM79.3996 7.49991V7.39991H79.2996V7.49991H79.3996ZM79.3996 12.1999L79.3145 12.2524L79.4996 12.5524V12.1999H79.3996ZM76.4996 7.49991L76.5847 7.4474L76.5554 7.39991H76.4996V7.49991ZM47.3004 10.6999C47.3004 11.4845 47.1043 12.1546 46.6297 12.6292L46.7711 12.7706C47.2965 12.2452 47.5004 11.5153 47.5004 10.6999H47.3004ZM47.3761 10.6029L47.3761 10.6029L47.4246 10.7969L47.4247 10.7969L47.3761 10.6029ZM47.3004 10.2999V10.6999H47.5004V10.2999H47.3004ZM44.5004 10.3999H47.4004V10.1999H44.5004V10.3999ZM44.6004 11.0999V10.2999H44.4004V11.0999H44.6004ZM46.7004 10.9999H44.5004V11.1999H46.7004V10.9999ZM46.2711 12.3706C46.5878 12.0539 46.8004 11.6292 46.8004 11.0999H46.6004C46.6004 11.5706 46.413 11.9459 46.1297 12.2292L46.2711 12.3706ZM44.5004 13.0999C44.8602 13.0999 45.1736 13.0485 45.4633 12.93C45.753 12.8114 46.0138 12.6279 46.2711 12.3706L46.1297 12.2292C45.887 12.4719 45.6478 12.6384 45.3875 12.7448C45.1272 12.8513 44.8406 12.8999 44.5004 12.8999V13.0999ZM42.8379 12.378C43.3421 12.7813 43.8649 13.0999 44.5004 13.0999V12.8999C43.9359 12.8999 43.4587 12.6185 42.9629 12.2218L42.8379 12.378ZM42.1004 10.5999C42.1004 11.3183 42.3062 11.9526 42.8379 12.378L42.9629 12.2218C42.4946 11.8472 42.3004 11.2815 42.3004 10.5999H42.1004ZM42.8379 8.82182C42.3062 9.24718 42.1004 9.88148 42.1004 10.5999H42.3004C42.3004 9.91832 42.4946 9.35262 42.9629 8.97799L42.8379 8.82182ZM44.5004 8.0999C43.8794 8.0999 43.2465 8.30725 42.8223 8.83743L42.9785 8.96237C43.3543 8.49256 43.9214 8.2999 44.5004 8.2999V8.0999ZM46.1785 8.83743C45.7557 8.30895 45.2241 8.0999 44.5004 8.0999V8.2999C45.1767 8.2999 45.6451 8.49085 46.0223 8.96237L46.1785 8.83743ZM46.5297 8.32919L46.0297 8.82919L46.1711 8.97061L46.6711 8.47061L46.5297 8.32919ZM45.6557 7.78934C46.0514 7.98721 46.332 8.17762 46.5172 8.45537L46.6836 8.34443C46.4688 8.02218 46.1494 7.81259 45.7451 7.61046L45.6557 7.78934ZM44.5004 7.4999C44.8831 7.4999 45.2679 7.59546 45.6557 7.78934L45.7451 7.61046C45.3329 7.40434 44.9177 7.2999 44.5004 7.2999V7.4999ZM42.3711 8.37061C42.9523 7.7894 43.6269 7.4999 44.5004 7.4999V7.2999C43.5739 7.2999 42.8485 7.6104 42.2297 8.22919L42.3711 8.37061ZM41.5004 10.4999C41.5004 9.62637 41.7899 8.95182 42.3711 8.37061L42.2297 8.22919C41.6109 8.84798 41.3004 9.57343 41.3004 10.4999H41.5004ZM42.3711 12.6292C41.7899 12.048 41.5004 11.3734 41.5004 10.4999H41.3004C41.3004 11.4264 41.6109 12.1518 42.2297 12.7706L42.3711 12.6292ZM44.5004 13.4999C43.6269 13.4999 42.9523 13.2104 42.3711 12.6292L42.2297 12.7706C42.8485 13.3894 43.5739 13.6999 44.5004 13.6999V13.4999ZM46.6297 12.6292C46.0485 13.2104 45.3739 13.4999 44.5004 13.4999V13.6999C45.4269 13.6999 46.1523 13.3894 46.7711 12.7706L46.6297 12.6292ZM52 8.1H49.3V8.3H52V8.1ZM51.9 7.5V8.2H52.1V7.5H51.9ZM48.5 7.6H52V7.4H48.5V7.6ZM48.6 13.5V7.5H48.4V13.5H48.6ZM52 13.4H48.5V13.6H52V13.4ZM51.9 12.7V13.5H52.1V12.7H51.9ZM49.3 12.8H52V12.6H49.3V12.8ZM49.2 10.8V12.7H49.4V10.8H49.2ZM51.8 10.7H49.3V10.9H51.8V10.7ZM51.7 10.1V10.8H51.9V10.1H51.7ZM49.3 10.2H51.8V10H49.3V10.2ZM49.2 8.2V10.1H49.4V8.2H49.2ZM54.5008 13.6H55.3008V13.4H54.5008V13.6ZM54.4008 8.2V13.5H54.6008V8.2H54.4008ZM52.8008 8.3H54.5008V8.1H52.8008V8.3ZM52.7008 7.5V8.2H52.9008V7.5H52.7008ZM57.0008 7.4H52.8008V7.6H57.0008V7.4ZM57.1008 8.2V7.5H56.9008V8.2H57.1008ZM55.3008 8.3H57.0008V8.1H55.3008V8.3ZM55.4008 13.5V8.2H55.2008V13.5H55.4008ZM60.0004 13.4999V7.4999H59.8004V13.4999H60.0004ZM60.7004 13.3999H59.9004V13.5999H60.7004V13.3999ZM60.6004 7.4999V13.4999H60.8004V7.4999H60.6004ZM59.9004 7.5999H60.7004V7.3999H59.9004V7.5999ZM63.2996 13.5999H63.9996V13.3999H63.2996V13.5999ZM63.1996 8.19991V13.4999H63.3996V8.19991H63.1996ZM61.5996 8.29991H63.2996V8.09991H61.5996V8.29991ZM61.4996 7.49991V8.19991H61.6996V7.49991H61.4996ZM65.6996 7.39991H61.5996V7.59991H65.6996V7.39991ZM65.7996 8.19991V7.49991H65.5996V8.19991H65.7996ZM63.9996 8.29991H65.6996V8.09991H63.9996V8.29991ZM64.0996 13.4999V8.19991H63.8996V13.4999H64.0996ZM73.5301 12.6292C72.9489 13.2104 72.2743 13.4999 71.4008 13.4999V13.6999C72.3272 13.6999 73.0527 13.3894 73.6715 12.7706L73.5301 12.6292ZM74.4008 10.4999C74.4008 11.3734 74.1113 12.048 73.5301 12.6292L73.6715 12.7706C74.2903 12.1518 74.6008 11.4264 74.6008 10.4999H74.4008ZM73.5301 8.37061C74.1113 8.95182 74.4008 9.62637 74.4008 10.4999H74.6008C74.6008 9.57343 74.2903 8.84798 73.6715 8.22919L73.5301 8.37061ZM71.4008 7.4999C72.2743 7.4999 72.9489 7.7894 73.5301 8.37061L73.6715 8.22919C73.0527 7.6104 72.3273 7.2999 71.4008 7.2999V7.4999ZM69.2715 8.37061C69.8527 7.7894 70.5273 7.4999 71.4008 7.4999V7.2999C70.4743 7.2999 69.7489 7.6104 69.1301 8.22919L69.2715 8.37061ZM68.4008 10.4999C68.4008 9.62637 68.6903 8.95182 69.2715 8.37061L69.1301 8.22919C68.5113 8.84798 68.2008 9.57343 68.2008 10.4999H68.4008ZM69.2715 12.6292C68.6903 12.048 68.4008 11.3734 68.4008 10.4999H68.2008C68.2008 11.4264 68.5113 12.1518 69.1301 12.7706L69.2715 12.6292ZM71.4008 13.4999C70.5272 13.4999 69.8527 13.2104 69.2715 12.6292L69.1301 12.7706C69.7489 13.3894 70.4743 13.6999 71.4008 13.6999V13.4999ZM71.3996 12.7999C70.8308 12.7999 70.2552 12.514 69.8703 12.1292L69.7289 12.2706C70.1441 12.6858 70.7684 12.9999 71.3996 12.9999V12.7999ZM72.9215 12.1374C72.5457 12.6072 71.9786 12.7999 71.3996 12.7999V12.9999C72.0206 12.9999 72.6535 12.7926 73.0777 12.2624L72.9215 12.1374ZM73.5996 10.4999C73.5996 11.1709 73.312 11.7461 72.9289 12.1292L73.0703 12.2706C73.4873 11.8537 73.7996 11.2289 73.7996 10.4999H73.5996ZM72.9371 8.87799C73.4054 9.25262 73.5996 9.81832 73.5996 10.4999H73.7996C73.7996 9.78148 73.5938 9.14718 73.0621 8.72181L72.9371 8.87799ZM71.3996 8.1999C71.9684 8.1999 72.544 8.48576 72.9289 8.87061L73.0703 8.72919C72.6552 8.31404 72.0308 7.9999 71.3996 7.9999V8.1999ZM69.8777 8.86237C70.2536 8.39256 70.8206 8.1999 71.3996 8.1999V7.9999C70.7786 7.9999 70.1457 8.20724 69.7215 8.73743L69.8777 8.86237ZM69.1996 10.4999C69.1996 9.82889 69.4873 9.25367 69.8703 8.87061L69.7289 8.72919C69.312 9.14613 68.9996 9.77092 68.9996 10.4999H69.1996ZM69.8621 12.1218C69.3938 11.7472 69.1996 11.1815 69.1996 10.4999H68.9996C68.9996 11.2183 69.2054 11.8526 69.7371 12.278L69.8621 12.1218ZM75.6996 13.4999V7.49991H75.4996V13.4999H75.6996ZM76.2996 13.3999H75.5996V13.5999H76.2996V13.3999ZM76.1996 8.59991V13.4999H76.3996V8.59991H76.1996ZM79.4841 13.4464L76.3841 8.54644L76.2151 8.65337L79.3151 13.5534L79.4841 13.4464ZM80.1996 13.3999H79.3996V13.5999H80.1996V13.3999ZM80.0996 7.49991V13.4999H80.2996V7.49991H80.0996ZM79.3996 7.59991H80.1996V7.39991H79.3996V7.59991ZM79.4996 12.1999V7.49991H79.2996V12.1999H79.4996ZM76.4145 7.55242L79.3145 12.2524L79.4847 12.1474L76.5847 7.4474L76.4145 7.55242ZM75.5996 7.59991H76.4996V7.39991H75.5996V7.59991Z" fill="white"/>
<path fill-rule="evenodd" clip-rule="evenodd" d="M47.6996 23.6001V25.4001H51.9996C51.8996 26.4001 51.4996 27.2001 50.9996 27.7001C50.3996 28.3001 49.3996 29.0001 47.6996 29.0001C44.9996 29.0001 42.9996 26.9001 42.9996 24.2001C42.9996 21.5001 45.0996 19.4001 47.6996 19.4001C49.0996 19.4001 50.1996 20.0001 50.9996 20.7001L52.2996 19.4001C51.1996 18.4001 49.7996 17.6001 47.7996 17.6001C44.1996 17.6001 41.0996 20.6001 41.0996 24.2001C41.0996 27.8001 44.1996 30.8001 47.7996 30.8001C49.7996 30.8001 51.1996 30.2001 52.3996 28.9001C53.5996 27.7001 53.9996 26.0001 53.9996 24.7001C53.9996 24.3001 53.9996 23.9001 53.8996 23.6001H47.6996ZM58.8 22.2998C56.4 22.2998 54.5 24.0998 54.5 26.5998C54.5 28.9998 56.4 30.8998 58.8 30.8998C61.2 30.8998 63.1 29.0998 63.1 26.5998C63.1 23.9998 61.2 22.2998 58.8 22.2998ZM63.7988 26.6001C63.7988 24.1001 65.6988 22.3001 68.0988 22.3001C70.4988 22.3001 72.3988 24.0001 72.3988 26.6001C72.3988 29.1001 70.4988 30.9001 68.0988 30.9001C65.6988 30.9001 63.7988 29.0001 63.7988 26.6001ZM65.6992 26.5004C65.6992 28.0004 66.7992 29.1004 68.0992 29.1004C69.3992 29.1004 70.4992 28.0004 70.4992 26.5004C70.4992 24.9004 69.3992 23.9004 68.0992 23.9004C66.7992 23.9004 65.6992 25.0004 65.6992 26.5004ZM56.4004 26.5001C56.4004 28.0001 57.5004 29.1001 58.8004 29.1001C60.1004 29.1001 61.2004 28.0001 61.2004 26.5001C61.2004 24.9001 60.1004 23.9001 58.8004 23.9001C57.5004 23.9001 56.4004 25.0001 56.4004 26.5001ZM89.5 22.2998C91.7 22.2998 92.7 23.9998 93.1 24.9998L93.3 25.4998L87.6 27.8998C88.1 28.7998 88.7 29.1998 89.7 29.1998C90.7 29.1998 91.3 28.6998 91.8 27.9998L93.2 28.9998C92.8 29.6998 91.6 30.8998 89.7 30.8998C87.3 30.8998 85.5 28.9998 85.5 26.5998C85.5 23.9998 87.3 22.2998 89.5 22.2998ZM87.2988 26.4001C87.2988 24.8001 88.5988 23.9001 89.4988 23.9001C90.1988 23.9001 90.8988 24.3001 91.0988 24.8001L87.2988 26.4001ZM84.4996 30.5001H82.5996V18.0001H84.4996V30.5001ZM79.5992 23.2002C79.0992 22.7002 78.2992 22.2002 77.2992 22.2002C75.1992 22.2002 73.1992 24.1002 73.1992 26.5002C73.1992 28.9002 75.0992 30.7002 77.2992 30.7002C78.2992 30.7002 79.0992 30.2002 79.4992 29.7002H79.5992V30.3002C79.5992 31.9002 78.6992 32.8002 77.2992 32.8002C76.1992 32.8002 75.3992 32.0002 75.1992 31.3002L73.5992 32.0002C74.0992 33.1002 75.2992 34.5002 77.3992 34.5002C79.5992 34.5002 81.3992 33.2002 81.3992 30.1002V22.5002H79.5992L79.5992 23.2002ZM75 26.5004C75 28.0004 76.1 29.1004 77.4 29.1004C78.7 29.1004 79.7 28.0004 79.7 26.5004C79.7 25.0004 78.7 23.9004 77.4 23.9004C76.1 23.9004 75 25.0004 75 26.5004ZM101.799 18.0001H97.2988V30.5001H99.1988V25.8001H101.799C103.899 25.8001 105.899 24.3001 105.899 21.9001C105.899 19.5001 103.899 18.0001 101.799 18.0001ZM99.1992 24.0002H101.899C103.199 24.0002 103.999 22.9002 104.099 21.8002C104.099 20.9002 103.299 19.7002 101.899 19.7002H99.1992V24.0002ZM113.4 22.2002C112 22.2002 110.6 22.8002 110.1 24.1002L111.8 24.8002C112.2 24.1002 112.8 23.9002 113.5 23.9002C114.5 23.9002 115.4 24.5002 115.5 25.5002V25.6002C115.2 25.4002 114.4 25.1002 113.6 25.1002C111.8 25.1002 110 26.1002 110 27.9002C110 29.6002 111.5 30.7002 113.1 30.7002C114.4 30.7002 115 30.1002 115.5 29.5002H115.6V30.5002H117.4V25.7002C117.2 23.5002 115.5 22.2002 113.4 22.2002ZM111.699 28.0002C111.699 28.8002 112.599 29.1002 113.199 29.1002C114.199 29.1002 115.199 28.3002 115.399 27.1002L115.329 27.0719L115.25 27.0398C114.814 26.8618 114.418 26.7002 113.699 26.7002C112.799 26.7002 111.699 27.0002 111.699 28.0002ZM123.699 22.5001L121.599 27.9001H121.499L119.299 22.5001H117.299L120.599 30.1001L118.699 34.3001H120.599L125.699 22.5001H123.699ZM108.8 30.5001H106.9V18.0001H108.8V30.5001Z" fill="white"/>
<path d="M10.4 8C10.1 8.3 10 8.8 10 9.4V31.5C10 32.1 10.2 32.6 10.5 32.9L10.6 33L23 20.6V20.4L10.4 8Z" fill="url(#paint0_linear_686_10171)"/>
<path d="M27.0004 24.7998L22.9004 20.6998V20.3998L27.0004 16.2998L27.1004 16.3998L32.0004 19.1998C33.4004 19.9998 33.4004 21.2998 32.0004 22.0998L27.0004 24.7998Z" fill="url(#paint1_linear_686_10171)"/>
<path d="M27.1004 24.7L22.9004 20.5L10.4004 33C10.9004 33.5 11.6004 33.5 12.5004 33.1L27.1004 24.7Z" fill="url(#paint2_linear_686_10171)"/>
<path d="M27.1004 16.2996L12.5004 7.99962C11.6004 7.49962 10.9004 7.59962 10.4004 8.09962L22.9004 20.4996L27.1004 16.2996H27.1004Z" fill="url(#paint3_linear_686_10171)"/>
<path opacity="0.2" d="M27.0004 24.5996L12.5004 32.7996C11.7004 33.2996 11.0004 33.1996 10.5004 32.7996L10.4004 32.8996L10.5004 32.9996C11.0004 33.3996 11.7004 33.4996 12.5004 32.9996L27.0004 24.5996Z" fill="black"/>
<path opacity="0.12" fill-rule="evenodd" clip-rule="evenodd" d="M27 24.6L32 21.8C32.6 21.4 33 21 33 20.5C33 21 32.7 21.5 32 21.9L27.1 24.7L27 24.6ZM10 31.4C10 31.5417 10.0056 31.6778 10.018 31.807C10.0062 31.7081 10 31.6056 10 31.5V31.4ZM10.018 31.807C10.0665 32.2114 10.2095 32.5548 10.4097 32.8L10.018 31.807ZM10.4097 32.8H10.5V32.9C10.4688 32.8688 10.4387 32.8354 10.4097 32.8Z" fill="black"/>
<path opacity="0.25" d="M12.5 8.09978L32 19.1998C32.6 19.5998 33 19.9998 33 20.4998C33 19.9998 32.7 19.4998 32 19.0998L12.5 7.99978C11.1 7.19978 10 7.79978 10 9.39978V9.49978C10 7.99978 11.1 7.29978 12.5 8.09978Z" fill="white"/>
<defs>
<linearGradient id="paint0_linear_686_10171" x1="26.1633" y1="17.6525" x2="6.29524" y2="12.2805" gradientUnits="userSpaceOnUse">
<stop stop-color="#00A0FF"/>
<stop offset="0.007" stop-color="#00A1FF"/>
<stop offset="0.26" stop-color="#00BEFF"/>
<stop offset="0.512" stop-color="#00D2FF"/>
<stop offset="0.76" stop-color="#00DFFF"/>
<stop offset="1" stop-color="#00E3FF"/>
</linearGradient>
<linearGradient id="paint1_linear_686_10171" x1="33.8344" y1="12.3671" x2="9.63739" y2="12.3671" gradientUnits="userSpaceOnUse">
<stop stop-color="#FFE000"/>
<stop offset="0.409" stop-color="#FFBD00"/>
<stop offset="0.775" stop-color="#FFA500"/>
<stop offset="1" stop-color="#FF9C00"/>
</linearGradient>
<linearGradient id="paint2_linear_686_10171" x1="39.5715" y1="11.422" x2="23.6063" y2="-15.382" gradientUnits="userSpaceOnUse">
<stop stop-color="#FF3A44"/>
<stop offset="1" stop-color="#C31162"/>
</linearGradient>
<linearGradient id="paint3_linear_686_10171" x1="13.9123" y1="46.2272" x2="20.9856" y2="34.2409" gradientUnits="userSpaceOnUse">
<stop stop-color="#32A071"/>
<stop offset="0.069" stop-color="#2DA771"/>
<stop offset="0.476" stop-color="#15CF74"/>
<stop offset="0.801" stop-color="#06E775"/>
<stop offset="1" stop-color="#00F076"/>
</linearGradient>
</defs>
</svg>
