<svg width="135" height="40" viewBox="0 0 135 40" fill="none" xmlns="http://www.w3.org/2000/svg">
<path d="M130 40H5C2.2 40 0 37.8 0 35V5C0 2.2 2.2 0 5 0H130C132.8 0 135 2.2 135 5V35C135 37.8 132.8 40 130 40Z" fill="black"/>
<path fill-rule="evenodd" clip-rule="evenodd" d="M5 0H130C132.8 0 135 2.3 135 5V35C135 37.8 132.8 40 130 40H5C2.2 40 0 37.8 0 35V5C0 2.3 2.2 0 5 0ZM134.2 5.00078C134.2 2.70078 132.3 0.800781 130 0.800781H4.99981C2.6998 0.800781 0.799805 2.70078 0.799805 5.00078V35.0008C0.799805 37.3008 2.6998 39.2008 4.99981 39.2008H130C132.3 39.2008 134.2 37.3008 134.2 35.0008V5.00078Z" fill="#A6A6A6"/>
<path fill-rule="evenodd" clip-rule="evenodd" d="M46.7004 12.2004C47.2004 11.7004 47.4004 11.0004 47.4004 10.2004L47.4004 10.2004V9.80039H44.5004V10.6004H46.7004C46.7004 11.1004 46.5004 11.5004 46.2004 11.8004C45.7004 12.3004 45.2004 12.5004 44.5004 12.5004C43.9004 12.5004 43.4004 12.2004 42.9004 11.8004C42.4004 11.4004 42.2004 10.8004 42.2004 10.1004C42.2004 9.40039 42.4004 8.80039 42.9004 8.40039C43.3004 7.90039 43.9004 7.70039 44.5004 7.70039C45.2004 7.70039 45.7004 7.90039 46.1004 8.40039L46.6004 7.90039C46.4004 7.60039 46.1004 7.40039 45.7004 7.20039C45.3004 7.00039 44.9004 6.90039 44.5004 6.90039C43.6004 6.90039 42.9004 7.20039 42.3004 7.80039C41.7004 8.40039 41.4004 9.10039 41.4004 10.0004C41.4004 10.9004 41.7004 11.6004 42.3004 12.2004C42.9004 12.8004 43.6004 13.1004 44.5004 13.1004C45.4004 13.1004 46.1004 12.8004 46.7004 12.2004ZM49.3 7.7H52V7H48.5V13H52V12.2H49.3V10.3H51.8V9.6H49.3V7.7ZM55.3008 13H54.5008V7.7H52.8008V7H57.0008V7.7H55.3008V13ZM59.9004 7V13H60.7004V7H59.9004ZM64.0006 13H63.3006V7.7H61.6006V7H65.7006V7.7H64.0006V13ZM71.4008 13.1004C72.3008 13.1004 73.0008 12.8004 73.6008 12.2004C74.2008 11.6004 74.5008 10.9004 74.5008 10.0004C74.5008 9.10039 74.2008 8.40039 73.6008 7.80039C73.0008 7.20039 72.3008 6.90039 71.4008 6.90039C70.5008 6.90039 69.8008 7.20039 69.2008 7.80039C68.6008 8.40039 68.3008 9.10039 68.3008 10.0004C68.3008 10.9004 68.6008 11.6004 69.2008 12.2004C69.8008 12.8004 70.5008 13.1004 71.4008 13.1004ZM69.8006 11.6996C70.2006 12.0996 70.8006 12.3996 71.4006 12.3996C72.0006 12.3996 72.6006 12.1996 73.0006 11.6996C73.4006 11.2996 73.7006 10.6996 73.7006 9.99961C73.7006 9.29961 73.5006 8.69961 73.0006 8.29961C72.6006 7.89961 72.0006 7.59961 71.4006 7.59961C70.8006 7.59961 70.2006 7.79961 69.8006 8.29961C69.4006 8.69961 69.1006 9.29961 69.1006 9.99961C69.1006 10.6996 69.3006 11.2996 69.8006 11.6996ZM75.6006 7V13H76.3006V8.1L79.4006 13H80.2006V7H79.4006V11.7L76.5006 7H75.6006Z" fill="white"/>
<path d="M47.4004 10.2004L47.3761 10.1034L47.3004 10.1223V10.2004H47.4004ZM46.7004 12.2004L46.6297 12.1297L46.7004 12.2004ZM47.4004 10.2004L47.4247 10.2974L47.5004 10.2785V10.2004H47.4004ZM47.4004 9.80039H47.5004V9.70039H47.4004V9.80039ZM44.5004 9.80039V9.70039H44.4004V9.80039H44.5004ZM44.5004 10.6004H44.4004V10.7004H44.5004V10.6004ZM46.7004 10.6004H46.8004V10.5004H46.7004V10.6004ZM46.2004 11.8004L46.2711 11.8711L46.2711 11.8711L46.2004 11.8004ZM42.9004 8.40039L42.9629 8.47848L42.9715 8.47154L42.9785 8.46286L42.9004 8.40039ZM46.1004 8.40039L46.0223 8.46286L46.0921 8.5501L46.1711 8.4711L46.1004 8.40039ZM46.6004 7.90039L46.6711 7.9711L46.7291 7.91313L46.6836 7.84492L46.6004 7.90039ZM45.7004 7.20039L45.7451 7.11095L45.7451 7.11095L45.7004 7.20039ZM42.3004 7.80039L42.3711 7.8711H42.3711L42.3004 7.80039ZM42.3004 12.2004L42.2297 12.2711L42.2297 12.2711L42.3004 12.2004ZM52 7.7V7.8H52.1V7.7H52ZM49.3 7.7V7.6H49.2V7.7H49.3ZM52 7H52.1V6.9H52V7ZM48.5 7V6.9H48.4V7H48.5ZM48.5 13H48.4V13.1H48.5V13ZM52 13V13.1H52.1V13H52ZM52 12.2H52.1V12.1H52V12.2ZM49.3 12.2H49.2V12.3H49.3V12.2ZM49.3 10.3V10.2H49.2V10.3H49.3ZM51.8 10.3V10.4H51.9V10.3H51.8ZM51.8 9.6H51.9V9.5H51.8V9.6ZM49.3 9.6H49.2V9.7H49.3V9.6ZM54.5008 13H54.4008V13.1H54.5008V13ZM55.3008 13V13.1H55.4008V13H55.3008ZM54.5008 7.7H54.6008V7.6H54.5008V7.7ZM52.8008 7.7H52.7008V7.8H52.8008V7.7ZM52.8008 7V6.9H52.7008V7H52.8008ZM57.0008 7H57.1008V6.9H57.0008V7ZM57.0008 7.7V7.8H57.1008V7.7H57.0008ZM55.3008 7.7V7.6H55.2008V7.7H55.3008ZM59.9004 13H59.8004V13.1H59.9004V13ZM59.9004 7V6.9H59.8004V7H59.9004ZM60.7004 13V13.1H60.8004V13H60.7004ZM60.7004 7H60.8004V6.9H60.7004V7ZM63.3006 13H63.2006V13.1H63.3006V13ZM64.0006 13V13.1H64.1006V13H64.0006ZM63.3006 7.7H63.4006V7.6H63.3006V7.7ZM61.6006 7.7H61.5006V7.8H61.6006V7.7ZM61.6006 7V6.9H61.5006V7H61.6006ZM65.7006 7H65.8006V6.9H65.7006V7ZM65.7006 7.7V7.8H65.8006V7.7H65.7006ZM64.0006 7.7V7.6H63.9006V7.7H64.0006ZM73.6008 12.2004L73.5301 12.1297L73.5301 12.1297L73.6008 12.2004ZM73.6008 7.80039L73.5301 7.8711L73.5301 7.8711L73.6008 7.80039ZM69.2008 7.80039L69.2715 7.8711V7.8711L69.2008 7.80039ZM69.2008 12.2004L69.2715 12.1297V12.1297L69.2008 12.2004ZM69.8006 11.6996L69.8717 11.6285L69.8631 11.6215L69.8006 11.6996ZM73.0006 11.6996L72.9294 11.6285L72.9225 11.6371L73.0006 11.6996ZM73.0006 8.29961L72.9295 8.37076L72.9381 8.3777L73.0006 8.29961ZM69.8006 8.29961L69.8717 8.37076L69.8787 8.36208L69.8006 8.29961ZM75.6006 13H75.5006V13.1H75.6006V13ZM75.6006 7V6.9H75.5006V7H75.6006ZM76.3006 13V13.1H76.4006V13H76.3006ZM76.3006 8.1L76.3851 8.04654L76.2006 7.7549V8.1H76.3006ZM79.4006 13L79.3161 13.0535L79.3455 13.1H79.4006V13ZM80.2006 13V13.1H80.3006V13H80.2006ZM80.2006 7H80.3006V6.9H80.2006V7ZM79.4006 7V6.9H79.3006V7H79.4006ZM79.4006 11.7L79.3155 11.7525L79.5006 12.0525V11.7H79.4006ZM76.5006 7L76.5857 6.94749L76.5564 6.9H76.5006V7ZM47.3004 10.2004C47.3004 10.985 47.1043 11.655 46.6297 12.1297L46.7711 12.2711C47.2965 11.7457 47.5004 11.0158 47.5004 10.2004H47.3004ZM47.3761 10.1034L47.3761 10.1034L47.4246 10.2974L47.4247 10.2974L47.3761 10.1034ZM47.3004 9.80039V10.2004H47.5004V9.80039H47.3004ZM44.5004 9.90039H47.4004V9.70039H44.5004V9.90039ZM44.6004 10.6004V9.80039H44.4004V10.6004H44.6004ZM46.7004 10.5004H44.5004V10.7004H46.7004V10.5004ZM46.2711 11.8711C46.5878 11.5544 46.8004 11.1297 46.8004 10.6004H46.6004C46.6004 11.0711 46.413 11.4464 46.1297 11.7297L46.2711 11.8711ZM44.5004 12.6004C44.8602 12.6004 45.1736 12.5489 45.4633 12.4304C45.753 12.3119 46.0138 12.1284 46.2711 11.8711L46.1297 11.7297C45.887 11.9724 45.6478 12.1389 45.3875 12.2453C45.1272 12.3518 44.8406 12.4004 44.5004 12.4004V12.6004ZM42.8379 11.8785C43.3421 12.2818 43.8649 12.6004 44.5004 12.6004V12.4004C43.9359 12.4004 43.4587 12.119 42.9629 11.7223L42.8379 11.8785ZM42.1004 10.1004C42.1004 10.8188 42.3062 11.4531 42.8379 11.8785L42.9629 11.7223C42.4946 11.3477 42.3004 10.782 42.3004 10.1004H42.1004ZM42.8379 8.3223C42.3062 8.74767 42.1004 9.38197 42.1004 10.1004H42.3004C42.3004 9.41881 42.4946 8.85311 42.9629 8.47848L42.8379 8.3223ZM44.5004 7.60039C43.8794 7.60039 43.2465 7.80774 42.8223 8.33792L42.9785 8.46286C43.3543 7.99305 43.9214 7.80039 44.5004 7.80039V7.60039ZM46.1785 8.33792C45.7557 7.80944 45.2241 7.60039 44.5004 7.60039V7.80039C45.1767 7.80039 45.6451 7.99134 46.0223 8.46286L46.1785 8.33792ZM46.5297 7.82968L46.0297 8.32968L46.1711 8.4711L46.6711 7.9711L46.5297 7.82968ZM45.6557 7.28983C46.0514 7.4877 46.332 7.67811 46.5172 7.95586L46.6836 7.84492C46.4688 7.52267 46.1494 7.31308 45.7451 7.11095L45.6557 7.28983ZM44.5004 7.00039C44.8831 7.00039 45.2679 7.09595 45.6557 7.28983L45.7451 7.11095C45.3329 6.90483 44.9177 6.80039 44.5004 6.80039V7.00039ZM42.3711 7.8711C42.9523 7.28989 43.6269 7.00039 44.5004 7.00039V6.80039C43.5739 6.80039 42.8485 7.11089 42.2297 7.72968L42.3711 7.8711ZM41.5004 10.0004C41.5004 9.12686 41.7899 8.45231 42.3711 7.8711L42.2297 7.72968C41.6109 8.34847 41.3004 9.07392 41.3004 10.0004H41.5004ZM42.3711 12.1297C41.7899 11.5485 41.5004 10.8739 41.5004 10.0004H41.3004C41.3004 10.9269 41.6109 11.6523 42.2297 12.2711L42.3711 12.1297ZM44.5004 13.0004C43.6269 13.0004 42.9523 12.7109 42.3711 12.1297L42.2297 12.2711C42.8485 12.8899 43.5739 13.2004 44.5004 13.2004V13.0004ZM46.6297 12.1297C46.0485 12.7109 45.3739 13.0004 44.5004 13.0004V13.2004C45.4269 13.2004 46.1523 12.8899 46.7711 12.2711L46.6297 12.1297ZM52 7.6H49.3V7.8H52V7.6ZM51.9 7V7.7H52.1V7H51.9ZM48.5 7.1H52V6.9H48.5V7.1ZM48.6 13V7H48.4V13H48.6ZM52 12.9H48.5V13.1H52V12.9ZM51.9 12.2V13H52.1V12.2H51.9ZM49.3 12.3H52V12.1H49.3V12.3ZM49.2 10.3V12.2H49.4V10.3H49.2ZM51.8 10.2H49.3V10.4H51.8V10.2ZM51.7 9.6V10.3H51.9V9.6H51.7ZM49.3 9.7H51.8V9.5H49.3V9.7ZM49.2 7.7V9.6H49.4V7.7H49.2ZM54.5008 13.1H55.3008V12.9H54.5008V13.1ZM54.4008 7.7V13H54.6008V7.7H54.4008ZM52.8008 7.8H54.5008V7.6H52.8008V7.8ZM52.7008 7V7.7H52.9008V7H52.7008ZM57.0008 6.9H52.8008V7.1H57.0008V6.9ZM57.1008 7.7V7H56.9008V7.7H57.1008ZM55.3008 7.8H57.0008V7.6H55.3008V7.8ZM55.4008 13V7.7H55.2008V13H55.4008ZM60.0004 13V7H59.8004V13H60.0004ZM60.7004 12.9H59.9004V13.1H60.7004V12.9ZM60.6004 7V13H60.8004V7H60.6004ZM59.9004 7.1H60.7004V6.9H59.9004V7.1ZM63.3006 13.1H64.0006V12.9H63.3006V13.1ZM63.2006 7.7V13H63.4006V7.7H63.2006ZM61.6006 7.8H63.3006V7.6H61.6006V7.8ZM61.5006 7V7.7H61.7006V7H61.5006ZM65.7006 6.9H61.6006V7.1H65.7006V6.9ZM65.8006 7.7V7H65.6006V7.7H65.8006ZM64.0006 7.8H65.7006V7.6H64.0006V7.8ZM64.1006 13V7.7H63.9006V13H64.1006ZM73.5301 12.1297C72.9489 12.7109 72.2743 13.0004 71.4008 13.0004V13.2004C72.3272 13.2004 73.0527 12.8899 73.6715 12.2711L73.5301 12.1297ZM74.4008 10.0004C74.4008 10.8739 74.1113 11.5485 73.5301 12.1297L73.6715 12.2711C74.2903 11.6523 74.6008 10.9269 74.6008 10.0004H74.4008ZM73.5301 7.8711C74.1113 8.45231 74.4008 9.12686 74.4008 10.0004H74.6008C74.6008 9.07392 74.2903 8.34847 73.6715 7.72968L73.5301 7.8711ZM71.4008 7.00039C72.2743 7.00039 72.9489 7.28989 73.5301 7.8711L73.6715 7.72968C73.0527 7.11089 72.3273 6.80039 71.4008 6.80039V7.00039ZM69.2715 7.8711C69.8527 7.28989 70.5273 7.00039 71.4008 7.00039V6.80039C70.4743 6.80039 69.7489 7.11089 69.1301 7.72968L69.2715 7.8711ZM68.4008 10.0004C68.4008 9.12686 68.6903 8.45231 69.2715 7.8711L69.1301 7.72968C68.5113 8.34847 68.2008 9.07392 68.2008 10.0004H68.4008ZM69.2715 12.1297C68.6903 11.5485 68.4008 10.8739 68.4008 10.0004H68.2008C68.2008 10.9269 68.5113 11.6523 69.1301 12.2711L69.2715 12.1297ZM71.4008 13.0004C70.5272 13.0004 69.8527 12.7109 69.2715 12.1297L69.1301 12.2711C69.7489 12.8899 70.4743 13.2004 71.4008 13.2004V13.0004ZM71.4006 12.2996C70.8318 12.2996 70.2562 12.0137 69.8713 11.6289L69.7299 11.7703C70.145 12.1855 70.7694 12.4996 71.4006 12.4996V12.2996ZM72.9225 11.6371C72.5466 12.107 71.9796 12.2996 71.4006 12.2996V12.4996C72.0216 12.4996 72.6545 12.2923 73.0787 11.7621L72.9225 11.6371ZM73.6006 9.99961C73.6006 10.6706 73.3129 11.2458 72.9299 11.6289L73.0713 11.7703C73.4882 11.3534 73.8006 10.7286 73.8006 9.99961H73.6006ZM72.9381 8.3777C73.4064 8.75233 73.6006 9.31803 73.6006 9.99961H73.8006C73.8006 9.28119 73.5948 8.64689 73.0631 8.22152L72.9381 8.3777ZM71.4006 7.69961C71.9694 7.69961 72.545 7.98547 72.9299 8.37032L73.0713 8.2289C72.6561 7.81375 72.0318 7.49961 71.4006 7.49961V7.69961ZM69.8787 8.36208C70.2545 7.89227 70.8216 7.69961 71.4006 7.69961V7.49961C70.7796 7.49961 70.1467 7.70695 69.7225 8.23714L69.8787 8.36208ZM69.2006 9.99961C69.2006 9.3286 69.4882 8.75338 69.8713 8.37032L69.7299 8.2289C69.3129 8.64584 69.0006 9.27063 69.0006 9.99961H69.2006ZM69.8631 11.6215C69.3948 11.2469 69.2006 10.6812 69.2006 9.99961H69.0006C69.0006 10.718 69.2064 11.3523 69.7381 11.7777L69.8631 11.6215ZM75.7006 13V7H75.5006V13H75.7006ZM76.3006 12.9H75.6006V13.1H76.3006V12.9ZM76.2006 8.1V13H76.4006V8.1H76.2006ZM79.4851 12.9465L76.3851 8.04654L76.2161 8.15346L79.3161 13.0535L79.4851 12.9465ZM80.2006 12.9H79.4006V13.1H80.2006V12.9ZM80.1006 7V13H80.3006V7H80.1006ZM79.4006 7.1H80.2006V6.9H79.4006V7.1ZM79.5006 11.7V7H79.3006V11.7H79.5006ZM76.4155 7.05251L79.3155 11.7525L79.4857 11.6475L76.5857 6.94749L76.4155 7.05251ZM75.6006 7.1H76.5006V6.9H75.6006V7.1Z" fill="white"/>
<path fill-rule="evenodd" clip-rule="evenodd" d="M47.6996 23.0996V24.8996H51.9996C51.8996 25.8996 51.4996 26.6996 50.9996 27.1996C50.3996 27.7996 49.3996 28.4996 47.6996 28.4996C44.9996 28.4996 42.9996 26.3996 42.9996 23.6996C42.9996 20.9996 45.0996 18.8996 47.6996 18.8996C49.0996 18.8996 50.1996 19.4996 50.9996 20.1996L52.2996 18.8996C51.1996 17.8996 49.7996 17.0996 47.7996 17.0996C44.1996 17.0996 41.0996 20.0996 41.0996 23.6996C41.0996 27.2996 44.1996 30.2996 47.7996 30.2996C49.7996 30.2996 51.1996 29.6996 52.3996 28.3996C53.5996 27.1996 53.9996 25.4996 53.9996 24.1996C53.9996 23.7996 53.9996 23.3996 53.8996 23.0996H47.6996ZM58.8 21.7988C56.4 21.7988 54.5 23.5988 54.5 26.0988C54.5 28.4988 56.4 30.3988 58.8 30.3988C61.2 30.3988 63.1 28.5988 63.1 26.0988C63.1 23.4988 61.2 21.7988 58.8 21.7988ZM63.7998 26.0988C63.7998 23.5988 65.6998 21.7988 68.0998 21.7988C70.4998 21.7988 72.3998 23.4988 72.3998 26.0988C72.3998 28.5988 70.4998 30.3988 68.0998 30.3988C65.6998 30.3988 63.7998 28.4988 63.7998 26.0988ZM65.6992 26.0004C65.6992 27.5004 66.7992 28.6004 68.0992 28.6004C69.3992 28.6004 70.4992 27.5004 70.4992 26.0004C70.4992 24.4004 69.3992 23.4004 68.0992 23.4004C66.7992 23.4004 65.6992 24.5004 65.6992 26.0004ZM56.3994 26.0004C56.3994 27.5004 57.4994 28.6004 58.7994 28.6004C60.0994 28.6004 61.1994 27.5004 61.1994 26.0004C61.1994 24.4004 60.0994 23.4004 58.7994 23.4004C57.4994 23.4004 56.3994 24.5004 56.3994 26.0004ZM89.5 21.7988C91.7 21.7988 92.7 23.4988 93.1 24.4988L93.3 24.9988L87.6 27.3988C88.1 28.2988 88.7 28.6988 89.7 28.6988C90.7 28.6988 91.3 28.1988 91.8 27.4988L93.2 28.4988C92.8 29.1988 91.6 30.3988 89.7 30.3988C87.3 30.3988 85.5 28.4988 85.5 26.0988C85.5 23.4988 87.3 21.7988 89.5 21.7988ZM87.2998 25.9004C87.2998 24.3004 88.5998 23.4004 89.4998 23.4004C90.1998 23.4004 90.8998 23.8004 91.0998 24.3004L87.2998 25.9004ZM84.4996 30H82.5996V17.5H84.4996V30ZM79.5992 22.6992C79.0992 22.1992 78.2992 21.6992 77.2992 21.6992C75.1992 21.6992 73.1992 23.5992 73.1992 25.9992C73.1992 28.3992 75.0992 30.1992 77.2992 30.1992C78.2992 30.1992 79.0992 29.6992 79.4992 29.1992H79.5992V29.7992C79.5992 31.3992 78.6992 32.2992 77.2992 32.2992C76.1992 32.2992 75.3992 31.4992 75.1992 30.7992L73.5992 31.4992C74.0992 32.5992 75.2992 33.9992 77.3992 33.9992C79.5992 33.9992 81.3992 32.6992 81.3992 29.5992V21.9992H79.5992L79.5992 22.6992ZM75 26.0004C75 27.5004 76.1 28.6004 77.4 28.6004C78.7 28.6004 79.7 27.5004 79.7 26.0004C79.7 24.5004 78.7 23.4004 77.4 23.4004C76.1 23.4004 75 24.5004 75 26.0004ZM101.8 17.5H97.2998V30H99.1998V25.3H101.8C103.9 25.3 105.9 23.8 105.9 21.4C105.9 19 103.9 17.5 101.8 17.5ZM99.1992 23.4992H101.899C103.199 23.4992 103.999 22.3992 104.099 21.2992C104.099 20.3992 103.299 19.1992 101.899 19.1992H99.1992V23.4992ZM113.4 21.6992C112 21.6992 110.6 22.2992 110.1 23.5992L111.8 24.2992C112.2 23.5992 112.8 23.3992 113.5 23.3992C114.5 23.3992 115.4 23.9992 115.5 24.9992V25.0992C115.2 24.8992 114.4 24.5992 113.6 24.5992C111.8 24.5992 110 25.5992 110 27.3992C110 29.0992 111.5 30.1992 113.1 30.1992C114.4 30.1992 115 29.5992 115.5 28.9992H115.6V29.9992H117.4V25.1992C117.2 22.9992 115.5 21.6992 113.4 21.6992ZM111.699 27.4992C111.699 28.2992 112.599 28.5992 113.199 28.5992C114.199 28.5992 115.199 27.7992 115.399 26.5992C115.349 26.579 115.299 26.5588 115.25 26.5388C114.814 26.3608 114.418 26.1992 113.699 26.1992C112.799 26.1992 111.699 26.4992 111.699 27.4992ZM123.7 22L121.6 27.4H121.5L119.3 22H117.3L120.6 29.6L118.7 33.8H120.6L125.7 22H123.7ZM108.799 30H106.899V17.5H108.799V30Z" fill="white"/>
<path d="M10.4 7.5C10.1 7.8 10 8.3 10 8.9V31C10 31.6 10.2 32.1 10.5 32.4L10.6 32.5L23 20.1V19.9L10.4 7.5Z" fill="url(#paint0_linear_452_529)"/>
<path d="M27.0004 24.2988L22.9004 20.1988V19.8988L27.0004 15.7988L27.1004 15.8988L32.0004 18.6988C33.4004 19.4988 33.4004 20.7988 32.0004 21.5988L27.0004 24.2988Z" fill="url(#paint1_linear_452_529)"/>
<path d="M27.1004 24.2L22.9004 20L10.4004 32.5C10.9004 33 11.6004 33 12.5004 32.6L27.1004 24.2Z" fill="url(#paint2_linear_452_529)"/>
<path d="M27.1004 15.7986L12.5004 7.49865C11.6004 6.99865 10.9004 7.09865 10.4004 7.59865L22.9004 19.9986L27.1004 15.7986H27.1004Z" fill="url(#paint3_linear_452_529)"/>
<path opacity="0.2" d="M27.0004 24.0996L12.5004 32.2996C11.7004 32.7996 11.0004 32.6996 10.5004 32.2996L10.4004 32.3996L10.5004 32.4996C11.0004 32.8996 11.7004 32.9996 12.5004 32.4996L27.0004 24.0996Z" fill="black"/>
<path opacity="0.12" fill-rule="evenodd" clip-rule="evenodd" d="M27 24.1L32 21.3C32.6 20.9 33 20.5 33 20C33 20.5 32.7 21 32 21.4L27.1 24.2L27 24.1ZM10 30.9004C10 31.0421 10.0056 31.1782 10.018 31.3074C10.0062 31.2085 10 31.106 10 31.0004V30.9004ZM10.018 31.3074C10.0665 31.7118 10.2095 32.0552 10.4097 32.3004L10.018 31.3074ZM10.4097 32.3004H10.5V32.4004C10.4688 32.3692 10.4387 32.3358 10.4097 32.3004Z" fill="black"/>
<path opacity="0.25" d="M12.5 7.59929L32 18.6993C32.6 19.0993 33 19.4993 33 19.9993C33 19.4993 32.7 18.9993 32 18.5993L12.5 7.49929C11.1 6.69929 10 7.29929 10 8.89929V8.99929C10 7.49929 11.1 6.79929 12.5 7.59929Z" fill="white"/>
<defs>
<linearGradient id="paint0_linear_452_529" x1="26.1633" y1="17.1525" x2="6.29524" y2="11.7805" gradientUnits="userSpaceOnUse">
<stop stop-color="#00A0FF"/>
<stop offset="0.007" stop-color="#00A1FF"/>
<stop offset="0.26" stop-color="#00BEFF"/>
<stop offset="0.512" stop-color="#00D2FF"/>
<stop offset="0.76" stop-color="#00DFFF"/>
<stop offset="1" stop-color="#00E3FF"/>
</linearGradient>
<linearGradient id="paint1_linear_452_529" x1="33.8344" y1="11.8661" x2="9.63739" y2="11.8661" gradientUnits="userSpaceOnUse">
<stop stop-color="#FFE000"/>
<stop offset="0.409" stop-color="#FFBD00"/>
<stop offset="0.775" stop-color="#FFA500"/>
<stop offset="1" stop-color="#FF9C00"/>
</linearGradient>
<linearGradient id="paint2_linear_452_529" x1="39.5715" y1="10.922" x2="23.6063" y2="-15.882" gradientUnits="userSpaceOnUse">
<stop stop-color="#FF3A44"/>
<stop offset="1" stop-color="#C31162"/>
</linearGradient>
<linearGradient id="paint3_linear_452_529" x1="13.9123" y1="45.7262" x2="20.9856" y2="33.7399" gradientUnits="userSpaceOnUse">
<stop stop-color="#32A071"/>
<stop offset="0.069" stop-color="#2DA771"/>
<stop offset="0.476" stop-color="#15CF74"/>
<stop offset="0.801" stop-color="#06E775"/>
<stop offset="1" stop-color="#00F076"/>
</linearGradient>
</defs>
</svg>
