<svg width="135" height="40" viewBox="0 0 135 40" fill="none" xmlns="http://www.w3.org/2000/svg">
<path d="M134.105 35.2771C134.105 36.2939 133.7 37.2689 132.981 37.9875C132.261 38.7061 131.285 39.1092 130.268 39.1082L4.7317 39.1082C2.61293 39.1104 0.893385 37.3953 0.890625 35.2771V4.7257C0.893385 2.60669 2.61212 0.890198 4.7317 0.889648H130.268C132.386 0.889648 134.104 2.60727 134.104 4.72571L134.105 35.2771L134.105 35.2771Z" fill="white"/>
<path d="M130.268 40H4.73155C2.12273 40 0.00551665 37.8878 1.90838e-06 35.2787L0 4.7273C0.00386113 2.11691 2.12048 0.00220264 4.73156 0L130.267 4.76968e-07C132.878 0.0033011 134.994 2.11737 134.999 4.7273V35.2777C135.001 37.8824 132.875 40 130.268 40H130.268Z" fill="#A6A6A6"/>
<path d="M134.105 35.2771C134.105 36.2939 133.7 37.2689 132.981 37.9875C132.261 38.7061 131.285 39.1092 130.268 39.1082L4.7317 39.1082C2.61293 39.1104 0.893385 37.3953 0.890625 35.2771V4.7257C0.893385 2.60669 2.61212 0.890198 4.7317 0.889648H130.268C132.386 0.889648 134.104 2.60727 134.104 4.72571L134.105 35.2771L134.105 35.2771Z" fill="black"/>
<path fill-rule="evenodd" clip-rule="evenodd" d="M28.2495 6.21875C28.4156 7.72816 27.8173 9.21557 26.9428 10.3089C26.0303 11.3852 24.5705 12.2084 23.1487 12.1024C22.9627 10.65 23.683 9.10555 24.4895 8.16328C25.401 7.09399 26.9838 6.27477 28.2495 6.21875ZM32.9036 14.926C32.745 15.0207 30.1155 16.5897 30.1443 19.7895H30.1443C30.1783 23.6525 33.5261 24.9309 33.5661 24.9449C33.5461 25.0349 33.0419 26.7894 31.7862 28.5689C30.7376 30.1363 29.639 31.6698 27.8941 31.6968C27.0645 31.7159 26.5043 31.4776 25.9207 31.2293C25.3118 30.9703 24.6773 30.7005 23.6848 30.7005C22.6329 30.7005 21.9704 30.9791 21.3315 31.2477C20.7788 31.4802 20.2437 31.7051 19.4895 31.7358C17.8276 31.7968 16.558 30.0633 15.4714 28.5089C13.2992 25.337 11.6083 19.5704 13.8755 15.6463C14.9741 13.7218 16.9772 12.4825 19.1183 12.4495C20.0612 12.4302 20.9655 12.7935 21.7583 13.1119C22.3645 13.3555 22.9055 13.5728 23.3486 13.5728C23.7378 13.5728 24.2636 13.3641 24.8765 13.121C25.8423 12.7378 27.0242 12.2688 28.2283 12.3954C29.0517 12.4195 31.395 12.7205 32.9068 14.9241L32.9036 14.926Z" fill="white"/>
<path fill-rule="evenodd" clip-rule="evenodd" d="M86.9049 30.5443C87.6923 29.8332 88.0885 28.9119 88.0885 27.7786C88.0885 26.8593 87.8184 26.0881 87.2751 25.47C86.7358 24.8518 85.8933 24.3136 84.7467 23.8515C83.8122 23.4834 83.1658 23.1403 82.8116 22.8252C82.4034 22.4831 82.1983 22.047 82.1983 21.5219C82.1983 21.0457 82.3784 20.6446 82.7336 20.3155C83.1559 19.9474 83.7462 19.7624 84.4986 19.7624C85.4511 19.7624 86.3026 19.9664 87.057 20.3745L87.5922 18.6361C86.7908 18.215 85.7813 18.0039 84.5696 18.0039C83.2129 18.0039 82.1223 18.353 81.2999 19.0512C80.4774 19.7504 80.0652 20.6446 80.0652 21.7369C80.0652 23.4094 81.2318 24.6807 83.5631 25.55C84.4205 25.8651 85.0309 26.2082 85.4001 26.5763C85.7673 26.9454 85.9544 27.3985 85.9544 27.9397C85.9544 28.5438 85.7283 29.0279 85.281 29.39C84.8348 29.7511 84.2094 29.9332 83.405 29.9332C82.2864 29.9332 81.2589 29.6571 80.3233 29.103L79.8301 30.8804C80.6965 31.4336 81.8452 31.7097 83.2779 31.7097C84.8288 31.7097 86.0384 31.3206 86.9049 30.5443ZM53.6942 31.5126H51.422L50.1773 27.6025H45.851L44.6653 31.5126H42.4531L46.7404 18.201H49.3879L53.6942 31.5126ZM49.8025 25.9622L48.6769 22.4862C48.5578 22.1311 48.3337 21.2949 48.0055 19.9785H47.9655C47.8334 20.5447 47.6223 21.3809 47.3331 22.4862L46.2266 25.9622H49.8025ZM63.3683 30.4654C64.2558 29.5181 64.6991 28.2277 64.6991 26.5953C64.6991 25.1339 64.3199 23.9556 63.5645 23.0583C62.808 22.1631 61.8625 21.7159 60.7299 21.7159C59.2811 21.7159 58.2016 22.2891 57.4902 23.4354H57.4501L57.3311 21.914H55.4551C55.5071 22.9923 55.5341 24.0436 55.5341 25.0689V35.4047H57.6673V30.3683C58.2226 31.2766 59.1371 31.7297 60.4088 31.7297C61.5864 31.7297 62.5739 31.3086 63.3683 30.4654ZM62.5237 26.673C62.5237 25.7387 62.3136 24.9685 61.8913 24.3613C61.4301 23.7301 60.8108 23.4141 60.0343 23.4141C59.5081 23.4141 59.0298 23.5901 58.6026 23.9372C58.1743 24.2873 57.8942 24.7444 57.7631 25.3106C57.7046 25.5223 57.6714 25.7402 57.6641 25.9598V27.5612C57.6641 28.2584 57.8782 28.8475 58.3064 29.3297C58.7346 29.8098 59.2909 30.0509 59.9753 30.0509C60.7787 30.0509 61.4041 29.7398 61.8513 29.1226C62.2996 28.5035 62.5237 27.6872 62.5237 26.673ZM74.4104 30.4653C75.2979 29.5181 75.7411 28.2277 75.7411 26.5953C75.7411 25.1339 75.3609 23.9555 74.6065 23.0583C73.8481 22.163 72.9026 21.7159 71.771 21.7159C70.3212 21.7159 69.2416 22.2891 68.5312 23.4354H68.4912L68.3721 21.914H66.4961C66.5482 22.9923 66.5752 24.0436 66.5752 25.0689V35.4047H68.7083V30.3683C69.2636 31.2766 70.1781 31.7297 71.4498 31.7297C72.6284 31.7297 73.615 31.3086 74.4104 30.4653ZM73.5677 26.673C73.5677 25.7387 73.3566 24.9685 72.9343 24.3613C72.4731 23.7301 71.8557 23.4141 71.0793 23.4141C70.553 23.4141 70.0748 23.5901 69.6456 23.9372C69.2173 24.2873 68.9382 24.7444 68.8071 25.3106C68.7421 25.5747 68.707 25.7897 68.707 25.9598V27.5612C68.707 28.2584 68.9222 28.8475 69.3484 29.3297C69.7766 29.8088 70.3329 30.0509 71.0193 30.0509C71.8237 30.0509 72.4491 29.7398 72.8953 29.1226C73.3436 28.5035 73.5677 27.6872 73.5677 26.673ZM95.1577 23.5144H92.8064V28.1747C92.8064 29.36 93.2206 29.9512 94.0511 29.9512C94.4323 29.9512 94.7484 29.9192 94.9986 29.8522L95.0576 31.4716C94.6374 31.6287 94.0841 31.7077 93.3987 31.7077C92.5563 31.7077 91.8979 31.4506 91.4227 30.9365C90.9494 30.4223 90.7113 29.5611 90.7113 28.3487V23.5104H89.3105V21.91H90.7113V20.1525L92.8064 19.5203V21.91H95.1577V23.5144H95.1577ZM104.481 30.2681C105.324 29.3208 105.746 28.1095 105.746 26.6341C105.746 25.1977 105.339 24.0274 104.52 23.1211C103.664 22.1869 102.532 21.7188 101.123 21.7188C99.6616 21.7188 98.4989 22.1929 97.6355 23.1412C96.774 24.0884 96.3418 25.3067 96.3418 26.7942C96.3418 28.2155 96.76 29.3939 97.5965 30.3291C98.4329 31.2624 99.5545 31.7295 100.965 31.7295C102.427 31.7295 103.6 31.2434 104.481 30.2681ZM103.534 26.6833C103.534 25.804 103.344 25.0498 102.963 24.4186C102.516 23.6564 101.875 23.2753 101.046 23.2753C100.191 23.2753 99.5361 23.6564 99.0899 24.4186C98.7077 25.0498 98.5176 25.817 98.5176 26.7233C98.5176 27.6035 98.7077 28.3597 99.0899 28.9889C99.5511 29.7511 100.194 30.1322 101.028 30.1322C101.843 30.1322 102.483 29.7431 102.945 28.9699C103.337 28.3237 103.534 27.5645 103.534 26.6833ZM112.009 23.7304C112.235 23.7296 112.46 23.7494 112.682 23.7894L112.68 21.7548C112.522 21.7298 112.344 21.7158 112.146 21.7158C111.591 21.7166 111.05 21.8969 110.605 22.23C110.118 22.6111 109.764 23.1202 109.538 23.7514H109.479L109.401 21.9149H107.543C107.586 22.9216 107.607 23.9291 107.605 24.9367V31.5125H109.738V26.4761C109.738 25.7129 109.916 25.0807 110.27 24.5806C110.679 24.0125 111.259 23.7304 112.009 23.7304ZM122.224 26.2592C122.229 26.5834 122.203 26.9073 122.146 27.2264H115.747C115.771 28.1747 116.081 28.9009 116.675 29.401C117.214 29.8472 117.912 30.0712 118.768 30.0712C119.716 30.0712 120.58 29.9212 121.358 29.6181L121.692 31.0975C120.783 31.4936 119.711 31.6907 118.473 31.6907C116.984 31.6907 115.816 31.2525 114.965 30.3783C114.117 29.5031 113.691 28.3267 113.691 26.8533C113.691 25.4069 114.087 24.2016 114.878 23.2403C115.707 22.2141 116.826 21.7009 118.235 21.7009C119.619 21.7009 120.666 22.2141 121.378 23.2403C121.941 24.0536 122.224 25.0618 122.224 26.2592ZM119.774 24.0665C120.063 24.5276 120.203 25.0728 120.188 25.706L115.746 25.704C115.811 25.0608 116.022 24.5066 116.377 24.0455C116.81 23.4653 117.378 23.1763 118.075 23.1763C118.837 23.1763 119.405 23.4724 119.774 24.0665Z" fill="white"/>
<path fill-rule="evenodd" clip-rule="evenodd" d="M71.1277 13.4366H70.0781V6.55469H71.1277V13.4366ZM43.7012 13.4166C44.1284 13.4656 44.6417 13.4946 45.235 13.4946C47.7493 13.4946 49.0801 12.2723 49.0801 10.0096C49.0801 8.0481 47.9535 6.84477 45.5072 6.84477C44.9025 6.84304 44.2987 6.88853 43.7012 6.9808V13.4166ZM44.75 7.73794C44.9831 7.68993 45.2643 7.66992 45.5945 7.66992C47.1483 7.66992 47.9737 8.51515 47.9737 10.0386C47.9737 11.747 47.0613 12.6593 45.4584 12.6593C45.1182 12.6593 44.8761 12.6503 44.75 12.6303V7.73794ZM52.5906 13.5439C51.2119 13.5439 50.3184 12.5146 50.3184 11.1172C50.3184 9.66084 51.2309 8.62256 52.6686 8.62256C54.0274 8.62256 54.9409 9.60283 54.9409 11.0402C54.9409 12.5146 53.9994 13.5439 52.5906 13.5439ZM51.3887 11.0866C51.3887 10.0964 51.8739 9.38818 52.6313 9.38818C53.3687 9.38818 53.854 10.1064 53.854 11.0666C53.854 12.0089 53.3587 12.7661 52.6213 12.7661C51.8839 12.7661 51.3887 12.0579 51.3887 11.0866ZM62.8035 8.71928L61.3277 13.4366H60.3662L59.7549 11.388C59.6028 10.8869 59.4763 10.3785 59.3756 9.8646L59.3556 9.8646C59.2786 10.3787 59.1325 10.8939 58.9774 11.388L58.3271 13.4366H57.3555L55.9668 8.71928H57.0444L57.5787 10.9619C57.7047 11.496 57.8108 12.0002 57.8988 12.4763H57.9189C57.9959 12.0792 58.122 11.5831 58.3071 10.9719L58.9774 8.72029H59.8319L60.4732 10.9239C60.6283 11.458 60.7544 11.9822 60.8524 12.4773H60.8804C60.9485 11.9922 61.0556 11.477 61.2006 10.9239L61.7739 8.72029L62.8035 8.71928ZM67.1892 13.4369H68.2378H68.2378L68.2388 10.6121C68.2388 9.37976 67.5885 8.62256 66.5979 8.62256C65.9566 8.62256 65.3842 8.94265 65.1021 9.44678H65.0731L65.0241 8.71858H64.1016C64.1306 9.20372 64.1406 9.65084 64.1406 10.068V13.4369H65.1892V10.6311C65.1892 10.0099 65.6164 9.47579 66.2377 9.47579C66.869 9.47579 67.1892 9.89391 67.1892 10.7281V13.4369ZM72.6797 11.1169C72.6797 12.5143 73.5742 13.5436 74.9519 13.5436C76.3597 13.5436 77.3022 12.5143 77.3012 11.0399C77.3012 9.60252 76.3887 8.62225 75.029 8.62225C73.5922 8.62225 72.6797 9.66054 72.6797 11.1169ZM74.9888 9.38818C74.2314 9.38818 73.7461 10.0964 73.7461 11.0866C73.7461 12.0579 74.2424 12.7661 74.9778 12.7661C75.7162 12.7661 76.2104 12.0089 76.2104 11.0666C76.2114 10.1064 75.7272 9.38818 74.9888 9.38818ZM81.3594 12.8934L81.4354 13.4366H81.4355L82.381 13.4376C82.334 13.1565 82.3129 12.7874 82.3129 12.3113V10.5738C82.3129 9.27243 81.6906 8.62225 80.4579 8.62225C79.8186 8.62225 79.2743 8.75829 78.838 9.03036L79.0511 9.71955C79.4104 9.48649 79.8186 9.36946 80.2838 9.36946C80.9342 9.36946 81.2634 9.68054 81.2634 10.3017V10.3887C79.5154 10.3887 78.5059 10.9909 78.5059 12.1552C78.5059 12.9514 79.1062 13.5436 79.9516 13.5436C80.544 13.5436 81.0112 13.3305 81.3314 12.8934H81.3594ZM81.2919 11.0869C80.1273 11.0869 79.543 11.369 79.543 12.0382C79.543 12.5333 79.8441 12.7754 80.2624 12.7754C80.7956 12.7754 81.2919 12.3683 81.2919 11.8151V11.0869ZM87.354 12.6794L87.403 13.4366H88.3365C88.3085 13.0485 88.2975 12.6214 88.2975 12.1652V6.55469H87.2479V9.26243H87.2269C86.9748 8.83431 86.5275 8.62126 85.8962 8.62126C84.7036 8.62126 83.8301 9.66054 83.8301 11.1359C83.8301 12.5433 84.6725 13.5436 85.8102 13.5436C86.5175 13.5436 87.0238 13.2515 87.325 12.6794H87.354ZM87.2479 10.6608C87.2479 10.0007 86.8107 9.4375 86.1433 9.4375C85.3659 9.4375 84.8906 10.1267 84.8906 11.097C84.8906 12.0482 85.3839 12.6994 86.1223 12.6994C86.7816 12.6994 87.2479 12.1262 87.2479 11.4471V10.6608ZM92.6817 11.1169C92.6817 12.5143 93.5751 13.5436 94.9529 13.5436C96.3626 13.5436 97.3042 12.5143 97.3031 11.0399C97.3031 9.60253 96.3906 8.62226 95.0309 8.62226C93.5941 8.62226 92.6817 9.66054 92.6817 11.1169ZM94.9919 9.38847C94.2355 9.38847 93.7502 10.0967 93.7502 11.0869C93.7502 12.0582 94.2455 12.7664 94.9819 12.7664C95.7203 12.7664 96.2146 12.0092 96.2146 11.0669C96.2166 10.1067 95.7313 9.38847 94.9919 9.38847ZM101.892 13.4369H102.942V10.6111C102.942 9.37879 102.291 8.62158 101.3 8.62158C100.66 8.62158 100.086 8.94267 99.8052 9.44681H99.7762L99.7272 8.71861H98.8047C98.8337 9.20374 98.8437 9.65087 98.8437 10.068V13.4369H99.8933V10.6311C99.8933 10.01 100.32 9.47582 100.941 9.47582C101.572 9.47582 101.892 9.89393 101.892 10.7282V13.4369ZM109.997 9.50549H108.843V11.7961C108.843 12.3793 109.045 12.6704 109.453 12.6704C109.638 12.6704 109.793 12.6503 109.919 12.6213L109.948 13.4176C109.744 13.4956 109.472 13.5346 109.134 13.5346C108.308 13.5346 107.813 13.0785 107.813 11.8841V9.50549H107.125V8.71927H107.813V7.85503L108.843 7.54395V8.71827H109.997V9.50549ZM114.502 13.4366H115.549V10.6308C115.549 9.39747 114.939 8.62126 113.94 8.62126C113.33 8.62126 112.852 8.87432 112.522 9.38847H112.501V6.55469H111.453V13.4366H112.501V10.5928C112.501 9.84559 113.007 9.47649 113.55 9.47649C114.183 9.47649 114.502 9.90361 114.502 10.7478V13.4366ZM121.235 11.3301H118.089C118.109 12.2233 118.7 12.7274 119.575 12.7274C120.041 12.7274 120.469 12.6494 120.847 12.5044L121.01 13.2326C120.564 13.4266 120.039 13.5237 119.427 13.5237C117.952 13.5237 117.078 12.5914 117.078 11.146C117.078 9.6996 117.973 8.6123 119.309 8.6123C120.515 8.6123 121.271 9.50555 121.271 10.8549C121.278 11.0142 121.266 11.1737 121.235 11.3301ZM119.236 9.34033C118.634 9.34033 118.158 9.86448 118.09 10.5827L119.236 9.34033ZM118.09 10.5827H120.274H118.09Z" fill="white"/>
</svg>
