<svg width="136" height="40" viewBox="0 0 136 40" fill="none" xmlns="http://www.w3.org/2000/svg">
<path d="M130.5 40H5.5C2.7 40 0.5 37.8 0.5 35V5C0.5 2.2 2.7 0 5.5 0H130.5C133.3 0 135.5 2.2 135.5 5V35C135.5 37.8 133.3 40 130.5 40Z" fill="black"/>
<path fill-rule="evenodd" clip-rule="evenodd" d="M5.5 0H130.5C133.3 0 135.5 2.3 135.5 5V35C135.5 37.8 133.3 40 130.5 40H5.5C2.7 40 0.5 37.8 0.5 35V5C0.5 2.3 2.7 0 5.5 0ZM134.7 5.00078C134.7 2.70078 132.8 0.800781 130.5 0.800781H5.49981C3.1998 0.800781 1.2998 2.70078 1.2998 5.00078V35.0008C1.2998 37.3008 3.1998 39.2008 5.49981 39.2008H130.5C132.8 39.2008 134.7 37.3008 134.7 35.0008V5.00078Z" fill="#A6A6A6"/>
<path fill-rule="evenodd" clip-rule="evenodd" d="M47.2004 12.2004C47.7004 11.7004 47.9004 11.0004 47.9004 10.2004L47.9004 10.2004V9.80039H45.0004V10.6004H47.2004C47.2004 11.1004 47.0004 11.5004 46.7004 11.8004C46.2004 12.3004 45.7004 12.5004 45.0004 12.5004C44.4004 12.5004 43.9004 12.2004 43.4004 11.8004C42.9004 11.4004 42.7004 10.8004 42.7004 10.1004C42.7004 9.40039 42.9004 8.80039 43.4004 8.40039C43.8004 7.90039 44.4004 7.70039 45.0004 7.70039C45.7004 7.70039 46.2004 7.90039 46.6004 8.40039L47.1004 7.90039C46.9004 7.60039 46.6004 7.40039 46.2004 7.20039C45.8004 7.00039 45.4004 6.90039 45.0004 6.90039C44.1004 6.90039 43.4004 7.20039 42.8004 7.80039C42.2004 8.40039 41.9004 9.10039 41.9004 10.0004C41.9004 10.9004 42.2004 11.6004 42.8004 12.2004C43.4004 12.8004 44.1004 13.1004 45.0004 13.1004C45.9004 13.1004 46.6004 12.8004 47.2004 12.2004ZM49.8 7.7H52.5V7H49V13H52.5V12.2H49.8V10.3H52.3V9.6H49.8V7.7ZM55.8008 13H55.0008V7.7H53.3008V7H57.5008V7.7H55.8008V13ZM60.4004 7V13H61.2004V7H60.4004ZM64.5006 13H63.8006V7.7H62.1006V7H66.2006V7.7H64.5006V13ZM71.9008 13.1004C72.8008 13.1004 73.5008 12.8004 74.1008 12.2004C74.7008 11.6004 75.0008 10.9004 75.0008 10.0004C75.0008 9.10039 74.7008 8.40039 74.1008 7.80039C73.5008 7.20039 72.8008 6.90039 71.9008 6.90039C71.0008 6.90039 70.3008 7.20039 69.7008 7.80039C69.1008 8.40039 68.8008 9.10039 68.8008 10.0004C68.8008 10.9004 69.1008 11.6004 69.7008 12.2004C70.3008 12.8004 71.0008 13.1004 71.9008 13.1004ZM70.3006 11.6996C70.7006 12.0996 71.3006 12.3996 71.9006 12.3996C72.5006 12.3996 73.1006 12.1996 73.5006 11.6996C73.9006 11.2996 74.2006 10.6996 74.2006 9.99961C74.2006 9.29961 74.0006 8.69961 73.5006 8.29961C73.1006 7.89961 72.5006 7.59961 71.9006 7.59961C71.3006 7.59961 70.7006 7.79961 70.3006 8.29961C69.9006 8.69961 69.6006 9.29961 69.6006 9.99961C69.6006 10.6996 69.8006 11.2996 70.3006 11.6996ZM76.1006 7V13H76.8006V8.1L79.9006 13H80.7006V7H79.9006V11.7L77.0006 7H76.1006Z" fill="white"/>
<path d="M47.9004 10.2004L47.8761 10.1034L47.8004 10.1223V10.2004H47.9004ZM47.2004 12.2004L47.1297 12.1297L47.2004 12.2004ZM47.9004 10.2004L47.9247 10.2974L48.0004 10.2785V10.2004H47.9004ZM47.9004 9.80039H48.0004V9.70039H47.9004V9.80039ZM45.0004 9.80039V9.70039H44.9004V9.80039H45.0004ZM45.0004 10.6004H44.9004V10.7004H45.0004V10.6004ZM47.2004 10.6004H47.3004V10.5004H47.2004V10.6004ZM46.7004 11.8004L46.7711 11.8711L46.7711 11.8711L46.7004 11.8004ZM43.4004 8.40039L43.4629 8.47848L43.4715 8.47154L43.4785 8.46286L43.4004 8.40039ZM46.6004 8.40039L46.5223 8.46286L46.5921 8.5501L46.6711 8.4711L46.6004 8.40039ZM47.1004 7.90039L47.1711 7.9711L47.2291 7.91313L47.1836 7.84492L47.1004 7.90039ZM46.2004 7.20039L46.2451 7.11095L46.2451 7.11095L46.2004 7.20039ZM42.8004 7.80039L42.8711 7.8711H42.8711L42.8004 7.80039ZM42.8004 12.2004L42.7297 12.2711L42.7297 12.2711L42.8004 12.2004ZM52.5 7.7V7.8H52.6V7.7H52.5ZM49.8 7.7V7.6H49.7V7.7H49.8ZM52.5 7H52.6V6.9H52.5V7ZM49 7V6.9H48.9V7H49ZM49 13H48.9V13.1H49V13ZM52.5 13V13.1H52.6V13H52.5ZM52.5 12.2H52.6V12.1H52.5V12.2ZM49.8 12.2H49.7V12.3H49.8V12.2ZM49.8 10.3V10.2H49.7V10.3H49.8ZM52.3 10.3V10.4H52.4V10.3H52.3ZM52.3 9.6H52.4V9.5H52.3V9.6ZM49.8 9.6H49.7V9.7H49.8V9.6ZM55.0008 13H54.9008V13.1H55.0008V13ZM55.8008 13V13.1H55.9008V13H55.8008ZM55.0008 7.7H55.1008V7.6H55.0008V7.7ZM53.3008 7.7H53.2008V7.8H53.3008V7.7ZM53.3008 7V6.9H53.2008V7H53.3008ZM57.5008 7H57.6008V6.9H57.5008V7ZM57.5008 7.7V7.8H57.6008V7.7H57.5008ZM55.8008 7.7V7.6H55.7008V7.7H55.8008ZM60.4004 13H60.3004V13.1H60.4004V13ZM60.4004 7V6.9H60.3004V7H60.4004ZM61.2004 13V13.1H61.3004V13H61.2004ZM61.2004 7H61.3004V6.9H61.2004V7ZM63.8006 13H63.7006V13.1H63.8006V13ZM64.5006 13V13.1H64.6006V13H64.5006ZM63.8006 7.7H63.9006V7.6H63.8006V7.7ZM62.1006 7.7H62.0006V7.8H62.1006V7.7ZM62.1006 7V6.9H62.0006V7H62.1006ZM66.2006 7H66.3006V6.9H66.2006V7ZM66.2006 7.7V7.8H66.3006V7.7H66.2006ZM64.5006 7.7V7.6H64.4006V7.7H64.5006ZM74.1008 12.2004L74.0301 12.1297L74.0301 12.1297L74.1008 12.2004ZM74.1008 7.80039L74.0301 7.8711L74.0301 7.8711L74.1008 7.80039ZM69.7008 7.80039L69.7715 7.8711V7.8711L69.7008 7.80039ZM69.7008 12.2004L69.7715 12.1297V12.1297L69.7008 12.2004ZM70.3006 11.6996L70.3717 11.6285L70.3631 11.6215L70.3006 11.6996ZM73.5006 11.6996L73.4294 11.6285L73.4225 11.6371L73.5006 11.6996ZM73.5006 8.29961L73.4295 8.37076L73.4381 8.3777L73.5006 8.29961ZM70.3006 8.29961L70.3717 8.37076L70.3787 8.36208L70.3006 8.29961ZM76.1006 13H76.0006V13.1H76.1006V13ZM76.1006 7V6.9H76.0006V7H76.1006ZM76.8006 13V13.1H76.9006V13H76.8006ZM76.8006 8.1L76.8851 8.04654L76.7006 7.7549V8.1H76.8006ZM79.9006 13L79.8161 13.0535L79.8455 13.1H79.9006V13ZM80.7006 13V13.1H80.8006V13H80.7006ZM80.7006 7H80.8006V6.9H80.7006V7ZM79.9006 7V6.9H79.8006V7H79.9006ZM79.9006 11.7L79.8155 11.7525L80.0006 12.0525V11.7H79.9006ZM77.0006 7L77.0857 6.94749L77.0564 6.9H77.0006V7ZM47.8004 10.2004C47.8004 10.985 47.6043 11.655 47.1297 12.1297L47.2711 12.2711C47.7965 11.7457 48.0004 11.0158 48.0004 10.2004H47.8004ZM47.8761 10.1034L47.8761 10.1034L47.9246 10.2974L47.9247 10.2974L47.8761 10.1034ZM47.8004 9.80039V10.2004H48.0004V9.80039H47.8004ZM45.0004 9.90039H47.9004V9.70039H45.0004V9.90039ZM45.1004 10.6004V9.80039H44.9004V10.6004H45.1004ZM47.2004 10.5004H45.0004V10.7004H47.2004V10.5004ZM46.7711 11.8711C47.0878 11.5544 47.3004 11.1297 47.3004 10.6004H47.1004C47.1004 11.0711 46.913 11.4464 46.6297 11.7297L46.7711 11.8711ZM45.0004 12.6004C45.3602 12.6004 45.6736 12.5489 45.9633 12.4304C46.253 12.3119 46.5138 12.1284 46.7711 11.8711L46.6297 11.7297C46.387 11.9724 46.1478 12.1389 45.8875 12.2453C45.6272 12.3518 45.3406 12.4004 45.0004 12.4004V12.6004ZM43.3379 11.8785C43.8421 12.2818 44.3649 12.6004 45.0004 12.6004V12.4004C44.4359 12.4004 43.9587 12.119 43.4629 11.7223L43.3379 11.8785ZM42.6004 10.1004C42.6004 10.8188 42.8062 11.4531 43.3379 11.8785L43.4629 11.7223C42.9946 11.3477 42.8004 10.782 42.8004 10.1004H42.6004ZM43.3379 8.3223C42.8062 8.74767 42.6004 9.38197 42.6004 10.1004H42.8004C42.8004 9.41881 42.9946 8.85311 43.4629 8.47848L43.3379 8.3223ZM45.0004 7.60039C44.3794 7.60039 43.7465 7.80774 43.3223 8.33792L43.4785 8.46286C43.8543 7.99305 44.4214 7.80039 45.0004 7.80039V7.60039ZM46.6785 8.33792C46.2557 7.80944 45.7241 7.60039 45.0004 7.60039V7.80039C45.6767 7.80039 46.1451 7.99134 46.5223 8.46286L46.6785 8.33792ZM47.0297 7.82968L46.5297 8.32968L46.6711 8.4711L47.1711 7.9711L47.0297 7.82968ZM46.1557 7.28983C46.5514 7.4877 46.832 7.67811 47.0172 7.95586L47.1836 7.84492C46.9688 7.52267 46.6494 7.31308 46.2451 7.11095L46.1557 7.28983ZM45.0004 7.00039C45.3831 7.00039 45.7679 7.09595 46.1557 7.28983L46.2451 7.11095C45.8329 6.90483 45.4177 6.80039 45.0004 6.80039V7.00039ZM42.8711 7.8711C43.4523 7.28989 44.1269 7.00039 45.0004 7.00039V6.80039C44.0739 6.80039 43.3485 7.11089 42.7297 7.72968L42.8711 7.8711ZM42.0004 10.0004C42.0004 9.12686 42.2899 8.45231 42.8711 7.8711L42.7297 7.72968C42.1109 8.34847 41.8004 9.07392 41.8004 10.0004H42.0004ZM42.8711 12.1297C42.2899 11.5485 42.0004 10.8739 42.0004 10.0004H41.8004C41.8004 10.9269 42.1109 11.6523 42.7297 12.2711L42.8711 12.1297ZM45.0004 13.0004C44.1269 13.0004 43.4523 12.7109 42.8711 12.1297L42.7297 12.2711C43.3485 12.8899 44.0739 13.2004 45.0004 13.2004V13.0004ZM47.1297 12.1297C46.5485 12.7109 45.8739 13.0004 45.0004 13.0004V13.2004C45.9269 13.2004 46.6523 12.8899 47.2711 12.2711L47.1297 12.1297ZM52.5 7.6H49.8V7.8H52.5V7.6ZM52.4 7V7.7H52.6V7H52.4ZM49 7.1H52.5V6.9H49V7.1ZM49.1 13V7H48.9V13H49.1ZM52.5 12.9H49V13.1H52.5V12.9ZM52.4 12.2V13H52.6V12.2H52.4ZM49.8 12.3H52.5V12.1H49.8V12.3ZM49.7 10.3V12.2H49.9V10.3H49.7ZM52.3 10.2H49.8V10.4H52.3V10.2ZM52.2 9.6V10.3H52.4V9.6H52.2ZM49.8 9.7H52.3V9.5H49.8V9.7ZM49.7 7.7V9.6H49.9V7.7H49.7ZM55.0008 13.1H55.8008V12.9H55.0008V13.1ZM54.9008 7.7V13H55.1008V7.7H54.9008ZM53.3008 7.8H55.0008V7.6H53.3008V7.8ZM53.2008 7V7.7H53.4008V7H53.2008ZM57.5008 6.9H53.3008V7.1H57.5008V6.9ZM57.6008 7.7V7H57.4008V7.7H57.6008ZM55.8008 7.8H57.5008V7.6H55.8008V7.8ZM55.9008 13V7.7H55.7008V13H55.9008ZM60.5004 13V7H60.3004V13H60.5004ZM61.2004 12.9H60.4004V13.1H61.2004V12.9ZM61.1004 7V13H61.3004V7H61.1004ZM60.4004 7.1H61.2004V6.9H60.4004V7.1ZM63.8006 13.1H64.5006V12.9H63.8006V13.1ZM63.7006 7.7V13H63.9006V7.7H63.7006ZM62.1006 7.8H63.8006V7.6H62.1006V7.8ZM62.0006 7V7.7H62.2006V7H62.0006ZM66.2006 6.9H62.1006V7.1H66.2006V6.9ZM66.3006 7.7V7H66.1006V7.7H66.3006ZM64.5006 7.8H66.2006V7.6H64.5006V7.8ZM64.6006 13V7.7H64.4006V13H64.6006ZM74.0301 12.1297C73.4489 12.7109 72.7743 13.0004 71.9008 13.0004V13.2004C72.8272 13.2004 73.5527 12.8899 74.1715 12.2711L74.0301 12.1297ZM74.9008 10.0004C74.9008 10.8739 74.6113 11.5485 74.0301 12.1297L74.1715 12.2711C74.7903 11.6523 75.1008 10.9269 75.1008 10.0004H74.9008ZM74.0301 7.8711C74.6113 8.45231 74.9008 9.12686 74.9008 10.0004H75.1008C75.1008 9.07392 74.7903 8.34847 74.1715 7.72968L74.0301 7.8711ZM71.9008 7.00039C72.7743 7.00039 73.4489 7.28989 74.0301 7.8711L74.1715 7.72968C73.5527 7.11089 72.8273 6.80039 71.9008 6.80039V7.00039ZM69.7715 7.8711C70.3527 7.28989 71.0273 7.00039 71.9008 7.00039V6.80039C70.9743 6.80039 70.2489 7.11089 69.6301 7.72968L69.7715 7.8711ZM68.9008 10.0004C68.9008 9.12686 69.1903 8.45231 69.7715 7.8711L69.6301 7.72968C69.0113 8.34847 68.7008 9.07392 68.7008 10.0004H68.9008ZM69.7715 12.1297C69.1903 11.5485 68.9008 10.8739 68.9008 10.0004H68.7008C68.7008 10.9269 69.0113 11.6523 69.6301 12.2711L69.7715 12.1297ZM71.9008 13.0004C71.0272 13.0004 70.3527 12.7109 69.7715 12.1297L69.6301 12.2711C70.2489 12.8899 70.9743 13.2004 71.9008 13.2004V13.0004ZM71.9006 12.2996C71.3318 12.2996 70.7562 12.0137 70.3713 11.6289L70.2299 11.7703C70.645 12.1855 71.2694 12.4996 71.9006 12.4996V12.2996ZM73.4225 11.6371C73.0466 12.107 72.4796 12.2996 71.9006 12.2996V12.4996C72.5216 12.4996 73.1545 12.2923 73.5787 11.7621L73.4225 11.6371ZM74.1006 9.99961C74.1006 10.6706 73.8129 11.2458 73.4299 11.6289L73.5713 11.7703C73.9882 11.3534 74.3006 10.7286 74.3006 9.99961H74.1006ZM73.4381 8.3777C73.9064 8.75233 74.1006 9.31803 74.1006 9.99961H74.3006C74.3006 9.28119 74.0948 8.64689 73.5631 8.22152L73.4381 8.3777ZM71.9006 7.69961C72.4694 7.69961 73.045 7.98547 73.4299 8.37032L73.5713 8.2289C73.1561 7.81375 72.5318 7.49961 71.9006 7.49961V7.69961ZM70.3787 8.36208C70.7545 7.89227 71.3216 7.69961 71.9006 7.69961V7.49961C71.2796 7.49961 70.6467 7.70695 70.2225 8.23714L70.3787 8.36208ZM69.7006 9.99961C69.7006 9.3286 69.9882 8.75338 70.3713 8.37032L70.2299 8.2289C69.8129 8.64584 69.5006 9.27063 69.5006 9.99961H69.7006ZM70.3631 11.6215C69.8948 11.2469 69.7006 10.6812 69.7006 9.99961H69.5006C69.5006 10.718 69.7064 11.3523 70.2381 11.7777L70.3631 11.6215ZM76.2006 13V7H76.0006V13H76.2006ZM76.8006 12.9H76.1006V13.1H76.8006V12.9ZM76.7006 8.1V13H76.9006V8.1H76.7006ZM79.9851 12.9465L76.8851 8.04654L76.7161 8.15346L79.8161 13.0535L79.9851 12.9465ZM80.7006 12.9H79.9006V13.1H80.7006V12.9ZM80.6006 7V13H80.8006V7H80.6006ZM79.9006 7.1H80.7006V6.9H79.9006V7.1ZM80.0006 11.7V7H79.8006V11.7H80.0006ZM76.9155 7.05251L79.8155 11.7525L79.9857 11.6475L77.0857 6.94749L76.9155 7.05251ZM76.1006 7.1H77.0006V6.9H76.1006V7.1Z" fill="white"/>
<path fill-rule="evenodd" clip-rule="evenodd" d="M48.1996 23.0996V24.8996H52.4996C52.3996 25.8996 51.9996 26.6996 51.4996 27.1996C50.8996 27.7996 49.8996 28.4996 48.1996 28.4996C45.4996 28.4996 43.4996 26.3996 43.4996 23.6996C43.4996 20.9996 45.5996 18.8996 48.1996 18.8996C49.5996 18.8996 50.6996 19.4996 51.4996 20.1996L52.7996 18.8996C51.6996 17.8996 50.2996 17.0996 48.2996 17.0996C44.6996 17.0996 41.5996 20.0996 41.5996 23.6996C41.5996 27.2996 44.6996 30.2996 48.2996 30.2996C50.2996 30.2996 51.6996 29.6996 52.8996 28.3996C54.0996 27.1996 54.4996 25.4996 54.4996 24.1996C54.4996 23.7996 54.4996 23.3996 54.3996 23.0996H48.1996ZM59.3 21.7988C56.9 21.7988 55 23.5988 55 26.0988C55 28.4988 56.9 30.3988 59.3 30.3988C61.7 30.3988 63.6 28.5988 63.6 26.0988C63.6 23.4988 61.7 21.7988 59.3 21.7988ZM64.2998 26.0988C64.2998 23.5988 66.1998 21.7988 68.5998 21.7988C70.9998 21.7988 72.8998 23.4988 72.8998 26.0988C72.8998 28.5988 70.9998 30.3988 68.5998 30.3988C66.1998 30.3988 64.2998 28.4988 64.2998 26.0988ZM66.1992 26.0004C66.1992 27.5004 67.2992 28.6004 68.5992 28.6004C69.8992 28.6004 70.9992 27.5004 70.9992 26.0004C70.9992 24.4004 69.8992 23.4004 68.5992 23.4004C67.2992 23.4004 66.1992 24.5004 66.1992 26.0004ZM56.8994 26.0004C56.8994 27.5004 57.9994 28.6004 59.2994 28.6004C60.5994 28.6004 61.6994 27.5004 61.6994 26.0004C61.6994 24.4004 60.5994 23.4004 59.2994 23.4004C57.9994 23.4004 56.8994 24.5004 56.8994 26.0004ZM90 21.7988C92.2 21.7988 93.2 23.4988 93.6 24.4988L93.8 24.9988L88.1 27.3988C88.6 28.2988 89.2 28.6988 90.2 28.6988C91.2 28.6988 91.8 28.1988 92.3 27.4988L93.7 28.4988C93.3 29.1988 92.1 30.3988 90.2 30.3988C87.8 30.3988 86 28.4988 86 26.0988C86 23.4988 87.8 21.7988 90 21.7988ZM87.7998 25.9004C87.7998 24.3004 89.0998 23.4004 89.9998 23.4004C90.6998 23.4004 91.3998 23.8004 91.5998 24.3004L87.7998 25.9004ZM84.9996 30H83.0996V17.5H84.9996V30ZM80.0992 22.6992C79.5992 22.1992 78.7992 21.6992 77.7992 21.6992C75.6992 21.6992 73.6992 23.5992 73.6992 25.9992C73.6992 28.3992 75.5992 30.1992 77.7992 30.1992C78.7992 30.1992 79.5992 29.6992 79.9992 29.1992H80.0992V29.7992C80.0992 31.3992 79.1992 32.2992 77.7992 32.2992C76.6992 32.2992 75.8992 31.4992 75.6992 30.7992L74.0992 31.4992C74.5992 32.5992 75.7992 33.9992 77.8992 33.9992C80.0992 33.9992 81.8992 32.6992 81.8992 29.5992V21.9992H80.0992L80.0992 22.6992ZM75.5 26.0004C75.5 27.5004 76.6 28.6004 77.9 28.6004C79.2 28.6004 80.2 27.5004 80.2 26.0004C80.2 24.5004 79.2 23.4004 77.9 23.4004C76.6 23.4004 75.5 24.5004 75.5 26.0004ZM102.3 17.5H97.7998V30H99.6998V25.3H102.3C104.4 25.3 106.4 23.8 106.4 21.4C106.4 19 104.4 17.5 102.3 17.5ZM99.6992 23.4992H102.399C103.699 23.4992 104.499 22.3992 104.599 21.2992C104.599 20.3992 103.799 19.1992 102.399 19.1992H99.6992V23.4992ZM113.9 21.6992C112.5 21.6992 111.1 22.2992 110.6 23.5992L112.3 24.2992C112.7 23.5992 113.3 23.3992 114 23.3992C115 23.3992 115.9 23.9992 116 24.9992V25.0992C115.7 24.8992 114.9 24.5992 114.1 24.5992C112.3 24.5992 110.5 25.5992 110.5 27.3992C110.5 29.0992 112 30.1992 113.6 30.1992C114.9 30.1992 115.5 29.5992 116 28.9992H116.1V29.9992H117.9V25.1992C117.7 22.9992 116 21.6992 113.9 21.6992ZM112.199 27.4992C112.199 28.2992 113.099 28.5992 113.699 28.5992C114.699 28.5992 115.699 27.7992 115.899 26.5992C115.849 26.579 115.799 26.5588 115.75 26.5388C115.314 26.3608 114.918 26.1992 114.199 26.1992C113.299 26.1992 112.199 26.4992 112.199 27.4992ZM124.2 22L122.1 27.4H122L119.8 22H117.8L121.1 29.6L119.2 33.8H121.1L126.2 22H124.2ZM109.299 30H107.399V17.5H109.299V30Z" fill="white"/>
<path d="M10.9 7.5C10.6 7.8 10.5 8.3 10.5 8.9V31C10.5 31.6 10.7 32.1 11 32.4L11.1 32.5L23.5 20.1V19.9L10.9 7.5Z" fill="url(#paint0_linear_469_1076)"/>
<path d="M27.5004 24.2988L23.4004 20.1988V19.8988L27.5004 15.7988L27.6004 15.8988L32.5004 18.6988C33.9004 19.4988 33.9004 20.7988 32.5004 21.5988L27.5004 24.2988Z" fill="url(#paint1_linear_469_1076)"/>
<path d="M27.6004 24.2L23.4004 20L10.9004 32.5C11.4004 33 12.1004 33 13.0004 32.6L27.6004 24.2Z" fill="url(#paint2_linear_469_1076)"/>
<path d="M27.6004 15.7986L13.0004 7.49865C12.1004 6.99865 11.4004 7.09865 10.9004 7.59865L23.4004 19.9986L27.6004 15.7986H27.6004Z" fill="url(#paint3_linear_469_1076)"/>
<path opacity="0.2" d="M27.5004 24.0996L13.0004 32.2996C12.2004 32.7996 11.5004 32.6996 11.0004 32.2996L10.9004 32.3996L11.0004 32.4996C11.5004 32.8996 12.2004 32.9996 13.0004 32.4996L27.5004 24.0996Z" fill="black"/>
<path opacity="0.12" fill-rule="evenodd" clip-rule="evenodd" d="M27.5 24.1L32.5 21.3C33.1 20.9 33.5 20.5 33.5 20C33.5 20.5 33.2 21 32.5 21.4L27.6 24.2L27.5 24.1ZM10.5 30.9004C10.5 31.0421 10.5056 31.1782 10.518 31.3074C10.5062 31.2085 10.5 31.106 10.5 31.0004V30.9004ZM10.518 31.3074C10.5665 31.7118 10.7095 32.0552 10.9097 32.3004L10.518 31.3074ZM10.9097 32.3004H11V32.4004C10.9688 32.3692 10.9387 32.3358 10.9097 32.3004Z" fill="black"/>
<path opacity="0.25" d="M13 7.59929L32.5 18.6993C33.1 19.0993 33.5 19.4993 33.5 19.9993C33.5 19.4993 33.2 18.9993 32.5 18.5993L13 7.49929C11.6 6.69929 10.5 7.29929 10.5 8.89929V8.99929C10.5 7.49929 11.6 6.79929 13 7.59929Z" fill="white"/>
<defs>
<linearGradient id="paint0_linear_469_1076" x1="26.6633" y1="17.1525" x2="6.79524" y2="11.7805" gradientUnits="userSpaceOnUse">
<stop stop-color="#00A0FF"/>
<stop offset="0.007" stop-color="#00A1FF"/>
<stop offset="0.26" stop-color="#00BEFF"/>
<stop offset="0.512" stop-color="#00D2FF"/>
<stop offset="0.76" stop-color="#00DFFF"/>
<stop offset="1" stop-color="#00E3FF"/>
</linearGradient>
<linearGradient id="paint1_linear_469_1076" x1="34.3344" y1="11.8661" x2="10.1374" y2="11.8661" gradientUnits="userSpaceOnUse">
<stop stop-color="#FFE000"/>
<stop offset="0.409" stop-color="#FFBD00"/>
<stop offset="0.775" stop-color="#FFA500"/>
<stop offset="1" stop-color="#FF9C00"/>
</linearGradient>
<linearGradient id="paint2_linear_469_1076" x1="40.0715" y1="10.922" x2="24.1063" y2="-15.882" gradientUnits="userSpaceOnUse">
<stop stop-color="#FF3A44"/>
<stop offset="1" stop-color="#C31162"/>
</linearGradient>
<linearGradient id="paint3_linear_469_1076" x1="14.4123" y1="45.7262" x2="21.4856" y2="33.7399" gradientUnits="userSpaceOnUse">
<stop stop-color="#32A071"/>
<stop offset="0.069" stop-color="#2DA771"/>
<stop offset="0.476" stop-color="#15CF74"/>
<stop offset="0.801" stop-color="#06E775"/>
<stop offset="1" stop-color="#00F076"/>
</linearGradient>
</defs>
</svg>
