<svg width="136" height="40" viewBox="0 0 136 40" fill="none" xmlns="http://www.w3.org/2000/svg">
<path d="M130.5 40H5.5C2.7 40 0.5 37.8 0.5 35V5C0.5 2.2 2.7 0 5.5 0H130.5C133.3 0 135.5 2.2 135.5 5V35C135.5 37.8 133.3 40 130.5 40Z" fill="black"/>
<path fill-rule="evenodd" clip-rule="evenodd" d="M5.5 0H130.5C133.3 0 135.5 2.3 135.5 5V35C135.5 37.8 133.3 40 130.5 40H5.5C2.7 40 0.5 37.8 0.5 35V5C0.5 2.3 2.7 0 5.5 0ZM134.7 5C134.7 2.7 132.8 0.8 130.5 0.8H5.5C3.2 0.8 1.3 2.7 1.3 5V35C1.3 37.3 3.2 39.2 5.5 39.2H130.5C132.8 39.2 134.7 37.3 134.7 35V5Z" fill="#A6A6A6"/>
<path fill-rule="evenodd" clip-rule="evenodd" d="M47.2004 12.2004C47.7004 11.7004 47.9004 11.0004 47.9004 10.2004L47.9004 10.2004V9.80039H45.0004V10.6004H47.2004C47.2004 11.1004 47.0004 11.5004 46.7004 11.8004C46.2004 12.3004 45.7004 12.5004 45.0004 12.5004C44.4004 12.5004 43.9004 12.2004 43.4004 11.8004C42.9004 11.4004 42.7004 10.8004 42.7004 10.1004C42.7004 9.40039 42.9004 8.80039 43.4004 8.40039C43.8004 7.90039 44.4004 7.70039 45.0004 7.70039C45.7004 7.70039 46.2004 7.90039 46.6004 8.40039L47.1004 7.90039C46.9004 7.60039 46.6004 7.40039 46.2004 7.20039C45.8004 7.00039 45.4004 6.90039 45.0004 6.90039C44.1004 6.90039 43.4004 7.20039 42.8004 7.80039C42.2004 8.40039 41.9004 9.10039 41.9004 10.0004C41.9004 10.9004 42.2004 11.6004 42.8004 12.2004C43.4004 12.8004 44.1004 13.1004 45.0004 13.1004C45.9004 13.1004 46.6004 12.8004 47.2004 12.2004ZM49.8 7.70049H52.5V7.00049H49V13.0005H52.5V12.2005H49.8V10.3005H52.3V9.60049H49.8V7.70049ZM55.8008 13.0005H55.0008V7.70049H53.3008V7.00049H57.5008V7.70049H55.8008V13.0005ZM60.4004 7.00039V13.0004H61.2004V7.00039H60.4004ZM64.5004 13.0004H63.8004V7.70039H62.1004V7.00039H66.2004V7.70039H64.5004V13.0004ZM71.9008 13.1004C72.8008 13.1004 73.5008 12.8004 74.1008 12.2004C74.7008 11.6004 75.0008 10.9004 75.0008 10.0004C75.0008 9.10039 74.7008 8.40039 74.1008 7.80039C73.5008 7.20039 72.8008 6.90039 71.9008 6.90039C71.0008 6.90039 70.3008 7.20039 69.7008 7.80039C69.1008 8.40039 68.8008 9.10039 68.8008 10.0004C68.8008 10.9004 69.1008 11.6004 69.7008 12.2004C70.3008 12.8004 71.0008 13.1004 71.9008 13.1004ZM70.3004 11.7004C70.7004 12.1004 71.3004 12.4004 71.9004 12.4004C72.5004 12.4004 73.1004 12.2004 73.5004 11.7004C73.9004 11.3004 74.2004 10.7004 74.2004 10.0004C74.2004 9.30039 74.0004 8.70039 73.5004 8.30039C73.1004 7.90039 72.5004 7.60039 71.9004 7.60039C71.3004 7.60039 70.7004 7.80039 70.3004 8.30039C69.9004 8.70039 69.6004 9.30039 69.6004 10.0004C69.6004 10.7004 69.8004 11.3004 70.3004 11.7004ZM76.1004 7.00039V13.0004H76.8004V8.10039L79.9004 13.0004H80.7004V7.00039H79.9004V11.7004L77.0004 7.00039H76.1004Z" fill="white"/>
<path d="M47.9004 10.2004L47.8761 10.1034L47.8004 10.1223V10.2004H47.9004ZM47.2004 12.2004L47.1297 12.1297L47.2004 12.2004ZM47.9004 10.2004L47.9247 10.2974L48.0004 10.2785V10.2004H47.9004ZM47.9004 9.80039H48.0004V9.70039H47.9004V9.80039ZM45.0004 9.80039V9.70039H44.9004V9.80039H45.0004ZM45.0004 10.6004H44.9004V10.7004H45.0004V10.6004ZM47.2004 10.6004H47.3004V10.5004H47.2004V10.6004ZM46.7004 11.8004L46.7711 11.8711L46.7711 11.8711L46.7004 11.8004ZM43.4004 8.40039L43.4629 8.47848L43.4715 8.47154L43.4785 8.46286L43.4004 8.40039ZM46.6004 8.40039L46.5223 8.46286L46.5921 8.5501L46.6711 8.4711L46.6004 8.40039ZM47.1004 7.90039L47.1711 7.9711L47.2291 7.91313L47.1836 7.84492L47.1004 7.90039ZM46.2004 7.20039L46.2451 7.11095L46.2451 7.11095L46.2004 7.20039ZM42.8004 7.80039L42.8711 7.8711H42.8711L42.8004 7.80039ZM42.8004 12.2004L42.7297 12.2711L42.7297 12.2711L42.8004 12.2004ZM52.5 7.70049V7.80049H52.6V7.70049H52.5ZM49.8 7.70049V7.60049H49.7V7.70049H49.8ZM52.5 7.00049H52.6V6.90049H52.5V7.00049ZM49 7.00049V6.90049H48.9V7.00049H49ZM49 13.0005H48.9V13.1005H49V13.0005ZM52.5 13.0005V13.1005H52.6V13.0005H52.5ZM52.5 12.2005H52.6V12.1005H52.5V12.2005ZM49.8 12.2005H49.7V12.3005H49.8V12.2005ZM49.8 10.3005V10.2005H49.7V10.3005H49.8ZM52.3 10.3005V10.4005H52.4V10.3005H52.3ZM52.3 9.60049H52.4V9.50049H52.3V9.60049ZM49.8 9.60049H49.7V9.70049H49.8V9.60049ZM55.0008 13.0005H54.9008V13.1005H55.0008V13.0005ZM55.8008 13.0005V13.1005H55.9008V13.0005H55.8008ZM55.0008 7.70049H55.1008V7.60049H55.0008V7.70049ZM53.3008 7.70049H53.2008V7.80049H53.3008V7.70049ZM53.3008 7.00049V6.90049H53.2008V7.00049H53.3008ZM57.5008 7.00049H57.6008V6.90049H57.5008V7.00049ZM57.5008 7.70049V7.80049H57.6008V7.70049H57.5008ZM55.8008 7.70049V7.60049H55.7008V7.70049H55.8008ZM60.4004 13.0004H60.3004V13.1004H60.4004V13.0004ZM60.4004 7.00039V6.90039H60.3004V7.00039H60.4004ZM61.2004 13.0004V13.1004H61.3004V13.0004H61.2004ZM61.2004 7.00039H61.3004V6.90039H61.2004V7.00039ZM63.8004 13.0004H63.7004V13.1004H63.8004V13.0004ZM64.5004 13.0004V13.1004H64.6004V13.0004H64.5004ZM63.8004 7.70039H63.9004V7.60039H63.8004V7.70039ZM62.1004 7.70039H62.0004V7.80039H62.1004V7.70039ZM62.1004 7.00039V6.90039H62.0004V7.00039H62.1004ZM66.2004 7.00039H66.3004V6.90039H66.2004V7.00039ZM66.2004 7.70039V7.80039H66.3004V7.70039H66.2004ZM64.5004 7.70039V7.60039H64.4004V7.70039H64.5004ZM74.1008 12.2004L74.0301 12.1297L74.0301 12.1297L74.1008 12.2004ZM74.1008 7.80039L74.0301 7.8711L74.0301 7.8711L74.1008 7.80039ZM69.7008 7.80039L69.7715 7.8711V7.8711L69.7008 7.80039ZM69.7008 12.2004L69.7715 12.1297V12.1297L69.7008 12.2004ZM70.3004 11.7004L70.3715 11.6292L70.3629 11.6223L70.3004 11.7004ZM73.5004 11.7004L73.4293 11.6292L73.4223 11.6379L73.5004 11.7004ZM73.5004 8.30039L73.4293 8.37154L73.4379 8.37848L73.5004 8.30039ZM70.3004 8.30039L70.3715 8.37154L70.3785 8.36286L70.3004 8.30039ZM76.1004 13.0004H76.0004V13.1004H76.1004V13.0004ZM76.1004 7.00039V6.90039H76.0004V7.00039H76.1004ZM76.8004 13.0004V13.1004H76.9004V13.0004H76.8004ZM76.8004 8.10039L76.8849 8.04693L76.7004 7.75529V8.10039H76.8004ZM79.9004 13.0004L79.8159 13.0539L79.8453 13.1004H79.9004V13.0004ZM80.7004 13.0004V13.1004H80.8004V13.0004H80.7004ZM80.7004 7.00039H80.8004V6.90039H80.7004V7.00039ZM79.9004 7.00039V6.90039H79.8004V7.00039H79.9004ZM79.9004 11.7004L79.8153 11.7529L80.0004 12.0529V11.7004H79.9004ZM77.0004 7.00039L77.0855 6.94788L77.0562 6.90039H77.0004V7.00039ZM47.8004 10.2004C47.8004 10.985 47.6043 11.655 47.1297 12.1297L47.2711 12.2711C47.7965 11.7457 48.0004 11.0158 48.0004 10.2004H47.8004ZM47.8761 10.1034L47.8761 10.1034L47.9246 10.2974L47.9247 10.2974L47.8761 10.1034ZM47.8004 9.80039V10.2004H48.0004V9.80039H47.8004ZM45.0004 9.90039H47.9004V9.70039H45.0004V9.90039ZM45.1004 10.6004V9.80039H44.9004V10.6004H45.1004ZM47.2004 10.5004H45.0004V10.7004H47.2004V10.5004ZM46.7711 11.8711C47.0878 11.5544 47.3004 11.1297 47.3004 10.6004H47.1004C47.1004 11.0711 46.913 11.4464 46.6297 11.7297L46.7711 11.8711ZM45.0004 12.6004C45.3602 12.6004 45.6736 12.5489 45.9633 12.4304C46.253 12.3119 46.5138 12.1284 46.7711 11.8711L46.6297 11.7297C46.387 11.9724 46.1478 12.1389 45.8875 12.2453C45.6272 12.3518 45.3406 12.4004 45.0004 12.4004V12.6004ZM43.3379 11.8785C43.8421 12.2818 44.3649 12.6004 45.0004 12.6004V12.4004C44.4359 12.4004 43.9587 12.119 43.4629 11.7223L43.3379 11.8785ZM42.6004 10.1004C42.6004 10.8188 42.8062 11.4531 43.3379 11.8785L43.4629 11.7223C42.9946 11.3477 42.8004 10.782 42.8004 10.1004H42.6004ZM43.3379 8.3223C42.8062 8.74767 42.6004 9.38197 42.6004 10.1004H42.8004C42.8004 9.41881 42.9946 8.85311 43.4629 8.47848L43.3379 8.3223ZM45.0004 7.60039C44.3794 7.60039 43.7465 7.80774 43.3223 8.33792L43.4785 8.46286C43.8543 7.99305 44.4214 7.80039 45.0004 7.80039V7.60039ZM46.6785 8.33792C46.2557 7.80944 45.7241 7.60039 45.0004 7.60039V7.80039C45.6767 7.80039 46.1451 7.99134 46.5223 8.46286L46.6785 8.33792ZM47.0297 7.82968L46.5297 8.32968L46.6711 8.4711L47.1711 7.9711L47.0297 7.82968ZM46.1557 7.28983C46.5514 7.4877 46.832 7.67811 47.0172 7.95586L47.1836 7.84492C46.9688 7.52267 46.6494 7.31308 46.2451 7.11095L46.1557 7.28983ZM45.0004 7.00039C45.3831 7.00039 45.7679 7.09595 46.1557 7.28983L46.2451 7.11095C45.8329 6.90483 45.4177 6.80039 45.0004 6.80039V7.00039ZM42.8711 7.8711C43.4523 7.28989 44.1269 7.00039 45.0004 7.00039V6.80039C44.0739 6.80039 43.3485 7.11089 42.7297 7.72968L42.8711 7.8711ZM42.0004 10.0004C42.0004 9.12686 42.2899 8.45231 42.8711 7.8711L42.7297 7.72968C42.1109 8.34847 41.8004 9.07392 41.8004 10.0004H42.0004ZM42.8711 12.1297C42.2899 11.5485 42.0004 10.8739 42.0004 10.0004H41.8004C41.8004 10.9269 42.1109 11.6523 42.7297 12.2711L42.8711 12.1297ZM45.0004 13.0004C44.1269 13.0004 43.4523 12.7109 42.8711 12.1297L42.7297 12.2711C43.3485 12.8899 44.0739 13.2004 45.0004 13.2004V13.0004ZM47.1297 12.1297C46.5485 12.7109 45.8739 13.0004 45.0004 13.0004V13.2004C45.9269 13.2004 46.6523 12.8899 47.2711 12.2711L47.1297 12.1297ZM52.5 7.60049H49.8V7.80049H52.5V7.60049ZM52.4 7.00049V7.70049H52.6V7.00049H52.4ZM49 7.10049H52.5V6.90049H49V7.10049ZM49.1 13.0005V7.00049H48.9V13.0005H49.1ZM52.5 12.9005H49V13.1005H52.5V12.9005ZM52.4 12.2005V13.0005H52.6V12.2005H52.4ZM49.8 12.3005H52.5V12.1005H49.8V12.3005ZM49.7 10.3005V12.2005H49.9V10.3005H49.7ZM52.3 10.2005H49.8V10.4005H52.3V10.2005ZM52.2 9.60049V10.3005H52.4V9.60049H52.2ZM49.8 9.70049H52.3V9.50049H49.8V9.70049ZM49.7 7.70049V9.60049H49.9V7.70049H49.7ZM55.0008 13.1005H55.8008V12.9005H55.0008V13.1005ZM54.9008 7.70049V13.0005H55.1008V7.70049H54.9008ZM53.3008 7.80049H55.0008V7.60049H53.3008V7.80049ZM53.2008 7.00049V7.70049H53.4008V7.00049H53.2008ZM57.5008 6.90049H53.3008V7.10049H57.5008V6.90049ZM57.6008 7.70049V7.00049H57.4008V7.70049H57.6008ZM55.8008 7.80049H57.5008V7.60049H55.8008V7.80049ZM55.9008 13.0005V7.70049H55.7008V13.0005H55.9008ZM60.5004 13.0004V7.00039H60.3004V13.0004H60.5004ZM61.2004 12.9004H60.4004V13.1004H61.2004V12.9004ZM61.1004 7.00039V13.0004H61.3004V7.00039H61.1004ZM60.4004 7.10039H61.2004V6.90039H60.4004V7.10039ZM63.8004 13.1004H64.5004V12.9004H63.8004V13.1004ZM63.7004 7.70039V13.0004H63.9004V7.70039H63.7004ZM62.1004 7.80039H63.8004V7.60039H62.1004V7.80039ZM62.0004 7.00039V7.70039H62.2004V7.00039H62.0004ZM66.2004 6.90039H62.1004V7.10039H66.2004V6.90039ZM66.3004 7.70039V7.00039H66.1004V7.70039H66.3004ZM64.5004 7.80039H66.2004V7.60039H64.5004V7.80039ZM64.6004 13.0004V7.70039H64.4004V13.0004H64.6004ZM74.0301 12.1297C73.4489 12.7109 72.7743 13.0004 71.9008 13.0004V13.2004C72.8272 13.2004 73.5527 12.8899 74.1715 12.2711L74.0301 12.1297ZM74.9008 10.0004C74.9008 10.8739 74.6113 11.5485 74.0301 12.1297L74.1715 12.2711C74.7903 11.6523 75.1008 10.9269 75.1008 10.0004H74.9008ZM74.0301 7.8711C74.6113 8.45231 74.9008 9.12686 74.9008 10.0004H75.1008C75.1008 9.07392 74.7903 8.34847 74.1715 7.72968L74.0301 7.8711ZM71.9008 7.00039C72.7743 7.00039 73.4489 7.28989 74.0301 7.8711L74.1715 7.72968C73.5527 7.11089 72.8273 6.80039 71.9008 6.80039V7.00039ZM69.7715 7.8711C70.3527 7.28989 71.0273 7.00039 71.9008 7.00039V6.80039C70.9743 6.80039 70.2489 7.11089 69.6301 7.72968L69.7715 7.8711ZM68.9008 10.0004C68.9008 9.12686 69.1903 8.45231 69.7715 7.8711L69.6301 7.72968C69.0113 8.34847 68.7008 9.07392 68.7008 10.0004H68.9008ZM69.7715 12.1297C69.1903 11.5485 68.9008 10.8739 68.9008 10.0004H68.7008C68.7008 10.9269 69.0113 11.6523 69.6301 12.2711L69.7715 12.1297ZM71.9008 13.0004C71.0272 13.0004 70.3527 12.7109 69.7715 12.1297L69.6301 12.2711C70.2489 12.8899 70.9743 13.2004 71.9008 13.2004V13.0004ZM71.9004 12.3004C71.3316 12.3004 70.756 12.0145 70.3711 11.6297L70.2297 11.7711C70.6448 12.1862 71.2692 12.5004 71.9004 12.5004V12.3004ZM73.4223 11.6379C73.0464 12.1077 72.4794 12.3004 71.9004 12.3004V12.5004C72.5214 12.5004 73.1543 12.293 73.5785 11.7629L73.4223 11.6379ZM74.1004 10.0004C74.1004 10.6714 73.8127 11.2466 73.4297 11.6297L73.5711 11.7711C73.988 11.3542 74.3004 10.7294 74.3004 10.0004H74.1004ZM73.4379 8.37848C73.9062 8.75311 74.1004 9.31881 74.1004 10.0004H74.3004C74.3004 9.28197 74.0946 8.64767 73.5629 8.2223L73.4379 8.37848ZM71.9004 7.70039C72.4692 7.70039 73.0448 7.98625 73.4297 8.3711L73.5711 8.22968C73.1559 7.81453 72.5316 7.50039 71.9004 7.50039V7.70039ZM70.3785 8.36286C70.7543 7.89305 71.3214 7.70039 71.9004 7.70039V7.50039C71.2794 7.50039 70.6465 7.70774 70.2223 8.23792L70.3785 8.36286ZM69.7004 10.0004C69.7004 9.32938 69.988 8.75416 70.3711 8.3711L70.2297 8.22968C69.8127 8.64662 69.5004 9.27141 69.5004 10.0004H69.7004ZM70.3629 11.6223C69.8946 11.2477 69.7004 10.682 69.7004 10.0004H69.5004C69.5004 10.7188 69.7062 11.3531 70.2379 11.7785L70.3629 11.6223ZM76.2004 13.0004V7.00039H76.0004V13.0004H76.2004ZM76.8004 12.9004H76.1004V13.1004H76.8004V12.9004ZM76.7004 8.10039V13.0004H76.9004V8.10039H76.7004ZM79.9849 12.9469L76.8849 8.04693L76.7159 8.15385L79.8159 13.0539L79.9849 12.9469ZM80.7004 12.9004H79.9004V13.1004H80.7004V12.9004ZM80.6004 7.00039V13.0004H80.8004V7.00039H80.6004ZM79.9004 7.10039H80.7004V6.90039H79.9004V7.10039ZM80.0004 11.7004V7.00039H79.8004V11.7004H80.0004ZM76.9153 7.0529L79.8153 11.7529L79.9855 11.6479L77.0855 6.94788L76.9153 7.0529ZM76.1004 7.10039H77.0004V6.90039H76.1004V7.10039Z" fill="white"/>
<path fill-rule="evenodd" clip-rule="evenodd" d="M48.1996 23.0996V24.8996H52.4996C52.3996 25.8996 51.9996 26.6996 51.4996 27.1996C50.8996 27.7996 49.8996 28.4996 48.1996 28.4996C45.4996 28.4996 43.4996 26.3996 43.4996 23.6996C43.4996 20.9996 45.5996 18.8996 48.1996 18.8996C49.5996 18.8996 50.6996 19.4996 51.4996 20.1996L52.7996 18.8996C51.6996 17.8996 50.2996 17.0996 48.2996 17.0996C44.6996 17.0996 41.5996 20.0996 41.5996 23.6996C41.5996 27.2996 44.6996 30.2996 48.2996 30.2996C50.2996 30.2996 51.6996 29.6996 52.8996 28.3996C54.0996 27.1996 54.4996 25.4996 54.4996 24.1996C54.4996 23.7996 54.4996 23.3996 54.3996 23.0996H48.1996ZM59.3 21.7993C56.9 21.7993 55 23.5993 55 26.0993C55 28.4993 56.9 30.3993 59.3 30.3993C61.7 30.3993 63.6 28.5993 63.6 26.0993C63.6 23.4993 61.7 21.7993 59.3 21.7993ZM64.2996 26.0996C64.2996 23.5996 66.1996 21.7996 68.5996 21.7996C70.9996 21.7996 72.8996 23.4996 72.8996 26.0996C72.8996 28.5996 70.9996 30.3996 68.5996 30.3996C66.1996 30.3996 64.2996 28.4996 64.2996 26.0996ZM66.1992 25.9999C66.1992 27.4999 67.2992 28.5999 68.5992 28.5999C69.8992 28.5999 70.9992 27.4999 70.9992 25.9999C70.9992 24.3999 69.8992 23.3999 68.5992 23.3999C67.2992 23.3999 66.1992 24.4999 66.1992 25.9999ZM56.8996 25.9996C56.8996 27.4996 57.9996 28.5996 59.2996 28.5996C60.5996 28.5996 61.6996 27.4996 61.6996 25.9996C61.6996 24.3996 60.5996 23.3996 59.2996 23.3996C57.9996 23.3996 56.8996 24.4996 56.8996 25.9996ZM90 21.7993C92.2 21.7993 93.2 23.4993 93.6 24.4993L93.8 24.9993L88.1 27.3993C88.6 28.2993 89.2 28.6993 90.2 28.6993C91.2 28.6993 91.8 28.1993 92.3 27.4993L93.7 28.4993C93.3 29.1993 92.1 30.3993 90.2 30.3993C87.8 30.3993 86 28.4993 86 26.0993C86 23.4993 87.8 21.7993 90 21.7993ZM87.7996 25.8996C87.7996 24.2996 89.0996 23.3996 89.9996 23.3996C90.6996 23.3996 91.3996 23.7996 91.5996 24.2996L87.7996 25.8996ZM84.9996 29.9996H83.0996V17.4996H84.9996V29.9996ZM80.0992 22.6997C79.5992 22.1997 78.7992 21.6997 77.7992 21.6997C75.6992 21.6997 73.6992 23.5997 73.6992 25.9997C73.6992 28.3997 75.5992 30.1997 77.7992 30.1997C78.7992 30.1997 79.5992 29.6997 79.9992 29.1997H80.0992V29.7997C80.0992 31.3997 79.1992 32.2997 77.7992 32.2997C76.6992 32.2997 75.8992 31.4997 75.6992 30.7997L74.0992 31.4997C74.5992 32.5997 75.7992 33.9997 77.8992 33.9997C80.0992 33.9997 81.8992 32.6997 81.8992 29.5997V21.9997H80.0992L80.0992 22.6997ZM75.5 25.9999C75.5 27.4999 76.6 28.5999 77.9 28.5999C79.2 28.5999 80.2 27.4999 80.2 25.9999C80.2 24.4999 79.2 23.3999 77.9 23.3999C76.6 23.3999 75.5 24.4999 75.5 25.9999ZM102.3 17.4996H97.7996V29.9996H99.6996V25.2996H102.3C104.4 25.2996 106.4 23.7996 106.4 21.3996C106.4 18.9996 104.4 17.4996 102.3 17.4996ZM99.6992 23.4997H102.399C103.699 23.4997 104.499 22.3997 104.599 21.2997C104.599 20.3997 103.799 19.1997 102.399 19.1997H99.6992V23.4997ZM113.9 21.6997C112.5 21.6997 111.1 22.2997 110.6 23.5997L112.3 24.2997C112.7 23.5997 113.3 23.3997 114 23.3997C115 23.3997 115.9 23.9997 116 24.9997V25.0997C115.7 24.8997 114.9 24.5997 114.1 24.5997C112.3 24.5997 110.5 25.5997 110.5 27.3997C110.5 29.0997 112 30.1997 113.6 30.1997C114.9 30.1997 115.5 29.5997 116 28.9997H116.1V29.9997H117.9V25.1997C117.7 22.9997 116 21.6997 113.9 21.6997ZM112.199 27.4997C112.199 28.2997 113.099 28.5997 113.699 28.5997C114.699 28.5997 115.699 27.7997 115.899 26.5997L115.829 26.5714L115.75 26.5393C115.314 26.3613 114.918 26.1997 114.199 26.1997C113.299 26.1997 112.199 26.4997 112.199 27.4997ZM124.2 21.9996L122.1 27.3996H122L119.8 21.9996H117.8L121.1 29.5996L119.2 33.7996H121.1L126.2 21.9996H124.2ZM109.3 29.9996H107.4V17.4996H109.3V29.9996Z" fill="white"/>
<path d="M10.9 7.5C10.6 7.8 10.5 8.3 10.5 8.9V31C10.5 31.6 10.7 32.1 11 32.4L11.1 32.5L23.5 20.1V19.9L10.9 7.5Z" fill="url(#paint0_linear_686_13126)"/>
<path d="M27.5004 24.3008L23.4004 20.2008V19.9008L27.5004 15.8008L27.6004 15.9008L32.5004 18.7008C33.9004 19.5008 33.9004 20.8008 32.5004 21.6008L27.5004 24.3008Z" fill="url(#paint1_linear_686_13126)"/>
<path d="M27.6004 24.2L23.4004 20L10.9004 32.5C11.4004 33 12.1004 33 13.0004 32.6L27.6004 24.2Z" fill="url(#paint2_linear_686_13126)"/>
<path d="M27.6004 15.8006L13.0004 7.5006C12.1004 7.0006 11.4004 7.1006 10.9004 7.6006L23.4004 20.0006L27.6004 15.8006H27.6004Z" fill="url(#paint3_linear_686_13126)"/>
<path opacity="0.2" d="M27.5004 24.0996L13.0004 32.2996C12.2004 32.7996 11.5004 32.6996 11.0004 32.2996L10.9004 32.3996L11.0004 32.4996C11.5004 32.8996 12.2004 32.9996 13.0004 32.4996L27.5004 24.0996Z" fill="black"/>
<path opacity="0.12" fill-rule="evenodd" clip-rule="evenodd" d="M27.5 24.1L32.5 21.3C33.1 20.9 33.5 20.5 33.5 20C33.5 20.5 33.2 21 32.5 21.4L27.6 24.2L27.5 24.1ZM10.5 30.9C10.5 31.0417 10.5056 31.1778 10.518 31.307C10.5062 31.2081 10.5 31.1056 10.5 31V30.9ZM10.518 31.307C10.5665 31.7114 10.7095 32.0548 10.9097 32.3L10.518 31.307ZM10.9097 32.3H11V32.4C10.9688 32.3688 10.9387 32.3354 10.9097 32.3Z" fill="black"/>
<path opacity="0.25" d="M13 7.60027L32.5 18.7003C33.1 19.1003 33.5 19.5003 33.5 20.0003C33.5 19.5003 33.2 19.0003 32.5 18.6003L13 7.50027C11.6 6.70027 10.5 7.30027 10.5 8.90027V9.00027C10.5 7.50027 11.6 6.80027 13 7.60027Z" fill="white"/>
<defs>
<linearGradient id="paint0_linear_686_13126" x1="26.6633" y1="17.1525" x2="6.79524" y2="11.7805" gradientUnits="userSpaceOnUse">
<stop stop-color="#00A0FF"/>
<stop offset="0.007" stop-color="#00A1FF"/>
<stop offset="0.26" stop-color="#00BEFF"/>
<stop offset="0.512" stop-color="#00D2FF"/>
<stop offset="0.76" stop-color="#00DFFF"/>
<stop offset="1" stop-color="#00E3FF"/>
</linearGradient>
<linearGradient id="paint1_linear_686_13126" x1="34.3344" y1="11.868" x2="10.1374" y2="11.868" gradientUnits="userSpaceOnUse">
<stop stop-color="#FFE000"/>
<stop offset="0.409" stop-color="#FFBD00"/>
<stop offset="0.775" stop-color="#FFA500"/>
<stop offset="1" stop-color="#FF9C00"/>
</linearGradient>
<linearGradient id="paint2_linear_686_13126" x1="40.0715" y1="10.922" x2="24.1063" y2="-15.882" gradientUnits="userSpaceOnUse">
<stop stop-color="#FF3A44"/>
<stop offset="1" stop-color="#C31162"/>
</linearGradient>
<linearGradient id="paint3_linear_686_13126" x1="14.4123" y1="45.7281" x2="21.4856" y2="33.7418" gradientUnits="userSpaceOnUse">
<stop stop-color="#32A071"/>
<stop offset="0.069" stop-color="#2DA771"/>
<stop offset="0.476" stop-color="#15CF74"/>
<stop offset="0.801" stop-color="#06E775"/>
<stop offset="1" stop-color="#00F076"/>
</linearGradient>
</defs>
</svg>
