<svg width="136" height="40" viewBox="0 0 136 40" fill="none" xmlns="http://www.w3.org/2000/svg">
<path d="M134.604 35.2771C134.604 36.2939 134.199 37.2689 133.48 37.9875C132.76 38.7061 131.785 39.1092 130.768 39.1082L5.23072 39.1082C3.11195 39.1104 1.39241 37.3953 1.38965 35.2771V4.7257C1.39241 2.60669 3.11115 0.890198 5.23072 0.889648H130.767C132.886 0.889648 134.603 2.60727 134.603 4.72571L134.604 35.2771L134.604 35.2771Z" fill="white"/>
<path d="M130.768 40H5.23155C2.62273 40 0.505517 37.8878 0.500002 35.2787L0.5 4.7273C0.503861 2.11691 2.62048 0.00220264 5.23156 0L130.767 4.76968e-07C133.378 0.0033011 135.494 2.11737 135.499 4.7273V35.2777C135.501 37.8824 133.375 40 130.768 40H130.768Z" fill="#A6A6A6"/>
<path d="M134.604 35.2771C134.604 36.2939 134.199 37.2689 133.48 37.9875C132.76 38.7061 131.785 39.1092 130.768 39.1082L5.23072 39.1082C3.11195 39.1104 1.39241 37.3953 1.38965 35.2771V4.7257C1.39241 2.60669 3.11115 0.890198 5.23072 0.889648H130.767C132.886 0.889648 134.603 2.60727 134.603 4.72571L134.604 35.2771L134.604 35.2771Z" fill="black"/>
<path fill-rule="evenodd" clip-rule="evenodd" d="M28.7496 6.21924C28.9157 7.72865 28.3174 9.21606 27.4429 10.3094C26.5304 11.3857 25.0707 12.2089 23.6489 12.1029C23.4628 10.6505 24.1832 9.10603 24.9896 8.16377C25.9011 7.09448 27.484 6.27525 28.7496 6.21924ZM33.4038 14.9265C33.2451 15.0212 30.6156 16.5902 30.6444 19.79H30.6444C30.6784 23.653 34.0262 24.9314 34.0663 24.9454C34.0463 25.0354 33.542 26.7899 32.2863 28.5694C31.2377 30.1368 30.1391 31.6702 28.3942 31.6972C27.5646 31.7163 27.0045 31.4781 26.4208 31.2298C25.8119 30.9708 25.1775 30.701 24.1849 30.701C23.133 30.701 22.4705 30.9796 21.8317 31.2482C21.2789 31.4806 20.7439 31.7056 19.9897 31.7363C18.3278 31.7973 17.0581 30.0638 15.9715 28.5094C13.7993 25.3375 12.1084 19.5709 14.3756 15.6468C15.4742 13.7223 17.4773 12.483 19.6185 12.45C20.5613 12.4307 21.4656 12.794 22.2584 13.1124C22.8646 13.3559 23.4056 13.5733 23.8487 13.5733C24.2379 13.5733 24.7638 13.3646 25.3766 13.1215C26.3424 12.7382 27.5243 12.2693 28.7284 12.3959C29.5518 12.4199 31.8951 12.721 33.4069 14.9246L33.4038 14.9265Z" fill="white"/>
<path fill-rule="evenodd" clip-rule="evenodd" d="M87.404 30.5443C88.1915 29.8332 88.5876 28.9119 88.5876 27.7786C88.5876 26.8593 88.3175 26.0881 87.7742 25.47C87.2349 24.8518 86.3925 24.3136 85.2458 23.8515C84.3113 23.4834 83.665 23.1403 83.3108 22.8252C82.9026 22.4831 82.6975 22.047 82.6975 21.5219C82.6975 21.0457 82.8776 20.6446 83.2328 20.3155C83.655 19.9474 84.2453 19.7624 84.9977 19.7624C85.9502 19.7624 86.8017 19.9664 87.5561 20.3745L88.0914 18.6361C87.29 18.215 86.2804 18.0039 85.0688 18.0039C83.712 18.0039 82.6214 18.353 81.799 19.0512C80.9765 19.7504 80.5643 20.6446 80.5643 21.7369C80.5643 23.4094 81.7309 24.6807 84.0622 25.55C84.9197 25.8651 85.53 26.2082 85.8992 26.5763C86.2664 26.9454 86.4535 27.3985 86.4535 27.9397C86.4535 28.5438 86.2274 29.0279 85.7802 29.39C85.3339 29.7511 84.7086 29.9332 83.9041 29.9332C82.7855 29.9332 81.758 29.6571 80.8225 29.103L80.3292 30.8804C81.1957 31.4336 82.3443 31.7097 83.7771 31.7097C85.3279 31.7097 86.5376 31.3206 87.404 30.5443ZM54.1941 31.5126H51.9219L50.6772 27.6025H46.3508L45.1652 31.5126H42.953L47.2403 18.201H49.8878L54.1941 31.5126ZM50.3024 25.9622L49.1768 22.4862C49.0577 22.1311 48.8336 21.2949 48.5054 19.9785H48.4654C48.3333 20.5447 48.1222 21.3809 47.833 22.4862L46.7264 25.9622H50.3024ZM63.8673 30.4653C64.7548 29.5181 65.198 28.2277 65.198 26.5953C65.198 25.1339 64.8188 23.9555 64.0634 23.0583C63.307 22.163 62.3615 21.7159 61.2289 21.7159C59.7801 21.7159 58.7005 22.2891 57.9891 23.4354H57.9491L57.83 21.914H55.954C56.0061 22.9923 56.0331 24.0436 56.0331 25.0689V35.4047H58.1662V30.3683C58.7215 31.2766 59.636 31.7297 60.9077 31.7297C62.0853 31.7297 63.0729 31.3086 63.8673 30.4653ZM63.0246 26.673C63.0246 25.7387 62.8144 24.9685 62.3922 24.3613C61.931 23.7301 61.3116 23.4141 60.5352 23.4141C60.0089 23.4141 59.5307 23.5901 59.1034 23.9372C58.6752 24.2873 58.3951 24.7444 58.264 25.3106C58.2055 25.5223 58.1722 25.7402 58.1649 25.9598V27.5612C58.1649 28.2584 58.379 28.8475 58.8073 29.3297C59.2355 29.8098 59.7918 30.0509 60.4762 30.0509C61.2796 30.0509 61.9049 29.7398 62.3522 29.1226C62.8004 28.5035 63.0246 27.6872 63.0246 26.673ZM74.9103 30.4653C75.7977 29.5181 76.241 28.2277 76.241 26.5953C76.241 25.1339 75.8608 23.9555 75.1064 23.0583C74.348 22.163 73.4025 21.7159 72.2709 21.7159C70.8211 21.7159 69.7415 22.2891 69.0311 23.4354H68.9911L68.872 21.914H66.996C67.048 22.9923 67.0751 24.0436 67.0751 25.0689V35.4047H69.2082V30.3683C69.7635 31.2766 70.678 31.7297 71.9497 31.7297C73.1283 31.7297 74.1149 31.3086 74.9103 30.4653ZM74.0666 26.673C74.0666 25.7387 73.8555 24.9685 73.4332 24.3613C72.972 23.7301 72.3546 23.4141 71.5782 23.4141C71.0519 23.4141 70.5737 23.5901 70.1445 23.9372C69.7162 24.2873 69.4371 24.7444 69.306 25.3106C69.241 25.5747 69.2059 25.7897 69.2059 25.9598V27.5612C69.2059 28.2584 69.4211 28.8475 69.8473 29.3297C70.2755 29.8088 70.8318 30.0509 71.5182 30.0509C72.3226 30.0509 72.948 29.7398 73.3942 29.1226C73.8425 28.5035 74.0666 27.6872 74.0666 26.673ZM95.6585 23.5144H93.3072V28.1747C93.3072 29.36 93.7214 29.9512 94.5519 29.9512C94.9331 29.9512 95.2492 29.9192 95.4994 29.8522L95.5584 31.4716C95.1382 31.6287 94.5849 31.7077 93.8995 31.7077C93.0571 31.7077 92.3987 31.4506 91.9235 30.9365C91.4502 30.4223 91.2121 29.5611 91.2121 28.3487V23.5104H89.8113V21.91H91.2121V20.1525L93.3072 19.5203V21.91H95.6585V23.5144H95.6585ZM104.981 30.2681C105.824 29.3208 106.246 28.1095 106.246 26.6341C106.246 25.1977 105.839 24.0274 105.02 23.1211C104.164 22.1869 103.032 21.7188 101.623 21.7188C100.161 21.7188 98.9988 22.1929 98.1354 23.1412C97.2739 24.0884 96.8417 25.3067 96.8417 26.7942C96.8417 28.2155 97.2599 29.3939 98.0963 30.3291C98.9328 31.2624 100.054 31.7295 101.465 31.7295C102.927 31.7295 104.1 31.2434 104.981 30.2681ZM104.035 26.6833C104.035 25.804 103.845 25.0498 103.464 24.4187C103.016 23.6565 102.376 23.2754 101.547 23.2754C100.692 23.2754 100.037 23.6565 99.5906 24.4187C99.2084 25.0498 99.0183 25.8171 99.0183 26.7233C99.0183 27.6035 99.2084 28.3598 99.5906 28.9889C100.052 29.7511 100.695 30.1322 101.529 30.1322C102.344 30.1322 102.983 29.7431 103.446 28.9699C103.838 28.3237 104.035 27.5645 104.035 26.6833ZM112.51 23.7304C112.736 23.7296 112.961 23.7494 113.183 23.7894L113.181 21.7548C113.023 21.7298 112.844 21.7158 112.647 21.7158C112.091 21.7166 111.551 21.8969 111.105 22.23C110.619 22.6111 110.265 23.1202 110.039 23.7514H109.98L109.902 21.9149H108.044C108.087 22.9216 108.108 23.9291 108.106 24.9367V31.5125H110.239V26.4761C110.239 25.7129 110.417 25.0807 110.771 24.5806C111.18 24.0125 111.76 23.7304 112.51 23.7304ZM122.723 26.2592C122.729 26.5834 122.702 26.9073 122.645 27.2264H116.246C116.27 28.1747 116.58 28.9009 117.174 29.401C117.713 29.8472 118.411 30.0712 119.267 30.0712C120.215 30.0712 121.079 29.9212 121.857 29.6181L122.191 31.0975C121.282 31.4936 120.21 31.6907 118.972 31.6907C117.483 31.6907 116.315 31.2526 115.464 30.3783C114.616 29.5031 114.19 28.3267 114.19 26.8533C114.19 25.4069 114.586 24.2016 115.377 23.2403C116.206 22.2141 117.325 21.7009 118.734 21.7009C120.118 21.7009 121.165 22.2141 121.877 23.2403C122.44 24.0536 122.723 25.0619 122.723 26.2592ZM120.275 24.0665C120.564 24.5276 120.704 25.0728 120.689 25.706L116.247 25.704C116.312 25.0608 116.523 24.5066 116.878 24.0455C117.311 23.4653 117.879 23.1763 118.576 23.1763C119.338 23.1763 119.906 23.4724 120.275 24.0665Z" fill="white"/>
<path fill-rule="evenodd" clip-rule="evenodd" d="M71.6285 13.4371H70.579V6.55518H71.6285V13.4371ZM44.202 13.4171C44.6293 13.4661 45.1425 13.4951 45.7359 13.4951C48.2502 13.4951 49.5809 12.2727 49.5809 10.0101C49.5809 8.04859 48.4543 6.84525 46.008 6.84525C45.4034 6.84353 44.7995 6.88901 44.202 6.98129V13.4171ZM45.2499 7.73843C45.483 7.69041 45.7642 7.67041 46.0943 7.67041C47.6482 7.67041 48.4736 8.51564 48.4736 10.0391C48.4736 11.7475 47.5611 12.6598 45.9583 12.6598C45.6181 12.6598 45.376 12.6508 45.2499 12.6308V7.73843ZM53.0914 13.5444C51.7127 13.5444 50.8192 12.5151 50.8192 11.1177C50.8192 9.66133 51.7317 8.62305 53.1695 8.62305C54.5282 8.62305 55.4417 9.60332 55.4417 11.0407C55.4417 12.5151 54.5002 13.5444 53.0914 13.5444ZM51.8895 11.0871C51.8895 10.0969 52.3748 9.38867 53.1322 9.38867C53.8696 9.38867 54.3549 10.1069 54.3549 11.0671C54.3549 12.0094 53.8596 12.7666 53.1222 12.7666C52.3848 12.7666 51.8895 12.0584 51.8895 11.0871ZM63.3044 8.71977L61.8286 13.4371H60.867L60.2557 11.3885C60.1037 10.8874 59.9771 10.379 59.8765 9.86509L59.8565 9.86509C59.7794 10.3792 59.6334 10.8944 59.4783 11.3885L58.8279 13.4371H57.8564L56.4677 8.71977H57.5452L58.0795 10.9624C58.2056 11.4965 58.3117 12.0007 58.3997 12.4768H58.4197C58.4968 12.0797 58.6228 11.5836 58.8079 10.9724L59.4783 8.72077H60.3327L60.9741 10.9244C61.1292 11.4585 61.2552 11.9827 61.3533 12.4778H61.3813C61.4494 11.9927 61.5564 11.4775 61.7015 10.9244L62.2748 8.72077L63.3044 8.71977ZM67.6891 13.4374H68.7377H68.7377L68.7387 10.6126C68.7387 9.38025 68.0883 8.62305 67.0978 8.62305C66.4564 8.62305 65.8841 8.94313 65.602 9.44727H65.573L65.5239 8.71907H64.6014C64.6304 9.2042 64.6405 9.65133 64.6405 10.0684V13.4374H65.689V10.6316C65.689 10.0104 66.1163 9.47628 66.7376 9.47628C67.3689 9.47628 67.6891 9.89439 67.6891 10.7286V13.4374ZM73.1797 11.1174C73.1797 12.5148 74.0742 13.5441 75.4519 13.5441C76.8597 13.5441 77.8022 12.5148 77.8012 11.0404C77.8012 9.60302 76.8887 8.62275 75.529 8.62275C74.0922 8.62275 73.1797 9.66103 73.1797 11.1174ZM75.4906 9.38867C74.7332 9.38867 74.2479 10.0969 74.2479 11.0871C74.2479 12.0584 74.7442 12.7666 75.4796 12.7666C76.218 12.7666 76.7122 12.0094 76.7122 11.0671C76.7133 10.1069 76.229 9.38867 75.4906 9.38867ZM81.8594 12.8939L81.9354 13.4371H81.9354L82.8809 13.4381C82.8339 13.157 82.8129 12.7879 82.8129 12.3118V10.5743C82.8129 9.27292 82.1906 8.62275 80.9579 8.62275C80.3185 8.62275 79.7742 8.75878 79.338 9.03086L79.5511 9.72004C79.9103 9.48698 80.3185 9.36995 80.7838 9.36995C81.4341 9.36995 81.7633 9.68103 81.7633 10.3022V10.3892C80.0154 10.3892 79.0058 10.9914 79.0058 12.1557C79.0058 12.9519 79.6061 13.5441 80.4516 13.5441C81.0439 13.5441 81.5112 13.331 81.8314 12.8939H81.8594ZM81.7918 11.0874C80.6272 11.0874 80.0428 11.3695 80.0428 12.0387C80.0428 12.5338 80.344 12.7759 80.7622 12.7759C81.2955 12.7759 81.7918 12.3688 81.7918 11.8156V11.0874ZM87.8556 12.6799L87.9046 13.4371H88.8382C88.8101 13.049 88.7991 12.6218 88.7991 12.1657V6.55518H87.7495V9.26292H87.7285C87.4764 8.8348 87.0291 8.62174 86.3978 8.62174C85.2052 8.62174 84.3317 9.66103 84.3317 11.1364C84.3317 12.5438 85.1741 13.5441 86.3118 13.5441C87.0192 13.5441 87.5254 13.252 87.8266 12.6799H87.8556ZM87.7495 10.6613C87.7495 10.0011 87.3123 9.43797 86.645 9.43797C85.8675 9.43797 85.3923 10.1272 85.3923 11.0974C85.3923 12.0487 85.8855 12.6999 86.624 12.6999C87.2833 12.6999 87.7495 12.1267 87.7495 11.4475V10.6613ZM93.1825 11.1174C93.1825 12.5148 94.076 13.5441 95.4537 13.5441C96.8635 13.5441 97.805 12.5148 97.804 11.0404C97.804 9.60302 96.8915 8.62275 95.5318 8.62275C94.095 8.62275 93.1825 9.66103 93.1825 11.1174ZM95.4928 9.38896C94.7363 9.38896 94.2511 10.0971 94.2511 11.0874C94.2511 12.0587 94.7463 12.7669 95.4827 12.7669C96.2211 12.7669 96.7154 12.0097 96.7154 11.0674C96.7174 10.1072 96.2321 9.38896 95.4928 9.38896ZM102.393 13.4374H103.443V10.6116C103.443 9.37928 102.791 8.62207 101.801 8.62207C101.161 8.62207 100.587 8.94316 100.306 9.4473H100.277L100.228 8.7191H99.3055C99.3346 9.20423 99.3446 9.65135 99.3446 10.0685V13.4374H100.394V10.6316C100.394 10.0105 100.82 9.47631 101.442 9.47631C102.073 9.47631 102.393 9.89442 102.393 10.7287V13.4374ZM110.497 9.50597H109.344V11.7966C109.344 12.3798 109.546 12.6708 109.954 12.6708C110.139 12.6708 110.294 12.6508 110.419 12.6218L110.448 13.418C110.245 13.4961 109.973 13.5351 109.635 13.5351C108.809 13.5351 108.314 13.079 108.314 11.8846V9.50597H107.626V8.71976H108.314V7.85552L109.344 7.54443V8.71876H110.497V9.50597ZM115.002 13.4371H116.049V10.6313C116.049 9.39796 115.439 8.62174 114.44 8.62174C113.83 8.62174 113.352 8.87481 113.022 9.38896H113.001V6.55518H111.953V13.4371H113.001V10.5933C113.001 9.84608 113.507 9.47698 114.05 9.47698C114.682 9.47698 115.002 9.90409 115.002 10.7483V13.4371ZM121.736 11.3305H118.59C118.61 12.2238 119.201 12.7279 120.076 12.7279C120.542 12.7279 120.97 12.6499 121.348 12.5049L121.511 13.2331C121.065 13.4271 120.54 13.5241 119.928 13.5241C118.452 13.5241 117.579 12.5919 117.579 11.1465C117.579 9.70009 118.473 8.61279 119.81 8.61279C121.016 8.61279 121.772 9.50604 121.772 10.8554C121.779 11.0147 121.767 11.1741 121.736 11.3305ZM119.737 9.34082C119.135 9.34082 118.659 9.86497 118.591 10.5832L119.737 9.34082ZM118.591 10.5832H120.775H118.591Z" fill="white"/>
</svg>
