<svg width="136" height="40" viewBox="0 0 136 40" fill="none" xmlns="http://www.w3.org/2000/svg">
<path d="M134.854 35.2771C134.854 36.2939 134.449 37.2689 133.73 37.9875C133.01 38.7061 132.035 39.1092 131.018 39.1082L5.48072 39.1082C3.36195 39.1104 1.64241 37.3953 1.63965 35.2771V4.7257C1.64241 2.60669 3.36115 0.890198 5.48072 0.889648H131.017C133.136 0.889648 134.853 2.60727 134.853 4.72571L134.854 35.2771L134.854 35.2771Z" fill="white"/>
<path d="M131.018 40H5.48155C2.87273 40 0.755517 37.8878 0.750002 35.2787L0.75 4.7273C0.753861 2.11691 2.87048 0.00220264 5.48156 0L131.017 4.76968e-07C133.628 0.0033011 135.744 2.11737 135.749 4.7273V35.2777C135.751 37.8824 133.625 40 131.018 40H131.018Z" fill="#A6A6A6"/>
<path d="M134.854 35.2771C134.854 36.2939 134.449 37.2689 133.73 37.9875C133.01 38.7061 132.035 39.1092 131.018 39.1082L5.48072 39.1082C3.36195 39.1104 1.64241 37.3953 1.63965 35.2771V4.7257C1.64241 2.60669 3.36115 0.890198 5.48072 0.889648H131.017C133.136 0.889648 134.853 2.60727 134.853 4.72571L134.854 35.2771L134.854 35.2771Z" fill="black"/>
<path fill-rule="evenodd" clip-rule="evenodd" d="M28.9995 6.21924C29.1656 7.72865 28.5673 9.21606 27.6928 10.3094C26.7803 11.3857 25.3205 12.2089 23.8987 12.1029C23.7127 10.6505 24.433 9.10603 25.2395 8.16377C26.151 7.09448 27.7338 6.27525 28.9995 6.21924ZM33.6536 14.9265C33.495 15.0212 30.8655 16.5902 30.8943 19.79H30.8943C30.9283 23.653 34.2761 24.9314 34.3161 24.9454C34.2961 25.0354 33.7919 26.7899 32.5362 28.5694C31.4876 30.1368 30.389 31.6702 28.6441 31.6972C27.8145 31.7163 27.2543 31.4781 26.6707 31.2298C26.0618 30.9708 25.4273 30.701 24.4348 30.701C23.3829 30.701 22.7204 30.9796 22.0815 31.2482C21.5288 31.4806 20.9937 31.7056 20.2395 31.7363C18.5776 31.7973 17.308 30.0638 16.2214 28.5094C14.0492 25.3375 12.3583 19.5709 14.6255 15.6468C15.7241 13.7223 17.7272 12.483 19.8683 12.45C20.8112 12.4307 21.7155 12.794 22.5083 13.1124C23.1145 13.3559 23.6555 13.5733 24.0986 13.5733C24.4878 13.5733 25.0136 13.3646 25.6265 13.1215C26.5923 12.7382 27.7742 12.2693 28.9783 12.3959C29.8017 12.4199 32.145 12.721 33.6568 14.9246L33.6536 14.9265Z" fill="white"/>
<path fill-rule="evenodd" clip-rule="evenodd" d="M87.6541 30.5443C88.4416 29.8332 88.8378 28.9119 88.8378 27.7786C88.8378 26.8593 88.5676 26.0881 88.0243 25.47C87.485 24.8518 86.6426 24.3136 85.496 23.8515C84.5615 23.4834 83.9151 23.1403 83.5609 22.8252C83.1527 22.4831 82.9476 22.047 82.9476 21.5219C82.9476 21.0457 83.1277 20.6446 83.4829 20.3155C83.9051 19.9474 84.4954 19.7624 85.2478 19.7624C86.2003 19.7624 87.0518 19.9664 87.8062 20.3745L88.3415 18.6361C87.5401 18.215 86.5305 18.0039 85.3189 18.0039C83.9622 18.0039 82.8716 18.353 82.0491 19.0512C81.2267 19.7504 80.8145 20.6446 80.8145 21.7369C80.8145 23.4094 81.9811 24.6807 84.3123 25.55C85.1698 25.8651 85.7801 26.2082 86.1493 26.5763C86.5165 26.9454 86.7036 27.3985 86.7036 27.9397C86.7036 28.5438 86.4775 29.0279 86.0303 29.39C85.584 29.7511 84.9587 29.9332 84.1543 29.9332C83.0356 29.9332 82.0081 29.6571 81.0726 29.103L80.5793 30.8804C81.4458 31.4336 82.5944 31.7097 84.0272 31.7097C85.578 31.7097 86.7877 31.3206 87.6541 30.5443ZM54.4442 31.5126H52.172L50.9273 27.6025H46.601L45.4153 31.5126H43.2031L47.4904 18.201H50.1379L54.4442 31.5126ZM50.5525 25.9622L49.4269 22.4862C49.3078 22.1311 49.0837 21.2949 48.7555 19.9785H48.7155C48.5834 20.5447 48.3723 21.3809 48.0831 22.4862L46.9766 25.9622H50.5525ZM64.1174 30.4653C65.0049 29.5181 65.4482 28.2277 65.4482 26.5953C65.4482 25.1339 65.0689 23.9555 64.3135 23.0583C63.5571 22.163 62.6116 21.7159 61.479 21.7159C60.0302 21.7159 58.9506 22.2891 58.2393 23.4354H58.1992L58.0802 21.914H56.2042C56.2562 22.9923 56.2832 24.0436 56.2832 25.0689V35.4047H58.4164V30.3683C58.9717 31.2766 59.8862 31.7297 61.1578 31.7297C62.3354 31.7297 63.323 31.3086 64.1174 30.4653ZM63.2747 26.673C63.2747 25.7387 63.0646 24.9685 62.6423 24.3613C62.1811 23.7301 61.5617 23.4141 60.7853 23.4141C60.259 23.4141 59.7808 23.5901 59.3535 23.9372C58.9253 24.2873 58.6452 24.7444 58.5141 25.3106C58.4556 25.5223 58.4223 25.7402 58.415 25.9598V27.5612C58.415 28.2584 58.6292 28.8475 59.0574 29.3297C59.4856 29.8098 60.0419 30.0509 60.7263 30.0509C61.5297 30.0509 62.1551 29.7398 62.6023 29.1226C63.0506 28.5035 63.2747 27.6872 63.2747 26.673ZM75.1604 30.4653C76.0479 29.5181 76.4911 28.2277 76.4911 26.5953C76.4911 25.1339 76.1109 23.9555 75.3565 23.0583C74.5981 22.163 73.6526 21.7159 72.521 21.7159C71.0712 21.7159 69.9916 22.2891 69.2812 23.4354H69.2412L69.1221 21.914H67.2461C67.2982 22.9923 67.3252 24.0436 67.3252 25.0689V35.4047H69.4583V30.3683C70.0136 31.2766 70.9281 31.7297 72.1998 31.7297C73.3784 31.7297 74.365 31.3086 75.1604 30.4653ZM74.3167 26.673C74.3167 25.7387 74.1056 24.9685 73.6833 24.3613C73.2221 23.7301 72.6048 23.4141 71.8284 23.4141C71.3021 23.4141 70.8238 23.5901 70.3946 23.9372C69.9664 24.2873 69.6872 24.7444 69.5561 25.3106C69.4911 25.5747 69.4561 25.7897 69.4561 25.9598V27.5612C69.4561 28.2584 69.6712 28.8475 70.0974 29.3297C70.5256 29.8088 71.082 30.0509 71.7683 30.0509C72.5728 30.0509 73.1981 29.7398 73.6443 29.1226C74.0926 28.5035 74.3167 27.6872 74.3167 26.673ZM95.9086 23.5144H93.5573V28.1747C93.5573 29.36 93.9716 29.9512 94.802 29.9512C95.1832 29.9512 95.4994 29.9192 95.7495 29.8522L95.8086 31.4716C95.3883 31.6287 94.835 31.7077 94.1497 31.7077C93.3072 31.7077 92.6489 31.4506 92.1736 30.9365C91.7003 30.4223 91.4622 29.5611 91.4622 28.3487V23.5104H90.0615V21.91H91.4622V20.1525L93.5573 19.5203V21.91H95.9086V23.5144H95.9086ZM105.231 30.2681C106.074 29.3208 106.496 28.1095 106.496 26.6341C106.496 25.1977 106.089 24.0274 105.27 23.1211C104.414 22.1869 103.282 21.7188 101.873 21.7188C100.412 21.7188 99.2489 22.1929 98.3855 23.1412C97.524 24.0884 97.0918 25.3067 97.0918 26.7942C97.0918 28.2155 97.51 29.3939 98.3465 30.3291C99.1829 31.2624 100.305 31.7295 101.715 31.7295C103.177 31.7295 104.35 31.2434 105.231 30.2681ZM104.285 26.6833C104.285 25.804 104.095 25.0498 103.714 24.4187C103.267 23.6565 102.626 23.2754 101.797 23.2754C100.942 23.2754 100.287 23.6565 99.8407 24.4187C99.4585 25.0498 99.2684 25.8171 99.2684 26.7233C99.2684 27.6035 99.4585 28.3598 99.8407 28.9889C100.302 29.7511 100.945 30.1322 101.779 30.1322C102.594 30.1322 103.234 29.7431 103.696 28.9699C104.088 28.3237 104.285 27.5645 104.285 26.6833ZM112.76 23.7304C112.986 23.7296 113.211 23.7494 113.433 23.7894L113.431 21.7548C113.273 21.7298 113.095 21.7158 112.897 21.7158C112.342 21.7166 111.801 21.8969 111.356 22.23C110.869 22.6111 110.515 23.1202 110.289 23.7514H110.23L110.152 21.9149H108.294C108.337 22.9216 108.358 23.9291 108.356 24.9367V31.5125H110.489V26.4761C110.489 25.7129 110.667 25.0807 111.021 24.5806C111.43 24.0125 112.01 23.7304 112.76 23.7304ZM122.973 26.2592C122.979 26.5834 122.952 26.9073 122.895 27.2264H116.496C116.52 28.1747 116.83 28.9009 117.424 29.401C117.964 29.8472 118.661 30.0712 119.517 30.0712C120.465 30.0712 121.329 29.9212 122.107 29.6181L122.441 31.0975C121.532 31.4936 120.46 31.6907 119.222 31.6907C117.733 31.6907 116.565 31.2526 115.714 30.3783C114.866 29.5031 114.441 28.3267 114.441 26.8533C114.441 25.4069 114.836 24.2016 115.627 23.2403C116.456 22.2141 117.575 21.7009 118.984 21.7009C120.368 21.7009 121.415 22.2141 122.127 23.2403C122.69 24.0536 122.973 25.0619 122.973 26.2592ZM120.525 24.0665C120.814 24.5276 120.954 25.0728 120.939 25.706L116.497 25.704C116.562 25.0608 116.773 24.5066 117.128 24.0455C117.561 23.4653 118.129 23.1763 118.826 23.1763C119.588 23.1763 120.156 23.4724 120.525 24.0665Z" fill="white"/>
<path fill-rule="evenodd" clip-rule="evenodd" d="M71.8787 13.4371H70.8291V6.55518H71.8787V13.4371ZM44.4521 13.4171C44.8794 13.4661 45.3927 13.4951 45.986 13.4951C48.5003 13.4951 49.8311 12.2727 49.8311 10.0101C49.8311 8.04859 48.7045 6.84525 46.2581 6.84525C45.6535 6.84353 45.0497 6.88901 44.4521 6.98129V13.4171ZM45.5 7.73843C45.7331 7.69041 46.0143 7.67041 46.3445 7.67041C47.8983 7.67041 48.7237 8.51564 48.7237 10.0391C48.7237 11.7475 47.8113 12.6598 46.2084 12.6598C45.8682 12.6598 45.6261 12.6508 45.5 12.6308V7.73843ZM53.3416 13.5444C51.9628 13.5444 51.0693 12.5151 51.0693 11.1177C51.0693 9.66133 51.9818 8.62305 53.4196 8.62305C54.7784 8.62305 55.6918 9.60332 55.6918 11.0407C55.6918 12.5151 54.7503 13.5444 53.3416 13.5444ZM52.1396 11.0871C52.1396 10.0969 52.6249 9.38867 53.3823 9.38867C54.1197 9.38867 54.605 10.1069 54.605 11.0671C54.605 12.0094 54.1097 12.7666 53.3723 12.7666C52.6349 12.7666 52.1396 12.0584 52.1396 11.0871ZM63.5545 8.71977L62.0787 13.4371H61.1172L60.5058 11.3885C60.3538 10.8874 60.2272 10.379 60.1266 9.86509L60.1066 9.86509C60.0296 10.3792 59.8835 10.8944 59.7284 11.3885L59.0781 13.4371H58.1065L56.7178 8.71977H57.7954L58.3297 10.9624C58.4557 11.4965 58.5618 12.0007 58.6498 12.4768H58.6698C58.7469 12.0797 58.873 11.5836 59.058 10.9724L59.7284 8.72077H60.5829L61.2242 10.9244C61.3793 11.4585 61.5054 11.9827 61.6034 12.4778H61.6314C61.6995 11.9927 61.8065 11.4775 61.9516 10.9244L62.5249 8.72077L63.5545 8.71977ZM67.9392 13.4374H68.9878H68.9878L68.9888 10.6126C68.9888 9.38025 68.3385 8.62305 67.3479 8.62305C66.7066 8.62305 66.1342 8.94313 65.8521 9.44727H65.8231L65.7741 8.71907H64.8516C64.8806 9.2042 64.8906 9.65133 64.8906 10.0684V13.4374H65.9392V10.6316C65.9392 10.0104 66.3664 9.47628 66.9877 9.47628C67.619 9.47628 67.9392 9.89439 67.9392 10.7286V13.4374ZM73.4298 11.1174C73.4298 12.5148 74.3243 13.5441 75.702 13.5441C77.1098 13.5441 78.0523 12.5148 78.0513 11.0404C78.0513 9.60302 77.1388 8.62275 75.7791 8.62275C74.3423 8.62275 73.4298 9.66103 73.4298 11.1174ZM75.7407 9.38867C74.9833 9.38867 74.498 10.0969 74.498 11.0871C74.498 12.0584 74.9943 12.7666 75.7297 12.7666C76.4681 12.7666 76.9624 12.0094 76.9624 11.0671C76.9634 10.1069 76.4791 9.38867 75.7407 9.38867ZM82.1095 12.8939L82.1855 13.4371H82.1855L83.131 13.4381C83.084 13.157 83.063 12.7879 83.063 12.3118V10.5743C83.063 9.27292 82.4407 8.62275 81.208 8.62275C80.5687 8.62275 80.0244 8.75878 79.5881 9.03086L79.8012 9.72004C80.1605 9.48698 80.5687 9.36995 81.0339 9.36995C81.6843 9.36995 82.0134 9.68103 82.0134 10.3022V10.3892C80.2655 10.3892 79.256 10.9914 79.256 12.1557C79.256 12.9519 79.8563 13.5441 80.7017 13.5441C81.2941 13.5441 81.7613 13.331 82.0815 12.8939H82.1095ZM82.0419 11.0874C80.8773 11.0874 80.293 11.3695 80.293 12.0387C80.293 12.5338 80.5941 12.7759 81.0124 12.7759C81.5456 12.7759 82.0419 12.3688 82.0419 11.8156V11.0874ZM88.1057 12.6799L88.1548 13.4371H89.0883C89.0603 13.049 89.0493 12.6218 89.0493 12.1657V6.55518H87.9997V9.26292H87.9787C87.7265 8.8348 87.2793 8.62174 86.6479 8.62174C85.4553 8.62174 84.5818 9.66103 84.5818 11.1364C84.5818 12.5438 85.4243 13.5441 86.5619 13.5441C87.2693 13.5441 87.7755 13.252 88.0767 12.6799H88.1057ZM87.9997 10.6613C87.9997 10.0011 87.5624 9.43797 86.8951 9.43797C86.1176 9.43797 85.6424 10.1272 85.6424 11.0974C85.6424 12.0487 86.1357 12.6999 86.8741 12.6999C87.5334 12.6999 87.9997 12.1267 87.9997 11.4475V10.6613ZM93.4326 11.1174C93.4326 12.5148 94.3261 13.5441 95.7038 13.5441C97.1136 13.5441 98.0551 12.5148 98.0541 11.0404C98.0541 9.60302 97.1416 8.62275 95.7819 8.62275C94.3451 8.62275 93.4326 9.66103 93.4326 11.1174ZM95.7429 9.38896C94.9865 9.38896 94.5012 10.0971 94.5012 11.0874C94.5012 12.0587 94.9965 12.7669 95.7329 12.7669C96.4713 12.7669 96.9655 12.0097 96.9655 11.0674C96.9675 10.1072 96.4822 9.38896 95.7429 9.38896ZM102.643 13.4374H103.693V10.6116C103.693 9.37928 103.042 8.62207 102.051 8.62207C101.411 8.62207 100.837 8.94316 100.556 9.4473H100.527L100.478 8.7191H99.5557C99.5847 9.20423 99.5947 9.65135 99.5947 10.0685V13.4374H100.644V10.6316C100.644 10.0105 101.07 9.47631 101.692 9.47631C102.323 9.47631 102.643 9.89442 102.643 10.7287V13.4374ZM110.748 9.50597H109.594V11.7966C109.594 12.3798 109.796 12.6708 110.204 12.6708C110.389 12.6708 110.544 12.6508 110.669 12.6218L110.699 13.418C110.495 13.4961 110.223 13.5351 109.885 13.5351C109.059 13.5351 108.564 13.079 108.564 11.8846V9.50597H107.876V8.71976H108.564V7.85552L109.594 7.54443V8.71876H110.748V9.50597ZM115.252 13.4371H116.299V10.6313C116.299 9.39796 115.689 8.62174 114.69 8.62174C114.08 8.62174 113.602 8.87481 113.272 9.38896H113.251V6.55518H112.203V13.4371H113.251V10.5933C113.251 9.84608 113.757 9.47698 114.3 9.47698C114.933 9.47698 115.252 9.90409 115.252 10.7483V13.4371ZM121.986 11.3305H118.84C118.86 12.2238 119.451 12.7279 120.326 12.7279C120.792 12.7279 121.22 12.6499 121.598 12.5049L121.761 13.2331C121.315 13.4271 120.79 13.5241 120.178 13.5241C118.703 13.5241 117.829 12.5919 117.829 11.1465C117.829 9.70009 118.724 8.61279 120.06 8.61279C121.266 8.61279 122.022 9.50604 122.022 10.8554C122.029 11.0147 122.017 11.1741 121.986 11.3305ZM119.987 9.34082C119.385 9.34082 118.909 9.86497 118.841 10.5832L119.987 9.34082ZM118.841 10.5832H121.025H118.841Z" fill="white"/>
</svg>
