<svg width="25" height="24" viewBox="0 0 25 24" fill="none" xmlns="http://www.w3.org/2000/svg">
<circle opacity="0.1" cx="12.75" cy="12" r="12" fill="#FFCC2A"/>
<path fill-rule="evenodd" clip-rule="evenodd" d="M12.3136 14.2692H9.25904C8.91185 14.2692 8.57888 14.1313 8.33338 13.8858C8.08787 13.6403 7.94995 13.3073 7.94995 12.9602V9.46925C7.94995 9.12205 8.08787 8.78908 8.33338 8.54358C8.57888 8.29808 8.91185 8.16016 9.25904 8.16016H16.2409C16.5881 8.16016 16.921 8.29808 17.1665 8.54358C17.412 8.78908 17.55 9.12205 17.55 9.46925V12.9602C17.55 13.3073 17.412 13.6403 17.1665 13.8858C16.921 14.1313 16.5881 14.2692 16.2409 14.2692H13.1863V15.142H14.4954C14.6111 15.142 14.7221 15.1879 14.804 15.2698C14.8858 15.3516 14.9318 15.4626 14.9318 15.5783C14.9318 15.6941 14.8858 15.8051 14.804 15.8869C14.7221 15.9687 14.6111 16.0147 14.4954 16.0147H11.0045C10.8888 16.0147 10.7778 15.9687 10.6959 15.8869C10.6141 15.8051 10.5681 15.6941 10.5681 15.5783C10.5681 15.4626 10.6141 15.3516 10.6959 15.2698C10.7778 15.1879 10.8888 15.142 11.0045 15.142H12.3136V14.2692ZM9.25904 9.03288H16.2409C16.3566 9.03288 16.4676 9.07886 16.5494 9.16069C16.6313 9.24253 16.6772 9.35352 16.6772 9.46925V12.9602C16.6772 13.0759 16.6313 13.1869 16.5494 13.2687C16.4676 13.3505 16.3566 13.3965 16.2409 13.3965H9.25904C9.14331 13.3965 9.03232 13.3505 8.95049 13.2687C8.86865 13.1869 8.82268 13.0759 8.82268 12.9602V9.46925C8.82268 9.35352 8.86865 9.24253 8.95049 9.16069C9.03232 9.07886 9.14331 9.03288 9.25904 9.03288Z" fill="#FFCC2A"/>
</svg>
