<svg width="25" height="24" viewBox="0 0 25 24" fill="none" xmlns="http://www.w3.org/2000/svg">
<circle opacity="0.1" cx="12.75" cy="12" r="12" fill="#FFCC2A"/>
<path fill-rule="evenodd" clip-rule="evenodd" d="M12.3138 14.2692H9.25929C8.91209 14.2692 8.57912 14.1313 8.33362 13.8858C8.08812 13.6403 7.9502 13.3073 7.9502 12.9602V9.46925C7.9502 9.12205 8.08812 8.78908 8.33362 8.54358C8.57912 8.29808 8.91209 8.16016 9.25929 8.16016H16.2411C16.5883 8.16016 16.9213 8.29808 17.1668 8.54358C17.4123 8.78908 17.5502 9.12205 17.5502 9.46925V12.9602C17.5502 13.3073 17.4123 13.6403 17.1668 13.8858C16.9213 14.1313 16.5883 14.2692 16.2411 14.2692H13.1866V15.142H14.4957C14.6114 15.142 14.7224 15.1879 14.8042 15.2698C14.886 15.3516 14.932 15.4626 14.932 15.5783C14.932 15.6941 14.886 15.8051 14.8042 15.8869C14.7224 15.9687 14.6114 16.0147 14.4957 16.0147H11.0047C10.889 16.0147 10.778 15.9687 10.6962 15.8869C10.6144 15.8051 10.5684 15.6941 10.5684 15.5783C10.5684 15.4626 10.6144 15.3516 10.6962 15.2698C10.778 15.1879 10.889 15.142 11.0047 15.142H12.3138V14.2692ZM9.25929 9.03288H16.2411C16.3568 9.03288 16.4678 9.07886 16.5497 9.16069C16.6315 9.24253 16.6775 9.35352 16.6775 9.46925V12.9602C16.6775 13.0759 16.6315 13.1869 16.5497 13.2687C16.4678 13.3505 16.3568 13.3965 16.2411 13.3965H9.25929C9.14356 13.3965 9.03256 13.3505 8.95073 13.2687C8.8689 13.1869 8.82292 13.0759 8.82292 12.9602V9.46925C8.82292 9.35352 8.8689 9.24253 8.95073 9.16069C9.03256 9.07886 9.14356 9.03288 9.25929 9.03288Z" fill="#FFCC2A"/>
</svg>
