<svg width="51" height="50" viewBox="0 0 51 50" fill="none" xmlns="http://www.w3.org/2000/svg">
<circle opacity="0.1" cx="25.75" cy="25" r="25" fill="#FFCC2A"/>
<path fill-rule="evenodd" clip-rule="evenodd" d="M24.8409 29.7273H18.4773C17.754 29.7273 17.0603 29.4399 16.5488 28.9285C16.0373 28.417 15.75 27.7233 15.75 27V19.7273C15.75 19.004 16.0373 18.3103 16.5488 17.7988C17.0603 17.2873 17.754 17 18.4773 17H33.0227C33.746 17 34.4397 17.2873 34.9512 17.7988C35.4627 18.3103 35.75 19.004 35.75 19.7273V27C35.75 27.7233 35.4627 28.417 34.9512 28.9285C34.4397 29.4399 33.746 29.7273 33.0227 29.7273H26.6591V31.5455H29.3864C29.6275 31.5455 29.8587 31.6412 30.0292 31.8117C30.1997 31.9822 30.2955 32.2134 30.2955 32.4545C30.2955 32.6957 30.1997 32.9269 30.0292 33.0974C29.8587 33.2679 29.6275 33.3636 29.3864 33.3636H22.1136C21.8725 33.3636 21.6413 33.2679 21.4708 33.0974C21.3003 32.9269 21.2045 32.6957 21.2045 32.4545C21.2045 32.2134 21.3003 31.9822 21.4708 31.8117C21.6413 31.6412 21.8725 31.5455 22.1136 31.5455H24.8409V29.7273ZM18.4773 18.8182H33.0227C33.2638 18.8182 33.4951 18.914 33.6656 19.0844C33.836 19.2549 33.9318 19.4862 33.9318 19.7273V27C33.9318 27.2411 33.836 27.4723 33.6656 27.6428C33.4951 27.8133 33.2638 27.9091 33.0227 27.9091H18.4773C18.2362 27.9091 18.0049 27.8133 17.8344 27.6428C17.664 27.4723 17.5682 27.2411 17.5682 27V19.7273C17.5682 19.4862 17.664 19.2549 17.8344 19.0844C18.0049 18.914 18.2362 18.8182 18.4773 18.8182Z" fill="#FFCC2A"/>
</svg>
