<svg width="25" height="24" viewBox="0 0 25 24" fill="none" xmlns="http://www.w3.org/2000/svg">
<circle opacity="0.1" cx="12.75" cy="12" r="12" fill="#FFCC2A"/>
<path d="M15.6299 14.0085V13.12C15.6299 12.1936 14.8763 11.44 13.9499 11.44C13.553 11.44 13.2299 11.117 13.2299 10.72V9.99188C13.5098 9.89314 13.7523 9.71023 13.9242 9.46824C14.0961 9.22624 14.1889 8.93701 14.1899 8.6402C14.1899 7.84628 13.5438 7.2002 12.7499 7.2002C11.956 7.2002 11.3099 7.84628 11.3099 8.6402C11.3099 9.26516 11.7126 9.79268 12.2699 9.9914V10.72C12.2699 11.117 11.9469 11.44 11.5499 11.44C10.6235 11.44 9.86991 12.1936 9.86991 13.12V14.0085C9.59 14.1073 9.34748 14.2902 9.17561 14.5322C9.00374 14.7741 8.91093 15.0634 8.90991 15.3602C8.90991 16.1541 9.55599 16.8002 10.3499 16.8002C11.1438 16.8002 11.7899 16.1541 11.7899 15.3602C11.7889 15.0634 11.6961 14.7741 11.5242 14.5322C11.3523 14.2902 11.1098 14.1073 10.8299 14.0085V13.12C10.8299 12.7231 11.153 12.4 11.5499 12.4C12.0198 12.4 12.4446 12.2047 12.7499 11.8922C12.9058 12.0528 13.0923 12.1805 13.2985 12.2677C13.5046 12.3549 13.7261 12.3999 13.9499 12.4C14.3469 12.4 14.6699 12.7231 14.6699 13.12V14.0085C14.39 14.1073 14.1475 14.2902 13.9756 14.5322C13.8037 14.7741 13.7109 15.0634 13.7099 15.3602C13.7099 16.1541 14.356 16.8002 15.1499 16.8002C15.9438 16.8002 16.5899 16.1541 16.5899 15.3602C16.5889 15.0634 16.4961 14.7741 16.3242 14.5322C16.1523 14.2902 15.9098 14.1073 15.6299 14.0085ZM10.3499 15.8402C10.2263 15.8347 10.1096 15.7817 10.0241 15.6923C9.93862 15.6029 9.8909 15.4839 9.8909 15.3602C9.8909 15.2365 9.93862 15.1175 10.0241 15.0281C10.1096 14.9387 10.2263 14.8857 10.3499 14.8802C10.4735 14.8857 10.5902 14.9387 10.6757 15.0281C10.7612 15.1175 10.8089 15.2365 10.8089 15.3602C10.8089 15.4839 10.7612 15.6029 10.6757 15.6923C10.5902 15.7817 10.4735 15.8347 10.3499 15.8402ZM12.7499 8.1602C12.845 8.1601 12.9379 8.18821 13.017 8.24097C13.0961 8.29373 13.1578 8.36877 13.1942 8.45658C13.2306 8.5444 13.2402 8.64105 13.2217 8.73429C13.2031 8.82754 13.1574 8.9132 13.0901 8.98043C13.0229 9.04765 12.9373 9.09342 12.844 9.11195C12.7508 9.13047 12.6541 9.12091 12.5663 9.08449C12.4785 9.04806 12.4034 8.9864 12.3507 8.90732C12.2979 8.82823 12.2698 8.73527 12.2699 8.6402C12.2699 8.37572 12.485 8.1602 12.7499 8.1602ZM15.1499 15.8402C15.0263 15.8347 14.9096 15.7817 14.8241 15.6923C14.7386 15.6029 14.6909 15.4839 14.6909 15.3602C14.6909 15.2365 14.7386 15.1175 14.8241 15.0281C14.9096 14.9387 15.0263 14.8857 15.1499 14.8802C15.2735 14.8857 15.3902 14.9387 15.4757 15.0281C15.5612 15.1175 15.6089 15.2365 15.6089 15.3602C15.6089 15.4839 15.5612 15.6029 15.4757 15.6923C15.3902 15.7817 15.2735 15.8347 15.1499 15.8402Z" fill="#FFCC2A"/>
</svg>
