<svg width="25" height="24" viewBox="0 0 25 24" fill="none" xmlns="http://www.w3.org/2000/svg">
<circle opacity="0.1" cx="12.75" cy="12" r="12" fill="#FFCC2A"/>
<path d="M15.6302 14.0085V13.12C15.6302 12.1936 14.8766 11.44 13.9502 11.44C13.5532 11.44 13.2302 11.117 13.2302 10.72V9.99188C13.5101 9.89314 13.7526 9.71023 13.9245 9.46824C14.0963 9.22624 14.1891 8.93701 14.1902 8.6402C14.1902 7.84628 13.5441 7.2002 12.7502 7.2002C11.9562 7.2002 11.3102 7.84628 11.3102 8.6402C11.3102 9.26516 11.7129 9.79268 12.2702 9.9914V10.72C12.2702 11.117 11.9471 11.44 11.5502 11.44C10.6238 11.44 9.87016 12.1936 9.87016 13.12V14.0085C9.59024 14.1073 9.34773 14.2902 9.17586 14.5322C9.00399 14.7741 8.91118 15.0634 8.91016 15.3602C8.91016 16.1541 9.55624 16.8002 10.3502 16.8002C11.1441 16.8002 11.7902 16.1541 11.7902 15.3602C11.7891 15.0634 11.6963 14.7741 11.5245 14.5322C11.3526 14.2902 11.1101 14.1073 10.8302 14.0085V13.12C10.8302 12.7231 11.1532 12.4 11.5502 12.4C12.0201 12.4 12.4449 12.2047 12.7502 11.8922C12.9061 12.0528 13.0926 12.1805 13.2987 12.2677C13.5048 12.3549 13.7263 12.3999 13.9502 12.4C14.3471 12.4 14.6702 12.7231 14.6702 13.12V14.0085C14.3902 14.1073 14.1477 14.2902 13.9759 14.5322C13.804 14.7741 13.7112 15.0634 13.7102 15.3602C13.7102 16.1541 14.3562 16.8002 15.1502 16.8002C15.9441 16.8002 16.5902 16.1541 16.5902 15.3602C16.5891 15.0634 16.4963 14.7741 16.3245 14.5322C16.1526 14.2902 15.9101 14.1073 15.6302 14.0085ZM10.3502 15.8402C10.2266 15.8347 10.1099 15.7817 10.0244 15.6923C9.93887 15.6029 9.89115 15.4839 9.89115 15.3602C9.89115 15.2365 9.93887 15.1175 10.0244 15.0281C10.1099 14.9387 10.2266 14.8857 10.3502 14.8802C10.4737 14.8857 10.5904 14.9387 10.6759 15.0281C10.7614 15.1175 10.8092 15.2365 10.8092 15.3602C10.8092 15.4839 10.7614 15.6029 10.6759 15.6923C10.5904 15.7817 10.4737 15.8347 10.3502 15.8402ZM12.7502 8.1602C12.8452 8.1601 12.9382 8.18821 13.0173 8.24097C13.0964 8.29373 13.158 8.36877 13.1944 8.45658C13.2309 8.5444 13.2404 8.64105 13.2219 8.73429C13.2034 8.82754 13.1576 8.9132 13.0904 8.98043C13.0232 9.04765 12.9375 9.09342 12.8443 9.11195C12.751 9.13047 12.6544 9.12091 12.5665 9.08449C12.4787 9.04806 12.4037 8.9864 12.3509 8.90732C12.2982 8.82823 12.2701 8.73527 12.2702 8.6402C12.2702 8.37572 12.4852 8.1602 12.7502 8.1602ZM15.1502 15.8402C15.0266 15.8347 14.9099 15.7817 14.8244 15.6923C14.7389 15.6029 14.6911 15.4839 14.6911 15.3602C14.6911 15.2365 14.7389 15.1175 14.8244 15.0281C14.9099 14.9387 15.0266 14.8857 15.1502 14.8802C15.2737 14.8857 15.3904 14.9387 15.4759 15.0281C15.5614 15.1175 15.6092 15.2365 15.6092 15.3602C15.6092 15.4839 15.5614 15.6029 15.4759 15.6923C15.3904 15.7817 15.2737 15.8347 15.1502 15.8402Z" fill="#FFCC2A"/>
</svg>
