<svg width="51" height="50" viewBox="0 0 51 50" fill="none" xmlns="http://www.w3.org/2000/svg">
<circle opacity="0.1" cx="25.75" cy="25" r="25" fill="#FFCC2A"/>
<path d="M31.75 29.184V27.333C31.75 25.403 30.18 23.833 28.25 23.833C27.423 23.833 26.75 23.16 26.75 22.333V20.816C27.3332 20.6103 27.8384 20.2292 28.1965 19.7251C28.5545 19.2209 28.7479 18.6184 28.75 18C28.75 16.346 27.404 15 25.75 15C24.096 15 22.75 16.346 22.75 18C22.75 19.302 23.589 20.401 24.75 20.815V22.333C24.75 23.16 24.077 23.833 23.25 23.833C21.32 23.833 19.75 25.403 19.75 27.333V29.184C19.1668 29.3897 18.6616 29.7708 18.3035 30.2749C17.9455 30.7791 17.7521 31.3816 17.75 32C17.75 33.654 19.096 35 20.75 35C22.404 35 23.75 33.654 23.75 32C23.7479 31.3816 23.5545 30.7791 23.1965 30.2749C22.8384 29.7708 22.3332 29.3897 21.75 29.184V27.333C21.75 26.506 22.423 25.833 23.25 25.833C24.229 25.833 25.114 25.426 25.75 24.775C26.0748 25.1095 26.4634 25.3755 26.8928 25.5573C27.3222 25.739 27.7837 25.8328 28.25 25.833C29.077 25.833 29.75 26.506 29.75 27.333V29.184C29.1668 29.3897 28.6616 29.7708 28.3035 30.2749C27.9455 30.7791 27.7521 31.3816 27.75 32C27.75 33.654 29.096 35 30.75 35C32.404 35 33.75 33.654 33.75 32C33.7479 31.3816 33.5545 30.7791 33.1965 30.2749C32.8384 29.7708 32.3332 29.3897 31.75 29.184ZM20.75 33C20.4925 32.9885 20.2494 32.8781 20.0713 32.6918C19.8931 32.5055 19.7937 32.2577 19.7937 32C19.7937 31.7423 19.8931 31.4945 20.0713 31.3082C20.2494 31.1219 20.4925 31.0115 20.75 31C21.0075 31.0115 21.2506 31.1219 21.4287 31.3082C21.6069 31.4945 21.7063 31.7423 21.7063 32C21.7063 32.2577 21.6069 32.5055 21.4287 32.6918C21.2506 32.8781 21.0075 32.9885 20.75 33ZM25.75 17C25.9481 16.9998 26.1417 17.0584 26.3065 17.1683C26.4713 17.2782 26.5997 17.4345 26.6756 17.6175C26.7515 17.8004 26.7714 18.0018 26.7328 18.196C26.6942 18.3903 26.5989 18.5688 26.4588 18.7088C26.3188 18.8489 26.1403 18.9442 25.946 18.9828C25.7518 19.0214 25.5504 19.0015 25.3675 18.9256C25.1845 18.8497 25.0282 18.7213 24.9183 18.5565C24.8084 18.3917 24.7498 18.1981 24.75 18C24.75 17.449 25.198 17 25.75 17ZM30.75 33C30.4925 32.9885 30.2494 32.8781 30.0713 32.6918C29.8931 32.5055 29.7937 32.2577 29.7937 32C29.7937 31.7423 29.8931 31.4945 30.0713 31.3082C30.2494 31.1219 30.4925 31.0115 30.75 31C31.0075 31.0115 31.2506 31.1219 31.4287 31.3082C31.6069 31.4945 31.7063 31.7423 31.7063 32C31.7063 32.2577 31.6069 32.5055 31.4287 32.6918C31.2506 32.8781 31.0075 32.9885 30.75 33Z" fill="#FFCC2A"/>
</svg>
