<svg width="25" height="24" viewBox="0 0 25 24" fill="none" xmlns="http://www.w3.org/2000/svg">
<circle opacity="0.1" cx="12.75" cy="12" r="12" fill="#FFCC2A"/>
<path d="M17.55 11.4669V10.4002H16.4833V9.33353C16.4824 9.05089 16.3698 8.78007 16.1699 8.58021C15.9701 8.38036 15.6993 8.26771 15.4166 8.26686H14.35V7.2002H13.2833V8.26686H12.2166V7.2002H11.15V8.26686H10.0833C9.80065 8.26771 9.52983 8.38036 9.32997 8.58021C9.13011 8.78007 9.01746 9.05089 9.01662 9.33353V10.4002H7.94995V11.4669H9.01662V12.5335H7.94995V13.6002H9.01662V14.6669C9.01746 14.9495 9.13011 15.2203 9.32997 15.4202C9.52983 15.62 9.80065 15.7327 10.0833 15.7335H11.15V16.8002H12.2166V15.7335H13.2833V16.8002H14.35V15.7335H15.4166C15.6993 15.7327 15.9701 15.62 16.1699 15.4202C16.3698 15.2203 16.4824 14.9495 16.4833 14.6669V13.6002H17.55V12.5335H16.4833V11.4669H17.55ZM15.4166 14.6669H10.0833V9.33353H15.4166V14.6669Z" fill="#FFCC2A"/>
<path d="M12.409 9.86719H11.6916L10.6196 14.1339H11.1674L11.4148 13.1339H12.65L12.8911 14.1339H13.4575L12.409 9.86719ZM11.4868 12.7067L12.0298 10.3739H12.0543L12.5786 12.7067H11.4868ZM13.9466 9.86719H14.4799V14.1339H13.9466V9.86719Z" fill="#FFCC2A"/>
</svg>
