<svg width="25" height="24" viewBox="0 0 25 24" fill="none" xmlns="http://www.w3.org/2000/svg">
<circle opacity="0.1" cx="12.75" cy="12" r="12" fill="#FFCC2A"/>
<path d="M17.5502 11.4669V10.4002H16.4835V9.33353C16.4827 9.05089 16.37 8.78007 16.1702 8.58021C15.9703 8.38036 15.6995 8.26771 15.4169 8.26686H14.3502V7.2002H13.2835V8.26686H12.2169V7.2002H11.1502V8.26686H10.0835C9.80089 8.26771 9.53007 8.38036 9.33021 8.58021C9.13036 8.78007 9.01771 9.05089 9.01686 9.33353V10.4002H7.9502V11.4669H9.01686V12.5335H7.9502V13.6002H9.01686V14.6669C9.01771 14.9495 9.13036 15.2203 9.33021 15.4202C9.53007 15.62 9.80089 15.7327 10.0835 15.7335H11.1502V16.8002H12.2169V15.7335H13.2835V16.8002H14.3502V15.7335H15.4169C15.6995 15.7327 15.9703 15.62 16.1702 15.4202C16.37 15.2203 16.4827 14.9495 16.4835 14.6669V13.6002H17.5502V12.5335H16.4835V11.4669H17.5502ZM15.4169 14.6669H10.0835V9.33353H15.4169V14.6669Z" fill="#FFCC2A"/>
<path d="M12.409 9.86719H11.6916L10.6196 14.1339H11.1674L11.4148 13.1339H12.65L12.8911 14.1339H13.4575L12.409 9.86719ZM11.4868 12.7067L12.0298 10.3739H12.0543L12.5786 12.7067H11.4868ZM13.9466 9.86719H14.4799V14.1339H13.9466V9.86719Z" fill="#FFCC2A"/>
</svg>
