<svg width="51" height="50" viewBox="0 0 51 50" fill="none" xmlns="http://www.w3.org/2000/svg">
<circle opacity="0.1" cx="25.75" cy="25" r="25" fill="#FFCC2A"/>
<path d="M35.75 23.8889V21.6667H33.5278V19.4444C33.526 18.8556 33.2913 18.2914 32.875 17.875C32.4586 17.4587 31.8944 17.224 31.3056 17.2222H29.0833V15H26.8611V17.2222H24.6389V15H22.4167V17.2222H20.1944C19.6056 17.224 19.0414 17.4587 18.625 17.875C18.2087 18.2914 17.974 18.8556 17.9722 19.4444V21.6667H15.75V23.8889H17.9722V26.1111H15.75V28.3333H17.9722V30.5556C17.974 31.1444 18.2087 31.7086 18.625 32.125C19.0414 32.5413 19.6056 32.776 20.1944 32.7778H22.4167V35H24.6389V32.7778H26.8611V35H29.0833V32.7778H31.3056C31.8944 32.776 32.4586 32.5413 32.875 32.125C33.2913 31.7086 33.526 31.1444 33.5278 30.5556V28.3333H35.75V26.1111H33.5278V23.8889H35.75ZM31.3056 30.5556H20.1944V19.4444H31.3056V30.5556Z" fill="#FFCC2A"/>
<path d="M25.0398 20.5557H23.5453L21.312 29.4446H22.4531L22.9687 27.3612H25.542L26.0442 29.4446H27.2242L25.0398 20.5557ZM23.1187 26.4712L24.2498 21.6112H24.3009L25.3931 26.4712H23.1187ZM28.2431 20.5557H29.3542V29.4446H28.2431V20.5557Z" fill="#FFCC2A"/>
</svg>
