<svg width="25" height="24" viewBox="0 0 25 24" fill="none" xmlns="http://www.w3.org/2000/svg">
<circle opacity="0.1" cx="12.75" cy="12" r="12" fill="#FFCC2A"/>
<path d="M12.5897 14.2398C12.5257 14.2398 12.4617 14.2398 12.4297 14.2078L10.8297 13.2478C10.7337 13.1838 10.6697 13.0878 10.6697 12.9598V11.0398C10.6697 10.9118 10.7337 10.8158 10.8297 10.7518L12.4297 9.79177C12.4617 9.75977 12.5257 9.75977 12.5897 9.75977C12.6537 9.75977 12.7177 9.75977 12.7497 9.79177L14.3497 10.7518C14.4457 10.8158 14.5097 10.9118 14.5097 11.0398V12.9598C14.5097 13.0878 14.4457 13.1838 14.3497 13.2478L12.7497 14.2078C12.7177 14.2398 12.6537 14.2398 12.5897 14.2398ZM11.3097 12.7678L12.5897 13.5358L13.8697 12.7678V11.1998L12.5897 10.4318L11.3097 11.1998V12.7678Z" fill="#FFCC2A"/>
<path d="M12.5899 16.8002C12.5259 16.8002 12.4939 16.8002 12.4299 16.7682L8.58993 14.5282C8.49393 14.4642 8.42993 14.3682 8.42993 14.2402V9.7602C8.42993 9.6322 8.49393 9.5362 8.58993 9.4722L12.4299 7.2322C12.4939 7.2002 12.5259 7.2002 12.5899 7.2002C12.6539 7.2002 12.6859 7.2002 12.7499 7.2322L16.5899 9.4722L16.2699 10.0162L12.5899 7.9042L9.06993 9.9522V14.0802L12.5899 16.1282L16.1099 14.0802V11.6802H16.7499V14.2402C16.7499 14.3682 16.6859 14.4642 16.5899 14.5282L12.7499 16.7682C12.6859 16.8002 12.6539 16.8002 12.5899 16.8002Z" fill="#FFCC2A"/>
<path d="M12.5898 7.1998C12.6538 7.1998 12.6858 7.1998 12.7498 7.2318L16.5898 9.47181C16.6858 9.5358 16.7498 9.6318 16.7498 9.7598L16.7498 14.2398C16.7498 14.3678 16.6858 14.4638 16.5898 14.5278L12.7498 16.7678C12.6858 16.7998 12.6538 16.7998 12.5898 16.7998C12.5258 16.7998 12.4938 16.7998 12.4298 16.7678L8.58976 14.5278L8.90976 13.9838L12.5898 16.0958L16.1098 14.0478L16.1098 9.9198L12.5898 7.8718L9.06976 9.9198L9.06976 12.3198L8.42976 12.3198L8.42976 9.7598C8.42976 9.6318 8.49376 9.5358 8.58976 9.4718L12.4298 7.2318C12.4938 7.1998 12.5258 7.1998 12.5898 7.1998Z" fill="#FFCC2A"/>
</svg>
