<svg width="25" height="24" viewBox="0 0 25 24" fill="none" xmlns="http://www.w3.org/2000/svg">
<circle opacity="0.1" cx="12.75" cy="12" r="12" fill="#FFCC2A"/>
<path d="M12.5899 14.2398C12.5259 14.2398 12.4619 14.2398 12.4299 14.2078L10.8299 13.2478C10.7339 13.1838 10.6699 13.0878 10.6699 12.9598V11.0398C10.6699 10.9118 10.7339 10.8158 10.8299 10.7518L12.4299 9.79177C12.4619 9.75977 12.5259 9.75977 12.5899 9.75977C12.6539 9.75977 12.7179 9.75977 12.7499 9.79177L14.3499 10.7518C14.4459 10.8158 14.5099 10.9118 14.5099 11.0398V12.9598C14.5099 13.0878 14.4459 13.1838 14.3499 13.2478L12.7499 14.2078C12.7179 14.2398 12.6539 14.2398 12.5899 14.2398ZM11.3099 12.7678L12.5899 13.5358L13.8699 12.7678V11.1998L12.5899 10.4318L11.3099 11.1998V12.7678Z" fill="#FFCC2A"/>
<path d="M12.5902 16.8002C12.5262 16.8002 12.4942 16.8002 12.4302 16.7682L8.59018 14.5282C8.49418 14.4642 8.43018 14.3682 8.43018 14.2402V9.7602C8.43018 9.6322 8.49418 9.5362 8.59018 9.4722L12.4302 7.2322C12.4942 7.2002 12.5262 7.2002 12.5902 7.2002C12.6542 7.2002 12.6862 7.2002 12.7502 7.2322L16.5902 9.4722L16.2702 10.0162L12.5902 7.9042L9.07018 9.9522V14.0802L12.5902 16.1282L16.1102 14.0802V11.6802H16.7502V14.2402C16.7502 14.3682 16.6862 14.4642 16.5902 14.5282L12.7502 16.7682C12.6862 16.8002 12.6542 16.8002 12.5902 16.8002Z" fill="#FFCC2A"/>
<path d="M12.59 7.1998C12.654 7.1998 12.686 7.1998 12.75 7.2318L16.59 9.47181C16.686 9.5358 16.75 9.6318 16.75 9.7598L16.75 14.2398C16.75 14.3678 16.686 14.4638 16.59 14.5278L12.75 16.7678C12.686 16.7998 12.654 16.7998 12.59 16.7998C12.526 16.7998 12.494 16.7998 12.43 16.7678L8.59 14.5278L8.91 13.9838L12.59 16.0958L16.11 14.0478L16.11 9.9198L12.59 7.8718L9.07 9.9198L9.07 12.3198L8.43 12.3198L8.43 9.7598C8.43 9.6318 8.494 9.5358 8.59 9.4718L12.43 7.2318C12.494 7.1998 12.526 7.1998 12.59 7.1998Z" fill="#FFCC2A"/>
</svg>
