<svg width="51" height="50" viewBox="0 0 51 50" fill="none" xmlns="http://www.w3.org/2000/svg">
<circle opacity="0.1" cx="25.75" cy="25" r="25" fill="#FFCC2A"/>
<path d="M25.4167 29.6666C25.2834 29.6666 25.1501 29.6666 25.0834 29.5999L21.7501 27.5999C21.5501 27.4666 21.4167 27.2666 21.4167 26.9999V22.9999C21.4167 22.7333 21.5501 22.5333 21.7501 22.3999L25.0834 20.3999C25.1501 20.3333 25.2834 20.3333 25.4167 20.3333C25.5501 20.3333 25.6834 20.3333 25.7501 20.3999L29.0834 22.3999C29.2834 22.5333 29.4167 22.7333 29.4167 22.9999V26.9999C29.4167 27.2666 29.2834 27.4666 29.0834 27.5999L25.7501 29.5999C25.6834 29.6666 25.5501 29.6666 25.4167 29.6666ZM22.7501 26.5999L25.4167 28.1999L28.0834 26.5999V23.3333L25.4167 21.7333L22.7501 23.3333V26.5999Z" fill="#FFCC2A"/>
<path d="M25.4167 35C25.2833 35 25.2167 35 25.0833 34.9333L17.0833 30.2667C16.8833 30.1333 16.75 29.9333 16.75 29.6667V20.3333C16.75 20.0667 16.8833 19.8667 17.0833 19.7333L25.0833 15.0667C25.2167 15 25.2833 15 25.4167 15C25.55 15 25.6167 15 25.75 15.0667L33.75 19.7333L33.0833 20.8667L25.4167 16.4667L18.0833 20.7333V29.3333L25.4167 33.6L32.75 29.3333V24.3333H34.0833V29.6667C34.0833 29.9333 33.95 30.1333 33.75 30.2667L25.75 34.9333C25.6167 35 25.55 35 25.4167 35Z" fill="#FFCC2A"/>
<path d="M25.4166 15C25.5499 15 25.6166 15 25.7499 15.0667L33.7499 19.7333C33.9499 19.8667 34.0833 20.0667 34.0833 20.3333L34.0833 29.6667C34.0833 29.9333 33.9499 30.1333 33.7499 30.2667L25.7499 34.9333C25.6166 35 25.5499 35 25.4166 35C25.2833 35 25.2166 35 25.0833 34.9333L17.0833 30.2667L17.7499 29.1333L25.4166 33.5333L32.7499 29.2667L32.7499 20.6667L25.4166 16.4L18.0833 20.6667L18.0833 25.6667L16.7499 25.6667L16.7499 20.3333C16.7499 20.0667 16.8833 19.8667 17.0833 19.7333L25.0833 15.0667C25.2166 15 25.2833 15 25.4166 15Z" fill="#FFCC2A"/>
</svg>
