<svg width="1023" height="573" viewBox="0 0 1023 573" fill="none" xmlns="http://www.w3.org/2000/svg">
<circle cx="847.658" cy="150.705" r="5.04176" stroke="#00BB98" stroke-width="3"/>
<circle cx="461.694" cy="500.69" r="5.04176" stroke="#FFCC2A" stroke-width="3"/>
<circle cx="34.5172" cy="133.697" r="6.54176" fill="#FFCC2A"/>
<circle cx="992.231" cy="391.442" r="6.54176" fill="white"/>
<circle cx="3.77088" cy="510.502" r="3.27088" fill="white"/>
<g opacity="0.9">
<mask id="mask0_686_13984" style="mask-type:alpha" maskUnits="userSpaceOnUse" x="477" y="6" width="535" height="557">
<line x1="548.513" y1="308.72" x2="882.288" y2="136.994" stroke="#536476" stroke-width="4"/>
<line x1="554.627" y1="320.602" x2="888.401" y2="148.877" stroke="#536476" stroke-width="4"/>
<line x1="560.74" y1="332.485" x2="894.515" y2="160.76" stroke="#536476" stroke-width="4"/>
<line x1="566.852" y1="344.366" x2="900.627" y2="172.641" stroke="#536476" stroke-width="4"/>
<line x1="572.966" y1="356.247" x2="906.741" y2="184.522" stroke="#536476" stroke-width="4"/>
<line x1="579.079" y1="368.13" x2="912.854" y2="196.405" stroke="#536476" stroke-width="4"/>
<line x1="585.192" y1="380.012" x2="918.967" y2="208.286" stroke="#536476" stroke-width="4"/>
<line x1="591.306" y1="391.893" x2="925.081" y2="220.168" stroke="#536476" stroke-width="4"/>
<line x1="597.42" y1="403.775" x2="931.194" y2="232.05" stroke="#536476" stroke-width="4"/>
<line x1="603.531" y1="415.658" x2="937.306" y2="243.933" stroke="#536476" stroke-width="4"/>
<line x1="609.645" y1="427.54" x2="943.419" y2="255.815" stroke="#536476" stroke-width="4"/>
<line x1="478.65" y1="180.129" x2="812.425" y2="8.40357" stroke="#536476" stroke-width="4"/>
<line x1="484.764" y1="192.012" x2="818.539" y2="20.2864" stroke="#536476" stroke-width="4"/>
<line x1="490.877" y1="203.894" x2="824.652" y2="32.1692" stroke="#536476" stroke-width="4"/>
<line x1="496.989" y1="215.775" x2="830.764" y2="44.0501" stroke="#536476" stroke-width="4"/>
<line x1="503.103" y1="227.656" x2="836.878" y2="55.9309" stroke="#536476" stroke-width="4"/>
<line x1="509.216" y1="239.539" x2="842.991" y2="67.8137" stroke="#536476" stroke-width="4"/>
<line x1="515.329" y1="251.421" x2="849.104" y2="79.6956" stroke="#536476" stroke-width="4"/>
<line x1="521.443" y1="263.305" x2="855.218" y2="91.5793" stroke="#536476" stroke-width="4"/>
<line x1="527.555" y1="275.184" x2="861.33" y2="103.459" stroke="#536476" stroke-width="4"/>
<line x1="533.668" y1="287.067" x2="867.443" y2="115.342" stroke="#536476" stroke-width="4"/>
<line x1="539.782" y1="298.949" x2="873.557" y2="127.224" stroke="#536476" stroke-width="4"/>
<line x1="615.349" y1="441.914" x2="949.124" y2="270.189" stroke="#536476" stroke-width="4"/>
<line x1="621.463" y1="453.797" x2="955.238" y2="282.072" stroke="#536476" stroke-width="4"/>
<line x1="627.576" y1="465.68" x2="961.351" y2="293.954" stroke="#536476" stroke-width="4"/>
<line x1="633.688" y1="477.56" x2="967.463" y2="305.835" stroke="#536476" stroke-width="4"/>
<line x1="639.802" y1="489.441" x2="973.577" y2="317.716" stroke="#536476" stroke-width="4"/>
<line x1="645.915" y1="501.324" x2="979.69" y2="329.599" stroke="#536476" stroke-width="4"/>
<line x1="652.028" y1="513.206" x2="985.803" y2="341.481" stroke="#536476" stroke-width="4"/>
<line x1="658.142" y1="525.088" x2="991.916" y2="353.363" stroke="#536476" stroke-width="4"/>
<line x1="664.256" y1="536.97" x2="998.031" y2="365.244" stroke="#536476" stroke-width="4"/>
<line x1="670.367" y1="548.852" x2="1004.14" y2="377.127" stroke="#536476" stroke-width="4"/>
<line x1="676.481" y1="560.734" x2="1010.26" y2="389.009" stroke="#536476" stroke-width="4"/>
</mask>
<g mask="url(#mask0_686_13984)">
<circle cx="732.935" cy="236.815" r="102.04" transform="rotate(1.73384 732.935 236.815)" fill="#FFCC2A"/>
</g>
</g>
</svg>
