<svg width="81" height="80" viewBox="0 0 81 80" fill="none" xmlns="http://www.w3.org/2000/svg">
<circle opacity="0.1" cx="40.5" cy="40" r="40" fill="#FFC83E"/>
<path d="M60.3737 53.805V30.4848H53.9583V17H26.3117V30.4848H19.8963V53.805H17.5V58.5585C17.5 60.6049 19.1651 62.27 21.2115 62.27H59.0585C61.1049 62.27 62.77 60.6049 62.77 58.5585V53.805H60.3737ZM22.5488 33.1373H26.3117V48.8305H28.9643V19.6525H51.3057V48.8305H53.9583V33.1373H57.7212V53.805H42.4339V54.7113H37.8361V53.805H22.5488V33.1373ZM60.1175 58.5585C60.1175 59.1426 59.6426 59.6175 59.0585 59.6175H21.2115C20.6274 59.6175 20.1525 59.1426 20.1525 58.5585V56.4576H35.1836V57.3638H45.0864V56.4576H60.1175V58.5585Z" fill="#FFC83E"/>
<path d="M33.415 23.7197H46.8546V26.3723H33.415V23.7197Z" fill="#FFC83E"/>
<path d="M33.415 29.2012H46.8546V31.8537H33.415V29.2012Z" fill="#FFC83E"/>
<path d="M33.415 34.6836H46.8546V37.3361H33.415V34.6836Z" fill="#FFC83E"/>
<path d="M33.415 40.166H46.8546V42.8186H33.415V40.166Z" fill="#FFC83E"/>
</svg>
