<svg width="81" height="80" viewBox="0 0 81 80" fill="none" xmlns="http://www.w3.org/2000/svg">
<circle opacity="0.1" cx="40.5" cy="40" r="40" fill="#001C80"/>
<path d="M20.5 61.9433C20.5 62.6757 21.0938 63.2695 21.8263 63.2695H27.1313C27.8638 63.2695 28.4576 62.6757 28.4576 61.9433V55.754C28.4576 55.0215 27.8638 54.4277 27.1313 54.4277H21.8263C21.0938 54.4277 20.5 55.0215 20.5 55.754V61.9433ZM23.1525 57.0803H25.8051V60.617H23.1525V57.0803Z" fill="#001C80"/>
<path d="M39.068 61.9437V49.1974C39.068 48.4649 38.4742 47.8711 37.7417 47.8711H32.4366C31.7042 47.8711 31.1104 48.4649 31.1104 49.1974V61.9437C31.1104 62.6761 31.7042 63.2699 32.4366 63.2699H37.7417C38.4742 63.2699 39.068 62.6761 39.068 61.9437ZM36.4154 60.6174H33.7629V50.5236H36.4154V60.6174Z" fill="#001C80"/>
<path d="M49.6783 61.9441V39.3663C49.6783 38.6339 49.0845 38.04 48.352 38.04H43.047C42.3145 38.04 41.7207 38.6339 41.7207 39.3663V61.9441C41.7207 62.6765 42.3145 63.2704 43.047 63.2704H48.352C49.0845 63.2704 49.6783 62.6765 49.6783 61.9441ZM47.0258 60.6178H44.3732V40.6926H47.0258V60.6178Z" fill="#001C80"/>
<path d="M60.2877 61.9436V29.586C60.2877 28.8536 59.6939 28.2598 58.9614 28.2598H53.6563C52.9239 28.2598 52.3301 28.8536 52.3301 29.586V61.9436C52.3301 62.6761 52.9239 63.2699 53.6563 63.2699H58.9614C59.6939 63.2699 60.2877 62.6761 60.2877 61.9436ZM57.6351 60.6174H54.9826V30.9123H57.6351V60.6174Z" fill="#001C80"/>
<path d="M60.0757 18.2294C59.4698 17.8177 58.645 17.9752 58.2334 18.5811L55.2616 22.9549H50.7303C50.2369 22.9549 49.7842 23.2289 49.5554 23.666L44.8079 32.7347H40.394C39.9098 32.7347 39.4641 32.9985 39.2312 33.423L34.2153 42.5661H29.7838C29.3472 42.5661 28.9385 42.781 28.6911 43.1408L24.577 49.1231H21.8263C21.0938 49.1231 20.5 49.7169 20.5 50.4494C20.5 51.1818 21.0938 51.7757 21.8263 51.7757H25.2746C25.7112 51.7757 26.1199 51.5607 26.3673 51.2009L30.4814 45.2186H35.0005C35.4847 45.2186 35.9304 44.9548 36.1633 44.5303L41.1791 35.3872H45.6106C46.1041 35.3872 46.5568 35.1132 46.7856 34.676L51.5331 25.6074H55.9639C56.4032 25.6074 56.814 25.3899 57.0609 25.0265L60.4274 20.0718C60.839 19.4659 60.6816 18.6411 60.0757 18.2294Z" fill="#001C80"/>
</svg>
