<svg width="17" height="446" viewBox="0 0 17 446" fill="none" xmlns="http://www.w3.org/2000/svg">
<path d="M5.63004 9.12148L14.0964 0.406219C14.3595 0.135406 14.6943 0 15.1009 0C15.5075 0 15.8423 0.135406 16.1054 0.406219C16.3685 0.677032 16.5 1.0217 16.5 1.44023C16.5 1.85876 16.3685 2.20343 16.1054 2.47425L6.63453 12.2235C6.34753 12.5189 6.01271 12.6667 5.63004 12.6667C5.24738 12.6667 4.91256 12.5189 4.62556 12.2235L0.894618 8.3829C0.631539 8.11208 0.5 7.76741 0.5 7.34888C0.5 6.93035 0.631539 6.58568 0.894618 6.31487C1.1577 6.04405 1.49253 5.90865 1.8991 5.90865C2.30568 5.90865 2.64051 6.04405 2.90359 6.31487L5.63004 9.12148Z" fill="#00BB98"/>
<path d="M8.5 44.4481L13.571 49.5191C13.8916 49.8397 14.2996 50 14.7951 50C15.2905 50 15.6985 49.8397 16.0191 49.5191C16.3397 49.1985 16.5 48.7905 16.5 48.2951C16.5 47.7996 16.3397 47.3916 16.0191 47.071L10.9481 42L16.0191 36.929C16.3397 36.6084 16.5 36.2004 16.5 35.7049C16.5 35.2095 16.3397 34.8015 16.0191 34.4809C15.6985 34.1603 15.2905 34 14.7951 34C14.2996 34 13.8916 34.1603 13.571 34.4809L8.5 39.5519L3.42896 34.4809C3.10838 34.1603 2.70036 34 2.20492 34C1.70947 34 1.30146 34.1603 0.980874 34.4809C0.660291 34.8015 0.5 35.2095 0.5 35.7049C0.5 36.2004 0.660291 36.6084 0.980874 36.929L6.05191 42L0.980874 47.071C0.660291 47.3916 0.5 47.7996 0.5 48.2951C0.5 48.7905 0.660291 49.1985 0.980874 49.5191C1.30146 49.8397 1.70947 50 2.20492 50C2.70036 50 3.10838 49.8397 3.42896 49.5191L8.5 44.4481Z" fill="#FD4C5C"/>
<path d="M8.5 80.4481L13.571 85.5191C13.8916 85.8397 14.2996 86 14.7951 86C15.2905 86 15.6985 85.8397 16.0191 85.5191C16.3397 85.1985 16.5 84.7905 16.5 84.2951C16.5 83.7996 16.3397 83.3916 16.0191 83.071L10.9481 78L16.0191 72.929C16.3397 72.6084 16.5 72.2004 16.5 71.7049C16.5 71.2095 16.3397 70.8015 16.0191 70.4809C15.6985 70.1603 15.2905 70 14.7951 70C14.2996 70 13.8916 70.1603 13.571 70.4809L8.5 75.5519L3.42896 70.4809C3.10838 70.1603 2.70036 70 2.20492 70C1.70947 70 1.30146 70.1603 0.980874 70.4809C0.660291 70.8015 0.5 71.2095 0.5 71.7049C0.5 72.2004 0.660291 72.6084 0.980874 72.929L6.05191 78L0.980874 83.071C0.660291 83.3916 0.5 83.7996 0.5 84.2951C0.5 84.7905 0.660291 85.1985 0.980874 85.5191C1.30146 85.8397 1.70947 86 2.20492 86C2.70036 86 3.10838 85.8397 3.42896 85.5191L8.5 80.4481Z" fill="#FD4C5C"/>
<path d="M8.5 116.448L13.571 121.519C13.8916 121.84 14.2996 122 14.7951 122C15.2905 122 15.6985 121.84 16.0191 121.519C16.3397 121.199 16.5 120.791 16.5 120.295C16.5 119.8 16.3397 119.392 16.0191 119.071L10.9481 114L16.0191 108.929C16.3397 108.608 16.5 108.2 16.5 107.705C16.5 107.209 16.3397 106.801 16.0191 106.481C15.6985 106.16 15.2905 106 14.7951 106C14.2996 106 13.8916 106.16 13.571 106.481L8.5 111.552L3.42896 106.481C3.10838 106.16 2.70036 106 2.20492 106C1.70947 106 1.30146 106.16 0.980874 106.481C0.660291 106.801 0.5 107.209 0.5 107.705C0.5 108.2 0.660291 108.608 0.980874 108.929L6.05191 114L0.980874 119.071C0.660291 119.392 0.5 119.8 0.5 120.295C0.5 120.791 0.660291 121.199 0.980874 121.519C1.30146 121.84 1.70947 122 2.20492 122C2.70036 122 3.10838 121.84 3.42896 121.519L8.5 116.448Z" fill="#FD4C5C"/>
<path d="M8.5 152.448L13.571 157.519C13.8916 157.84 14.2996 158 14.7951 158C15.2905 158 15.6985 157.84 16.0191 157.519C16.3397 157.199 16.5 156.791 16.5 156.295C16.5 155.8 16.3397 155.392 16.0191 155.071L10.9481 150L16.0191 144.929C16.3397 144.608 16.5 144.2 16.5 143.705C16.5 143.209 16.3397 142.801 16.0191 142.481C15.6985 142.16 15.2905 142 14.7951 142C14.2996 142 13.8916 142.16 13.571 142.481L8.5 147.552L3.42896 142.481C3.10838 142.16 2.70036 142 2.20492 142C1.70947 142 1.30146 142.16 0.980874 142.481C0.660291 142.801 0.5 143.209 0.5 143.705C0.5 144.2 0.660291 144.608 0.980874 144.929L6.05191 150L0.980874 155.071C0.660291 155.392 0.5 155.8 0.5 156.295C0.5 156.791 0.660291 157.199 0.980874 157.519C1.30146 157.84 1.70947 158 2.20492 158C2.70036 158 3.10838 157.84 3.42896 157.519L8.5 152.448Z" fill="#FD4C5C"/>
<path d="M8.5 188.448L13.571 193.519C13.8916 193.84 14.2996 194 14.7951 194C15.2905 194 15.6985 193.84 16.0191 193.519C16.3397 193.199 16.5 192.791 16.5 192.295C16.5 191.8 16.3397 191.392 16.0191 191.071L10.9481 186L16.0191 180.929C16.3397 180.608 16.5 180.2 16.5 179.705C16.5 179.209 16.3397 178.801 16.0191 178.481C15.6985 178.16 15.2905 178 14.7951 178C14.2996 178 13.8916 178.16 13.571 178.481L8.5 183.552L3.42896 178.481C3.10838 178.16 2.70036 178 2.20492 178C1.70947 178 1.30146 178.16 0.980874 178.481C0.660291 178.801 0.5 179.209 0.5 179.705C0.5 180.2 0.660291 180.608 0.980874 180.929L6.05191 186L0.980874 191.071C0.660291 191.392 0.5 191.8 0.5 192.295C0.5 192.791 0.660291 193.199 0.980874 193.519C1.30146 193.84 1.70947 194 2.20492 194C2.70036 194 3.10838 193.84 3.42896 193.519L8.5 188.448Z" fill="#FD4C5C"/>
<path d="M8.5 224.448L13.571 229.519C13.8916 229.84 14.2996 230 14.7951 230C15.2905 230 15.6985 229.84 16.0191 229.519C16.3397 229.199 16.5 228.791 16.5 228.295C16.5 227.8 16.3397 227.392 16.0191 227.071L10.9481 222L16.0191 216.929C16.3397 216.608 16.5 216.2 16.5 215.705C16.5 215.209 16.3397 214.801 16.0191 214.481C15.6985 214.16 15.2905 214 14.7951 214C14.2996 214 13.8916 214.16 13.571 214.481L8.5 219.552L3.42896 214.481C3.10838 214.16 2.70036 214 2.20492 214C1.70947 214 1.30146 214.16 0.980874 214.481C0.660291 214.801 0.5 215.209 0.5 215.705C0.5 216.2 0.660291 216.608 0.980874 216.929L6.05191 222L0.980874 227.071C0.660291 227.392 0.5 227.8 0.5 228.295C0.5 228.791 0.660291 229.199 0.980874 229.519C1.30146 229.84 1.70947 230 2.20492 230C2.70036 230 3.10838 229.84 3.42896 229.519L8.5 224.448Z" fill="#FD4C5C"/>
<path d="M8.5 260.448L13.571 265.519C13.8916 265.84 14.2996 266 14.7951 266C15.2905 266 15.6985 265.84 16.0191 265.519C16.3397 265.199 16.5 264.791 16.5 264.295C16.5 263.8 16.3397 263.392 16.0191 263.071L10.9481 258L16.0191 252.929C16.3397 252.608 16.5 252.2 16.5 251.705C16.5 251.209 16.3397 250.801 16.0191 250.481C15.6985 250.16 15.2905 250 14.7951 250C14.2996 250 13.8916 250.16 13.571 250.481L8.5 255.552L3.42896 250.481C3.10838 250.16 2.70036 250 2.20492 250C1.70947 250 1.30146 250.16 0.980874 250.481C0.660291 250.801 0.5 251.209 0.5 251.705C0.5 252.2 0.660291 252.608 0.980874 252.929L6.05191 258L0.980874 263.071C0.660291 263.392 0.5 263.8 0.5 264.295C0.5 264.791 0.660291 265.199 0.980874 265.519C1.30146 265.84 1.70947 266 2.20492 266C2.70036 266 3.10838 265.84 3.42896 265.519L8.5 260.448Z" fill="#FD4C5C"/>
<path d="M8.5 296.448L13.571 301.519C13.8916 301.84 14.2996 302 14.7951 302C15.2905 302 15.6985 301.84 16.0191 301.519C16.3397 301.199 16.5 300.791 16.5 300.295C16.5 299.8 16.3397 299.392 16.0191 299.071L10.9481 294L16.0191 288.929C16.3397 288.608 16.5 288.2 16.5 287.705C16.5 287.209 16.3397 286.801 16.0191 286.481C15.6985 286.16 15.2905 286 14.7951 286C14.2996 286 13.8916 286.16 13.571 286.481L8.5 291.552L3.42896 286.481C3.10838 286.16 2.70036 286 2.20492 286C1.70947 286 1.30146 286.16 0.980874 286.481C0.660291 286.801 0.5 287.209 0.5 287.705C0.5 288.2 0.660291 288.608 0.980874 288.929L6.05191 294L0.980874 299.071C0.660291 299.392 0.5 299.8 0.5 300.295C0.5 300.791 0.660291 301.199 0.980874 301.519C1.30146 301.84 1.70947 302 2.20492 302C2.70036 302 3.10838 301.84 3.42896 301.519L8.5 296.448Z" fill="#FD4C5C"/>
<path d="M8.5 332.448L13.571 337.519C13.8916 337.84 14.2996 338 14.7951 338C15.2905 338 15.6985 337.84 16.0191 337.519C16.3397 337.199 16.5 336.791 16.5 336.295C16.5 335.8 16.3397 335.392 16.0191 335.071L10.9481 330L16.0191 324.929C16.3397 324.608 16.5 324.2 16.5 323.705C16.5 323.209 16.3397 322.801 16.0191 322.481C15.6985 322.16 15.2905 322 14.7951 322C14.2996 322 13.8916 322.16 13.571 322.481L8.5 327.552L3.42896 322.481C3.10838 322.16 2.70036 322 2.20492 322C1.70947 322 1.30146 322.16 0.980874 322.481C0.660291 322.801 0.5 323.209 0.5 323.705C0.5 324.2 0.660291 324.608 0.980874 324.929L6.05191 330L0.980874 335.071C0.660291 335.392 0.5 335.8 0.5 336.295C0.5 336.791 0.660291 337.199 0.980874 337.519C1.30146 337.84 1.70947 338 2.20492 338C2.70036 338 3.10838 337.84 3.42896 337.519L8.5 332.448Z" fill="#FD4C5C"/>
<path d="M8.5 368.448L13.571 373.519C13.8916 373.84 14.2996 374 14.7951 374C15.2905 374 15.6985 373.84 16.0191 373.519C16.3397 373.199 16.5 372.791 16.5 372.295C16.5 371.8 16.3397 371.392 16.0191 371.071L10.9481 366L16.0191 360.929C16.3397 360.608 16.5 360.2 16.5 359.705C16.5 359.209 16.3397 358.801 16.0191 358.481C15.6985 358.16 15.2905 358 14.7951 358C14.2996 358 13.8916 358.16 13.571 358.481L8.5 363.552L3.42896 358.481C3.10838 358.16 2.70036 358 2.20492 358C1.70947 358 1.30146 358.16 0.980874 358.481C0.660291 358.801 0.5 359.209 0.5 359.705C0.5 360.2 0.660291 360.608 0.980874 360.929L6.05191 366L0.980874 371.071C0.660291 371.392 0.5 371.8 0.5 372.295C0.5 372.791 0.660291 373.199 0.980874 373.519C1.30146 373.84 1.70947 374 2.20492 374C2.70036 374 3.10838 373.84 3.42896 373.519L8.5 368.448Z" fill="#FD4C5C"/>
<path d="M8.5 404.448L13.571 409.519C13.8916 409.84 14.2996 410 14.7951 410C15.2905 410 15.6985 409.84 16.0191 409.519C16.3397 409.199 16.5 408.791 16.5 408.295C16.5 407.8 16.3397 407.392 16.0191 407.071L10.9481 402L16.0191 396.929C16.3397 396.608 16.5 396.2 16.5 395.705C16.5 395.209 16.3397 394.801 16.0191 394.481C15.6985 394.16 15.2905 394 14.7951 394C14.2996 394 13.8916 394.16 13.571 394.481L8.5 399.552L3.42896 394.481C3.10838 394.16 2.70036 394 2.20492 394C1.70947 394 1.30146 394.16 0.980874 394.481C0.660291 394.801 0.5 395.209 0.5 395.705C0.5 396.2 0.660291 396.608 0.980874 396.929L6.05191 402L0.980874 407.071C0.660291 407.392 0.5 407.8 0.5 408.295C0.5 408.791 0.660291 409.199 0.980874 409.519C1.30146 409.84 1.70947 410 2.20492 410C2.70036 410 3.10838 409.84 3.42896 409.519L8.5 404.448Z" fill="#FD4C5C"/>
<path d="M8.5 440.448L13.571 445.519C13.8916 445.84 14.2996 446 14.7951 446C15.2905 446 15.6985 445.84 16.0191 445.519C16.3397 445.199 16.5 444.791 16.5 444.295C16.5 443.8 16.3397 443.392 16.0191 443.071L10.9481 438L16.0191 432.929C16.3397 432.608 16.5 432.2 16.5 431.705C16.5 431.209 16.3397 430.801 16.0191 430.481C15.6985 430.16 15.2905 430 14.7951 430C14.2996 430 13.8916 430.16 13.571 430.481L8.5 435.552L3.42896 430.481C3.10838 430.16 2.70036 430 2.20492 430C1.70947 430 1.30146 430.16 0.980874 430.481C0.660291 430.801 0.5 431.209 0.5 431.705C0.5 432.2 0.660291 432.608 0.980874 432.929L6.05191 438L0.980874 443.071C0.660291 443.392 0.5 443.8 0.5 444.295C0.5 444.791 0.660291 445.199 0.980874 445.519C1.30146 445.84 1.70947 446 2.20492 446C2.70036 446 3.10838 445.84 3.42896 445.519L8.5 440.448Z" fill="#FD4C5C"/>
</svg>
