<svg width="24" height="18" viewBox="0 0 24 18" fill="none" xmlns="http://www.w3.org/2000/svg">
<path d="M1.71429 0.5H10.2857C10.7404 0.5 11.1764 0.680612 11.4979 1.0021C11.8194 1.32359 12 1.75963 12 2.21429C12 2.66894 11.8194 3.10498 11.4979 3.42647C11.1764 3.74796 10.7404 3.92857 10.2857 3.92857H1.71429C1.25963 3.92857 0.823594 3.74796 0.502103 3.42647C0.180612 3.10498 0 2.66894 0 2.21429C0 1.75963 0.180612 1.32359 0.502103 1.0021C0.823594 0.680612 1.25963 0.5 1.71429 0.5ZM13.7143 14.2143H22.2857C22.7404 14.2143 23.1764 14.3949 23.4979 14.7164C23.8194 15.0379 24 15.4739 24 15.9286C24 16.3832 23.8194 16.8193 23.4979 17.1408C23.1764 17.4622 22.7404 17.6429 22.2857 17.6429H13.7143C13.2596 17.6429 12.8236 17.4622 12.5021 17.1408C12.1806 16.8193 12 16.3832 12 15.9286C12 15.4739 12.1806 15.0379 12.5021 14.7164C12.8236 14.3949 13.2596 14.2143 13.7143 14.2143ZM1.71429 7.35714H22.2857C22.7404 7.35714 23.1764 7.53775 23.4979 7.85925C23.8194 8.18074 24 8.61677 24 9.07143C24 9.52608 23.8194 9.96212 23.4979 10.2836C23.1764 10.6051 22.7404 10.7857 22.2857 10.7857H1.71429C1.25963 10.7857 0.823594 10.6051 0.502103 10.2836C0.180612 9.96212 0 9.52608 0 9.07143C0 8.61677 0.180612 8.18074 0.502103 7.85925C0.823594 7.53775 1.25963 7.35714 1.71429 7.35714Z" fill="#FEFEFE"/>
</svg>
