<svg width="24" height="715" viewBox="0 0 24 715" fill="none" xmlns="http://www.w3.org/2000/svg">
<path d="M7.69507 13.6822L20.3946 0.609329C20.7892 0.203109 21.2915 0 21.9013 0C22.5112 0 23.0135 0.203109 23.4081 0.609329C23.8027 1.01555 24 1.53255 24 2.16035C24 2.78814 23.8027 3.30515 23.4081 3.71137L9.20179 18.3353C8.7713 18.7784 8.26906 19 7.69507 19C7.12108 19 6.61883 18.7784 6.18834 18.3353L0.591927 12.5743C0.197309 12.1681 0 11.6511 0 11.0233C0 10.3955 0.197309 9.87852 0.591927 9.4723C0.986546 9.06608 1.48879 8.86297 2.09865 8.86297C2.70852 8.86297 3.21076 9.06608 3.60538 9.4723L7.69507 13.6822Z" fill="#00BB98"/>
<path d="M7.69507 71.6822L20.3946 58.6093C20.7892 58.2031 21.2915 58 21.9013 58C22.5112 58 23.0135 58.2031 23.4081 58.6093C23.8027 59.0155 24 59.5326 24 60.1603C24 60.7881 23.8027 61.3052 23.4081 61.7114L9.20179 76.3353C8.7713 76.7784 8.26906 77 7.69507 77C7.12108 77 6.61883 76.7784 6.18834 76.3353L0.591927 70.5743C0.197309 70.1681 0 69.6511 0 69.0233C0 68.3955 0.197309 67.8785 0.591927 67.4723C0.986546 67.0661 1.48879 66.863 2.09865 66.863C2.70852 66.863 3.21076 67.0661 3.60538 67.4723L7.69507 71.6822Z" fill="#00BB98"/>
<path d="M7.69507 129.682L20.3946 116.609C20.7892 116.203 21.2915 116 21.9013 116C22.5112 116 23.0135 116.203 23.4081 116.609C23.8027 117.016 24 117.533 24 118.16C24 118.788 23.8027 119.305 23.4081 119.711L9.20179 134.335C8.7713 134.778 8.26906 135 7.69507 135C7.12108 135 6.61883 134.778 6.18834 134.335L0.591927 128.574C0.197309 128.168 0 127.651 0 127.023C0 126.396 0.197309 125.879 0.591927 125.472C0.986546 125.066 1.48879 124.863 2.09865 124.863C2.70852 124.863 3.21076 125.066 3.60538 125.472L7.69507 129.682Z" fill="#00BB98"/>
<path d="M7.69507 187.682L20.3946 174.609C20.7892 174.203 21.2915 174 21.9013 174C22.5112 174 23.0135 174.203 23.4081 174.609C23.8027 175.016 24 175.533 24 176.16C24 176.788 23.8027 177.305 23.4081 177.711L9.20179 192.335C8.7713 192.778 8.26906 193 7.69507 193C7.12108 193 6.61883 192.778 6.18834 192.335L0.591927 186.574C0.197309 186.168 0 185.651 0 185.023C0 184.396 0.197309 183.879 0.591927 183.472C0.986546 183.066 1.48879 182.863 2.09865 182.863C2.70852 182.863 3.21076 183.066 3.60538 183.472L7.69507 187.682Z" fill="#00BB98"/>
<path d="M7.69507 245.682L20.3946 232.609C20.7892 232.203 21.2915 232 21.9013 232C22.5112 232 23.0135 232.203 23.4081 232.609C23.8027 233.016 24 233.533 24 234.16C24 234.788 23.8027 235.305 23.4081 235.711L9.20179 250.335C8.7713 250.778 8.26906 251 7.69507 251C7.12108 251 6.61883 250.778 6.18834 250.335L0.591927 244.574C0.197309 244.168 0 243.651 0 243.023C0 242.396 0.197309 241.879 0.591927 241.472C0.986546 241.066 1.48879 240.863 2.09865 240.863C2.70852 240.863 3.21076 241.066 3.60538 241.472L7.69507 245.682Z" fill="#00BB98"/>
<path d="M7.69507 303.682L20.3946 290.609C20.7892 290.203 21.2915 290 21.9013 290C22.5112 290 23.0135 290.203 23.4081 290.609C23.8027 291.016 24 291.533 24 292.16C24 292.788 23.8027 293.305 23.4081 293.711L9.20179 308.335C8.7713 308.778 8.26906 309 7.69507 309C7.12108 309 6.61883 308.778 6.18834 308.335L0.591927 302.574C0.197309 302.168 0 301.651 0 301.023C0 300.396 0.197309 299.879 0.591927 299.472C0.986546 299.066 1.48879 298.863 2.09865 298.863C2.70852 298.863 3.21076 299.066 3.60538 299.472L7.69507 303.682Z" fill="#00BB98"/>
<path d="M7.69507 361.682L20.3946 348.609C20.7892 348.203 21.2915 348 21.9013 348C22.5112 348 23.0135 348.203 23.4081 348.609C23.8027 349.016 24 349.533 24 350.16C24 350.788 23.8027 351.305 23.4081 351.711L9.20179 366.335C8.7713 366.778 8.26906 367 7.69507 367C7.12108 367 6.61883 366.778 6.18834 366.335L0.591927 360.574C0.197309 360.168 0 359.651 0 359.023C0 358.396 0.197309 357.879 0.591927 357.472C0.986546 357.066 1.48879 356.863 2.09865 356.863C2.70852 356.863 3.21076 357.066 3.60538 357.472L7.69507 361.682Z" fill="#00BB98"/>
<path d="M7.69507 419.682L20.3946 406.609C20.7892 406.203 21.2915 406 21.9013 406C22.5112 406 23.0135 406.203 23.4081 406.609C23.8027 407.016 24 407.533 24 408.16C24 408.788 23.8027 409.305 23.4081 409.711L9.20179 424.335C8.7713 424.778 8.26906 425 7.69507 425C7.12108 425 6.61883 424.778 6.18834 424.335L0.591927 418.574C0.197309 418.168 0 417.651 0 417.023C0 416.396 0.197309 415.879 0.591927 415.472C0.986546 415.066 1.48879 414.863 2.09865 414.863C2.70852 414.863 3.21076 415.066 3.60538 415.472L7.69507 419.682Z" fill="#00BB98"/>
<path d="M7.69507 477.682L20.3946 464.609C20.7892 464.203 21.2915 464 21.9013 464C22.5112 464 23.0135 464.203 23.4081 464.609C23.8027 465.016 24 465.533 24 466.16C24 466.788 23.8027 467.305 23.4081 467.711L9.20179 482.335C8.7713 482.778 8.26906 483 7.69507 483C7.12108 483 6.61883 482.778 6.18834 482.335L0.591927 476.574C0.197309 476.168 0 475.651 0 475.023C0 474.396 0.197309 473.879 0.591927 473.472C0.986546 473.066 1.48879 472.863 2.09865 472.863C2.70852 472.863 3.21076 473.066 3.60538 473.472L7.69507 477.682Z" fill="#00BB98"/>
<path d="M7.69507 535.682L20.3946 522.609C20.7892 522.203 21.2915 522 21.9013 522C22.5112 522 23.0135 522.203 23.4081 522.609C23.8027 523.016 24 523.533 24 524.16C24 524.788 23.8027 525.305 23.4081 525.711L9.20179 540.335C8.7713 540.778 8.26906 541 7.69507 541C7.12108 541 6.61883 540.778 6.18834 540.335L0.591927 534.574C0.197309 534.168 0 533.651 0 533.023C0 532.396 0.197309 531.879 0.591927 531.472C0.986546 531.066 1.48879 530.863 2.09865 530.863C2.70852 530.863 3.21076 531.066 3.60538 531.472L7.69507 535.682Z" fill="#00BB98"/>
<path d="M7.69507 593.682L20.3946 580.609C20.7892 580.203 21.2915 580 21.9013 580C22.5112 580 23.0135 580.203 23.4081 580.609C23.8027 581.016 24 581.533 24 582.16C24 582.788 23.8027 583.305 23.4081 583.711L9.20179 598.335C8.7713 598.778 8.26906 599 7.69507 599C7.12108 599 6.61883 598.778 6.18834 598.335L0.591927 592.574C0.197309 592.168 0 591.651 0 591.023C0 590.396 0.197309 589.879 0.591927 589.472C0.986546 589.066 1.48879 588.863 2.09865 588.863C2.70852 588.863 3.21076 589.066 3.60538 589.472L7.69507 593.682Z" fill="#00BB98"/>
<path d="M7.69507 651.682L20.3946 638.609C20.7892 638.203 21.2915 638 21.9013 638C22.5112 638 23.0135 638.203 23.4081 638.609C23.8027 639.016 24 639.533 24 640.16C24 640.788 23.8027 641.305 23.4081 641.711L9.20179 656.335C8.7713 656.778 8.26906 657 7.69507 657C7.12108 657 6.61883 656.778 6.18834 656.335L0.591927 650.574C0.197309 650.168 0 649.651 0 649.023C0 648.396 0.197309 647.879 0.591927 647.472C0.986546 647.066 1.48879 646.863 2.09865 646.863C2.70852 646.863 3.21076 647.066 3.60538 647.472L7.69507 651.682Z" fill="#00BB98"/>
<path d="M7.69507 709.682L20.3946 696.609C20.7892 696.203 21.2915 696 21.9013 696C22.5112 696 23.0135 696.203 23.4081 696.609C23.8027 697.016 24 697.533 24 698.16C24 698.788 23.8027 699.305 23.4081 699.711L9.20179 714.335C8.7713 714.778 8.26906 715 7.69507 715C7.12108 715 6.61883 714.778 6.18834 714.335L0.591927 708.574C0.197309 708.168 0 707.651 0 707.023C0 706.396 0.197309 705.879 0.591927 705.472C0.986546 705.066 1.48879 704.863 2.09865 704.863C2.70852 704.863 3.21076 705.066 3.60538 705.472L7.69507 709.682Z" fill="#00BB98"/>
</svg>
