<svg width="81" height="80" viewBox="0 0 81 80" fill="none" xmlns="http://www.w3.org/2000/svg">
<circle opacity="0.1" cx="40.5" cy="40" r="40" fill="#781BFF"/>
<path d="M50.8387 39.6213L62.3831 28.0635C62.632 27.8143 62.7716 27.4763 62.771 27.1241C62.7705 26.772 62.6298 26.4345 62.3802 26.1861L53.5372 17.3873C53.0189 16.8716 52.1811 16.8726 51.6639 17.3896L40.1355 28.9181L30.4813 19.264C30.2885 19.0711 30.0408 18.9423 29.7722 18.8954L19.0549 17.0198C18.6292 16.9455 18.1939 17.0829 17.8884 17.3885C17.5828 17.6941 17.4453 18.1293 17.5199 18.555L19.3968 29.2711C19.4438 29.54 19.5727 29.7878 19.7659 29.9806L29.4254 39.6283L17.889 51.1646C17.6403 51.4133 17.5005 51.7506 17.5005 52.1023C17.5005 52.4542 17.6403 52.7915 17.889 53.0402L26.7296 61.8807C26.9783 62.1295 27.3156 62.2691 27.6673 62.2691H27.6677C28.0196 62.269 28.357 62.1291 28.6056 61.8802L40.1413 50.3313L51.7067 61.8824C51.9555 62.1308 52.2926 62.2703 52.6441 62.2703H52.6461C52.9983 62.2698 53.3357 62.1291 53.5841 61.8795L62.3829 53.0364C62.8986 52.5181 62.8976 51.6802 62.3806 51.1631L50.8387 39.6213ZM44.7307 28.0742L47.5441 30.8876C47.8031 31.1467 48.1425 31.2761 48.482 31.2761C48.8214 31.2761 49.1608 31.1467 49.4197 30.8876C49.9377 30.3698 49.9377 29.53 49.4197 29.012L46.6063 26.1986L49.1516 23.6533L51.965 26.4668C52.224 26.7258 52.5634 26.8553 52.9029 26.8553C53.2423 26.8553 53.5817 26.7258 53.8406 26.4668C54.3586 25.9489 54.3586 25.1091 53.8406 24.5912L51.0272 21.7777L52.6042 20.2007L59.5674 27.1291L48.9631 37.7457L42.0111 30.7937L44.7307 28.0742ZM26.8014 21.0683L21.5693 26.3005L20.4585 19.9583L26.8014 21.0683ZM27.6668 59.0667L20.7024 52.1023L22.2774 50.5274L25.0909 53.3408C25.3497 53.5998 25.6893 53.7293 26.0286 53.7293C26.3681 53.7293 26.7075 53.5998 26.9664 53.3408C27.4843 52.823 27.4843 51.9832 26.9664 51.4652L24.1529 48.6518L26.6982 46.1065L29.5116 48.9199C29.7705 49.1789 30.1101 49.3084 30.4495 49.3084C30.7889 49.3084 31.1284 49.1789 31.3872 48.9199C31.9052 48.4021 31.9052 47.5623 31.3872 47.0443L28.5738 44.2309L31.302 41.5028L38.2644 48.4566L27.6668 59.0667ZM52.641 59.0666L22.5792 29.0417L25.1227 26.4982L55.1598 56.5353L52.641 59.0666ZM57.0306 54.655L26.9983 24.6226L29.5436 22.0774L59.5695 52.1033L57.0306 54.655Z" fill="#781BFF"/>
</svg>
