<svg width="81" height="80" viewBox="0 0 81 80" fill="none" xmlns="http://www.w3.org/2000/svg">
<circle opacity="0.1" cx="40.5" cy="40" r="40" fill="#FD4C5C"/>
<path d="M59.5 45.1159V34.8841H56.6701C56.3186 33.702 55.8461 32.5615 55.2582 31.4768L57.2596 29.4754L50.0247 22.2404L48.0233 24.2418C46.9385 23.654 45.798 23.1813 44.6159 22.8299V20H34.3841V22.8299C33.202 23.1813 32.0616 23.6539 30.9768 24.2418L28.9754 22.2404L21.7404 29.4754L23.7418 31.4768C23.154 32.5616 22.6813 33.702 22.3299 34.8841H19.5V45.1159H22.3299C22.6814 46.298 23.154 47.4385 23.7418 48.5233L21.7404 50.5247L28.9754 57.7597L30.9768 55.7583C32.0615 56.3461 33.202 56.8188 34.3841 57.1702V60H44.6159V57.1701C45.798 56.8186 46.9386 56.346 48.0233 55.7582L50.0247 57.7596L57.2596 50.5246L55.2583 48.5232C55.8461 47.4385 56.3187 46.298 56.6702 45.1159H59.5ZM54.8499 42.7721L54.6334 43.6688C54.2548 45.2362 53.6362 46.7291 52.7948 48.1059L52.3138 48.8931L53.9452 50.5246L50.0248 54.445L48.3934 52.8136L47.606 53.2947C46.2291 54.1361 44.7363 54.7547 43.169 55.1333L42.2723 55.3498V57.6562H36.728V55.3499L35.8312 55.1334C34.2638 54.7548 32.771 54.1362 31.3942 53.2948L30.607 52.8137L28.9755 54.4451L25.0551 50.5247L26.6865 48.8932L26.2054 48.1059C25.364 46.7291 24.7454 45.2363 24.3668 43.6689L24.1502 42.7722H21.8438V37.2279H24.1502L24.3667 36.3311C24.7453 34.7637 25.3639 33.2709 26.2053 31.8941L26.6864 31.1067L25.055 29.4753L28.9754 25.5548L30.6069 27.1863L31.3941 26.7052C32.7709 25.8637 34.2637 25.2452 35.8311 24.8666L36.7279 24.6501V22.3438H42.2722V24.6502L43.169 24.8667C44.7363 25.2452 46.2291 25.8638 47.606 26.7052L48.3933 27.1863L50.0248 25.5549L53.9452 29.4754L52.3138 31.1068L52.7948 31.8941C53.6362 33.2709 54.2548 34.7638 54.6334 36.3312L54.8499 37.228H57.1562V42.7723H54.8499V42.7721Z" fill="#FD4C5C"/>
<path d="M39.5 26.3281C31.9613 26.3281 25.8281 32.4613 25.8281 40C25.8281 47.5387 31.9613 53.6719 39.5 53.6719C47.0387 53.6719 53.1719 47.5387 53.1719 40C53.1719 32.4613 47.0387 26.3281 39.5 26.3281ZM39.5 51.3281C33.2537 51.3281 28.1719 46.2463 28.1719 40C28.1719 33.7537 33.2537 28.6719 39.5 28.6719C45.7463 28.6719 50.8281 33.7537 50.8281 40C50.8281 46.2463 45.7463 51.3281 39.5 51.3281Z" fill="#FD4C5C"/>
<path d="M43.3944 38.3077L45.5132 40.4265L43.3944 42.5453L45.0517 44.2025L48.8278 40.4265L45.0517 36.6504L43.3944 38.3077Z" fill="#FD4C5C"/>
<path d="M33.9486 36.6504L30.1725 40.4265L33.9486 44.2025L35.6058 42.5453L33.4871 40.4265L35.6058 38.3077L33.9486 36.6504Z" fill="#FD4C5C"/>
<path d="M37.0219 47.5527L39.7613 32.0447L42.0699 32.4525L39.3304 47.9605L37.0219 47.5527Z" fill="#FD4C5C"/>
</svg>
