<svg width="63" height="62" viewBox="0 0 63 62" fill="none" xmlns="http://www.w3.org/2000/svg">
<circle cx="31.5" cy="31" r="31" fill="#FFCB2A"/>
<path d="M31.499 35.9599C24.3565 35.9599 23.0918 28.8423 22.8686 23.1953C22.8053 21.6255 22.7743 20.8393 23.3646 20.1139C23.9536 19.3873 24.6591 19.2683 26.0715 19.0302C27.8655 18.7361 29.681 18.5922 31.499 18.5999C33.7111 18.5999 35.5327 18.7946 36.9264 19.0302C38.3388 19.2683 39.0444 19.3873 39.6346 20.1139C40.2248 20.8406 40.1926 21.6255 40.1306 23.1953C39.9074 28.8411 38.6426 35.9599 31.5002 35.9599H31.499Z" stroke="white" stroke-width="1.5"/>
<path d="M30.2598 26.0397L32.1198 24.1797V29.1397" stroke="white" stroke-width="1.5" stroke-linecap="round" stroke-linejoin="round"/>
<path d="M40.1796 22.3193L41.3564 22.7112C42.584 23.1204 43.1978 23.325 43.5487 23.8123C43.8996 24.2996 43.8996 24.9469 43.8996 26.2402V26.3307C43.8996 27.3971 43.8996 27.9316 43.6429 28.3681C43.3862 28.8045 42.9188 29.0637 41.9863 29.5833L38.3196 31.6193M22.8196 22.3193L21.6428 22.7112C20.4152 23.1204 19.8014 23.325 19.4505 23.8123C19.0996 24.2996 19.0996 24.9481 19.0996 26.2402V26.3307C19.0996 27.3971 19.0996 27.9316 19.3563 28.3681C19.613 28.8045 20.0804 29.0637 21.0129 29.5833L24.6796 31.6193" stroke="white" stroke-width="1.5"/>
<path d="M31.5 35.96V39.68" stroke="white" stroke-width="1.5" stroke-linecap="round"/>
<path d="M35.8402 43.3998H27.1602L27.5818 41.2968C27.6379 41.0158 27.7897 40.7629 28.0112 40.5811C28.2328 40.3994 28.5104 40.3 28.797 40.2998H34.2034C34.4899 40.3 34.7676 40.3994 34.9891 40.5811C35.2106 40.7629 35.3624 41.0158 35.4186 41.2968L35.8402 43.3998Z" stroke="white" stroke-width="1.5" stroke-linecap="round" stroke-linejoin="round"/>
<path d="M38.9405 43.3994H24.0605" stroke="white" stroke-width="1.5" stroke-linecap="round"/>
</svg>
