<svg width="25" height="425" viewBox="0 0 25 425" fill="none" xmlns="http://www.w3.org/2000/svg">
<path d="M8.19507 13.6822L20.8946 0.609329C21.2892 0.203109 21.7915 0 22.4013 0C23.0112 0 23.5135 0.203109 23.9081 0.609329C24.3027 1.01555 24.5 1.53255 24.5 2.16035C24.5 2.78814 24.3027 3.30515 23.9081 3.71137L9.70179 18.3353C9.2713 18.7784 8.76906 19 8.19507 19C7.62108 19 7.11883 18.7784 6.68834 18.3353L1.09193 12.5743C0.697309 12.1681 0.5 11.6511 0.5 11.0233C0.5 10.3955 0.697309 9.87852 1.09193 9.4723C1.48655 9.06608 1.98879 8.86297 2.59865 8.86297C3.20852 8.86297 3.71076 9.06608 4.10538 9.4723L8.19507 13.6822Z" fill="#00BB98"/>
<path d="M8.19507 71.6822L20.8946 58.6093C21.2892 58.2031 21.7915 58 22.4013 58C23.0112 58 23.5135 58.2031 23.9081 58.6093C24.3027 59.0155 24.5 59.5326 24.5 60.1603C24.5 60.7881 24.3027 61.3052 23.9081 61.7114L9.70179 76.3353C9.2713 76.7784 8.76906 77 8.19507 77C7.62108 77 7.11883 76.7784 6.68834 76.3353L1.09193 70.5743C0.697309 70.1681 0.5 69.6511 0.5 69.0233C0.5 68.3955 0.697309 67.8785 1.09193 67.4723C1.48655 67.0661 1.98879 66.863 2.59865 66.863C3.20852 66.863 3.71076 67.0661 4.10538 67.4723L8.19507 71.6822Z" fill="#00BB98"/>
<path d="M8.19507 129.682L20.8946 116.609C21.2892 116.203 21.7915 116 22.4013 116C23.0112 116 23.5135 116.203 23.9081 116.609C24.3027 117.016 24.5 117.533 24.5 118.16C24.5 118.788 24.3027 119.305 23.9081 119.711L9.70179 134.335C9.2713 134.778 8.76906 135 8.19507 135C7.62108 135 7.11883 134.778 6.68834 134.335L1.09193 128.574C0.697309 128.168 0.5 127.651 0.5 127.023C0.5 126.396 0.697309 125.879 1.09193 125.472C1.48655 125.066 1.98879 124.863 2.59865 124.863C3.20852 124.863 3.71076 125.066 4.10538 125.472L8.19507 129.682Z" fill="#00BB98"/>
<path d="M8.19507 187.682L20.8946 174.609C21.2892 174.203 21.7915 174 22.4013 174C23.0112 174 23.5135 174.203 23.9081 174.609C24.3027 175.016 24.5 175.533 24.5 176.16C24.5 176.788 24.3027 177.305 23.9081 177.711L9.70179 192.335C9.2713 192.778 8.76906 193 8.19507 193C7.62108 193 7.11883 192.778 6.68834 192.335L1.09193 186.574C0.697309 186.168 0.5 185.651 0.5 185.023C0.5 184.396 0.697309 183.879 1.09193 183.472C1.48655 183.066 1.98879 182.863 2.59865 182.863C3.20852 182.863 3.71076 183.066 4.10538 183.472L8.19507 187.682Z" fill="#00BB98"/>
<path d="M8.19507 245.682L20.8946 232.609C21.2892 232.203 21.7915 232 22.4013 232C23.0112 232 23.5135 232.203 23.9081 232.609C24.3027 233.016 24.5 233.533 24.5 234.16C24.5 234.788 24.3027 235.305 23.9081 235.711L9.70179 250.335C9.2713 250.778 8.76906 251 8.19507 251C7.62108 251 7.11883 250.778 6.68834 250.335L1.09193 244.574C0.697309 244.168 0.5 243.651 0.5 243.023C0.5 242.396 0.697309 241.879 1.09193 241.472C1.48655 241.066 1.98879 240.863 2.59865 240.863C3.20852 240.863 3.71076 241.066 4.10538 241.472L8.19507 245.682Z" fill="#00BB98"/>
<path d="M8.19507 303.682L20.8946 290.609C21.2892 290.203 21.7915 290 22.4013 290C23.0112 290 23.5135 290.203 23.9081 290.609C24.3027 291.016 24.5 291.533 24.5 292.16C24.5 292.788 24.3027 293.305 23.9081 293.711L9.70179 308.335C9.2713 308.778 8.76906 309 8.19507 309C7.62108 309 7.11883 308.778 6.68834 308.335L1.09193 302.574C0.697309 302.168 0.5 301.651 0.5 301.023C0.5 300.396 0.697309 299.879 1.09193 299.472C1.48655 299.066 1.98879 298.863 2.59865 298.863C3.20852 298.863 3.71076 299.066 4.10538 299.472L8.19507 303.682Z" fill="#00BB98"/>
<path d="M8.19507 361.682L20.8946 348.609C21.2892 348.203 21.7915 348 22.4013 348C23.0112 348 23.5135 348.203 23.9081 348.609C24.3027 349.016 24.5 349.533 24.5 350.16C24.5 350.788 24.3027 351.305 23.9081 351.711L9.70179 366.335C9.2713 366.778 8.76906 367 8.19507 367C7.62108 367 7.11883 366.778 6.68834 366.335L1.09193 360.574C0.697309 360.168 0.5 359.651 0.5 359.023C0.5 358.396 0.697309 357.879 1.09193 357.472C1.48655 357.066 1.98879 356.863 2.59865 356.863C3.20852 356.863 3.71076 357.066 4.10538 357.472L8.19507 361.682Z" fill="#00BB98"/>
<path d="M8.19507 419.682L20.8946 406.609C21.2892 406.203 21.7915 406 22.4013 406C23.0112 406 23.5135 406.203 23.9081 406.609C24.3027 407.016 24.5 407.533 24.5 408.16C24.5 408.788 24.3027 409.305 23.9081 409.711L9.70179 424.335C9.2713 424.778 8.76906 425 8.19507 425C7.62108 425 7.11883 424.778 6.68834 424.335L1.09193 418.574C0.697309 418.168 0.5 417.651 0.5 417.023C0.5 416.396 0.697309 415.879 1.09193 415.472C1.48655 415.066 1.98879 414.863 2.59865 414.863C3.20852 414.863 3.71076 415.066 4.10538 415.472L8.19507 419.682Z" fill="#00BB98"/>
</svg>
