<svg width="25" height="717" viewBox="0 0 25 717" fill="none" xmlns="http://www.w3.org/2000/svg">
<path d="M8.19507 13.6822L20.8946 0.609329C21.2892 0.203109 21.7915 0 22.4013 0C23.0112 0 23.5135 0.203109 23.9081 0.609329C24.3027 1.01555 24.5 1.53255 24.5 2.16035C24.5 2.78814 24.3027 3.30515 23.9081 3.71137L9.70179 18.3353C9.2713 18.7784 8.76906 19 8.19507 19C7.62108 19 7.11883 18.7784 6.68834 18.3353L1.09193 12.5743C0.697309 12.1681 0.5 11.6511 0.5 11.0233C0.5 10.3955 0.697309 9.87852 1.09193 9.4723C1.48655 9.06608 1.98879 8.86297 2.59865 8.86297C3.20852 8.86297 3.71076 9.06608 4.10538 9.4723L8.19507 13.6822Z" fill="#00BB98"/>
<path d="M12.5 70.6721L20.1066 78.2787C20.5874 78.7596 21.1995 79 21.9426 79C22.6858 79 23.2978 78.7596 23.7787 78.2787C24.2596 77.7978 24.5 77.1858 24.5 76.4426C24.5 75.6995 24.2596 75.0874 23.7787 74.6066L16.1721 67L23.7787 59.3934C24.2596 58.9126 24.5 58.3005 24.5 57.5574C24.5 56.8142 24.2596 56.2022 23.7787 55.7213C23.2978 55.2404 22.6858 55 21.9426 55C21.1995 55 20.5874 55.2404 20.1066 55.7213L12.5 63.3279L4.89344 55.7213C4.41257 55.2404 3.80054 55 3.05738 55C2.31421 55 1.70218 55.2404 1.22131 55.7213C0.740436 56.2022 0.5 56.8142 0.5 57.5574C0.5 58.3005 0.740436 58.9126 1.22131 59.3934L8.82787 67L1.22131 74.6066C0.740436 75.0874 0.5 75.6995 0.5 76.4426C0.5 77.1858 0.740436 77.7978 1.22131 78.2787C1.70218 78.7596 2.31421 79 3.05738 79C3.80054 79 4.41257 78.7596 4.89344 78.2787L12.5 70.6721Z" fill="#FD4C5C"/>
<path d="M12.5 128.672L20.1066 136.279C20.5874 136.76 21.1995 137 21.9426 137C22.6858 137 23.2978 136.76 23.7787 136.279C24.2596 135.798 24.5 135.186 24.5 134.443C24.5 133.699 24.2596 133.087 23.7787 132.607L16.1721 125L23.7787 117.393C24.2596 116.913 24.5 116.301 24.5 115.557C24.5 114.814 24.2596 114.202 23.7787 113.721C23.2978 113.24 22.6858 113 21.9426 113C21.1995 113 20.5874 113.24 20.1066 113.721L12.5 121.328L4.89344 113.721C4.41257 113.24 3.80054 113 3.05738 113C2.31421 113 1.70218 113.24 1.22131 113.721C0.740436 114.202 0.5 114.814 0.5 115.557C0.5 116.301 0.740436 116.913 1.22131 117.393L8.82787 125L1.22131 132.607C0.740436 133.087 0.5 133.699 0.5 134.443C0.5 135.186 0.740436 135.798 1.22131 136.279C1.70218 136.76 2.31421 137 3.05738 137C3.80054 137 4.41257 136.76 4.89344 136.279L12.5 128.672Z" fill="#FD4C5C"/>
<path d="M12.5 186.672L20.1066 194.279C20.5874 194.76 21.1995 195 21.9426 195C22.6858 195 23.2978 194.76 23.7787 194.279C24.2596 193.798 24.5 193.186 24.5 192.443C24.5 191.699 24.2596 191.087 23.7787 190.607L16.1721 183L23.7787 175.393C24.2596 174.913 24.5 174.301 24.5 173.557C24.5 172.814 24.2596 172.202 23.7787 171.721C23.2978 171.24 22.6858 171 21.9426 171C21.1995 171 20.5874 171.24 20.1066 171.721L12.5 179.328L4.89344 171.721C4.41257 171.24 3.80054 171 3.05738 171C2.31421 171 1.70218 171.24 1.22131 171.721C0.740436 172.202 0.5 172.814 0.5 173.557C0.5 174.301 0.740436 174.913 1.22131 175.393L8.82787 183L1.22131 190.607C0.740436 191.087 0.5 191.699 0.5 192.443C0.5 193.186 0.740436 193.798 1.22131 194.279C1.70218 194.76 2.31421 195 3.05738 195C3.80054 195 4.41257 194.76 4.89344 194.279L12.5 186.672Z" fill="#FD4C5C"/>
<path d="M12.5 244.672L20.1066 252.279C20.5874 252.76 21.1995 253 21.9426 253C22.6858 253 23.2978 252.76 23.7787 252.279C24.2596 251.798 24.5 251.186 24.5 250.443C24.5 249.699 24.2596 249.087 23.7787 248.607L16.1721 241L23.7787 233.393C24.2596 232.913 24.5 232.301 24.5 231.557C24.5 230.814 24.2596 230.202 23.7787 229.721C23.2978 229.24 22.6858 229 21.9426 229C21.1995 229 20.5874 229.24 20.1066 229.721L12.5 237.328L4.89344 229.721C4.41257 229.24 3.80054 229 3.05738 229C2.31421 229 1.70218 229.24 1.22131 229.721C0.740436 230.202 0.5 230.814 0.5 231.557C0.5 232.301 0.740436 232.913 1.22131 233.393L8.82787 241L1.22131 248.607C0.740436 249.087 0.5 249.699 0.5 250.443C0.5 251.186 0.740436 251.798 1.22131 252.279C1.70218 252.76 2.31421 253 3.05738 253C3.80054 253 4.41257 252.76 4.89344 252.279L12.5 244.672Z" fill="#FD4C5C"/>
<path d="M12.5 302.672L20.1066 310.279C20.5874 310.76 21.1995 311 21.9426 311C22.6858 311 23.2978 310.76 23.7787 310.279C24.2596 309.798 24.5 309.186 24.5 308.443C24.5 307.699 24.2596 307.087 23.7787 306.607L16.1721 299L23.7787 291.393C24.2596 290.913 24.5 290.301 24.5 289.557C24.5 288.814 24.2596 288.202 23.7787 287.721C23.2978 287.24 22.6858 287 21.9426 287C21.1995 287 20.5874 287.24 20.1066 287.721L12.5 295.328L4.89344 287.721C4.41257 287.24 3.80054 287 3.05738 287C2.31421 287 1.70218 287.24 1.22131 287.721C0.740436 288.202 0.5 288.814 0.5 289.557C0.5 290.301 0.740436 290.913 1.22131 291.393L8.82787 299L1.22131 306.607C0.740436 307.087 0.5 307.699 0.5 308.443C0.5 309.186 0.740436 309.798 1.22131 310.279C1.70218 310.76 2.31421 311 3.05738 311C3.80054 311 4.41257 310.76 4.89344 310.279L12.5 302.672Z" fill="#FD4C5C"/>
<path d="M12.5 360.672L20.1066 368.279C20.5874 368.76 21.1995 369 21.9426 369C22.6858 369 23.2978 368.76 23.7787 368.279C24.2596 367.798 24.5 367.186 24.5 366.443C24.5 365.699 24.2596 365.087 23.7787 364.607L16.1721 357L23.7787 349.393C24.2596 348.913 24.5 348.301 24.5 347.557C24.5 346.814 24.2596 346.202 23.7787 345.721C23.2978 345.24 22.6858 345 21.9426 345C21.1995 345 20.5874 345.24 20.1066 345.721L12.5 353.328L4.89344 345.721C4.41257 345.24 3.80054 345 3.05738 345C2.31421 345 1.70218 345.24 1.22131 345.721C0.740436 346.202 0.5 346.814 0.5 347.557C0.5 348.301 0.740436 348.913 1.22131 349.393L8.82787 357L1.22131 364.607C0.740436 365.087 0.5 365.699 0.5 366.443C0.5 367.186 0.740436 367.798 1.22131 368.279C1.70218 368.76 2.31421 369 3.05738 369C3.80054 369 4.41257 368.76 4.89344 368.279L12.5 360.672Z" fill="#FD4C5C"/>
<path d="M12.5 418.672L20.1066 426.279C20.5874 426.76 21.1995 427 21.9426 427C22.6858 427 23.2978 426.76 23.7787 426.279C24.2596 425.798 24.5 425.186 24.5 424.443C24.5 423.699 24.2596 423.087 23.7787 422.607L16.1721 415L23.7787 407.393C24.2596 406.913 24.5 406.301 24.5 405.557C24.5 404.814 24.2596 404.202 23.7787 403.721C23.2978 403.24 22.6858 403 21.9426 403C21.1995 403 20.5874 403.24 20.1066 403.721L12.5 411.328L4.89344 403.721C4.41257 403.24 3.80054 403 3.05738 403C2.31421 403 1.70218 403.24 1.22131 403.721C0.740436 404.202 0.5 404.814 0.5 405.557C0.5 406.301 0.740436 406.913 1.22131 407.393L8.82787 415L1.22131 422.607C0.740436 423.087 0.5 423.699 0.5 424.443C0.5 425.186 0.740436 425.798 1.22131 426.279C1.70218 426.76 2.31421 427 3.05738 427C3.80054 427 4.41257 426.76 4.89344 426.279L12.5 418.672Z" fill="#FD4C5C"/>
<path d="M12.5 476.672L20.1066 484.279C20.5874 484.76 21.1995 485 21.9426 485C22.6858 485 23.2978 484.76 23.7787 484.279C24.2596 483.798 24.5 483.186 24.5 482.443C24.5 481.699 24.2596 481.087 23.7787 480.607L16.1721 473L23.7787 465.393C24.2596 464.913 24.5 464.301 24.5 463.557C24.5 462.814 24.2596 462.202 23.7787 461.721C23.2978 461.24 22.6858 461 21.9426 461C21.1995 461 20.5874 461.24 20.1066 461.721L12.5 469.328L4.89344 461.721C4.41257 461.24 3.80054 461 3.05738 461C2.31421 461 1.70218 461.24 1.22131 461.721C0.740436 462.202 0.5 462.814 0.5 463.557C0.5 464.301 0.740436 464.913 1.22131 465.393L8.82787 473L1.22131 480.607C0.740436 481.087 0.5 481.699 0.5 482.443C0.5 483.186 0.740436 483.798 1.22131 484.279C1.70218 484.76 2.31421 485 3.05738 485C3.80054 485 4.41257 484.76 4.89344 484.279L12.5 476.672Z" fill="#FD4C5C"/>
<path d="M12.5 534.672L20.1066 542.279C20.5874 542.76 21.1995 543 21.9426 543C22.6858 543 23.2978 542.76 23.7787 542.279C24.2596 541.798 24.5 541.186 24.5 540.443C24.5 539.699 24.2596 539.087 23.7787 538.607L16.1721 531L23.7787 523.393C24.2596 522.913 24.5 522.301 24.5 521.557C24.5 520.814 24.2596 520.202 23.7787 519.721C23.2978 519.24 22.6858 519 21.9426 519C21.1995 519 20.5874 519.24 20.1066 519.721L12.5 527.328L4.89344 519.721C4.41257 519.24 3.80054 519 3.05738 519C2.31421 519 1.70218 519.24 1.22131 519.721C0.740436 520.202 0.5 520.814 0.5 521.557C0.5 522.301 0.740436 522.913 1.22131 523.393L8.82787 531L1.22131 538.607C0.740436 539.087 0.5 539.699 0.5 540.443C0.5 541.186 0.740436 541.798 1.22131 542.279C1.70218 542.76 2.31421 543 3.05738 543C3.80054 543 4.41257 542.76 4.89344 542.279L12.5 534.672Z" fill="#FD4C5C"/>
<path d="M12.5 591.672L20.1066 599.279C20.5874 599.76 21.1995 600 21.9426 600C22.6858 600 23.2978 599.76 23.7787 599.279C24.2596 598.798 24.5 598.186 24.5 597.443C24.5 596.699 24.2596 596.087 23.7787 595.607L16.1721 588L23.7787 580.393C24.2596 579.913 24.5 579.301 24.5 578.557C24.5 577.814 24.2596 577.202 23.7787 576.721C23.2978 576.24 22.6858 576 21.9426 576C21.1995 576 20.5874 576.24 20.1066 576.721L12.5 584.328L4.89344 576.721C4.41257 576.24 3.80054 576 3.05738 576C2.31421 576 1.70218 576.24 1.22131 576.721C0.740436 577.202 0.5 577.814 0.5 578.557C0.5 579.301 0.740436 579.913 1.22131 580.393L8.82787 588L1.22131 595.607C0.740436 596.087 0.5 596.699 0.5 597.443C0.5 598.186 0.740436 598.798 1.22131 599.279C1.70218 599.76 2.31421 600 3.05738 600C3.80054 600 4.41257 599.76 4.89344 599.279L12.5 591.672Z" fill="#FD4C5C"/>
<path d="M12.5 650.672L20.1066 658.279C20.5874 658.76 21.1995 659 21.9426 659C22.6858 659 23.2978 658.76 23.7787 658.279C24.2596 657.798 24.5 657.186 24.5 656.443C24.5 655.699 24.2596 655.087 23.7787 654.607L16.1721 647L23.7787 639.393C24.2596 638.913 24.5 638.301 24.5 637.557C24.5 636.814 24.2596 636.202 23.7787 635.721C23.2978 635.24 22.6858 635 21.9426 635C21.1995 635 20.5874 635.24 20.1066 635.721L12.5 643.328L4.89344 635.721C4.41257 635.24 3.80054 635 3.05738 635C2.31421 635 1.70218 635.24 1.22131 635.721C0.740436 636.202 0.5 636.814 0.5 637.557C0.5 638.301 0.740436 638.913 1.22131 639.393L8.82787 647L1.22131 654.607C0.740436 655.087 0.5 655.699 0.5 656.443C0.5 657.186 0.740436 657.798 1.22131 658.279C1.70218 658.76 2.31421 659 3.05738 659C3.80054 659 4.41257 658.76 4.89344 658.279L12.5 650.672Z" fill="#FD4C5C"/>
<path d="M12.5 708.672L20.1066 716.279C20.5874 716.76 21.1995 717 21.9426 717C22.6858 717 23.2978 716.76 23.7787 716.279C24.2596 715.798 24.5 715.186 24.5 714.443C24.5 713.699 24.2596 713.087 23.7787 712.607L16.1721 705L23.7787 697.393C24.2596 696.913 24.5 696.301 24.5 695.557C24.5 694.814 24.2596 694.202 23.7787 693.721C23.2978 693.24 22.6858 693 21.9426 693C21.1995 693 20.5874 693.24 20.1066 693.721L12.5 701.328L4.89344 693.721C4.41257 693.24 3.80054 693 3.05738 693C2.31421 693 1.70218 693.24 1.22131 693.721C0.740436 694.202 0.5 694.814 0.5 695.557C0.5 696.301 0.740436 696.913 1.22131 697.393L8.82787 705L1.22131 712.607C0.740436 713.087 0.5 713.699 0.5 714.443C0.5 715.186 0.740436 715.798 1.22131 716.279C1.70218 716.76 2.31421 717 3.05738 717C3.80054 717 4.41257 716.76 4.89344 716.279L12.5 708.672Z" fill="#FD4C5C"/>
</svg>
