<svg width="25" height="18" viewBox="0 0 25 18" fill="none" xmlns="http://www.w3.org/2000/svg">
<path d="M2.46429 0H11.0357C11.4904 0 11.9264 0.180612 12.2479 0.502103C12.5694 0.823594 12.75 1.25963 12.75 1.71429C12.75 2.16894 12.5694 2.60498 12.2479 2.92647C11.9264 3.24796 11.4904 3.42857 11.0357 3.42857H2.46429C2.00963 3.42857 1.57359 3.24796 1.2521 2.92647C0.930612 2.60498 0.75 2.16894 0.75 1.71429C0.75 1.25963 0.930612 0.823594 1.2521 0.502103C1.57359 0.180612 2.00963 0 2.46429 0ZM14.4643 13.7143H23.0357C23.4904 13.7143 23.9264 13.8949 24.2479 14.2164C24.5694 14.5379 24.75 14.9739 24.75 15.4286C24.75 15.8832 24.5694 16.3193 24.2479 16.6408C23.9264 16.9622 23.4904 17.1429 23.0357 17.1429H14.4643C14.0096 17.1429 13.5736 16.9622 13.2521 16.6408C12.9306 16.3193 12.75 15.8832 12.75 15.4286C12.75 14.9739 12.9306 14.5379 13.2521 14.2164C13.5736 13.8949 14.0096 13.7143 14.4643 13.7143ZM2.46429 6.85714H23.0357C23.4904 6.85714 23.9264 7.03775 24.2479 7.35925C24.5694 7.68074 24.75 8.11677 24.75 8.57143C24.75 9.02608 24.5694 9.46212 24.2479 9.78361C23.9264 10.1051 23.4904 10.2857 23.0357 10.2857H2.46429C2.00963 10.2857 1.57359 10.1051 1.2521 9.78361C0.930612 9.46212 0.75 9.02608 0.75 8.57143C0.75 8.11677 0.930612 7.68074 1.2521 7.35925C1.57359 7.03775 2.00963 6.85714 2.46429 6.85714Z" fill="#FEFEFE"/>
</svg>
