<svg width="81" height="80" viewBox="0 0 81 80" fill="none" xmlns="http://www.w3.org/2000/svg">
<circle opacity="0.1" cx="40.5" cy="40" r="40" fill="#00BB98"/>
<path d="M59.3333 20.0011C50.9439 20.0088 42.7243 23.5399 36.78 29.6902L34.6663 31.8039L32.4192 29.5567L25.7858 31.4291L20.5 36.7148L25.1275 41.3424L25.1274 41.3425L25.3667 41.5817L23.19 46.0723L24.6247 47.5071L21.1154 51.0165L22.7732 52.6743L26.2826 49.165L27.9798 50.8623L20.5479 58.294L22.2057 59.9519L29.6376 52.5201L31.3348 54.2173L27.8253 57.7268L29.4831 59.3846L32.9926 55.8751L34.4274 57.31L38.9181 55.1332L43.7849 60L49.0702 54.7149L50.9491 48.087L48.6959 45.834L50.8095 43.7204C53.7409 40.8949 56.1704 37.4109 57.8357 33.6445C60.9982 26.492 60.4375 20.7495 60.5077 20L59.3333 20.0011ZM27.0111 33.5193L31.7331 32.1865L33.0083 33.4616L26.7852 39.6847L23.8156 36.7148L27.0111 33.5193ZM34.9058 54.4727L26.0272 45.594L27.1215 43.3367L37.1633 53.3784L34.9058 54.4727ZM48.318 48.7719L46.981 53.4886L43.7849 56.6845L40.8152 53.7148L47.038 47.492L48.318 48.7719ZM49.175 42.0395L47.0381 44.1764L47.0379 44.1762L39.1575 52.0566L28.4432 41.3425C29.2332 40.5526 35.5619 34.224 36.3241 33.4617C36.5708 33.2151 35.4861 34.2999 38.4594 31.3262C43.6811 25.9204 50.7946 22.6973 58.1351 22.3728C57.8108 29.7184 54.5854 36.8285 49.175 42.0395Z" fill="#65D6C1"/>
<path d="M49.2201 38.8378C51.3059 36.752 51.3076 33.3597 49.2238 31.2759C48.216 30.2682 46.8745 29.7131 45.4463 29.7131C42.498 29.7131 40.1013 32.0889 40.102 35.0552C40.1024 36.484 40.6577 37.826 41.6658 38.8341C43.7297 40.8978 47.1251 40.9329 49.2201 38.8378ZM45.4463 32.0577C46.2483 32.0577 47.0011 32.3688 47.566 32.9337C48.7356 34.1034 48.7339 36.0083 47.5622 37.18C47.001 37.7411 46.2499 38.0502 45.4471 38.0502C43.7695 38.0502 42.447 36.7051 42.4465 35.0545C42.4463 34.2526 43.8042 32.0577 45.4463 32.0577Z" fill="#65D6C1"/>
</svg>
