<svg width="24" height="717" viewBox="0 0 24 717" fill="none" xmlns="http://www.w3.org/2000/svg">
<path d="M7.69507 13.6822L20.3946 0.609329C20.7892 0.203109 21.2915 0 21.9013 0C22.5112 0 23.0135 0.203109 23.4081 0.609329C23.8027 1.01555 24 1.53255 24 2.16035C24 2.78814 23.8027 3.30515 23.4081 3.71137L9.20179 18.3353C8.7713 18.7784 8.26906 19 7.69507 19C7.12108 19 6.61883 18.7784 6.18834 18.3353L0.591927 12.5743C0.197309 12.1681 0 11.6511 0 11.0233C0 10.3955 0.197309 9.87852 0.591927 9.4723C0.986546 9.06608 1.48879 8.86297 2.09865 8.86297C2.70852 8.86297 3.21076 9.06608 3.60538 9.4723L7.69507 13.6822Z" fill="#00BB98"/>
<path d="M12 70.6721L19.6066 78.2787C20.0874 78.7596 20.6995 79 21.4426 79C22.1858 79 22.7978 78.7596 23.2787 78.2787C23.7596 77.7978 24 77.1858 24 76.4426C24 75.6995 23.7596 75.0874 23.2787 74.6066L15.6721 67L23.2787 59.3934C23.7596 58.9126 24 58.3005 24 57.5574C24 56.8142 23.7596 56.2022 23.2787 55.7213C22.7978 55.2404 22.1858 55 21.4426 55C20.6995 55 20.0874 55.2404 19.6066 55.7213L12 63.3279L4.39344 55.7213C3.91257 55.2404 3.30054 55 2.55738 55C1.81421 55 1.20218 55.2404 0.72131 55.7213C0.240436 56.2022 0 56.8142 0 57.5574C0 58.3005 0.240436 58.9126 0.72131 59.3934L8.32787 67L0.72131 74.6066C0.240436 75.0874 0 75.6995 0 76.4426C0 77.1858 0.240436 77.7978 0.72131 78.2787C1.20218 78.7596 1.81421 79 2.55738 79C3.30054 79 3.91257 78.7596 4.39344 78.2787L12 70.6721Z" fill="#FD4C5C"/>
<path d="M12 128.672L19.6066 136.279C20.0874 136.76 20.6995 137 21.4426 137C22.1858 137 22.7978 136.76 23.2787 136.279C23.7596 135.798 24 135.186 24 134.443C24 133.699 23.7596 133.087 23.2787 132.607L15.6721 125L23.2787 117.393C23.7596 116.913 24 116.301 24 115.557C24 114.814 23.7596 114.202 23.2787 113.721C22.7978 113.24 22.1858 113 21.4426 113C20.6995 113 20.0874 113.24 19.6066 113.721L12 121.328L4.39344 113.721C3.91257 113.24 3.30054 113 2.55738 113C1.81421 113 1.20218 113.24 0.72131 113.721C0.240436 114.202 0 114.814 0 115.557C0 116.301 0.240436 116.913 0.72131 117.393L8.32787 125L0.72131 132.607C0.240436 133.087 0 133.699 0 134.443C0 135.186 0.240436 135.798 0.72131 136.279C1.20218 136.76 1.81421 137 2.55738 137C3.30054 137 3.91257 136.76 4.39344 136.279L12 128.672Z" fill="#FD4C5C"/>
<path d="M12 186.672L19.6066 194.279C20.0874 194.76 20.6995 195 21.4426 195C22.1858 195 22.7978 194.76 23.2787 194.279C23.7596 193.798 24 193.186 24 192.443C24 191.699 23.7596 191.087 23.2787 190.607L15.6721 183L23.2787 175.393C23.7596 174.913 24 174.301 24 173.557C24 172.814 23.7596 172.202 23.2787 171.721C22.7978 171.24 22.1858 171 21.4426 171C20.6995 171 20.0874 171.24 19.6066 171.721L12 179.328L4.39344 171.721C3.91257 171.24 3.30054 171 2.55738 171C1.81421 171 1.20218 171.24 0.72131 171.721C0.240436 172.202 0 172.814 0 173.557C0 174.301 0.240436 174.913 0.72131 175.393L8.32787 183L0.72131 190.607C0.240436 191.087 0 191.699 0 192.443C0 193.186 0.240436 193.798 0.72131 194.279C1.20218 194.76 1.81421 195 2.55738 195C3.30054 195 3.91257 194.76 4.39344 194.279L12 186.672Z" fill="#FD4C5C"/>
<path d="M12 244.672L19.6066 252.279C20.0874 252.76 20.6995 253 21.4426 253C22.1858 253 22.7978 252.76 23.2787 252.279C23.7596 251.798 24 251.186 24 250.443C24 249.699 23.7596 249.087 23.2787 248.607L15.6721 241L23.2787 233.393C23.7596 232.913 24 232.301 24 231.557C24 230.814 23.7596 230.202 23.2787 229.721C22.7978 229.24 22.1858 229 21.4426 229C20.6995 229 20.0874 229.24 19.6066 229.721L12 237.328L4.39344 229.721C3.91257 229.24 3.30054 229 2.55738 229C1.81421 229 1.20218 229.24 0.72131 229.721C0.240436 230.202 0 230.814 0 231.557C0 232.301 0.240436 232.913 0.72131 233.393L8.32787 241L0.72131 248.607C0.240436 249.087 0 249.699 0 250.443C0 251.186 0.240436 251.798 0.72131 252.279C1.20218 252.76 1.81421 253 2.55738 253C3.30054 253 3.91257 252.76 4.39344 252.279L12 244.672Z" fill="#FD4C5C"/>
<path d="M12 302.672L19.6066 310.279C20.0874 310.76 20.6995 311 21.4426 311C22.1858 311 22.7978 310.76 23.2787 310.279C23.7596 309.798 24 309.186 24 308.443C24 307.699 23.7596 307.087 23.2787 306.607L15.6721 299L23.2787 291.393C23.7596 290.913 24 290.301 24 289.557C24 288.814 23.7596 288.202 23.2787 287.721C22.7978 287.24 22.1858 287 21.4426 287C20.6995 287 20.0874 287.24 19.6066 287.721L12 295.328L4.39344 287.721C3.91257 287.24 3.30054 287 2.55738 287C1.81421 287 1.20218 287.24 0.72131 287.721C0.240436 288.202 0 288.814 0 289.557C0 290.301 0.240436 290.913 0.72131 291.393L8.32787 299L0.72131 306.607C0.240436 307.087 0 307.699 0 308.443C0 309.186 0.240436 309.798 0.72131 310.279C1.20218 310.76 1.81421 311 2.55738 311C3.30054 311 3.91257 310.76 4.39344 310.279L12 302.672Z" fill="#FD4C5C"/>
<path d="M12 360.672L19.6066 368.279C20.0874 368.76 20.6995 369 21.4426 369C22.1858 369 22.7978 368.76 23.2787 368.279C23.7596 367.798 24 367.186 24 366.443C24 365.699 23.7596 365.087 23.2787 364.607L15.6721 357L23.2787 349.393C23.7596 348.913 24 348.301 24 347.557C24 346.814 23.7596 346.202 23.2787 345.721C22.7978 345.24 22.1858 345 21.4426 345C20.6995 345 20.0874 345.24 19.6066 345.721L12 353.328L4.39344 345.721C3.91257 345.24 3.30054 345 2.55738 345C1.81421 345 1.20218 345.24 0.72131 345.721C0.240436 346.202 0 346.814 0 347.557C0 348.301 0.240436 348.913 0.72131 349.393L8.32787 357L0.72131 364.607C0.240436 365.087 0 365.699 0 366.443C0 367.186 0.240436 367.798 0.72131 368.279C1.20218 368.76 1.81421 369 2.55738 369C3.30054 369 3.91257 368.76 4.39344 368.279L12 360.672Z" fill="#FD4C5C"/>
<path d="M12 418.672L19.6066 426.279C20.0874 426.76 20.6995 427 21.4426 427C22.1858 427 22.7978 426.76 23.2787 426.279C23.7596 425.798 24 425.186 24 424.443C24 423.699 23.7596 423.087 23.2787 422.607L15.6721 415L23.2787 407.393C23.7596 406.913 24 406.301 24 405.557C24 404.814 23.7596 404.202 23.2787 403.721C22.7978 403.24 22.1858 403 21.4426 403C20.6995 403 20.0874 403.24 19.6066 403.721L12 411.328L4.39344 403.721C3.91257 403.24 3.30054 403 2.55738 403C1.81421 403 1.20218 403.24 0.72131 403.721C0.240436 404.202 0 404.814 0 405.557C0 406.301 0.240436 406.913 0.72131 407.393L8.32787 415L0.72131 422.607C0.240436 423.087 0 423.699 0 424.443C0 425.186 0.240436 425.798 0.72131 426.279C1.20218 426.76 1.81421 427 2.55738 427C3.30054 427 3.91257 426.76 4.39344 426.279L12 418.672Z" fill="#FD4C5C"/>
<path d="M12 476.672L19.6066 484.279C20.0874 484.76 20.6995 485 21.4426 485C22.1858 485 22.7978 484.76 23.2787 484.279C23.7596 483.798 24 483.186 24 482.443C24 481.699 23.7596 481.087 23.2787 480.607L15.6721 473L23.2787 465.393C23.7596 464.913 24 464.301 24 463.557C24 462.814 23.7596 462.202 23.2787 461.721C22.7978 461.24 22.1858 461 21.4426 461C20.6995 461 20.0874 461.24 19.6066 461.721L12 469.328L4.39344 461.721C3.91257 461.24 3.30054 461 2.55738 461C1.81421 461 1.20218 461.24 0.72131 461.721C0.240436 462.202 0 462.814 0 463.557C0 464.301 0.240436 464.913 0.72131 465.393L8.32787 473L0.72131 480.607C0.240436 481.087 0 481.699 0 482.443C0 483.186 0.240436 483.798 0.72131 484.279C1.20218 484.76 1.81421 485 2.55738 485C3.30054 485 3.91257 484.76 4.39344 484.279L12 476.672Z" fill="#FD4C5C"/>
<path d="M12 534.672L19.6066 542.279C20.0874 542.76 20.6995 543 21.4426 543C22.1858 543 22.7978 542.76 23.2787 542.279C23.7596 541.798 24 541.186 24 540.443C24 539.699 23.7596 539.087 23.2787 538.607L15.6721 531L23.2787 523.393C23.7596 522.913 24 522.301 24 521.557C24 520.814 23.7596 520.202 23.2787 519.721C22.7978 519.24 22.1858 519 21.4426 519C20.6995 519 20.0874 519.24 19.6066 519.721L12 527.328L4.39344 519.721C3.91257 519.24 3.30054 519 2.55738 519C1.81421 519 1.20218 519.24 0.72131 519.721C0.240436 520.202 0 520.814 0 521.557C0 522.301 0.240436 522.913 0.72131 523.393L8.32787 531L0.72131 538.607C0.240436 539.087 0 539.699 0 540.443C0 541.186 0.240436 541.798 0.72131 542.279C1.20218 542.76 1.81421 543 2.55738 543C3.30054 543 3.91257 542.76 4.39344 542.279L12 534.672Z" fill="#FD4C5C"/>
<path d="M12 591.672L19.6066 599.279C20.0874 599.76 20.6995 600 21.4426 600C22.1858 600 22.7978 599.76 23.2787 599.279C23.7596 598.798 24 598.186 24 597.443C24 596.699 23.7596 596.087 23.2787 595.607L15.6721 588L23.2787 580.393C23.7596 579.913 24 579.301 24 578.557C24 577.814 23.7596 577.202 23.2787 576.721C22.7978 576.24 22.1858 576 21.4426 576C20.6995 576 20.0874 576.24 19.6066 576.721L12 584.328L4.39344 576.721C3.91257 576.24 3.30054 576 2.55738 576C1.81421 576 1.20218 576.24 0.72131 576.721C0.240436 577.202 0 577.814 0 578.557C0 579.301 0.240436 579.913 0.72131 580.393L8.32787 588L0.72131 595.607C0.240436 596.087 0 596.699 0 597.443C0 598.186 0.240436 598.798 0.72131 599.279C1.20218 599.76 1.81421 600 2.55738 600C3.30054 600 3.91257 599.76 4.39344 599.279L12 591.672Z" fill="#FD4C5C"/>
<path d="M12 650.672L19.6066 658.279C20.0874 658.76 20.6995 659 21.4426 659C22.1858 659 22.7978 658.76 23.2787 658.279C23.7596 657.798 24 657.186 24 656.443C24 655.699 23.7596 655.087 23.2787 654.607L15.6721 647L23.2787 639.393C23.7596 638.913 24 638.301 24 637.557C24 636.814 23.7596 636.202 23.2787 635.721C22.7978 635.24 22.1858 635 21.4426 635C20.6995 635 20.0874 635.24 19.6066 635.721L12 643.328L4.39344 635.721C3.91257 635.24 3.30054 635 2.55738 635C1.81421 635 1.20218 635.24 0.72131 635.721C0.240436 636.202 0 636.814 0 637.557C0 638.301 0.240436 638.913 0.72131 639.393L8.32787 647L0.72131 654.607C0.240436 655.087 0 655.699 0 656.443C0 657.186 0.240436 657.798 0.72131 658.279C1.20218 658.76 1.81421 659 2.55738 659C3.30054 659 3.91257 658.76 4.39344 658.279L12 650.672Z" fill="#FD4C5C"/>
<path d="M12 708.672L19.6066 716.279C20.0874 716.76 20.6995 717 21.4426 717C22.1858 717 22.7978 716.76 23.2787 716.279C23.7596 715.798 24 715.186 24 714.443C24 713.699 23.7596 713.087 23.2787 712.607L15.6721 705L23.2787 697.393C23.7596 696.913 24 696.301 24 695.557C24 694.814 23.7596 694.202 23.2787 693.721C22.7978 693.24 22.1858 693 21.4426 693C20.6995 693 20.0874 693.24 19.6066 693.721L12 701.328L4.39344 693.721C3.91257 693.24 3.30054 693 2.55738 693C1.81421 693 1.20218 693.24 0.72131 693.721C0.240436 694.202 0 694.814 0 695.557C0 696.301 0.240436 696.913 0.72131 697.393L8.32787 705L0.72131 712.607C0.240436 713.087 0 713.699 0 714.443C0 715.186 0.240436 715.798 0.72131 716.279C1.20218 716.76 1.81421 717 2.55738 717C3.30054 717 3.91257 716.76 4.39344 716.279L12 708.672Z" fill="#FD4C5C"/>
</svg>
