<svg width="81" height="80" viewBox="0 0 81 80" fill="none" xmlns="http://www.w3.org/2000/svg">
<circle opacity="0.1" cx="40.5" cy="40" r="40" fill="#FFC83E"/>
<path d="M60.3737 53.805V30.4848H53.9582V17H26.3117V30.4848H19.8962V53.805H17.5V58.5585C17.5 60.6049 19.1651 62.27 21.2115 62.27H59.0585C61.1049 62.27 62.77 60.6049 62.77 58.5585V53.805H60.3737ZM22.5488 33.1373H26.3117V48.8305H28.9643V19.6525H51.3057V48.8305H53.9582V33.1373H57.7212V53.805H42.4338V54.7113H37.8361V53.805H22.5488V33.1373ZM60.1174 58.5585C60.1174 59.1426 59.6425 59.6175 59.0585 59.6175H21.2115C20.6274 59.6175 20.1525 59.1426 20.1525 58.5585V56.4576H35.1836V57.3638H45.0864V56.4576H60.1174V58.5585Z" fill="#FFC83E"/>
<path d="M33.4149 23.7197H46.8545V26.3723H33.4149V23.7197Z" fill="#FFC83E"/>
<path d="M33.4149 29.2012H46.8545V31.8537H33.4149V29.2012Z" fill="#FFC83E"/>
<path d="M33.4149 34.6836H46.8545V37.3361H33.4149V34.6836Z" fill="#FFC83E"/>
<path d="M33.4149 40.166H46.8545V42.8186H33.4149V40.166Z" fill="#FFC83E"/>
</svg>
