<svg width="63" height="62" viewBox="0 0 63 62" fill="none" xmlns="http://www.w3.org/2000/svg">
<circle cx="31.5" cy="31" r="31" fill="#FFCB2A"/>
<path d="M42.3234 34.243L40.0085 31.9281V28.8615C40.0059 26.7423 39.2175 24.6993 37.7959 23.1277C36.3743 21.556 34.4204 20.5673 32.3121 20.3527V18.5996H30.6018V20.3527C28.4934 20.5673 26.5395 21.556 25.1179 23.1277C23.6963 24.6993 22.908 26.7423 22.9053 28.8615V31.9281L20.5904 34.243C20.43 34.4034 20.3399 34.6209 20.3398 34.8476V37.4131C20.3398 37.6399 20.4299 37.8574 20.5903 38.0178C20.7507 38.1782 20.9682 38.2683 21.195 38.2683H27.1811V38.9327C27.1625 40.0176 27.5449 41.0712 28.255 41.8916C28.9651 42.712 29.953 43.2416 31.0293 43.3787C31.6238 43.4377 32.2241 43.3715 32.7915 43.1846C33.3589 42.9976 33.8809 42.694 34.3239 42.2932C34.7669 41.8924 35.1211 41.4033 35.3637 40.8574C35.6064 40.3115 35.7321 39.7208 35.7327 39.1234V38.2683H41.7188C41.9456 38.2683 42.1631 38.1782 42.3235 38.0178C42.4839 37.8574 42.574 37.6399 42.574 37.4131V34.8476C42.5739 34.6209 42.4838 34.4034 42.3234 34.243ZM34.0224 39.1234C34.0224 39.8038 33.7521 40.4564 33.271 40.9375C32.7899 41.4186 32.1373 41.6889 31.4569 41.6889C30.7765 41.6889 30.124 41.4186 29.6428 40.9375C29.1617 40.4564 28.8914 39.8038 28.8914 39.1234V38.2683H34.0224V39.1234ZM40.8637 36.558H22.0502V35.2017L24.3651 32.8868C24.5255 32.7264 24.6156 32.5089 24.6156 32.2822V28.8615C24.6156 27.0471 25.3364 25.307 26.6194 24.024C27.9024 22.741 29.6425 22.0202 31.4569 22.0202C33.2713 22.0202 35.0114 22.741 36.2944 24.024C37.5774 25.307 38.2982 27.0471 38.2982 28.8615V32.2822C38.2982 32.5089 38.3884 32.7264 38.5488 32.8868L40.8637 35.2017V36.558Z" fill="white"/>
</svg>
