<svg width="25" height="18" viewBox="0 0 25 18" fill="none" xmlns="http://www.w3.org/2000/svg">
<path d="M2.21429 0H10.7857C11.2404 0 11.6764 0.180612 11.9979 0.502103C12.3194 0.823594 12.5 1.25963 12.5 1.71429C12.5 2.16894 12.3194 2.60498 11.9979 2.92647C11.6764 3.24796 11.2404 3.42857 10.7857 3.42857H2.21429C1.75963 3.42857 1.32359 3.24796 1.0021 2.92647C0.680612 2.60498 0.5 2.16894 0.5 1.71429C0.5 1.25963 0.680612 0.823594 1.0021 0.502103C1.32359 0.180612 1.75963 0 2.21429 0ZM14.2143 13.7143H22.7857C23.2404 13.7143 23.6764 13.8949 23.9979 14.2164C24.3194 14.5379 24.5 14.9739 24.5 15.4286C24.5 15.8832 24.3194 16.3193 23.9979 16.6408C23.6764 16.9622 23.2404 17.1429 22.7857 17.1429H14.2143C13.7596 17.1429 13.3236 16.9622 13.0021 16.6408C12.6806 16.3193 12.5 15.8832 12.5 15.4286C12.5 14.9739 12.6806 14.5379 13.0021 14.2164C13.3236 13.8949 13.7596 13.7143 14.2143 13.7143ZM2.21429 6.85714H22.7857C23.2404 6.85714 23.6764 7.03775 23.9979 7.35925C24.3194 7.68074 24.5 8.11677 24.5 8.57143C24.5 9.02608 24.3194 9.46212 23.9979 9.78361C23.6764 10.1051 23.2404 10.2857 22.7857 10.2857H2.21429C1.75963 10.2857 1.32359 10.1051 1.0021 9.78361C0.680612 9.46212 0.5 9.02608 0.5 8.57143C0.5 8.11677 0.680612 7.68074 1.0021 7.35925C1.32359 7.03775 1.75963 6.85714 2.21429 6.85714Z" fill="#FEFEFE"/>
</svg>
