<svg width="16" height="446" viewBox="0 0 16 446" fill="none" xmlns="http://www.w3.org/2000/svg">
<path d="M5.13004 9.12148L13.5964 0.406219C13.8595 0.135406 14.1943 0 14.6009 0C15.0075 0 15.3423 0.135406 15.6054 0.406219C15.8685 0.677032 16 1.0217 16 1.44023C16 1.85876 15.8685 2.20343 15.6054 2.47425L6.13453 12.2235C5.84753 12.5189 5.51271 12.6667 5.13004 12.6667C4.74738 12.6667 4.41256 12.5189 4.12556 12.2235L0.394618 8.3829C0.131539 8.11208 0 7.76741 0 7.34888C0 6.93035 0.131539 6.58568 0.394618 6.31487C0.657697 6.04405 0.992526 5.90865 1.3991 5.90865C1.80568 5.90865 2.14051 6.04405 2.40359 6.31487L5.13004 9.12148Z" fill="#00BB98"/>
<path d="M8 44.4481L13.071 49.5191C13.3916 49.8397 13.7996 50 14.2951 50C14.7905 50 15.1985 49.8397 15.5191 49.5191C15.8397 49.1985 16 48.7905 16 48.2951C16 47.7996 15.8397 47.3916 15.5191 47.071L10.4481 42L15.5191 36.929C15.8397 36.6084 16 36.2004 16 35.7049C16 35.2095 15.8397 34.8015 15.5191 34.4809C15.1985 34.1603 14.7905 34 14.2951 34C13.7996 34 13.3916 34.1603 13.071 34.4809L8 39.5519L2.92896 34.4809C2.60838 34.1603 2.20036 34 1.70492 34C1.20947 34 0.801456 34.1603 0.480874 34.4809C0.160291 34.8015 0 35.2095 0 35.7049C0 36.2004 0.160291 36.6084 0.480874 36.929L5.55191 42L0.480874 47.071C0.160291 47.3916 0 47.7996 0 48.2951C0 48.7905 0.160291 49.1985 0.480874 49.5191C0.801456 49.8397 1.20947 50 1.70492 50C2.20036 50 2.60838 49.8397 2.92896 49.5191L8 44.4481Z" fill="#FD4C5C"/>
<path d="M8 80.4481L13.071 85.5191C13.3916 85.8397 13.7996 86 14.2951 86C14.7905 86 15.1985 85.8397 15.5191 85.5191C15.8397 85.1985 16 84.7905 16 84.2951C16 83.7996 15.8397 83.3916 15.5191 83.071L10.4481 78L15.5191 72.929C15.8397 72.6084 16 72.2004 16 71.7049C16 71.2095 15.8397 70.8015 15.5191 70.4809C15.1985 70.1603 14.7905 70 14.2951 70C13.7996 70 13.3916 70.1603 13.071 70.4809L8 75.5519L2.92896 70.4809C2.60838 70.1603 2.20036 70 1.70492 70C1.20947 70 0.801456 70.1603 0.480874 70.4809C0.160291 70.8015 0 71.2095 0 71.7049C0 72.2004 0.160291 72.6084 0.480874 72.929L5.55191 78L0.480874 83.071C0.160291 83.3916 0 83.7996 0 84.2951C0 84.7905 0.160291 85.1985 0.480874 85.5191C0.801456 85.8397 1.20947 86 1.70492 86C2.20036 86 2.60838 85.8397 2.92896 85.5191L8 80.4481Z" fill="#FD4C5C"/>
<path d="M8 116.448L13.071 121.519C13.3916 121.84 13.7996 122 14.2951 122C14.7905 122 15.1985 121.84 15.5191 121.519C15.8397 121.199 16 120.791 16 120.295C16 119.8 15.8397 119.392 15.5191 119.071L10.4481 114L15.5191 108.929C15.8397 108.608 16 108.2 16 107.705C16 107.209 15.8397 106.801 15.5191 106.481C15.1985 106.16 14.7905 106 14.2951 106C13.7996 106 13.3916 106.16 13.071 106.481L8 111.552L2.92896 106.481C2.60838 106.16 2.20036 106 1.70492 106C1.20947 106 0.801456 106.16 0.480874 106.481C0.160291 106.801 0 107.209 0 107.705C0 108.2 0.160291 108.608 0.480874 108.929L5.55191 114L0.480874 119.071C0.160291 119.392 0 119.8 0 120.295C0 120.791 0.160291 121.199 0.480874 121.519C0.801456 121.84 1.20947 122 1.70492 122C2.20036 122 2.60838 121.84 2.92896 121.519L8 116.448Z" fill="#FD4C5C"/>
<path d="M8 152.448L13.071 157.519C13.3916 157.84 13.7996 158 14.2951 158C14.7905 158 15.1985 157.84 15.5191 157.519C15.8397 157.199 16 156.791 16 156.295C16 155.8 15.8397 155.392 15.5191 155.071L10.4481 150L15.5191 144.929C15.8397 144.608 16 144.2 16 143.705C16 143.209 15.8397 142.801 15.5191 142.481C15.1985 142.16 14.7905 142 14.2951 142C13.7996 142 13.3916 142.16 13.071 142.481L8 147.552L2.92896 142.481C2.60838 142.16 2.20036 142 1.70492 142C1.20947 142 0.801456 142.16 0.480874 142.481C0.160291 142.801 0 143.209 0 143.705C0 144.2 0.160291 144.608 0.480874 144.929L5.55191 150L0.480874 155.071C0.160291 155.392 0 155.8 0 156.295C0 156.791 0.160291 157.199 0.480874 157.519C0.801456 157.84 1.20947 158 1.70492 158C2.20036 158 2.60838 157.84 2.92896 157.519L8 152.448Z" fill="#FD4C5C"/>
<path d="M8 188.448L13.071 193.519C13.3916 193.84 13.7996 194 14.2951 194C14.7905 194 15.1985 193.84 15.5191 193.519C15.8397 193.199 16 192.791 16 192.295C16 191.8 15.8397 191.392 15.5191 191.071L10.4481 186L15.5191 180.929C15.8397 180.608 16 180.2 16 179.705C16 179.209 15.8397 178.801 15.5191 178.481C15.1985 178.16 14.7905 178 14.2951 178C13.7996 178 13.3916 178.16 13.071 178.481L8 183.552L2.92896 178.481C2.60838 178.16 2.20036 178 1.70492 178C1.20947 178 0.801456 178.16 0.480874 178.481C0.160291 178.801 0 179.209 0 179.705C0 180.2 0.160291 180.608 0.480874 180.929L5.55191 186L0.480874 191.071C0.160291 191.392 0 191.8 0 192.295C0 192.791 0.160291 193.199 0.480874 193.519C0.801456 193.84 1.20947 194 1.70492 194C2.20036 194 2.60838 193.84 2.92896 193.519L8 188.448Z" fill="#FD4C5C"/>
<path d="M8 224.448L13.071 229.519C13.3916 229.84 13.7996 230 14.2951 230C14.7905 230 15.1985 229.84 15.5191 229.519C15.8397 229.199 16 228.791 16 228.295C16 227.8 15.8397 227.392 15.5191 227.071L10.4481 222L15.5191 216.929C15.8397 216.608 16 216.2 16 215.705C16 215.209 15.8397 214.801 15.5191 214.481C15.1985 214.16 14.7905 214 14.2951 214C13.7996 214 13.3916 214.16 13.071 214.481L8 219.552L2.92896 214.481C2.60838 214.16 2.20036 214 1.70492 214C1.20947 214 0.801456 214.16 0.480874 214.481C0.160291 214.801 0 215.209 0 215.705C0 216.2 0.160291 216.608 0.480874 216.929L5.55191 222L0.480874 227.071C0.160291 227.392 0 227.8 0 228.295C0 228.791 0.160291 229.199 0.480874 229.519C0.801456 229.84 1.20947 230 1.70492 230C2.20036 230 2.60838 229.84 2.92896 229.519L8 224.448Z" fill="#FD4C5C"/>
<path d="M8 260.448L13.071 265.519C13.3916 265.84 13.7996 266 14.2951 266C14.7905 266 15.1985 265.84 15.5191 265.519C15.8397 265.199 16 264.791 16 264.295C16 263.8 15.8397 263.392 15.5191 263.071L10.4481 258L15.5191 252.929C15.8397 252.608 16 252.2 16 251.705C16 251.209 15.8397 250.801 15.5191 250.481C15.1985 250.16 14.7905 250 14.2951 250C13.7996 250 13.3916 250.16 13.071 250.481L8 255.552L2.92896 250.481C2.60838 250.16 2.20036 250 1.70492 250C1.20947 250 0.801456 250.16 0.480874 250.481C0.160291 250.801 0 251.209 0 251.705C0 252.2 0.160291 252.608 0.480874 252.929L5.55191 258L0.480874 263.071C0.160291 263.392 0 263.8 0 264.295C0 264.791 0.160291 265.199 0.480874 265.519C0.801456 265.84 1.20947 266 1.70492 266C2.20036 266 2.60838 265.84 2.92896 265.519L8 260.448Z" fill="#FD4C5C"/>
<path d="M8 296.448L13.071 301.519C13.3916 301.84 13.7996 302 14.2951 302C14.7905 302 15.1985 301.84 15.5191 301.519C15.8397 301.199 16 300.791 16 300.295C16 299.8 15.8397 299.392 15.5191 299.071L10.4481 294L15.5191 288.929C15.8397 288.608 16 288.2 16 287.705C16 287.209 15.8397 286.801 15.5191 286.481C15.1985 286.16 14.7905 286 14.2951 286C13.7996 286 13.3916 286.16 13.071 286.481L8 291.552L2.92896 286.481C2.60838 286.16 2.20036 286 1.70492 286C1.20947 286 0.801456 286.16 0.480874 286.481C0.160291 286.801 0 287.209 0 287.705C0 288.2 0.160291 288.608 0.480874 288.929L5.55191 294L0.480874 299.071C0.160291 299.392 0 299.8 0 300.295C0 300.791 0.160291 301.199 0.480874 301.519C0.801456 301.84 1.20947 302 1.70492 302C2.20036 302 2.60838 301.84 2.92896 301.519L8 296.448Z" fill="#FD4C5C"/>
<path d="M8 332.448L13.071 337.519C13.3916 337.84 13.7996 338 14.2951 338C14.7905 338 15.1985 337.84 15.5191 337.519C15.8397 337.199 16 336.791 16 336.295C16 335.8 15.8397 335.392 15.5191 335.071L10.4481 330L15.5191 324.929C15.8397 324.608 16 324.2 16 323.705C16 323.209 15.8397 322.801 15.5191 322.481C15.1985 322.16 14.7905 322 14.2951 322C13.7996 322 13.3916 322.16 13.071 322.481L8 327.552L2.92896 322.481C2.60838 322.16 2.20036 322 1.70492 322C1.20947 322 0.801456 322.16 0.480874 322.481C0.160291 322.801 0 323.209 0 323.705C0 324.2 0.160291 324.608 0.480874 324.929L5.55191 330L0.480874 335.071C0.160291 335.392 0 335.8 0 336.295C0 336.791 0.160291 337.199 0.480874 337.519C0.801456 337.84 1.20947 338 1.70492 338C2.20036 338 2.60838 337.84 2.92896 337.519L8 332.448Z" fill="#FD4C5C"/>
<path d="M8 368.448L13.071 373.519C13.3916 373.84 13.7996 374 14.2951 374C14.7905 374 15.1985 373.84 15.5191 373.519C15.8397 373.199 16 372.791 16 372.295C16 371.8 15.8397 371.392 15.5191 371.071L10.4481 366L15.5191 360.929C15.8397 360.608 16 360.2 16 359.705C16 359.209 15.8397 358.801 15.5191 358.481C15.1985 358.16 14.7905 358 14.2951 358C13.7996 358 13.3916 358.16 13.071 358.481L8 363.552L2.92896 358.481C2.60838 358.16 2.20036 358 1.70492 358C1.20947 358 0.801456 358.16 0.480874 358.481C0.160291 358.801 0 359.209 0 359.705C0 360.2 0.160291 360.608 0.480874 360.929L5.55191 366L0.480874 371.071C0.160291 371.392 0 371.8 0 372.295C0 372.791 0.160291 373.199 0.480874 373.519C0.801456 373.84 1.20947 374 1.70492 374C2.20036 374 2.60838 373.84 2.92896 373.519L8 368.448Z" fill="#FD4C5C"/>
<path d="M8 404.448L13.071 409.519C13.3916 409.84 13.7996 410 14.2951 410C14.7905 410 15.1985 409.84 15.5191 409.519C15.8397 409.199 16 408.791 16 408.295C16 407.8 15.8397 407.392 15.5191 407.071L10.4481 402L15.5191 396.929C15.8397 396.608 16 396.2 16 395.705C16 395.209 15.8397 394.801 15.5191 394.481C15.1985 394.16 14.7905 394 14.2951 394C13.7996 394 13.3916 394.16 13.071 394.481L8 399.552L2.92896 394.481C2.60838 394.16 2.20036 394 1.70492 394C1.20947 394 0.801456 394.16 0.480874 394.481C0.160291 394.801 0 395.209 0 395.705C0 396.2 0.160291 396.608 0.480874 396.929L5.55191 402L0.480874 407.071C0.160291 407.392 0 407.8 0 408.295C0 408.791 0.160291 409.199 0.480874 409.519C0.801456 409.84 1.20947 410 1.70492 410C2.20036 410 2.60838 409.84 2.92896 409.519L8 404.448Z" fill="#FD4C5C"/>
<path d="M8 440.448L13.071 445.519C13.3916 445.84 13.7996 446 14.2951 446C14.7905 446 15.1985 445.84 15.5191 445.519C15.8397 445.199 16 444.791 16 444.295C16 443.8 15.8397 443.392 15.5191 443.071L10.4481 438L15.5191 432.929C15.8397 432.608 16 432.2 16 431.705C16 431.209 15.8397 430.801 15.5191 430.481C15.1985 430.16 14.7905 430 14.2951 430C13.7996 430 13.3916 430.16 13.071 430.481L8 435.552L2.92896 430.481C2.60838 430.16 2.20036 430 1.70492 430C1.20947 430 0.801456 430.16 0.480874 430.481C0.160291 430.801 0 431.209 0 431.705C0 432.2 0.160291 432.608 0.480874 432.929L5.55191 438L0.480874 443.071C0.160291 443.392 0 443.8 0 444.295C0 444.791 0.160291 445.199 0.480874 445.519C0.801456 445.84 1.20947 446 1.70492 446C2.20036 446 2.60838 445.84 2.92896 445.519L8 440.448Z" fill="#FD4C5C"/>
</svg>
