<svg width="95" height="17" viewBox="0 0 95 17" fill="none" xmlns="http://www.w3.org/2000/svg">
<path d="M55.6984 6.54643C55.6468 6.3779 55.5113 6.25752 55.3467 6.23001L50.4425 5.4871L48.2356 0.757953C48.1614 0.599742 48.0098 0.5 47.8452 0.5C47.6807 0.5 47.529 0.599742 47.4548 0.761393L45.277 5.5043L40.3728 6.2816C40.2082 6.30912 40.0727 6.42949 40.0211 6.59802C39.9695 6.76655 40.0146 6.95228 40.134 7.07266L43.6928 10.7494L42.87 15.9566C42.841 16.132 42.9088 16.3074 43.0443 16.4106C43.1185 16.469 43.2088 16.5 43.2992 16.5C43.3701 16.5 43.4379 16.4828 43.5024 16.445L47.8807 13.9721L52.2719 16.4175C52.3364 16.4519 52.4042 16.469 52.4719 16.469C52.7107 16.469 52.9075 16.2592 52.9075 16.0047C52.9075 15.9669 52.9043 15.9325 52.8946 15.8981L52.0461 10.7218L55.5822 7.0245C55.7081 6.90069 55.75 6.71496 55.6984 6.54643Z" fill="#FFCB2A"/>
<path d="M74.6984 6.54643C74.6468 6.3779 74.5113 6.25752 74.3467 6.23001L69.4425 5.4871L67.2356 0.757953C67.1614 0.599742 67.0098 0.5 66.8452 0.5C66.6807 0.5 66.529 0.599742 66.4548 0.761393L64.277 5.5043L59.3728 6.2816C59.2082 6.30912 59.0727 6.42949 59.0211 6.59802C58.9695 6.76655 59.0146 6.95228 59.134 7.07266L62.6928 10.7494L61.87 15.9566C61.841 16.132 61.9088 16.3074 62.0443 16.4106C62.1185 16.469 62.2088 16.5 62.2992 16.5C62.3701 16.5 62.4379 16.4828 62.5024 16.445L66.8807 13.9721L71.2719 16.4175C71.3364 16.4519 71.4042 16.469 71.4719 16.469C71.7107 16.469 71.9075 16.2592 71.9075 16.0047C71.9075 15.9669 71.9043 15.9325 71.8946 15.8981L71.0461 10.7218L74.5822 7.0245C74.7081 6.90069 74.75 6.71496 74.6984 6.54643Z" fill="#FFCB2A"/>
<path d="M94.6984 6.54643C94.6468 6.3779 94.5113 6.25752 94.3467 6.23001L89.4425 5.4871L87.2356 0.757953C87.1614 0.599742 87.0098 0.5 86.8452 0.5C86.6807 0.5 86.529 0.599742 86.4548 0.761393L84.277 5.5043L79.3728 6.2816C79.2082 6.30912 79.0727 6.42949 79.0211 6.59802C78.9695 6.76655 79.0146 6.95228 79.134 7.07266L82.6928 10.7494L81.87 15.9566C81.841 16.132 81.9088 16.3074 82.0443 16.4106C82.1185 16.469 82.2088 16.5 82.2992 16.5C82.3701 16.5 82.4379 16.4828 82.5024 16.445L86.8807 13.9721L91.2719 16.4175C91.3364 16.4519 91.4042 16.469 91.4719 16.469C91.7107 16.469 91.9075 16.2592 91.9075 16.0047C91.9075 15.9669 91.9043 15.9325 91.8946 15.8981L91.0461 10.7218L94.5822 7.0245C94.7081 6.90069 94.75 6.71496 94.6984 6.54643Z" fill="#FFCB2A"/>
<path d="M35.6984 6.54643C35.6468 6.3779 35.5113 6.25752 35.3467 6.23001L30.4425 5.4871L28.2356 0.757953C28.1614 0.599742 28.0098 0.5 27.8452 0.5C27.6807 0.5 27.529 0.599742 27.4548 0.761393L25.277 5.5043L20.3728 6.2816C20.2082 6.30912 20.0727 6.42949 20.0211 6.59802C19.9695 6.76655 20.0146 6.95228 20.134 7.07266L23.6928 10.7494L22.87 15.9566C22.841 16.132 22.9088 16.3074 23.0443 16.4106C23.1185 16.469 23.2088 16.5 23.2992 16.5C23.3701 16.5 23.4379 16.4828 23.5024 16.445L27.8807 13.9721L32.2719 16.4175C32.3364 16.4519 32.4042 16.469 32.4719 16.469C32.7107 16.469 32.9075 16.2592 32.9075 16.0047C32.9075 15.9669 32.9043 15.9325 32.8946 15.8981L32.0461 10.7218L35.5822 7.0245C35.7081 6.90069 35.75 6.71496 35.6984 6.54643Z" fill="#FFCB2A"/>
<path d="M15.6984 6.54643C15.6468 6.3779 15.5113 6.25752 15.3467 6.23001L10.4425 5.4871L8.23563 0.757953C8.16142 0.599742 8.00977 0.5 7.84522 0.5C7.68068 0.5 7.52903 0.599742 7.45483 0.761393L5.27698 5.5043L0.372781 6.2816C0.208233 6.30912 0.0727219 6.42949 0.0210988 6.59802C-0.0305242 6.76655 0.0146459 6.95228 0.134024 7.07266L3.69279 10.7494L2.87005 15.9566C2.84101 16.132 2.90877 16.3074 3.04428 16.4106C3.11849 16.469 3.20883 16.5 3.29917 16.5C3.37015 16.5 3.4379 16.4828 3.50243 16.445L7.88072 13.9721L12.2719 16.4175C12.3364 16.4519 12.4042 16.469 12.4719 16.469C12.7107 16.469 12.9075 16.2592 12.9075 16.0047C12.9075 15.9669 12.9043 15.9325 12.8946 15.8981L12.0461 10.7218L15.5822 7.0245C15.7081 6.90069 15.75 6.71496 15.6984 6.54643Z" fill="#FFCB2A"/>
</svg>
