<svg width="81" height="80" viewBox="0 0 81 80" fill="none" xmlns="http://www.w3.org/2000/svg">
<circle opacity="0.1" cx="40.5" cy="40" r="40" fill="#377CFD"/>
<path d="M60.5 58.4375C60.5 59.3005 59.8005 60 58.9375 60H40.5C39.637 60 38.9375 59.3005 38.9375 58.4375C38.9375 57.5745 39.637 56.875 40.5 56.875H58.9375C59.8005 56.875 60.5 57.5745 60.5 58.4375ZM58.9375 50.7291H46.6459C45.7829 50.7291 45.0834 51.4288 45.0834 52.2916C45.0834 53.1546 45.7829 53.8541 46.6459 53.8541H58.9375C59.8005 53.8541 60.5 53.1546 60.5 52.2916C60.5 51.4288 59.8005 50.7291 58.9375 50.7291ZM58.9375 44.5834H52.7916C51.9285 44.5834 51.2291 45.2829 51.2291 46.1459C51.2291 47.009 51.9285 47.7084 52.7916 47.7084H58.9375C59.8005 47.7084 60.5 47.009 60.5 46.1459C60.5 45.2829 59.8005 44.5834 58.9375 44.5834ZM60.0422 31.886L32.386 59.5422C32.093 59.8355 31.6957 60 31.2812 60H22.0625C21.1995 60 20.5 59.3005 20.5 58.4375V49.2187C20.5 48.8043 20.6645 48.407 20.9578 48.114L48.614 20.4578C49.2241 19.8474 50.2134 19.8474 50.8235 20.4578L60.0422 29.6765C60.6526 30.2866 60.6526 31.2759 60.0422 31.886ZM56.7277 30.7812L49.7187 23.7723L23.625 49.866V56.875H30.634L56.7277 30.7812Z" fill="#2B59FF"/>
</svg>
