<svg width="24" height="18" viewBox="0 0 24 18" fill="none" xmlns="http://www.w3.org/2000/svg">
<path d="M1.71429 0H10.2857C10.7404 0 11.1764 0.180612 11.4979 0.502103C11.8194 0.823594 12 1.25963 12 1.71429C12 2.16894 11.8194 2.60498 11.4979 2.92647C11.1764 3.24796 10.7404 3.42857 10.2857 3.42857H1.71429C1.25963 3.42857 0.823594 3.24796 0.502103 2.92647C0.180612 2.60498 0 2.16894 0 1.71429C0 1.25963 0.180612 0.823594 0.502103 0.502103C0.823594 0.180612 1.25963 0 1.71429 0ZM13.7143 13.7143H22.2857C22.7404 13.7143 23.1764 13.8949 23.4979 14.2164C23.8194 14.5379 24 14.9739 24 15.4286C24 15.8832 23.8194 16.3193 23.4979 16.6408C23.1764 16.9622 22.7404 17.1429 22.2857 17.1429H13.7143C13.2596 17.1429 12.8236 16.9622 12.5021 16.6408C12.1806 16.3193 12 15.8832 12 15.4286C12 14.9739 12.1806 14.5379 12.5021 14.2164C12.8236 13.8949 13.2596 13.7143 13.7143 13.7143ZM1.71429 6.85714H22.2857C22.7404 6.85714 23.1764 7.03775 23.4979 7.35925C23.8194 7.68074 24 8.11677 24 8.57143C24 9.02608 23.8194 9.46212 23.4979 9.78361C23.1764 10.1051 22.7404 10.2857 22.2857 10.2857H1.71429C1.25963 10.2857 0.823594 10.1051 0.502103 9.78361C0.180612 9.46212 0 9.02608 0 8.57143C0 8.11677 0.180612 7.68074 0.502103 7.35925C0.823594 7.03775 1.25963 6.85714 1.71429 6.85714Z" fill="#FEFEFE"/>
</svg>
