<svg width="51" height="50" viewBox="0 0 51 50" fill="none" xmlns="http://www.w3.org/2000/svg">
<circle opacity="0.1" cx="25.75" cy="25" r="25" fill="#005985"/>
<path d="M33.5183 29.7581C33.2722 29.7579 33.0299 29.8191 32.8133 29.9362L30.9119 28.1109H29.3403C30.0228 27.3172 30.425 26.3209 30.485 25.2758H31.8044C31.8734 25.6399 32.0759 25.9652 32.3721 26.1879C32.6683 26.4107 33.037 26.515 33.406 26.4803C33.775 26.4456 34.1178 26.2745 34.3673 26.0004C34.6168 25.7264 34.7551 25.3691 34.7551 24.9984C34.7551 24.6278 34.6168 24.2705 34.3673 23.9964C34.1178 23.7224 33.775 23.5513 33.406 23.5166C33.037 23.4819 32.6683 23.5861 32.3721 23.8089C32.0759 24.0317 31.8734 24.3569 31.8044 24.7211H30.485C30.425 23.6761 30.0228 22.6799 29.3405 21.8861H30.9121L32.8133 20.0607C33.1406 20.2379 33.5223 20.2866 33.8836 20.1973C34.2449 20.108 34.5599 19.8872 34.767 19.5779C34.9741 19.2687 35.0584 18.8934 35.0034 18.5253C34.9484 18.1572 34.7581 17.8228 34.4697 17.5876C34.1813 17.3524 33.8155 17.2332 33.4439 17.2534C33.0723 17.2736 32.7215 17.4317 32.4603 17.6968C32.199 17.9618 32.0461 18.3148 32.0313 18.6867C32.0165 19.0586 32.141 19.4226 32.3803 19.7075L30.6889 21.3315H28.7808C27.9923 20.6667 27.0095 20.2755 25.9799 20.2166V17.9511C26.3441 17.882 26.6694 17.6796 26.8922 17.3833C27.115 17.0871 27.2193 16.7183 27.1846 16.3493C27.1499 15.9802 26.9788 15.6374 26.7047 15.3878C26.4306 15.1383 26.0733 15 25.7026 15C25.3319 15 24.9745 15.1383 24.7004 15.3878C24.4263 15.6374 24.2552 15.9802 24.2205 16.3493C24.1858 16.7183 24.2901 17.0871 24.5129 17.3833C24.7357 17.6796 25.061 17.882 25.4252 17.9511V20.2166C24.3954 20.2754 23.4125 20.6666 22.6239 21.3315H20.7242L19.0485 19.5827C19.2598 19.2789 19.3502 18.9071 19.3019 18.5401C19.2536 18.1731 19.0701 17.8373 18.7874 17.5985C18.5046 17.3596 18.1429 17.2348 17.773 17.2485C17.4032 17.2622 17.0517 17.4134 16.7874 17.6725C16.5231 17.9317 16.3649 18.2801 16.3439 18.6496C16.3229 19.0192 16.4405 19.3833 16.6737 19.6707C16.907 19.9581 17.239 20.1482 17.605 20.2037C17.9709 20.2593 18.3444 20.1763 18.6524 19.971L20.4873 21.8865H22.0656C21.3832 22.6802 20.981 23.6765 20.9211 24.7215H18.7007C18.6316 24.3573 18.4292 24.032 18.133 23.8093C17.8368 23.5865 17.4681 23.4823 17.0991 23.5169C16.7301 23.5516 16.3873 23.7227 16.1378 23.9968C15.8883 24.2709 15.75 24.6282 15.75 24.9988C15.75 25.3694 15.8883 25.7267 16.1378 26.0008C16.3873 26.2749 16.7301 26.446 17.0991 26.4806C17.4681 26.5153 17.8368 26.4111 18.133 26.1883C18.4292 25.9655 18.6316 25.6403 18.7007 25.2761H20.9211C20.981 26.3212 21.3832 27.3175 22.0656 28.1113H20.4873L18.6524 30.0262C18.3427 29.8192 17.9668 29.7353 17.5984 29.7909C17.2301 29.8465 16.8957 30.0376 16.6608 30.3268C16.4259 30.6159 16.3073 30.9823 16.3284 31.3543C16.3494 31.7262 16.5085 32.0769 16.7746 32.3377C17.0406 32.5986 17.3944 32.7507 17.7667 32.7644C18.139 32.778 18.503 32.6523 18.7874 32.4117C19.0719 32.1711 19.2563 31.833 19.3046 31.4636C19.3529 31.0942 19.2615 30.7201 19.0485 30.4145L20.7242 28.6656H22.6239C23.4124 29.3303 24.3951 29.7215 25.4247 29.7805V32.0486C25.0604 32.1176 24.7351 32.3201 24.5122 32.6164C24.2894 32.9127 24.1851 33.2814 24.2198 33.6505C24.2545 34.0196 24.4256 34.3625 24.6998 34.6121C24.9739 34.8617 25.3313 35 25.702 35C26.0727 35 26.4301 34.8617 26.7043 34.6121C26.9784 34.3625 27.1496 34.0196 27.1842 33.6505C27.2189 33.2814 27.1146 32.9127 26.8918 32.6164C26.669 32.3201 26.3436 32.1176 25.9794 32.0486V29.7807C27.0092 29.7218 27.9922 29.3305 28.7808 28.6656H30.6887L32.3801 30.2893C32.1624 30.5487 32.0397 30.8746 32.0323 31.2132C32.0249 31.5518 32.1332 31.8828 32.3394 32.1515C32.5456 32.4201 32.8373 32.6104 33.1663 32.6908C33.4952 32.7713 33.8418 32.737 34.1487 32.5938C34.4556 32.4506 34.7044 32.2069 34.8541 31.9031C35.0037 31.5993 35.0453 31.2535 34.9718 30.9229C34.8983 30.5923 34.7142 30.2967 34.4499 30.0849C34.1856 29.8731 33.857 29.7578 33.5183 29.7581ZM33.2658 24.0647C33.4504 24.0648 33.6309 24.1195 33.7843 24.2221C33.9378 24.3247 34.0575 24.4705 34.1281 24.6411C34.1987 24.8117 34.2172 24.9993 34.1812 25.1804C34.1451 25.3615 34.0562 25.5278 33.9257 25.6583C33.7951 25.7889 33.6288 25.8778 33.4478 25.9138C33.2667 25.9498 33.079 25.9314 32.9084 25.8607C32.7379 25.7901 32.5921 25.6705 32.4895 25.517C32.3869 25.3635 32.3321 25.183 32.3321 24.9984C32.3324 24.7509 32.4309 24.5136 32.6059 24.3386C32.781 24.1635 33.0182 24.0651 33.2658 24.0647ZM33.5183 17.8168C33.703 17.8168 33.8835 17.8716 34.0371 17.9742C34.1906 18.0768 34.3103 18.2226 34.381 18.3932C34.4516 18.5638 34.4701 18.7516 34.4341 18.9327C34.3981 19.1138 34.3091 19.2802 34.1786 19.4108C34.048 19.5414 33.8816 19.6303 33.7005 19.6663C33.5194 19.7023 33.3316 19.6838 33.161 19.6132C32.9904 19.5425 32.8446 19.4228 32.742 19.2693C32.6394 19.1157 32.5846 18.9352 32.5846 18.7505C32.585 18.503 32.6835 18.2657 32.8585 18.0907C33.0335 17.9157 33.2708 17.8172 33.5183 17.8168ZM17.8282 19.6658C17.6435 19.6657 17.4631 19.6109 17.3096 19.5082C17.1561 19.4056 17.0364 19.2597 16.9658 19.0891C16.8952 18.9185 16.8768 18.7308 16.9128 18.5497C16.9489 18.3686 17.0379 18.2022 17.1685 18.0717C17.2991 17.9412 17.4654 17.8523 17.6465 17.8163C17.8277 17.7803 18.0154 17.7988 18.186 17.8695C18.3566 17.9401 18.5024 18.0598 18.6049 18.2134C18.7075 18.3669 18.7623 18.5474 18.7623 18.7321C18.7613 18.8844 18.7225 19.034 18.6495 19.1677L18.2501 19.5504L18.2564 19.557C18.1245 19.6274 17.9776 19.6647 17.8282 19.6658ZM17.8282 32.1983C17.6435 32.1983 17.4629 32.1435 17.3094 32.0408C17.1558 31.9382 17.0362 31.7923 16.9655 31.6216C16.8949 31.451 16.8764 31.2632 16.9125 31.0821C16.9485 30.9009 17.0375 30.7345 17.1681 30.6039C17.2988 30.4734 17.4652 30.3844 17.6464 30.3484C17.8275 30.3124 18.0153 30.331 18.1859 30.4017C18.3566 30.4724 18.5024 30.5921 18.605 30.7457C18.7076 30.8993 18.7623 31.0799 18.7623 31.2646C18.762 31.5123 18.6635 31.7497 18.4884 31.9248C18.3133 32.0999 18.0758 32.1981 17.8282 32.1983ZM24.7687 16.4899C24.7686 16.3051 24.8233 16.1245 24.9259 15.9709C25.0285 15.8173 25.1743 15.6975 25.345 15.6268C25.5156 15.556 25.7034 15.5375 25.8846 15.5735C26.0658 15.6095 26.2322 15.6985 26.3629 15.8291C26.4935 15.9597 26.5825 16.1261 26.6185 16.3073C26.6546 16.4885 26.6361 16.6763 26.5654 16.8469C26.4947 17.0176 26.3749 17.1635 26.2213 17.2661C26.0677 17.3687 25.8871 17.4234 25.7024 17.4234C25.4549 17.4231 25.2176 17.3247 25.0425 17.1497C24.8675 16.9747 24.769 16.7374 24.7687 16.4899ZM17.2388 25.9321C17.0542 25.932 16.8738 25.8771 16.7203 25.7745C16.5669 25.6718 16.4474 25.526 16.3768 25.3554C16.3063 25.1848 16.2879 24.9971 16.324 24.8161C16.3601 24.6351 16.449 24.4688 16.5796 24.3383C16.7102 24.2078 16.8765 24.119 17.0575 24.083C17.2386 24.047 17.4262 24.0655 17.5968 24.1362C17.7673 24.2068 17.9131 24.3264 18.0157 24.4799C18.1182 24.6334 18.173 24.8138 18.173 24.9984C18.1727 25.2461 18.0742 25.4835 17.899 25.6585C17.7239 25.8336 17.4864 25.932 17.2388 25.9321ZM25.7029 20.7625C26.5408 20.7625 27.3598 21.0109 28.0564 21.4764C28.7531 21.9418 29.2961 22.6034 29.6167 23.3775C29.9373 24.1515 30.0212 25.0032 29.8578 25.825C29.6944 26.6467 29.2909 27.4015 28.6985 27.994C28.106 28.5864 27.3512 28.9898 26.5295 29.1533C25.7078 29.3167 24.856 29.2328 24.082 28.9122C23.3079 28.5916 22.6463 28.0486 22.1809 27.3519C21.7154 26.6553 21.467 25.8363 21.4671 24.9984C21.4684 23.8754 21.9151 22.7988 22.7092 22.0047C23.5033 21.2106 24.5799 20.7639 25.7029 20.7625ZM26.6361 33.5098C26.6362 33.6945 26.5815 33.875 26.4789 34.0287C26.3764 34.1823 26.2305 34.302 26.0599 34.3728C25.8893 34.4435 25.7015 34.4621 25.5204 34.4261C25.3392 34.3902 25.1728 34.3013 25.0421 34.1707C24.9114 34.0402 24.8224 33.8738 24.7863 33.6927C24.7502 33.5115 24.7686 33.3238 24.8393 33.1531C24.9099 32.9824 25.0295 32.8365 25.1831 32.7338C25.3366 32.6312 25.5171 32.5763 25.7018 32.5762C25.9494 32.5765 26.1868 32.6749 26.3619 32.8499C26.5371 33.0249 26.6357 33.2622 26.6361 33.5098ZM33.5176 32.18C33.333 32.1799 33.1526 32.125 32.9992 32.0223C32.8458 31.9197 32.7262 31.7738 32.6557 31.6033C32.5851 31.4327 32.5667 31.245 32.6028 31.064C32.6389 30.883 32.7279 30.7167 32.8584 30.5862C32.989 30.4557 33.1553 30.3669 33.3364 30.3309C33.5174 30.2949 33.7051 30.3134 33.8756 30.384C34.0462 30.4547 34.1919 30.5743 34.2945 30.7278C34.3971 30.8813 34.4518 31.0617 34.4519 31.2463C34.4516 31.4938 34.3531 31.7311 34.1781 31.9061C34.0031 32.0812 33.7659 32.1797 33.5183 32.18H33.5176Z" fill="#005985"/>
<path d="M24.4174 25.8373H25.4042L25.6701 26.7222H26.5085L25.4395 23.2754H24.4174L23.3635 26.7223H24.1713L24.4174 25.8373ZM24.7343 24.523C24.7898 24.3241 24.8417 24.0628 24.8926 23.8585H24.9033C24.9542 24.0619 25.0157 24.3186 25.0767 24.523L25.2916 25.2545H24.5293L24.7343 24.523Z" fill="#005985"/>
<path d="M27.7502 23.2754H26.9678V26.7223H27.7502V23.2754Z" fill="#005985"/>
</svg>
