<svg width="51" height="50" viewBox="0 0 51 50" fill="none" xmlns="http://www.w3.org/2000/svg">
<circle opacity="0.1" cx="25.75" cy="25" r="25" fill="#005985"/>
<path d="M20.3564 30.0259C20.3479 30.4436 20.0341 30.7874 19.5856 30.7966H16.5034C15.9103 30.7851 15.4942 29.992 15.9319 29.509C16.0757 29.3505 16.2857 29.2597 16.5034 29.2551H18.8149V27.7144H16.5034C15.8173 27.7006 15.4365 26.5921 16.1772 26.246C16.2788 26.1983 16.3896 26.1752 16.5034 26.1729C17.5411 26.1729 18.5787 26.1537 19.6156 26.1737C20.0225 26.1975 20.3479 26.5098 20.3564 26.9437V27.7144H21.8971V23.0907H20.3564V23.8614C20.3586 23.9426 20.3458 24.0234 20.3187 24.0999C20.2651 24.2526 20.1662 24.3854 20.0352 24.4805C19.9043 24.5756 19.7474 24.6285 19.5856 24.6322H16.5034C15.8173 24.6183 15.4365 23.5099 16.1772 23.1638C16.2788 23.1161 16.3896 23.093 16.5034 23.0907H18.8149V21.55H16.5034C15.815 21.5361 15.4534 20.42 16.1772 20.0815C16.2788 20.0338 16.3896 20.0108 16.5034 20.0092C17.5411 20.0092 18.5787 19.9892 19.6156 20.0092C20.0225 20.0331 20.3479 20.3461 20.3564 20.7792V21.55H22.6678L22.7109 21.5515C22.7977 21.5538 22.8832 21.5731 22.9624 21.6084C23.2447 21.7253 23.4278 21.9515 23.4386 22.3207V24.6322H28.0615V22.3207C28.059 22.2338 28.0736 22.1473 28.1046 22.0661C28.2108 21.7646 28.4485 21.5607 28.8323 21.55H31.1438V20.7792C31.1415 20.6983 31.1543 20.6177 31.1815 20.5415C31.2807 20.2354 31.5845 20.0154 31.9145 20.0092C32.9522 20.0092 33.9898 19.9885 35.0275 20.0092C35.6952 20.0492 36.0575 21.1338 35.3229 21.4777C35.2203 21.524 35.1093 21.5487 34.9967 21.55H32.6853V23.0907H34.9967C35.5729 23.1022 35.9782 23.8499 35.6075 24.3314C35.5344 24.4238 35.4417 24.4986 35.336 24.5507C35.2304 24.6027 35.1145 24.6305 34.9967 24.6322H31.9145C31.7102 24.6318 31.5144 24.5504 31.37 24.406C31.2255 24.2615 31.1442 24.0657 31.1438 23.8614V23.0907H29.603V27.7144H31.1438V26.9437C31.1415 26.8628 31.1543 26.7822 31.1815 26.706C31.2807 26.3998 31.5845 26.1798 31.9145 26.1729C32.9522 26.1729 33.9898 26.1529 35.0275 26.1737C35.7021 26.2144 36.0459 27.3036 35.3229 27.6421C35.2203 27.6885 35.1093 27.7131 34.9967 27.7144H32.6853V29.2551H34.9967C35.6829 29.269 36.0636 30.3774 35.3229 30.7243C35.2203 30.7707 35.1093 30.7953 34.9967 30.7966H31.9145C31.8334 30.7988 31.7526 30.7861 31.6761 30.7589C31.5233 30.7054 31.3905 30.6066 31.2953 30.4756C31.2002 30.3446 31.1473 30.1877 31.1438 30.0259V29.2551H28.8323C28.7454 29.2577 28.6589 29.2431 28.5777 29.2121C28.2762 29.1067 28.0723 28.869 28.0615 28.4852V26.1729H23.4386V28.4852C23.4411 28.5718 23.4265 28.658 23.3955 28.739C23.2894 29.0413 23.0517 29.2444 22.6678 29.2551H20.3564V30.0259Z" fill="#005985"/>
</svg>
