<svg width="51" height="50" viewBox="0 0 51 50" fill="none" xmlns="http://www.w3.org/2000/svg">
<circle opacity="0.1" cx="25.75" cy="25" r="25" fill="#005985"/>
<path d="M19.1011 19.2452C19.0721 19.2742 19.049 19.3087 19.0333 19.3466C19.0176 19.3845 19.0095 19.4251 19.0095 19.4662C19.0095 19.5072 19.0176 19.5479 19.0333 19.5858C19.049 19.6237 19.0721 19.6582 19.1011 19.6872L21.8591 22.4467C21.9177 22.5053 21.9972 22.5382 22.0801 22.5382C22.1629 22.5382 22.2424 22.5053 22.301 22.4467C22.3596 22.3881 22.3926 22.3086 22.3926 22.2257C22.3926 22.1428 22.3596 22.0633 22.301 22.0047L19.5415 19.2452C19.483 19.187 19.4038 19.1544 19.3213 19.1544C19.2388 19.1544 19.1596 19.187 19.1011 19.2452ZM28.0153 20.7679V16.9152C28.0153 16.8323 27.9824 16.7529 27.9238 16.6943C27.8652 16.6357 27.7858 16.6028 27.7029 16.6028C27.6201 16.6028 27.5406 16.6357 27.4821 16.6943C27.4235 16.7529 27.3906 16.8323 27.3906 16.9152V20.7679C27.3906 20.8507 27.4235 20.9301 27.4821 20.9887C27.5406 21.0473 27.6201 21.0802 27.7029 21.0802C27.7858 21.0802 27.8652 21.0473 27.9238 20.9887C27.9824 20.9301 28.0153 20.8507 28.0153 20.7679ZM23.1725 15.2348C23.1622 15.195 23.1442 15.1576 23.1195 15.1248C23.0948 15.092 23.0639 15.0643 23.0285 15.0434C22.9931 15.0225 22.954 15.0088 22.9133 15.0031C22.8726 14.9973 22.8312 14.9996 22.7914 15.0099C22.7516 15.0202 22.7142 15.0381 22.6814 15.0628C22.6486 15.0875 22.6209 15.1185 22.6 15.1539C22.5792 15.1892 22.5655 15.2284 22.5597 15.2691C22.5539 15.3098 22.5563 15.3512 22.5665 15.391L23.5035 19.139C23.5138 19.1788 23.5318 19.2162 23.5565 19.249C23.5812 19.2818 23.6121 19.3095 23.6475 19.3304C23.6829 19.3513 23.722 19.365 23.7627 19.3707C23.8034 19.3765 23.8448 19.3742 23.8846 19.3639C23.9244 19.3536 23.9618 19.3357 23.9946 19.311C24.0274 19.2863 24.0551 19.2553 24.0759 19.22C24.0968 19.1846 24.1105 19.1454 24.1163 19.1047C24.122 19.0641 24.1197 19.0226 24.1095 18.9828L23.1725 15.2348ZM19.0543 26.3665C20.035 27.7721 20.0272 28.4061 20.021 29.0214C19.9741 33.4941 23.0741 34.8762 24.9153 34.9871C25.0559 34.9949 25.1917 34.9996 25.3276 34.9996C26.179 35.0097 27.0229 34.8391 27.8036 34.4991C28.5843 34.1591 29.284 33.6574 29.8565 33.0272L30.8794 31.8996L30.8966 31.8793L31.4041 31.3187C31.5838 31.1388 31.7118 30.9138 31.7744 30.6674C31.8371 30.421 31.8322 30.1623 31.7603 29.9184C31.6884 29.6746 31.5521 29.4546 31.3658 29.2816C31.1794 29.1087 30.9499 28.9891 30.7014 28.9355C30.7502 28.7583 30.7599 28.5725 30.73 28.3911C30.7 28.2097 30.6311 28.037 30.5279 27.8848C30.4247 27.7327 30.2897 27.6047 30.1323 27.5097C29.9749 27.4148 29.7987 27.3551 29.616 27.3348C29.6668 27.1945 29.6932 27.0467 29.6941 26.8975C29.6949 26.5718 29.5827 26.2559 29.3764 26.0038C29.1702 25.7517 28.8828 25.5791 28.5634 25.5154L30.2579 23.8147C30.3908 23.6822 30.496 23.5246 30.5674 23.3509C30.6387 23.1773 30.6747 22.9913 30.6734 22.8036C30.672 22.6159 30.6333 22.4303 30.5595 22.2578C30.4856 22.0852 30.3782 21.9291 30.2433 21.7985C30.1085 21.6679 29.949 21.5655 29.7742 21.4972C29.5993 21.4289 29.4126 21.3962 29.225 21.4008C29.0374 21.4055 28.8525 21.4475 28.6813 21.5244C28.51 21.6012 28.3558 21.7114 28.2277 21.8486C26.3708 23.8303 24.0626 26.0854 23.1522 26.4556C22.6212 26.6742 22.4931 26.504 22.0824 25.8309C21.7971 25.3035 21.4182 24.8325 20.9642 24.441C20.4239 24.0021 19.7883 23.9896 19.262 24.4066C18.667 24.8767 18.5811 25.6856 19.0543 26.3665ZM30.4 29.5305C30.5036 29.5301 30.6062 29.5504 30.702 29.59C30.7977 29.6297 30.8846 29.6881 30.9575 29.7617C31.0311 29.8363 31.0892 29.9247 31.1286 30.0218C31.1679 30.119 31.1876 30.2229 31.1866 30.3277C31.1855 30.4325 31.1638 30.5361 31.1226 30.6324C31.0814 30.7288 31.0216 30.816 30.9466 30.8892L30.4515 31.4342C30.3189 31.4969 30.1703 31.5174 30.0257 31.4931C29.8811 31.4688 29.7474 31.4009 29.6426 31.2984L29.6144 31.2687C29.4867 31.1434 29.41 30.9753 29.399 30.7968C29.388 30.6182 29.4437 30.4419 29.5551 30.302L30.3359 29.5212L30.4 29.5305ZM29.9315 28.1344C30.0471 28.2491 30.1152 28.4032 30.1222 28.5659C30.1291 28.7286 30.0744 28.8879 29.9689 29.012C29.9559 29.024 29.9439 29.0371 29.933 29.0511L29.0366 29.9475C28.91 29.9938 28.773 30.0037 28.641 29.9761C28.5091 29.9485 28.3875 29.8845 28.2901 29.7913L28.2526 29.7538C28.1297 29.6262 28.0575 29.4581 28.0494 29.2811C28.0414 29.104 28.0981 28.9301 28.2089 28.7918C28.3339 28.695 28.857 28.2812 29.135 28.0422C29.2587 27.9673 29.4038 27.9357 29.5475 27.9524C29.6911 27.9691 29.8251 28.0331 29.9283 28.1344H29.9315ZM28.8383 26.3369C28.9119 26.4098 28.9702 26.4967 29.0099 26.5924C29.0496 26.6881 29.0698 26.7908 29.0694 26.8944C29.049 27.1481 28.9315 27.3842 28.7415 27.5534C28.5509 27.719 28.1402 28.0485 27.8372 28.2859C27.7081 28.3227 27.5713 28.3242 27.4414 28.2901C27.3114 28.2561 27.193 28.1877 27.0986 28.0922L27.0783 28.0719C26.9361 27.9296 26.8562 27.7366 26.8562 27.5355C26.8562 27.3343 26.9361 27.1413 27.0783 26.999L27.8122 26.265C27.9627 26.1509 28.1493 26.0952 28.3377 26.1081C28.526 26.121 28.7033 26.2017 28.8367 26.3353L28.8383 26.3369ZM19.6508 24.8892C19.9507 24.6518 20.2521 24.6612 20.5707 24.9188C20.9682 25.2654 21.2994 25.6814 21.5483 26.1463C21.6932 26.4174 21.875 26.6671 22.0886 26.8881C22.0945 26.8968 22.1007 26.9051 22.1074 26.9131C22.1339 26.9412 22.7321 27.5956 22.123 28.5467C22.082 28.6164 22.0696 28.6993 22.0885 28.778C22.1073 28.8566 22.156 28.9249 22.2242 28.9684C22.2924 29.0119 22.3748 29.0273 22.4541 29.0112C22.5334 28.9952 22.6034 28.949 22.6493 28.8824C22.8216 28.6353 22.9368 28.353 22.9865 28.0559C23.0362 27.7587 23.0192 27.4543 22.9366 27.1646C23.0913 27.1434 23.2426 27.1019 23.3864 27.0412C24.6155 26.5368 27.4968 23.5461 28.6805 22.2827C28.7525 22.2052 28.8394 22.143 28.936 22.1001C29.0326 22.0571 29.137 22.0342 29.2428 22.0328C29.3486 22.0312 29.4538 22.0508 29.552 22.0905C29.6501 22.1302 29.7394 22.1892 29.8143 22.264C29.8878 22.3372 29.946 22.4242 29.9858 22.52C30.0255 22.6158 30.046 22.7186 30.046 22.8223C30.046 22.926 30.0255 23.0287 29.9858 23.1245C29.946 23.2203 29.8878 23.3073 29.8143 23.3806L26.6347 26.5539C26.5055 26.6825 26.403 26.8353 26.3331 27.0036C26.2631 27.1719 26.2271 27.3524 26.2271 27.5347C26.2271 27.7169 26.2631 27.8974 26.3331 28.0657C26.403 28.234 26.5055 28.3869 26.6347 28.5154L26.6519 28.5326C26.867 28.7483 27.1478 28.8862 27.4499 28.9246C27.3955 29.15 27.3996 29.3855 27.4619 29.6089C27.5243 29.8322 27.6427 30.0359 27.806 30.2005L27.8185 30.2114L27.831 30.2239C28.0844 30.475 28.4269 30.6154 28.7836 30.6143C28.7623 30.8139 28.786 31.0158 28.853 31.205C28.9201 31.3941 29.0287 31.5659 29.1709 31.7075L29.1943 31.7341C29.375 31.9143 29.6029 32.0399 29.8518 32.0964L29.3833 32.6133L29.3708 32.6274C28.8116 33.2294 28.1242 33.6979 27.3595 33.9982C26.5947 34.2985 25.7722 34.423 24.9528 34.3624C24.1481 34.2926 23.3733 34.0243 22.6977 33.5816C22.7461 33.5816 22.7961 33.5816 22.8461 33.5816H22.9788C23.7597 33.5316 24.4733 33.0584 25.1105 32.176C25.1565 32.1086 25.1743 32.0259 25.1601 31.9456C25.1459 31.8653 25.1008 31.7937 25.0345 31.7461C24.9682 31.6986 24.8859 31.6789 24.8053 31.6912C24.7246 31.7036 24.652 31.747 24.603 31.8122C24.0829 32.5368 23.5254 32.9241 22.9444 32.9631C22.1339 33.0162 21.5108 32.3681 21.5014 32.3588C21.4876 32.3443 21.4725 32.3312 21.4562 32.3197C20.9673 31.5482 20.6316 30.4894 20.6472 29.0261C20.6566 28.2 20.5816 27.4535 19.5681 26.0042C19.3323 25.6731 19.2682 25.1953 19.6508 24.8892Z" fill="#005985"/>
<path d="M24.514 21.3659L23.8237 21.4658L24.3235 21.9531L24.2048 22.6402L24.8217 22.3154L25.4385 22.6402L25.3198 21.9531L25.8196 21.4658L25.1293 21.3659L24.8217 20.7412L24.514 21.3659Z" fill="#005985"/>
<path d="M25.5181 17.6099L25.7289 18.0846L25.9788 17.627L26.4957 17.5739L26.1381 17.196L26.2474 16.6869L25.7773 16.9102L25.326 16.6494L25.3932 17.1663L25.0059 17.5146L25.5181 17.6099Z" fill="#005985"/>
<path d="M21.3623 17.4006L20.986 17.043L20.9297 17.5599L20.4722 17.8082L20.9469 18.0206L21.0422 18.5328L21.3904 18.1455L21.9074 18.2142L21.6466 17.7629L21.8714 17.2944L21.3623 17.4006Z" fill="#005985"/>
</svg>
