<svg width="51" height="50" viewBox="0 0 51 50" fill="none" xmlns="http://www.w3.org/2000/svg">
<circle opacity="0.1" cx="25.75" cy="25" r="25" fill="#005985"/>
<path d="M25.3823 29.331C22.6724 29.331 20.4678 27.1179 20.4678 24.3977C20.4678 21.6774 22.6724 19.4644 25.3823 19.4644C28.0922 19.4644 30.2968 21.6774 30.2968 24.3977C30.2968 27.1179 28.0922 29.331 25.3823 29.331ZM25.3823 20.8319C23.4265 20.8319 21.8353 22.4315 21.8353 24.3977C21.8353 26.3639 23.4265 27.9635 25.3823 27.9635C27.3381 27.9635 28.9293 26.3639 28.9293 24.3977C28.9293 22.4315 27.3381 20.8319 25.3823 20.8319Z" fill="#005985"/>
<path d="M24.1708 26.0874L22.9375 24.6482L23.9759 23.7584L24.7232 24.6304L26.8489 22.4561L27.8268 23.412L25.179 26.1205C25.0501 26.2523 24.5564 26.4389 24.1708 26.0874Z" fill="#005985"/>
<path d="M24.7203 34.8377C18.9223 32.1261 16.6163 25.694 16.756 19.6574C16.7631 19.3455 16.9813 19.0781 17.2858 19.0079C18.921 18.6309 20.2022 17.4549 20.1896 15.6856C20.188 15.3124 20.4995 15 20.8734 15H29.8942C30.268 15 30.5795 15.3122 30.578 15.6854C30.5419 17.35 31.8213 18.7348 33.4387 18.9995C33.7647 19.0528 34.0058 19.3312 34.0118 19.6609C34.1194 25.6197 31.496 31.8227 26.0798 34.7812C25.8519 34.9057 25.4357 35.1723 24.7203 34.8377ZM25.2761 33.5901C25.3233 33.611 25.3771 33.6086 25.4235 33.5833C27.1251 32.6538 32.589 28.9796 32.6475 20.2187C30.8795 19.7094 29.4978 18.2024 29.2503 16.3655H21.5174C21.2696 18.2038 19.8863 19.7114 18.1166 20.2197C18.107 25.4584 20.1442 31.3112 25.2761 33.5901C25.3233 33.6111 24.5538 33.2694 25.2761 33.5901Z" fill="#005985"/>
</svg>
