<svg width="51" height="50" viewBox="0 0 51 50" fill="none" xmlns="http://www.w3.org/2000/svg">
<circle opacity="0.1" cx="25.75" cy="25" r="25" fill="#005985"/>
<path d="M32.0369 30.587C32.1761 30.587 32.3153 30.593 32.4545 30.5789C32.7772 30.5466 33.0757 30.4679 33.3601 30.3106C33.8684 30.0302 34.2598 29.526 34.407 28.9652C34.52 28.5336 34.4796 28.0555 34.4796 27.6138V24.3118C34.4796 23.9004 34.3767 23.4869 34.1569 23.1359C33.8503 22.6477 33.348 22.2685 32.7792 22.1495C32.3516 22.0608 31.8231 22.0567 31.4056 22.1899C30.8549 22.3654 30.3567 22.7587 30.1005 23.2851C29.9372 23.62 29.8605 23.9669 29.8605 24.3401V28.2996C29.8605 28.58 29.8847 28.8644 29.9856 29.1286C30.1933 29.6692 30.5826 30.1432 31.1212 30.3772C31.4137 30.5083 31.7122 30.5829 32.0369 30.587C32.3536 30.589 32.6562 30.3066 32.6421 29.9818C32.6279 29.651 32.3758 29.3787 32.0369 29.3767C31.9623 29.3767 31.8897 29.3707 31.8151 29.3606C31.8695 29.3686 31.922 29.3747 31.9764 29.3828C31.8413 29.3626 31.7122 29.3263 31.5871 29.2738L31.7324 29.3344C31.6436 29.296 31.5569 29.2496 31.4762 29.1972C31.4722 29.1952 31.4116 29.1569 31.4116 29.1508C31.4116 29.1528 31.5448 29.2617 31.4621 29.1891C31.4258 29.1568 31.3895 29.1266 31.3552 29.0923C31.3249 29.062 31.2947 29.0298 31.2664 28.9955C31.2321 28.9551 31.1999 28.8845 31.2947 29.0358C31.2805 29.0136 31.2644 28.9935 31.2483 28.9713C31.1938 28.8906 31.1494 28.8039 31.1111 28.7151L31.1716 28.8603C31.1192 28.7353 31.0829 28.6062 31.0627 28.471C31.0708 28.5255 31.0768 28.578 31.0849 28.6324C31.0607 28.4448 31.0687 28.2512 31.0687 28.0616V24.7253C31.0687 24.5035 31.0546 24.2755 31.0849 24.0557C31.0768 24.1101 31.0708 24.1626 31.0627 24.217C31.0829 24.0819 31.1192 23.9528 31.1716 23.8277L31.1111 23.973C31.1494 23.8842 31.1958 23.7975 31.2483 23.7168C31.2503 23.7128 31.2886 23.6523 31.2947 23.6523C31.2926 23.6523 31.1837 23.7854 31.2563 23.7027C31.2886 23.6664 31.3189 23.6301 31.3532 23.5958C31.3834 23.5655 31.4157 23.5353 31.45 23.507C31.4903 23.4727 31.5609 23.4405 31.4096 23.5353C31.4318 23.5211 31.452 23.505 31.4742 23.4889C31.5549 23.4344 31.6416 23.39 31.7303 23.3517L31.5851 23.4122C31.7102 23.3598 31.8393 23.3235 31.9744 23.3033C31.9199 23.3114 31.8675 23.3174 31.813 23.3255C32.039 23.2952 32.2931 23.2952 32.521 23.3255C32.4666 23.3174 32.4141 23.3114 32.3597 23.3033C32.4948 23.3235 32.6239 23.3598 32.749 23.4122L32.6037 23.3517C32.6925 23.39 32.7792 23.4364 32.8599 23.4889C32.8639 23.4909 32.9245 23.5292 32.9245 23.5353C32.9245 23.5332 32.7913 23.4243 32.874 23.4969C32.9103 23.5292 32.9466 23.5595 32.9809 23.5938C33.0112 23.624 33.0414 23.6563 33.0697 23.6906C33.104 23.7309 33.1362 23.8015 33.0414 23.6502C33.0556 23.6724 33.0717 23.6926 33.0878 23.7148C33.1423 23.7955 33.1867 23.8822 33.225 23.971L33.1645 23.8257C33.2169 23.9508 33.2532 24.0799 33.2734 24.215C33.2653 24.1606 33.2593 24.1081 33.2512 24.0537C33.2754 24.2412 33.2674 24.4349 33.2674 24.6245V27.9607C33.2674 28.1826 33.2815 28.4105 33.2512 28.6304C33.2593 28.5759 33.2653 28.5235 33.2734 28.469C33.2532 28.6042 33.2169 28.7333 33.1645 28.8583L33.225 28.7131C33.1867 28.8018 33.1403 28.8886 33.0878 28.9693C33.0858 28.9733 33.0475 29.0338 33.0414 29.0338C33.0435 29.0338 33.1524 28.9007 33.0798 28.9834C33.0475 29.0197 33.0172 29.056 32.9829 29.0903C32.9527 29.1205 32.9204 29.1508 32.8861 29.179C32.8458 29.2133 32.7752 29.2456 32.9265 29.1508C32.9043 29.1649 32.8841 29.1811 32.8619 29.1972C32.7812 29.2517 32.6945 29.296 32.6058 29.3344L32.751 29.2738C32.6259 29.3263 32.4968 29.3626 32.3617 29.3828C32.4161 29.3747 32.4686 29.3686 32.5231 29.3606C32.3617 29.3828 32.2003 29.3767 32.0369 29.3767C31.7203 29.3767 31.4177 29.6551 31.4318 29.9818C31.4459 30.3086 31.6961 30.587 32.0369 30.587ZM19.9264 30.587C20.0656 30.587 20.2048 30.593 20.344 30.5789C20.6667 30.5466 20.9652 30.4679 21.2496 30.3106C21.7579 30.0302 22.1492 29.526 22.2965 28.9652C22.4094 28.5336 22.3691 28.0555 22.3691 27.6138V24.3118C22.3691 23.9004 22.2662 23.4869 22.0464 23.1359C21.7398 22.6477 21.2375 22.2685 20.6687 22.1495C20.2411 22.0608 19.7126 22.0567 19.2951 22.1899C18.7444 22.3654 18.2462 22.7587 17.99 23.2851C17.8266 23.62 17.75 23.9669 17.75 24.3401V28.2996C17.75 28.58 17.7742 28.8644 17.8751 29.1286C18.0828 29.6692 18.4721 30.1432 19.0107 30.3772C19.3031 30.5083 19.6017 30.5829 19.9264 30.587C20.2431 30.589 20.5457 30.3066 20.5315 29.9818C20.5174 29.651 20.2653 29.3787 19.9264 29.3767C19.8518 29.3767 19.7792 29.3707 19.7045 29.3606C19.759 29.3686 19.8115 29.3747 19.8659 29.3828C19.7308 29.3626 19.6017 29.3263 19.4766 29.2738L19.6218 29.3344C19.5331 29.296 19.4464 29.2496 19.3657 29.1972C19.3616 29.1952 19.3011 29.1569 19.3011 29.1508C19.3011 29.1528 19.4343 29.2617 19.3516 29.1891C19.3152 29.1568 19.2789 29.1266 19.2447 29.0923C19.2144 29.062 19.1841 29.0298 19.1559 28.9955C19.1216 28.9551 19.0893 28.8845 19.1841 29.0358C19.17 29.0136 19.1539 28.9935 19.1377 28.9713C19.0833 28.8906 19.0389 28.8039 19.0006 28.7151L19.0611 28.8603C19.0087 28.7353 18.9723 28.6062 18.9522 28.471C18.9602 28.5255 18.9663 28.578 18.9744 28.6324C18.9502 28.4448 18.9582 28.2512 18.9582 28.0616V24.7253C18.9582 24.5035 18.9441 24.2755 18.9744 24.0557C18.9663 24.1101 18.9602 24.1626 18.9522 24.217C18.9723 24.0819 19.0087 23.9528 19.0611 23.8277L19.0006 23.973C19.0389 23.8842 19.0853 23.7975 19.1377 23.7168C19.1398 23.7128 19.1781 23.6523 19.1841 23.6523C19.1821 23.6523 19.0732 23.7854 19.1458 23.7027C19.1781 23.6664 19.2083 23.6301 19.2426 23.5958C19.2729 23.5655 19.3052 23.5353 19.3395 23.507C19.3798 23.4727 19.4504 23.4405 19.2991 23.5353C19.3213 23.5211 19.3415 23.505 19.3637 23.4889C19.4443 23.4344 19.5311 23.39 19.6198 23.3517L19.4746 23.4122C19.5997 23.3598 19.7288 23.3235 19.8639 23.3033C19.8094 23.3114 19.757 23.3174 19.7025 23.3255C19.9284 23.2952 20.1826 23.2952 20.4105 23.3255C20.3561 23.3174 20.3036 23.3114 20.2492 23.3033C20.3843 23.3235 20.5134 23.3598 20.6385 23.4122L20.4932 23.3517C20.582 23.39 20.6687 23.4364 20.7494 23.4889C20.7534 23.4909 20.8139 23.5292 20.8139 23.5353C20.8139 23.5332 20.6808 23.4243 20.7635 23.4969C20.7998 23.5292 20.8361 23.5595 20.8704 23.5938C20.9007 23.624 20.9309 23.6563 20.9592 23.6906C20.9935 23.7309 21.0257 23.8015 20.9309 23.6502C20.945 23.6724 20.9612 23.6926 20.9773 23.7148C21.0318 23.7955 21.0762 23.8822 21.1145 23.971L21.054 23.8257C21.1064 23.9508 21.1427 24.0799 21.1629 24.215C21.1548 24.1606 21.1488 24.1081 21.1407 24.0537C21.1649 24.2412 21.1568 24.4349 21.1568 24.6245V27.9607C21.1568 28.1826 21.171 28.4105 21.1407 28.6304C21.1488 28.5759 21.1548 28.5235 21.1629 28.469C21.1427 28.6042 21.1064 28.7333 21.054 28.8583L21.1145 28.7131C21.0762 28.8018 21.0298 28.8886 20.9773 28.9693C20.9753 28.9733 20.937 29.0338 20.9309 29.0338C20.9329 29.0338 21.0419 28.9007 20.9693 28.9834C20.937 29.0197 20.9067 29.056 20.8724 29.0903C20.8422 29.1205 20.8099 29.1508 20.7756 29.179C20.7353 29.2133 20.6647 29.2456 20.816 29.1508C20.7938 29.1649 20.7736 29.1811 20.7514 29.1972C20.6707 29.2517 20.584 29.296 20.4952 29.3344L20.6405 29.2738C20.5154 29.3263 20.3863 29.3626 20.2512 29.3828C20.3056 29.3747 20.3581 29.3686 20.4125 29.3606C20.2512 29.3828 20.0898 29.3767 19.9264 29.3767C19.6097 29.3767 19.3072 29.6551 19.3213 29.9818C19.3354 30.3086 19.5876 30.587 19.9264 30.587Z" fill="#005985"/>
<path d="M18.9582 28.2771V23.6237C18.9582 23.188 18.9703 22.7543 19.0288 22.3207C19.0208 22.3751 19.0147 22.4276 19.0066 22.482C19.0994 21.8043 19.281 21.1427 19.5472 20.5134L19.4867 20.6586C19.64 20.2975 19.8215 19.9466 20.0273 19.6117C20.1281 19.4484 20.233 19.291 20.346 19.1357C20.3742 19.0954 20.4045 19.057 20.4327 19.0187C20.4428 19.0046 20.4549 18.9905 20.465 18.9764C20.5295 18.8896 20.3682 19.0994 20.4347 19.0147C20.4952 18.938 20.5558 18.8614 20.6203 18.7888C20.8684 18.4943 21.1407 18.2179 21.4291 17.9638C21.4997 17.9033 21.5703 17.8428 21.643 17.7822C21.6772 17.754 21.7115 17.7258 21.7458 17.6995C21.7801 17.6713 21.8668 17.6088 21.7075 17.7278C21.7297 17.7117 21.7499 17.6955 21.772 17.6794C21.9274 17.5624 22.0887 17.4494 22.2541 17.3445C22.6233 17.1085 23.0105 16.9048 23.4139 16.7334L23.2687 16.7939C23.898 16.5276 24.5596 16.3461 25.2374 16.2533C25.1829 16.2614 25.1305 16.2674 25.076 16.2755C25.7638 16.1827 26.4638 16.1827 27.1516 16.2755C27.0971 16.2674 27.0447 16.2614 26.9902 16.2533C27.668 16.3461 28.3296 16.5276 28.9589 16.7939L28.8137 16.7334C29.1747 16.8867 29.5257 17.0682 29.8605 17.2739C30.0239 17.3748 30.1812 17.4797 30.3365 17.5926C30.3769 17.6209 30.4152 17.6511 30.4535 17.6794C30.4677 17.6895 30.4818 17.7016 30.4959 17.7117C30.5826 17.7762 30.3729 17.6148 30.4576 17.6814C30.5342 17.7419 30.6109 17.8024 30.6835 17.867C30.978 18.1151 31.2543 18.3874 31.5085 18.6758C31.569 18.7464 31.6295 18.817 31.69 18.8896C31.7182 18.9239 31.7465 18.9582 31.7727 18.9925C31.8009 19.0268 31.8635 19.1135 31.7445 18.9542C31.7606 18.9764 31.7767 18.9965 31.7929 19.0187C31.9099 19.174 32.0228 19.3354 32.1277 19.5008C32.3637 19.8699 32.5674 20.2572 32.7389 20.6606L32.6784 20.5154C32.9446 21.1447 33.1262 21.8063 33.2189 22.4841C33.2109 22.4296 33.2048 22.3771 33.1968 22.3227C33.2573 22.7745 33.2674 23.2263 33.2674 23.6802V28.7834C33.2674 29.1707 33.2835 29.566 33.2331 29.9513C33.2411 29.8968 33.2472 29.8444 33.2553 29.7899C33.2109 30.1046 33.1262 30.4132 33.0051 30.7077L33.0656 30.5624C32.9729 30.7843 32.8579 30.9961 32.7248 31.1958C32.6925 31.2442 32.6582 31.2906 32.6259 31.337C32.5513 31.4419 32.7147 31.2281 32.6481 31.3088C32.632 31.3289 32.6158 31.3511 32.5977 31.3713C32.521 31.4641 32.4424 31.5508 32.3577 31.6355C32.2729 31.7202 32.1842 31.8009 32.0934 31.8756C32.0732 31.8917 32.0531 31.9098 32.0309 31.926C31.9482 31.9925 32.1499 31.8372 32.0692 31.8957C32.0188 31.932 31.9684 31.9683 31.9179 32.0026C31.7182 32.1358 31.5064 32.2507 31.2846 32.3435L31.4298 32.283C31.1353 32.404 30.8287 32.4887 30.512 32.5331C30.5665 32.525 30.6189 32.519 30.6734 32.5109C30.3466 32.5553 30.0158 32.5452 29.687 32.5452H28.148C27.8313 32.5452 27.5288 32.8236 27.5429 33.1503C27.557 33.4791 27.8092 33.7555 28.148 33.7555H29.679C29.8706 33.7555 30.0642 33.7595 30.2559 33.7555C30.7662 33.7434 31.2805 33.6445 31.7525 33.4509C32.7187 33.0515 33.5457 32.3354 34.0137 31.3915C34.3384 30.7399 34.4816 30.0461 34.4816 29.3219V23.3635C34.4796 22.4135 34.3203 21.4513 33.9935 20.5577C33.6486 19.6097 33.1463 18.7464 32.4988 17.9719C31.8897 17.2437 31.1434 16.6184 30.3265 16.1383C29.4894 15.6482 28.5575 15.2972 27.6014 15.1298C26.5707 14.9503 25.5339 14.9563 24.5072 15.152C23.5612 15.3315 22.6374 15.6946 21.8124 16.1928C20.9995 16.685 20.2613 17.3163 19.6642 18.0525C19.0248 18.8392 18.5306 19.7126 18.1978 20.6707C17.8993 21.534 17.752 22.4558 17.75 23.3675V28.2771C17.75 28.5938 18.0284 28.8963 18.3551 28.8822C18.6799 28.8661 18.9582 28.616 18.9582 28.2771Z" fill="#005985"/>
<path d="M27.541 33.1505C27.541 33.207 27.537 33.2614 27.5289 33.3159C27.537 33.2614 27.543 33.209 27.5511 33.1545C27.535 33.2614 27.5067 33.3643 27.4664 33.4652L27.5269 33.3199C27.4967 33.3885 27.4624 33.4551 27.422 33.5176C27.42 33.5216 27.3897 33.5741 27.3857 33.5721C27.3837 33.5721 27.4866 33.449 27.4321 33.5116C27.4059 33.5418 27.3797 33.5701 27.3534 33.5983C27.3292 33.6225 27.303 33.6467 27.2768 33.6689C27.2385 33.7032 27.184 33.7153 27.3272 33.6306C27.3131 33.6386 27.299 33.6507 27.2849 33.6608C27.2183 33.7052 27.1477 33.7415 27.0751 33.7738L27.2203 33.7133C27.1195 33.7536 27.0166 33.7818 26.9097 33.798C26.9641 33.7899 27.0166 33.7839 27.071 33.7758C26.7987 33.8101 26.5123 33.7879 26.238 33.7879C25.9576 33.7879 25.6672 33.8101 25.3868 33.7778C25.4413 33.7859 25.4937 33.7919 25.5482 33.8C25.4433 33.7839 25.3404 33.7576 25.2416 33.7193L25.3868 33.7798C25.3101 33.7476 25.2355 33.7092 25.1669 33.6628C25.1105 33.6245 25.1004 33.5801 25.1891 33.683C25.1629 33.6528 25.1266 33.6285 25.0984 33.6003C25.0741 33.5761 25.0298 33.5398 25.0157 33.5095C25.0338 33.5337 25.054 33.558 25.0721 33.5842C25.06 33.568 25.0479 33.5499 25.0358 33.5337C24.9894 33.4652 24.9511 33.3905 24.9188 33.3139L24.9793 33.4591C24.941 33.3603 24.9128 33.2594 24.8987 33.1525C24.9067 33.207 24.9128 33.2594 24.9208 33.3139C24.9087 33.2029 24.9067 33.094 24.9208 32.9851C24.9128 33.0396 24.9067 33.092 24.8987 33.1465C24.9148 33.0396 24.943 32.9367 24.9834 32.8358L24.9229 32.9811C24.9531 32.9125 24.9874 32.8459 25.0278 32.7834C25.0298 32.7794 25.06 32.7269 25.0641 32.7289C25.0661 32.7289 24.9632 32.852 25.0177 32.7894C25.0439 32.7592 25.0701 32.731 25.0963 32.7027C25.1205 32.6785 25.1468 32.6543 25.173 32.6321C25.2113 32.5978 25.2658 32.5857 25.1226 32.6704C25.1367 32.6624 25.1508 32.6503 25.1649 32.6402C25.2315 32.5958 25.3021 32.5595 25.3747 32.5272L25.2295 32.5877C25.3303 32.5474 25.4332 32.5192 25.5401 32.503C25.4856 32.5111 25.4332 32.5171 25.3787 32.5252C25.651 32.4909 25.9375 32.5131 26.2118 32.5131C26.4921 32.5131 26.7826 32.4909 27.063 32.5232C27.0085 32.5151 26.9561 32.5091 26.9016 32.501C27.0065 32.5171 27.1094 32.5434 27.2082 32.5817L27.063 32.5212C27.1396 32.5534 27.2143 32.5918 27.2828 32.6382C27.3393 32.6765 27.3494 32.7209 27.2607 32.618C27.2869 32.6483 27.3232 32.6725 27.3514 32.7007C27.3756 32.7249 27.42 32.7612 27.4341 32.7915C27.416 32.7673 27.3958 32.7431 27.3776 32.7168C27.3897 32.733 27.4019 32.7511 27.414 32.7673C27.4603 32.8358 27.4987 32.9105 27.5309 32.9871L27.4704 32.8419C27.5088 32.9407 27.537 33.0416 27.5511 33.1485C27.543 33.094 27.537 33.0416 27.5289 32.9871C27.537 33.0416 27.541 33.096 27.541 33.1505C27.5451 33.4672 27.8174 33.7697 28.1462 33.7556C28.4709 33.7415 28.7553 33.4894 28.7513 33.1505C28.7432 32.4728 28.3579 31.793 27.7327 31.4985C27.4624 31.3714 27.1921 31.3008 26.8915 31.2988H25.7317C25.3485 31.2988 24.9854 31.3452 24.6425 31.5348C24.1019 31.8313 23.7751 32.382 23.7046 32.9831C23.6239 33.6689 23.9869 34.3325 24.5497 34.7077C24.9027 34.9437 25.3101 35.0002 25.7236 35.0002H26.8976C27.2082 34.9981 27.5047 34.9195 27.7811 34.7763C28.3781 34.4636 28.7452 33.8141 28.7533 33.1485C28.7573 32.8318 28.4729 32.5292 28.1482 32.5434C27.8154 32.5615 27.5451 32.8116 27.541 33.1505Z" fill="#005985"/>
</svg>
