<svg width="51" height="50" viewBox="0 0 51 50" fill="none" xmlns="http://www.w3.org/2000/svg">
<circle opacity="0.1" cx="25.75" cy="25" r="25" fill="#005985"/>
<path d="M32.0369 30.5865C32.1761 30.5865 32.3153 30.5925 32.4545 30.5784C32.7772 30.5461 33.0757 30.4675 33.3601 30.3101C33.8684 30.0298 34.2598 29.5255 34.407 28.9647C34.52 28.5331 34.4796 28.055 34.4796 27.6133V24.3113C34.4796 23.8999 34.3767 23.4864 34.1569 23.1354C33.8503 22.6473 33.348 22.2681 32.7792 22.149C32.3516 22.0603 31.8231 22.0563 31.4056 22.1894C30.8549 22.3649 30.3567 22.7582 30.1005 23.2847C29.9372 23.6195 29.8605 23.9664 29.8605 24.3396V28.2991C29.8605 28.5795 29.8847 28.8639 29.9856 29.1281C30.1933 29.6687 30.5826 30.1427 31.1212 30.3767C31.4137 30.5078 31.7122 30.5824 32.0369 30.5865C32.3536 30.5885 32.6562 30.3061 32.6421 29.9813C32.6279 29.6505 32.3758 29.3782 32.0369 29.3762C31.9623 29.3762 31.8897 29.3702 31.8151 29.3601C31.8695 29.3682 31.922 29.3742 31.9764 29.3823C31.8413 29.3621 31.7122 29.3258 31.5871 29.2734L31.7324 29.3339C31.6436 29.2955 31.5569 29.2491 31.4762 29.1967C31.4722 29.1947 31.4116 29.1564 31.4116 29.1503C31.4116 29.1523 31.5448 29.2612 31.4621 29.1886C31.4258 29.1564 31.3895 29.1261 31.3552 29.0918C31.3249 29.0616 31.2947 29.0293 31.2664 28.995C31.2321 28.9547 31.1999 28.8841 31.2947 29.0353C31.2805 29.0131 31.2644 28.993 31.2483 28.9708C31.1938 28.8901 31.1494 28.8034 31.1111 28.7146L31.1716 28.8599C31.1192 28.7348 31.0829 28.6057 31.0627 28.4706C31.0708 28.525 31.0768 28.5775 31.0849 28.6319C31.0607 28.4443 31.0687 28.2507 31.0687 28.0611V24.7248C31.0687 24.503 31.0546 24.275 31.0849 24.0552C31.0768 24.1096 31.0708 24.1621 31.0627 24.2165C31.0829 24.0814 31.1192 23.9523 31.1716 23.8272L31.1111 23.9725C31.1494 23.8837 31.1958 23.797 31.2483 23.7163C31.2503 23.7123 31.2886 23.6518 31.2947 23.6518C31.2926 23.6518 31.1837 23.7849 31.2563 23.7022C31.2886 23.6659 31.3189 23.6296 31.3532 23.5953C31.3834 23.565 31.4157 23.5348 31.45 23.5065C31.4903 23.4722 31.5609 23.44 31.4096 23.5348C31.4318 23.5207 31.452 23.5045 31.4742 23.4884C31.5549 23.4339 31.6416 23.3895 31.7303 23.3512L31.5851 23.4117C31.7102 23.3593 31.8393 23.323 31.9744 23.3028C31.9199 23.3109 31.8675 23.3169 31.813 23.325C32.039 23.2947 32.2931 23.2947 32.521 23.325C32.4666 23.3169 32.4141 23.3109 32.3597 23.3028C32.4948 23.323 32.6239 23.3593 32.749 23.4117L32.6037 23.3512C32.6925 23.3895 32.7792 23.4359 32.8599 23.4884C32.8639 23.4904 32.9245 23.5287 32.9245 23.5348C32.9245 23.5328 32.7913 23.4238 32.874 23.4964C32.9103 23.5287 32.9466 23.559 32.9809 23.5933C33.0112 23.6235 33.0414 23.6558 33.0697 23.6901C33.104 23.7304 33.1362 23.801 33.0414 23.6497C33.0556 23.6719 33.0717 23.6921 33.0878 23.7143C33.1423 23.795 33.1867 23.8817 33.225 23.9705L33.1645 23.8252C33.2169 23.9503 33.2532 24.0794 33.2734 24.2145C33.2653 24.1601 33.2593 24.1076 33.2512 24.0532C33.2754 24.2408 33.2674 24.4344 33.2674 24.624V27.9602C33.2674 28.1821 33.2815 28.41 33.2512 28.6299C33.2593 28.5754 33.2653 28.523 33.2734 28.4685C33.2532 28.6037 33.2169 28.7328 33.1645 28.8578L33.225 28.7126C33.1867 28.8014 33.1403 28.8881 33.0878 28.9688C33.0858 28.9728 33.0475 29.0333 33.0414 29.0333C33.0435 29.0333 33.1524 28.9002 33.0798 28.9829C33.0475 29.0192 33.0172 29.0555 32.9829 29.0898C32.9527 29.1201 32.9204 29.1503 32.8861 29.1785C32.8458 29.2128 32.7752 29.2451 32.9265 29.1503C32.9043 29.1644 32.8841 29.1806 32.8619 29.1967C32.7812 29.2512 32.6945 29.2955 32.6058 29.3339L32.751 29.2734C32.6259 29.3258 32.4968 29.3621 32.3617 29.3823C32.4161 29.3742 32.4686 29.3682 32.5231 29.3601C32.3617 29.3823 32.2003 29.3762 32.0369 29.3762C31.7203 29.3762 31.4177 29.6546 31.4318 29.9813C31.4459 30.3081 31.6961 30.5865 32.0369 30.5865ZM19.9264 30.5865C20.0656 30.5865 20.2048 30.5925 20.344 30.5784C20.6667 30.5461 20.9652 30.4675 21.2496 30.3101C21.7579 30.0298 22.1492 29.5255 22.2965 28.9647C22.4094 28.5331 22.3691 28.055 22.3691 27.6133V24.3113C22.3691 23.8999 22.2662 23.4864 22.0464 23.1354C21.7398 22.6473 21.2375 22.2681 20.6687 22.149C20.2411 22.0603 19.7126 22.0563 19.2951 22.1894C18.7444 22.3649 18.2462 22.7582 17.99 23.2847C17.8266 23.6195 17.75 23.9664 17.75 24.3396V28.2991C17.75 28.5795 17.7742 28.8639 17.8751 29.1281C18.0828 29.6687 18.4721 30.1427 19.0107 30.3767C19.3031 30.5078 19.6017 30.5824 19.9264 30.5865C20.2431 30.5885 20.5457 30.3061 20.5315 29.9813C20.5174 29.6505 20.2653 29.3782 19.9264 29.3762C19.8518 29.3762 19.7792 29.3702 19.7045 29.3601C19.759 29.3682 19.8115 29.3742 19.8659 29.3823C19.7308 29.3621 19.6017 29.3258 19.4766 29.2734L19.6218 29.3339C19.5331 29.2955 19.4464 29.2491 19.3657 29.1967C19.3616 29.1947 19.3011 29.1564 19.3011 29.1503C19.3011 29.1523 19.4343 29.2612 19.3516 29.1886C19.3152 29.1564 19.2789 29.1261 19.2447 29.0918C19.2144 29.0616 19.1841 29.0293 19.1559 28.995C19.1216 28.9547 19.0893 28.8841 19.1841 29.0353C19.17 29.0131 19.1539 28.993 19.1377 28.9708C19.0833 28.8901 19.0389 28.8034 19.0006 28.7146L19.0611 28.8599C19.0087 28.7348 18.9723 28.6057 18.9522 28.4706C18.9602 28.525 18.9663 28.5775 18.9744 28.6319C18.9502 28.4443 18.9582 28.2507 18.9582 28.0611V24.7248C18.9582 24.503 18.9441 24.275 18.9744 24.0552C18.9663 24.1096 18.9602 24.1621 18.9522 24.2165C18.9723 24.0814 19.0087 23.9523 19.0611 23.8272L19.0006 23.9725C19.0389 23.8837 19.0853 23.797 19.1377 23.7163C19.1398 23.7123 19.1781 23.6518 19.1841 23.6518C19.1821 23.6518 19.0732 23.7849 19.1458 23.7022C19.1781 23.6659 19.2083 23.6296 19.2426 23.5953C19.2729 23.565 19.3052 23.5348 19.3395 23.5065C19.3798 23.4722 19.4504 23.44 19.2991 23.5348C19.3213 23.5207 19.3415 23.5045 19.3637 23.4884C19.4443 23.4339 19.5311 23.3895 19.6198 23.3512L19.4746 23.4117C19.5997 23.3593 19.7288 23.323 19.8639 23.3028C19.8094 23.3109 19.757 23.3169 19.7025 23.325C19.9284 23.2947 20.1826 23.2947 20.4105 23.325C20.3561 23.3169 20.3036 23.3109 20.2492 23.3028C20.3843 23.323 20.5134 23.3593 20.6385 23.4117L20.4932 23.3512C20.582 23.3895 20.6687 23.4359 20.7494 23.4884C20.7534 23.4904 20.8139 23.5287 20.8139 23.5348C20.8139 23.5328 20.6808 23.4238 20.7635 23.4964C20.7998 23.5287 20.8361 23.559 20.8704 23.5933C20.9007 23.6235 20.9309 23.6558 20.9592 23.6901C20.9935 23.7304 21.0257 23.801 20.9309 23.6497C20.945 23.6719 20.9612 23.6921 20.9773 23.7143C21.0318 23.795 21.0762 23.8817 21.1145 23.9705L21.054 23.8252C21.1064 23.9503 21.1427 24.0794 21.1629 24.2145C21.1548 24.1601 21.1488 24.1076 21.1407 24.0532C21.1649 24.2408 21.1568 24.4344 21.1568 24.624V27.9602C21.1568 28.1821 21.171 28.41 21.1407 28.6299C21.1488 28.5754 21.1548 28.523 21.1629 28.4685C21.1427 28.6037 21.1064 28.7328 21.054 28.8578L21.1145 28.7126C21.0762 28.8014 21.0298 28.8881 20.9773 28.9688C20.9753 28.9728 20.937 29.0333 20.9309 29.0333C20.9329 29.0333 21.0419 28.9002 20.9693 28.9829C20.937 29.0192 20.9067 29.0555 20.8724 29.0898C20.8422 29.1201 20.8099 29.1503 20.7756 29.1785C20.7353 29.2128 20.6647 29.2451 20.816 29.1503C20.7938 29.1644 20.7736 29.1806 20.7514 29.1967C20.6707 29.2512 20.584 29.2955 20.4952 29.3339L20.6405 29.2734C20.5154 29.3258 20.3863 29.3621 20.2512 29.3823C20.3056 29.3742 20.3581 29.3682 20.4125 29.3601C20.2512 29.3823 20.0898 29.3762 19.9264 29.3762C19.6097 29.3762 19.3072 29.6546 19.3213 29.9813C19.3354 30.3081 19.5876 30.5865 19.9264 30.5865Z" fill="#005985"/>
<path d="M18.9582 28.2771V23.6237C18.9582 23.188 18.9703 22.7543 19.0288 22.3207C19.0208 22.3751 19.0147 22.4276 19.0066 22.482C19.0994 21.8043 19.281 21.1427 19.5472 20.5134L19.4867 20.6586C19.64 20.2975 19.8215 19.9466 20.0273 19.6117C20.1281 19.4484 20.233 19.291 20.346 19.1357C20.3742 19.0954 20.4045 19.057 20.4327 19.0187C20.4428 19.0046 20.4549 18.9905 20.465 18.9764C20.5295 18.8896 20.3682 19.0994 20.4347 19.0147C20.4952 18.938 20.5558 18.8614 20.6203 18.7888C20.8684 18.4943 21.1407 18.2179 21.4291 17.9638C21.4997 17.9033 21.5703 17.8428 21.643 17.7822C21.6772 17.754 21.7115 17.7258 21.7458 17.6995C21.7801 17.6713 21.8668 17.6088 21.7075 17.7278C21.7297 17.7117 21.7499 17.6955 21.772 17.6794C21.9274 17.5624 22.0887 17.4494 22.2541 17.3445C22.6233 17.1085 23.0105 16.9048 23.4139 16.7334L23.2687 16.7939C23.898 16.5276 24.5596 16.3461 25.2374 16.2533C25.1829 16.2614 25.1305 16.2674 25.076 16.2755C25.7638 16.1827 26.4638 16.1827 27.1516 16.2755C27.0971 16.2674 27.0447 16.2614 26.9902 16.2533C27.668 16.3461 28.3296 16.5276 28.9589 16.7939L28.8137 16.7334C29.1747 16.8867 29.5257 17.0682 29.8605 17.2739C30.0239 17.3748 30.1812 17.4797 30.3365 17.5926C30.3769 17.6209 30.4152 17.6511 30.4535 17.6794C30.4677 17.6895 30.4818 17.7016 30.4959 17.7117C30.5826 17.7762 30.3729 17.6148 30.4576 17.6814C30.5342 17.7419 30.6109 17.8024 30.6835 17.867C30.978 18.1151 31.2543 18.3874 31.5085 18.6758C31.569 18.7464 31.6295 18.817 31.69 18.8896C31.7182 18.9239 31.7465 18.9582 31.7727 18.9925C31.8009 19.0268 31.8635 19.1135 31.7445 18.9542C31.7606 18.9764 31.7767 18.9965 31.7929 19.0187C31.9099 19.174 32.0228 19.3354 32.1277 19.5008C32.3637 19.8699 32.5674 20.2572 32.7389 20.6606L32.6784 20.5154C32.9446 21.1447 33.1262 21.8063 33.2189 22.4841C33.2109 22.4296 33.2048 22.3771 33.1968 22.3227C33.2573 22.7745 33.2674 23.2263 33.2674 23.6802V28.7834C33.2674 29.1707 33.2835 29.566 33.2331 29.9513C33.2411 29.8968 33.2472 29.8444 33.2553 29.7899C33.2109 30.1046 33.1262 30.4132 33.0051 30.7077L33.0656 30.5624C32.9729 30.7843 32.8579 30.9961 32.7248 31.1958C32.6925 31.2442 32.6582 31.2906 32.6259 31.337C32.5513 31.4419 32.7147 31.2281 32.6481 31.3088C32.632 31.3289 32.6158 31.3511 32.5977 31.3713C32.521 31.4641 32.4424 31.5508 32.3577 31.6355C32.2729 31.7202 32.1842 31.8009 32.0934 31.8756C32.0732 31.8917 32.0531 31.9098 32.0309 31.926C31.9482 31.9925 32.1499 31.8372 32.0692 31.8957C32.0188 31.932 31.9684 31.9683 31.9179 32.0026C31.7182 32.1358 31.5064 32.2507 31.2846 32.3435L31.4298 32.283C31.1353 32.404 30.8287 32.4887 30.512 32.5331C30.5665 32.525 30.6189 32.519 30.6734 32.5109C30.3466 32.5553 30.0158 32.5452 29.687 32.5452H28.148C27.8313 32.5452 27.5288 32.8236 27.5429 33.1503C27.557 33.4791 27.8092 33.7555 28.148 33.7555H29.679C29.8706 33.7555 30.0642 33.7595 30.2559 33.7555C30.7662 33.7434 31.2805 33.6445 31.7525 33.4509C32.7187 33.0515 33.5457 32.3354 34.0137 31.3915C34.3384 30.7399 34.4816 30.0461 34.4816 29.3219V23.3635C34.4796 22.4135 34.3203 21.4513 33.9935 20.5577C33.6486 19.6097 33.1463 18.7464 32.4988 17.9719C31.8897 17.2437 31.1434 16.6184 30.3265 16.1383C29.4894 15.6482 28.5575 15.2972 27.6014 15.1298C26.5707 14.9503 25.5339 14.9563 24.5072 15.152C23.5612 15.3315 22.6374 15.6946 21.8124 16.1928C20.9995 16.685 20.2613 17.3163 19.6642 18.0525C19.0248 18.8392 18.5306 19.7126 18.1978 20.6707C17.8993 21.534 17.752 22.4558 17.75 23.3675V28.2771C17.75 28.5938 18.0284 28.8963 18.3551 28.8822C18.6799 28.8661 18.9582 28.616 18.9582 28.2771Z" fill="#005985"/>
<path d="M27.5408 33.1505C27.5408 33.207 27.5368 33.2614 27.5287 33.3159C27.5368 33.2614 27.5428 33.209 27.5509 33.1545C27.5347 33.2614 27.5065 33.3643 27.4662 33.4652L27.5267 33.3199C27.4964 33.3885 27.4621 33.4551 27.4218 33.5176C27.4198 33.5216 27.3895 33.5741 27.3855 33.5721C27.3835 33.5721 27.4863 33.449 27.4319 33.5116C27.4056 33.5418 27.3794 33.5701 27.3532 33.5983C27.329 33.6225 27.3028 33.6467 27.2765 33.6689C27.2382 33.7032 27.1838 33.7153 27.327 33.6306C27.3129 33.6386 27.2987 33.6507 27.2846 33.6608C27.2181 33.7052 27.1475 33.7415 27.0748 33.7738L27.2201 33.7133C27.1192 33.7536 27.0163 33.7818 26.9094 33.798C26.9639 33.7899 27.0163 33.7839 27.0708 33.7758C26.7985 33.8101 26.5121 33.7879 26.2378 33.7879C25.9574 33.7879 25.6669 33.8101 25.3865 33.7778C25.441 33.7859 25.4935 33.7919 25.5479 33.8C25.443 33.7839 25.3402 33.7576 25.2413 33.7193L25.3865 33.7798C25.3099 33.7476 25.2353 33.7092 25.1667 33.6628C25.1102 33.6245 25.1001 33.5801 25.1889 33.683C25.1627 33.6528 25.1263 33.6285 25.0981 33.6003C25.0739 33.5761 25.0295 33.5398 25.0154 33.5095C25.0336 33.5337 25.0537 33.558 25.0719 33.5842C25.0598 33.568 25.0477 33.5499 25.0356 33.5337C24.9892 33.4652 24.9509 33.3905 24.9186 33.3139L24.9791 33.4591C24.9408 33.3603 24.9125 33.2594 24.8984 33.1525C24.9065 33.207 24.9125 33.2594 24.9206 33.3139C24.9085 33.2029 24.9065 33.094 24.9206 32.9851C24.9125 33.0396 24.9065 33.092 24.8984 33.1465C24.9146 33.0396 24.9428 32.9367 24.9831 32.8358L24.9226 32.9811C24.9529 32.9125 24.9872 32.8459 25.0275 32.7834C25.0295 32.7794 25.0598 32.7269 25.0638 32.7289C25.0658 32.7289 24.963 32.852 25.0174 32.7894C25.0436 32.7592 25.0699 32.731 25.0961 32.7027C25.1203 32.6785 25.1465 32.6543 25.1727 32.6321C25.2111 32.5978 25.2655 32.5857 25.1223 32.6704C25.1364 32.6624 25.1506 32.6503 25.1647 32.6402C25.2312 32.5958 25.3018 32.5595 25.3744 32.5272L25.2292 32.5877C25.3301 32.5474 25.4329 32.5192 25.5398 32.503C25.4854 32.5111 25.4329 32.5171 25.3785 32.5252C25.6508 32.4909 25.9372 32.5131 26.2115 32.5131C26.4919 32.5131 26.7824 32.4909 27.0627 32.5232C27.0083 32.5151 26.9558 32.5091 26.9014 32.501C27.0063 32.5171 27.1091 32.5434 27.208 32.5817L27.0627 32.5212C27.1394 32.5534 27.214 32.5918 27.2826 32.6382C27.3391 32.6765 27.3492 32.7209 27.2604 32.618C27.2866 32.6483 27.3229 32.6725 27.3512 32.7007C27.3754 32.7249 27.4198 32.7612 27.4339 32.7915C27.4157 32.7673 27.3956 32.7431 27.3774 32.7168C27.3895 32.733 27.4016 32.7511 27.4137 32.7673C27.4601 32.8358 27.4984 32.9105 27.5307 32.9871L27.4702 32.8419C27.5085 32.9407 27.5367 33.0416 27.5509 33.1485C27.5428 33.094 27.5368 33.0416 27.5287 32.9871C27.5368 33.0416 27.5408 33.096 27.5408 33.1505C27.5448 33.4672 27.8171 33.7697 28.1459 33.7556C28.4707 33.7415 28.7551 33.4894 28.751 33.1505C28.743 32.4728 28.3577 31.793 27.7324 31.4985C27.4621 31.3714 27.1918 31.3008 26.8913 31.2988H25.7315C25.3482 31.2988 24.9852 31.3452 24.6422 31.5348C24.1017 31.8313 23.7749 32.382 23.7043 32.9831C23.6236 33.6689 23.9867 34.3325 24.5495 34.7077C24.9025 34.9437 25.3099 35.0002 25.7234 35.0002H26.8973C27.208 34.9981 27.5045 34.9195 27.7808 34.7763C28.3779 34.4636 28.745 33.8141 28.753 33.1485C28.7571 32.8318 28.4727 32.5292 28.1479 32.5434C27.8151 32.5615 27.5448 32.8116 27.5408 33.1505Z" fill="#005985"/>
</svg>
