<svg width="61" height="60" viewBox="0 0 61 60" fill="none" xmlns="http://www.w3.org/2000/svg">
<circle opacity="0.3" cx="30.5" cy="30" r="30" fill="#FD4C5C"/>
<path d="M21.1549 26.2852H17.431C16.9169 26.2852 16.5 26.7009 16.5 27.2138V42.0708C16.5 42.5836 16.9168 42.9994 17.431 42.9994H21.1549C21.669 42.9994 22.0859 42.5837 22.0859 42.0708V27.2137C22.0859 26.7009 21.6691 26.2852 21.1549 26.2852Z" fill="#FD4C5C"/>
<path d="M44.4091 28.7471C44.2449 27.3067 42.8958 26.2857 41.4423 26.2857H34.1842C34.801 25.1841 35.1321 22.0682 35.1174 20.7953C35.093 18.6884 33.3437 17 31.2313 17H30.4631C29.9485 17 29.5321 17.4153 29.5321 17.9286C29.5321 20.0759 28.6938 23.9516 27.1128 25.5286C26.0487 26.5899 25.139 26.9745 23.9462 27.5691V41.5023C25.7724 42.1094 28.0912 43 31.6255 43H37.7155C39.7221 43 41.2849 41.1463 40.5073 39.1878C41.692 38.8659 42.5657 37.7823 42.5657 36.5C42.5657 36.1382 42.4957 35.7918 42.3693 35.4735C44.3656 34.931 45.1005 32.4723 43.7149 30.9286C44.2239 30.3613 44.5046 29.5855 44.4091 28.7471Z" fill="#FD4C5C"/>
</svg>
