<svg width="61" height="60" viewBox="0 0 61 60" fill="none" xmlns="http://www.w3.org/2000/svg">
<circle opacity="0.3" cx="30.5" cy="30" r="30" fill="#00BB98"/>
<path d="M30.4099 29.2666C33.2523 29.2666 35.5565 26.9683 35.5565 24.1333C35.5565 21.2983 33.2523 19 30.4099 19C27.5675 19 25.2633 21.2983 25.2633 24.1333C25.2633 26.9683 27.5675 29.2666 30.4099 29.2666Z" fill="#00BB98"/>
<path d="M40.7023 32.1999C42.7325 32.1999 44.3784 30.5583 44.3784 28.5333C44.3784 26.5083 42.7325 24.8667 40.7023 24.8667C38.672 24.8667 37.0262 26.5083 37.0262 28.5333C37.0262 30.5583 38.672 32.1999 40.7023 32.1999Z" fill="#00BB98"/>
<path d="M20.2206 32.1999C22.2509 32.1999 23.8967 30.5583 23.8967 28.5333C23.8967 26.5083 22.2509 24.8667 20.2206 24.8667C18.1904 24.8667 16.5445 26.5083 16.5445 28.5333C16.5445 30.5583 18.1904 32.1999 20.2206 32.1999Z" fill="#00BB98"/>
<path d="M30.4095 30.7329C25.1394 30.7329 20.8516 35.0097 20.8516 40.2661C20.8516 40.6709 21.181 40.9995 21.5868 40.9995H39.2322C39.6381 40.9995 39.9675 40.6709 39.9675 40.2661C39.9675 35.0097 35.6796 30.7329 30.4095 30.7329Z" fill="#00BB98"/>
<path d="M21.489 33.8249C21.039 33.7295 20.5817 33.6665 20.117 33.6665C16.4688 33.6665 13.5 36.6277 13.5 40.2664C13.5 40.6712 13.8294 40.9998 14.2352 40.9998H19.5171C19.4347 40.7695 19.3818 40.5246 19.3818 40.2664C19.3818 37.8597 20.17 35.6377 21.489 33.8249Z" fill="#00BB98"/>
<path d="M40.7029 33.6665C40.2383 33.6665 39.7809 33.7295 39.331 33.8249C40.65 35.6377 41.4381 37.8597 41.4381 40.2664C41.4381 40.5246 41.3852 40.7695 41.3028 40.9998H46.5847C46.9905 40.9998 47.3199 40.6712 47.3199 40.2664C47.3199 36.6277 44.3511 33.6665 40.7029 33.6665Z" fill="#00BB98"/>
</svg>
