<svg width="61" height="60" viewBox="0 0 61 60" fill="none" xmlns="http://www.w3.org/2000/svg">
<circle opacity="0.3" cx="30.5" cy="30" r="30" fill="#00BB98"/>
<path d="M30.4099 29.2666C33.2523 29.2666 35.5565 26.9683 35.5565 24.1333C35.5565 21.2983 33.2523 19 30.4099 19C27.5675 19 25.2633 21.2983 25.2633 24.1333C25.2633 26.9683 27.5675 29.2666 30.4099 29.2666Z" fill="#00BB98"/>
<path d="M40.7023 32.2004C42.7325 32.2004 44.3784 30.5588 44.3784 28.5338C44.3784 26.5088 42.7325 24.8672 40.7023 24.8672C38.672 24.8672 37.0262 26.5088 37.0262 28.5338C37.0262 30.5588 38.672 32.2004 40.7023 32.2004Z" fill="#00BB98"/>
<path d="M20.2206 32.2004C22.2509 32.2004 23.8967 30.5588 23.8967 28.5338C23.8967 26.5088 22.2509 24.8672 20.2206 24.8672C18.1904 24.8672 16.5445 26.5088 16.5445 28.5338C16.5445 30.5588 18.1904 32.2004 20.2206 32.2004Z" fill="#00BB98"/>
<path d="M30.4095 30.7324C25.1394 30.7324 20.8516 35.0092 20.8516 40.2657C20.8516 40.6705 21.181 40.999 21.5868 40.999H39.2322C39.6381 40.999 39.9675 40.6705 39.9675 40.2657C39.9675 35.0092 35.6796 30.7324 30.4095 30.7324Z" fill="#00BB98"/>
<path d="M21.489 33.8244C21.039 33.7291 20.5817 33.666 20.117 33.666C16.4688 33.666 13.5 36.6272 13.5 40.2659C13.5 40.6707 13.8294 40.9993 14.2352 40.9993H19.5171C19.4347 40.769 19.3818 40.5241 19.3818 40.2659C19.3818 37.8592 20.17 35.6372 21.489 33.8244Z" fill="#00BB98"/>
<path d="M40.7029 33.666C40.2383 33.666 39.7809 33.7291 39.331 33.8244C40.65 35.6372 41.4381 37.8592 41.4381 40.2659C41.4381 40.5241 41.3852 40.769 41.3028 40.9993H46.5847C46.9905 40.9993 47.3199 40.6707 47.3199 40.2659C47.3199 36.6272 44.3511 33.666 40.7029 33.666Z" fill="#00BB98"/>
</svg>
