<svg width="61" height="60" viewBox="0 0 61 60" fill="none" xmlns="http://www.w3.org/2000/svg">
<circle opacity="0.3" cx="30.5" cy="30" r="30" fill="#FFC83E"/>
<path d="M33.7379 38.0094L32.088 39.655V32.5456C32.088 31.8431 31.5176 31.2729 30.812 31.2729C30.1064 31.2729 29.536 31.8431 29.536 32.5456V39.655L27.8861 38.0094C27.3872 37.5118 26.5808 37.5118 26.0819 38.0094C25.583 38.507 25.583 39.3114 26.0819 39.809L29.9087 43.6259C30.0261 43.7443 30.1677 43.8372 30.3247 43.9021C30.4804 43.9657 30.6462 44.0001 30.8121 44.0001C30.9779 44.0001 31.1439 43.9657 31.2995 43.9021C31.4565 43.8372 31.5981 43.7443 31.7155 43.6259L35.5423 39.809C36.0412 39.3114 36.0412 38.507 35.5423 38.0094C35.0433 37.5117 34.2368 37.5117 33.7379 38.0094Z" fill="#FFC83E"/>
<path d="M42.2236 25.1941C41.6405 20.8159 37.621 16 32.7874 16C30.1959 16 27.5609 17.2702 25.8013 19.3078C25.2385 19.1028 24.6426 18.9972 24.0353 18.9972C21.2855 18.9972 19.032 21.1583 18.8942 23.868C16.8628 25.1738 15.5 27.5856 15.5 29.9999C15.5 31.5119 16.0027 33.1893 16.8794 34.6008C18.0405 36.4729 20.1702 37.6362 22.4364 37.6362H23.3883C23.5759 37.1067 23.8681 36.618 24.2777 36.2095C24.9999 35.4878 25.962 35.0908 26.9841 35.0908V32.5453C26.9841 30.4402 28.7004 28.7271 30.8122 28.7271C32.9227 28.7271 34.6402 30.4402 34.6402 32.5453V35.0908C35.6611 35.0908 36.6231 35.4878 37.3466 36.2095C37.7562 36.618 38.0472 37.1067 38.236 37.6362H39.572C42.8833 37.6362 45.7428 35.1773 46.0822 32.0375C46.1103 31.7868 46.1244 31.531 46.1244 31.2727C46.1244 28.3505 44.6238 26.0634 42.2236 25.1941Z" fill="#FFC83E"/>
</svg>
