<svg width="61" height="60" viewBox="0 0 61 60" fill="none" xmlns="http://www.w3.org/2000/svg">
<circle opacity="0.3" cx="30.5" cy="30" r="30" fill="white"/>
<path d="M43.7182 27.8942L37.4623 33.9763L38.9407 42.561C38.9518 42.6302 38.9437 42.701 38.9172 42.7659C38.8906 42.8307 38.8467 42.8871 38.7902 42.9287C38.7253 42.9745 38.6478 42.9994 38.5683 43C38.5077 43.0002 38.448 42.9847 38.3953 42.955L30.6648 38.9028L22.9343 42.955C22.8726 42.9876 22.8029 43.0025 22.7331 42.9979C22.6633 42.9932 22.5962 42.9693 22.5394 42.9287C22.4829 42.8871 22.439 42.8307 22.4124 42.7659C22.3859 42.701 22.3777 42.6302 22.3889 42.561L23.8673 33.9763L17.6114 27.8942C17.5617 27.8451 17.5268 27.7832 17.5104 27.7154C17.4941 27.6476 17.497 27.5765 17.5189 27.5103C17.5408 27.444 17.5807 27.3852 17.6343 27.3403C17.6878 27.2955 17.7529 27.2664 17.8221 27.2564L26.4629 26.0032L30.3262 18.1914C30.3613 18.133 30.4109 18.0847 30.4702 18.0512C30.5296 18.0176 30.5966 18 30.6648 18C30.733 18 30.8 18.0176 30.8594 18.0512C30.9187 18.0847 30.9683 18.133 31.0034 18.1914L34.8667 26.0032L43.5075 27.2564C43.5767 27.2664 43.6417 27.2955 43.6953 27.3403C43.7489 27.3852 43.7888 27.444 43.8107 27.5103C43.8326 27.5765 43.8355 27.6476 43.8192 27.7154C43.8028 27.7832 43.7678 27.8451 43.7182 27.8942Z" fill="white"/>
</svg>
