<svg width="22" height="21" viewBox="0 0 22 21" fill="none" xmlns="http://www.w3.org/2000/svg">
<g clip-path="url(#clip0_686_13214)">
<path fill-rule="evenodd" clip-rule="evenodd" d="M7.10782 4.66741C7.10735 5.58783 6.35531 6.33361 5.42807 6.33315C4.50083 6.33269 3.74954 5.58616 3.75 4.66574C3.75046 3.74532 4.50251 2.99954 5.42975 3C6.35698 3.00046 7.10828 3.74698 7.10782 4.66741ZM7.15819 7.56725H3.80037V18H7.15819V7.56725ZM9.12251 7.56725H12.4635L12.43 8.96717C13.8235 6.44231 19.75 6.25065 19.75 11.392V18H16.4342V12.5253C16.4342 9.19216 12.43 9.47547 12.43 12.5253V18H9.12251V7.56725Z" fill="white"/>
</g>
<defs>
<clipPath id="clip0_686_13214">
<rect width="21" height="21" fill="white" transform="translate(0.75)"/>
</clipPath>
</defs>
</svg>
