<svg width="21" height="22" viewBox="0 0 21 22" fill="none" xmlns="http://www.w3.org/2000/svg">
<g clip-path="url(#clip0_686_10093)">
<path fill-rule="evenodd" clip-rule="evenodd" d="M6.35782 5.16741C6.35735 6.08783 5.60531 6.83361 4.67807 6.83315C3.75083 6.83269 2.99954 6.08616 3 5.16574C3.00046 4.24532 3.75251 3.49954 4.67975 3.5C5.60698 3.50046 6.35828 4.24698 6.35782 5.16741ZM6.4086 8.06726H3.05078V18.5H6.4086V8.06726ZM8.37305 8.06724H11.7141L11.6805 9.46716C13.074 6.9423 19.0005 6.75065 19.0005 11.892V18.5H15.6847V13.0253C15.6847 9.69215 11.6805 9.97547 11.6805 13.0253V18.5H8.37305V8.06724Z" fill="white"/>
</g>
<defs>
<clipPath id="clip0_686_10093">
<rect width="21" height="21" fill="white" transform="translate(0 0.5)"/>
</clipPath>
</defs>
</svg>
