<svg width="22" height="21" viewBox="0 0 22 21" fill="none" xmlns="http://www.w3.org/2000/svg">
<g clip-path="url(#clip0_474_565)">
<path fill-rule="evenodd" clip-rule="evenodd" d="M6.85782 4.66741C6.85735 5.58783 6.10531 6.33361 5.17807 6.33315C4.25083 6.33269 3.49954 5.58616 3.5 4.66574C3.50046 3.74532 4.25251 2.99954 5.17975 3C6.10698 3.00046 6.85828 3.74698 6.85782 4.66741ZM6.9086 7.56641H3.55078V17.9992H6.9086V7.56641ZM8.87305 7.56687H12.2141L12.1805 8.96679C13.574 6.44194 19.5005 6.25028 19.5005 11.3917V17.9996H16.1847V12.5249C16.1847 9.19178 12.1805 9.4751 12.1805 12.5249V17.9996H8.87305V7.56687Z" fill="white"/>
</g>
<defs>
<clipPath id="clip0_474_565">
<rect width="21" height="21" fill="white" transform="translate(0.5)"/>
</clipPath>
</defs>
</svg>
