<svg width="22" height="21" viewBox="0 0 22 21" fill="none" xmlns="http://www.w3.org/2000/svg">
<g clip-path="url(#clip0_63_1595)">
<path fill-rule="evenodd" clip-rule="evenodd" d="M7.10782 4.66741C7.10735 5.58783 6.35531 6.33361 5.42807 6.33315C4.50083 6.33269 3.74954 5.58616 3.75 4.66574C3.75046 3.74532 4.50251 2.99954 5.42975 3C6.35698 3.00046 7.10828 3.74698 7.10782 4.66741ZM7.1586 7.56726H3.80078V18H7.1586V7.56726ZM9.12207 7.56724H12.4631L12.4295 8.96716C13.823 6.4423 19.7496 6.25065 19.7496 11.392V18H16.4337V12.5253C16.4337 9.19215 12.4295 9.47547 12.4295 12.5253V18H9.12207V7.56724Z" fill="white"/>
</g>
<defs>
<clipPath id="clip0_63_1595">
<rect width="21" height="21" fill="white" transform="translate(0.75)"/>
</clipPath>
</defs>
</svg>
