<svg width="22" height="21" viewBox="0 0 22 21" fill="none" xmlns="http://www.w3.org/2000/svg">
<g clip-path="url(#clip0_686_11162)">
<path fill-rule="evenodd" clip-rule="evenodd" d="M6.85782 4.66741C6.85735 5.58783 6.10531 6.33361 5.17807 6.33315C4.25083 6.33269 3.49954 5.58616 3.5 4.66574C3.50046 3.74532 4.25251 2.99954 5.17975 3C6.10698 3.00046 6.85828 3.74698 6.85782 4.66741ZM6.9086 7.56714H3.55078V17.9999H6.9086V7.56714ZM8.87109 7.56736H12.2121L12.1785 8.96728C13.572 6.44242 19.4986 6.25077 19.4986 11.3921V18.0001H16.1827V12.5254C16.1827 9.19227 12.1785 9.47559 12.1785 12.5254V18.0001H8.87109V7.56736Z" fill="white"/>
</g>
<defs>
<clipPath id="clip0_686_11162">
<rect width="21" height="21" fill="white" transform="translate(0.5)"/>
</clipPath>
</defs>
</svg>
