<svg width="22" height="21" viewBox="0 0 22 21" fill="none" xmlns="http://www.w3.org/2000/svg">
<g clip-path="url(#clip0_18_4653)">
<path fill-rule="evenodd" clip-rule="evenodd" d="M6.85782 4.66741C6.85735 5.58783 6.10531 6.33361 5.17807 6.33315C4.25083 6.33269 3.49954 5.58616 3.5 4.66574C3.50046 3.74532 4.25251 2.99954 5.17975 3C6.10698 3.00046 6.85828 3.74698 6.85782 4.66741ZM6.90819 7.56725H3.55037V18H6.90819V7.56725ZM8.87251 7.56725H12.2135L12.18 8.96717C13.5735 6.44231 19.5 6.25065 19.5 11.392V18H16.1842V12.5253C16.1842 9.19216 12.18 9.47547 12.18 12.5253V18H8.87251V7.56725Z" fill="white"/>
</g>
<defs>
<clipPath id="clip0_18_4653">
<rect width="21" height="21" fill="white" transform="translate(0.5)"/>
</clipPath>
</defs>
</svg>
