<svg width="239" height="246" viewBox="0 0 239 246" fill="none" xmlns="http://www.w3.org/2000/svg">
<g opacity="0.9">
<mask id="mask0_686_12803" style="mask-type:alpha" maskUnits="userSpaceOnUse" x="1" y="2" width="236" height="243">
<line y1="-1" x2="161.092" y2="-1" transform="matrix(0.859913 0.510441 0.510441 -0.859913 36.126 107.354)" stroke="#536476" stroke-width="2"/>
<line y1="-1" x2="161.092" y2="-1" transform="matrix(0.859913 0.510441 0.510441 -0.859913 39.0531 102.422)" stroke="#536476" stroke-width="2"/>
<line y1="-1" x2="161.092" y2="-1" transform="matrix(0.859913 0.510441 0.510441 -0.859913 41.9805 97.4902)" stroke="#536476" stroke-width="2"/>
<line y1="-1" x2="161.092" y2="-1" transform="matrix(0.859913 0.510441 0.510441 -0.859913 44.9073 92.5596)" stroke="#536476" stroke-width="2"/>
<line y1="-1" x2="161.092" y2="-1" transform="matrix(0.859913 0.510441 0.510441 -0.859913 47.8346 87.6284)" stroke="#536476" stroke-width="2"/>
<line y1="-1" x2="161.092" y2="-1" transform="matrix(0.859913 0.510441 0.510441 -0.859913 50.7618 82.6968)" stroke="#536476" stroke-width="2"/>
<line y1="-1" x2="161.092" y2="-1" transform="matrix(0.859913 0.510441 0.510441 -0.859913 53.6891 77.7656)" stroke="#536476" stroke-width="2"/>
<line y1="-1" x2="161.092" y2="-1" transform="matrix(0.859913 0.510441 0.510441 -0.859913 56.6166 72.8345)" stroke="#536476" stroke-width="2"/>
<line y1="-1" x2="161.092" y2="-1" transform="matrix(0.859913 0.510441 0.510441 -0.859913 59.5438 67.9033)" stroke="#536476" stroke-width="2"/>
<line y1="-1" x2="161.092" y2="-1" transform="matrix(0.859913 0.510441 0.510441 -0.859913 62.4705 62.9717)" stroke="#536476" stroke-width="2"/>
<line y1="-1" x2="161.092" y2="-1" transform="matrix(0.859913 0.510441 0.510441 -0.859913 65.3978 58.04)" stroke="#536476" stroke-width="2"/>
<line y1="-1" x2="161.092" y2="-1" transform="matrix(0.859913 0.510441 0.510441 -0.859913 2.85999 160.626)" stroke="#536476" stroke-width="2"/>
<line y1="-1" x2="161.092" y2="-1" transform="matrix(0.859913 0.510441 0.510441 -0.859913 5.78711 155.694)" stroke="#536476" stroke-width="2"/>
<line y1="-1" x2="161.092" y2="-1" transform="matrix(0.859913 0.510441 0.510441 -0.859913 8.71448 150.763)" stroke="#536476" stroke-width="2"/>
<line y1="-1" x2="161.092" y2="-1" transform="matrix(0.859913 0.510441 0.510441 -0.859913 11.6414 145.832)" stroke="#536476" stroke-width="2"/>
<line y1="-1" x2="161.092" y2="-1" transform="matrix(0.859913 0.510441 0.510441 -0.859913 14.5686 140.901)" stroke="#536476" stroke-width="2"/>
<line y1="-1" x2="161.092" y2="-1" transform="matrix(0.859913 0.510441 0.510441 -0.859913 17.4958 135.969)" stroke="#536476" stroke-width="2"/>
<line y1="-1" x2="161.092" y2="-1" transform="matrix(0.859913 0.510441 0.510441 -0.859913 20.4231 131.038)" stroke="#536476" stroke-width="2"/>
<line y1="-1" x2="161.092" y2="-1" transform="matrix(0.859913 0.510441 0.510441 -0.859913 23.3503 126.106)" stroke="#536476" stroke-width="2"/>
<line y1="-1" x2="161.092" y2="-1" transform="matrix(0.859913 0.510441 0.510441 -0.859913 26.2773 121.176)" stroke="#536476" stroke-width="2"/>
<line y1="-1" x2="161.092" y2="-1" transform="matrix(0.859913 0.510441 0.510441 -0.859913 29.2045 116.244)" stroke="#536476" stroke-width="2"/>
<line y1="-1" x2="161.092" y2="-1" transform="matrix(0.859913 0.510441 0.510441 -0.859913 32.1318 111.312)" stroke="#536476" stroke-width="2"/>
<line y1="-1" x2="161.092" y2="-1" transform="matrix(0.859913 0.510441 0.510441 -0.859913 68.2146 52.0308)" stroke="#536476" stroke-width="2"/>
<line y1="-1" x2="161.092" y2="-1" transform="matrix(0.859913 0.510441 0.510441 -0.859913 71.1417 47.0991)" stroke="#536476" stroke-width="2"/>
<line y1="-1" x2="161.092" y2="-1" transform="matrix(0.859913 0.510441 0.510441 -0.859913 74.0691 42.1675)" stroke="#536476" stroke-width="2"/>
<line y1="-1" x2="161.092" y2="-1" transform="matrix(0.859913 0.510441 0.510441 -0.859913 76.996 37.2363)" stroke="#536476" stroke-width="2"/>
<line y1="-1" x2="161.092" y2="-1" transform="matrix(0.859913 0.510441 0.510441 -0.859913 79.9232 32.3057)" stroke="#536476" stroke-width="2"/>
<line y1="-1" x2="161.092" y2="-1" transform="matrix(0.859913 0.510441 0.510441 -0.859913 82.8503 27.374)" stroke="#536476" stroke-width="2"/>
<line y1="-1" x2="161.092" y2="-1" transform="matrix(0.859913 0.510441 0.510441 -0.859913 85.7777 22.4429)" stroke="#536476" stroke-width="2"/>
<line y1="-1" x2="161.092" y2="-1" transform="matrix(0.859913 0.510441 0.510441 -0.859913 88.7048 17.5112)" stroke="#536476" stroke-width="2"/>
<line y1="-1" x2="161.092" y2="-1" transform="matrix(0.859913 0.510441 0.510441 -0.859913 91.6326 12.5806)" stroke="#536476" stroke-width="2"/>
<line y1="-1" x2="161.092" y2="-1" transform="matrix(0.859913 0.510441 0.510441 -0.859913 94.5591 7.64893)" stroke="#536476" stroke-width="2"/>
<line y1="-1" x2="161.092" y2="-1" transform="matrix(0.859913 0.510441 0.510441 -0.859913 97.4863 2.71729)" stroke="#536476" stroke-width="2"/>
</mask>
<g mask="url(#mask0_686_12803)">
<circle cx="43.792" cy="43.792" r="43.792" transform="matrix(0.999542 0.0302566 0.0302566 -0.999542 67.7271 186.129)" fill="#FFCC2A"/>
</g>
</g>
</svg>
