<svg width="24" height="24" viewBox="0 0 24 24" fill="none" xmlns="http://www.w3.org/2000/svg">
<circle cx="12" cy="12" r="12" fill="white"/>
<path d="M12.96 7.2002V9.33353C12.96 9.47498 13.0162 9.61063 13.1162 9.71065C13.2162 9.81067 13.3518 9.86686 13.4933 9.86686H15.6266" stroke="#035A86" stroke-linecap="round" stroke-linejoin="round"/>
<path d="M14.5602 16.8002H9.22682C8.94393 16.8002 8.67261 16.6878 8.47258 16.4878C8.27254 16.2877 8.16016 16.0164 8.16016 15.7335V8.26686C8.16016 7.98396 8.27254 7.71265 8.47258 7.51261C8.67261 7.31258 8.94393 7.2002 9.22682 7.2002H12.9602L15.6268 9.86686V15.7335C15.6268 16.0164 15.5144 16.2877 15.3144 16.4878C15.1144 16.6878 14.8431 16.8002 14.5602 16.8002Z" stroke="#035A86" stroke-linecap="round" stroke-linejoin="round"/>
<path d="M11.3598 12.2668C11.3598 12.0546 11.2755 11.8511 11.1255 11.7011C10.9754 11.5511 10.7719 11.4668 10.5598 11.4668C10.3476 11.4668 10.1441 11.5511 9.99408 11.7011C9.84405 11.8511 9.75977 12.0546 9.75977 12.2668V13.8668C9.75977 14.079 9.84405 14.2825 9.99408 14.4325C10.1441 14.5825 10.3476 14.6668 10.5598 14.6668C10.7719 14.6668 10.9754 14.5825 11.1255 14.4325C11.2755 14.2825 11.3598 14.079 11.3598 13.8668M12.4264 11.4668L13.2264 14.6668L14.0264 11.4668" stroke="#035A86" stroke-linecap="round" stroke-linejoin="round"/>
</svg>
