<svg width="24" height="24" viewBox="0 0 24 24" fill="none" xmlns="http://www.w3.org/2000/svg">
<circle cx="12" cy="12" r="12" fill="#FFCB2A"/>
<path d="M13.3093 8.63965C13.7722 8.63965 14.2162 8.82354 14.5435 9.15088C14.8708 9.47822 15.0547 9.92218 15.0547 10.3851C15.0547 10.848 14.8708 11.292 14.5435 11.6193C14.2162 11.9467 13.7722 12.1306 13.3093 12.1306C12.8464 12.1306 12.4024 11.9467 12.0751 11.6193C11.7477 11.292 11.5638 10.848 11.5638 10.3851C11.5638 9.92218 11.7477 9.47822 12.0751 9.15088C12.4024 8.82354 12.8464 8.63965 13.3093 8.63965ZM13.3093 9.46874C13.0663 9.46874 12.8332 9.56528 12.6613 9.73714C12.4895 9.90899 12.3929 10.1421 12.3929 10.3851C12.3929 10.6281 12.4895 10.8612 12.6613 11.0331C12.8332 11.2049 13.0663 11.3015 13.3093 11.3015C13.5523 11.3015 13.7854 11.2049 13.9573 11.0331C14.1291 10.8612 14.2257 10.6281 14.2257 10.3851C14.2257 10.1421 14.1291 9.90899 13.9573 9.73714C13.7854 9.56528 13.5523 9.46874 13.3093 9.46874ZM13.3093 12.5669C14.4744 12.5669 16.8002 13.1473 16.8002 14.3124V15.6215H9.81838V14.3124C9.81838 13.1473 12.1442 12.5669 13.3093 12.5669ZM13.3093 13.396C12.0002 13.396 10.6475 14.0331 10.6475 14.3124V14.7924H15.9711V14.3124C15.9711 14.0331 14.6053 13.396 13.3093 13.396ZM8.94565 12.6891L7.85474 13.3393L8.15147 12.1131L7.2002 11.2927L8.45256 11.1836L8.94565 10.0316L9.43001 11.1836L10.6911 11.2927L9.7311 12.1131L10.0147 13.3393L8.94565 12.6891Z" fill="white"/>
</svg>
