<svg width="50" height="50" viewBox="0 0 50 50" fill="none" xmlns="http://www.w3.org/2000/svg">
<circle cx="25" cy="25" r="25" fill="white"/>
<path d="M27 15V19.4444C27 19.7391 27.1171 20.0217 27.3254 20.2301C27.5338 20.4385 27.8164 20.5556 28.1111 20.5556H32.5556" stroke="#035A86" stroke-width="2" stroke-linecap="round" stroke-linejoin="round"/>
<path d="M30.3333 35H19.2222C18.6329 35 18.0676 34.7659 17.6509 34.3491C17.2341 33.9324 17 33.3671 17 32.7778V17.2222C17 16.6329 17.2341 16.0676 17.6509 15.6509C18.0676 15.2341 18.6329 15 19.2222 15H27L32.5556 20.5556V32.7778C32.5556 33.3671 32.3214 33.9324 31.9047 34.3491C31.4879 34.7659 30.9227 35 30.3333 35Z" stroke="#035A86" stroke-width="2" stroke-linecap="round" stroke-linejoin="round"/>
<path d="M23.6663 25.5553C23.6663 25.1133 23.4907 24.6894 23.1782 24.3768C22.8656 24.0643 22.4417 23.8887 21.9997 23.8887C21.5576 23.8887 21.1337 24.0643 20.8212 24.3768C20.5086 24.6894 20.333 25.1133 20.333 25.5553V28.8887C20.333 29.3307 20.5086 29.7546 20.8212 30.0672C21.1337 30.3797 21.5576 30.5553 21.9997 30.5553C22.4417 30.5553 22.8656 30.3797 23.1782 30.0672C23.4907 29.7546 23.6663 29.3307 23.6663 28.8887M25.8886 23.8887L27.5552 30.5553L29.2219 23.8887" stroke="#035A86" stroke-width="2" stroke-linecap="round" stroke-linejoin="round"/>
</svg>
