<svg width="24" height="24" viewBox="0 0 24 24" fill="none" xmlns="http://www.w3.org/2000/svg">
<circle cx="12" cy="12" r="12" fill="#FFCB2A"/>
<path d="M7.68066 11.2404C7.68066 9.70532 7.68066 8.9378 7.8621 8.67956C8.04306 8.4218 8.7645 8.1746 10.2079 7.68068L10.4829 7.5866C11.2351 7.32884 11.6109 7.2002 12.0007 7.2002C12.3899 7.2002 12.7663 7.32884 13.5184 7.5866L13.7935 7.68068C15.2368 8.1746 15.9583 8.4218 16.1392 8.67956C16.3207 8.9378 16.3207 9.7058 16.3207 11.2404V11.9959C16.3207 14.7021 14.2859 16.0159 13.0091 16.5732C12.6631 16.7244 12.4903 16.8002 12.0007 16.8002C11.5111 16.8002 11.3383 16.7244 10.9922 16.5732C9.71538 16.0154 7.68066 14.7026 7.68066 11.9959V11.2404Z" stroke="white"/>
<path d="M12.001 11.5206C12.5312 11.5206 12.961 11.0908 12.961 10.5606C12.961 10.0304 12.5312 9.60059 12.001 9.60059C11.4708 9.60059 11.041 10.0304 11.041 10.5606C11.041 11.0908 11.4708 11.5206 12.001 11.5206Z" stroke="white"/>
<path d="M13.9211 13.4405C13.9211 13.9709 13.9211 14.4005 12.0011 14.4005C10.0811 14.4005 10.0811 13.9709 10.0811 13.4405C10.0811 12.9101 10.9403 12.4805 12.0011 12.4805C13.0619 12.4805 13.9211 12.9101 13.9211 13.4405Z" stroke="white"/>
</svg>
