<svg width="24" height="24" viewBox="0 0 24 24" fill="none" xmlns="http://www.w3.org/2000/svg">
<circle cx="12" cy="12" r="12" fill="#FFCB2A"/>
<path d="M15.7797 7.2002H8.57969C8.08469 7.2002 7.67969 7.6052 7.67969 8.1002V15.9002C7.67969 16.3952 8.08469 16.8002 8.57969 16.8002H15.7797C16.2747 16.8002 16.6797 16.3952 16.6797 15.9002V8.1002C16.6797 7.6052 16.2747 7.2002 15.7797 7.2002ZM15.4797 15.6002H8.87969V8.4002H15.4797V15.6002ZM10.0797 12.6002H14.2797V13.2002H10.0797V12.6002ZM10.0797 13.8002H14.2797V14.4002H10.0797V13.8002ZM10.6797 9.9002C10.6797 9.78197 10.7031 9.6649 10.7483 9.55569C10.7936 9.44647 10.86 9.34725 10.9436 9.26367C11.0272 9.1801 11.1265 9.11382 11.2357 9.06861C11.345 9.0234 11.4621 9.00016 11.5803 9.0002C11.6985 9.00023 11.8156 9.02356 11.9248 9.06884C12.034 9.11412 12.1332 9.18047 12.2168 9.2641C12.3004 9.34773 12.3667 9.447 12.4119 9.55624C12.4571 9.66549 12.4803 9.78257 12.4803 9.9008C12.4802 10.1396 12.3853 10.3685 12.2164 10.5373C12.0475 10.7061 11.8185 10.8009 11.5797 10.8008C11.3409 10.8007 11.1119 10.7058 10.9432 10.5369C10.7744 10.368 10.6796 10.139 10.6797 9.9002ZM12.1797 10.8002H10.9797C10.4847 10.8002 10.0797 11.0702 10.0797 11.4002V12.0002H13.0797V11.4002C13.0797 11.0702 12.6747 10.8002 12.1797 10.8002Z" fill="white"/>
</svg>
