<svg width="24" height="24" viewBox="0 0 24 24" fill="none" xmlns="http://www.w3.org/2000/svg">
<circle cx="12" cy="12" r="12" fill="white"/>
<path d="M16.1895 13.2557L15.2934 12.3596V11.1725C15.2923 10.3522 14.9872 9.56138 14.4369 8.95299C13.8866 8.3446 13.1302 7.96187 12.3141 7.87881V7.2002H11.652V7.87881C10.8359 7.96187 10.0796 8.3446 9.52927 8.95299C8.97897 9.56138 8.6738 10.3522 8.67278 11.1725V12.3596L7.77668 13.2557C7.71459 13.3178 7.67971 13.402 7.67969 13.4898V14.4828C7.67969 14.5706 7.71456 14.6548 7.77664 14.7169C7.83872 14.779 7.92292 14.8139 8.01072 14.8139H10.3279V15.0711C10.3207 15.491 10.4687 15.8989 10.7436 16.2165C11.0185 16.534 11.4009 16.739 11.8176 16.7921C12.0477 16.8149 12.28 16.7893 12.4997 16.717C12.7193 16.6446 12.9214 16.5271 13.0929 16.3719C13.2643 16.2168 13.4015 16.0274 13.4954 15.8161C13.5893 15.6048 13.638 15.3762 13.6382 15.1449V14.8139H15.9554C16.0432 14.8139 16.1274 14.779 16.1895 14.7169C16.2516 14.6548 16.2865 14.5706 16.2865 14.4828V13.4898C16.2864 13.402 16.2515 13.3178 16.1895 13.2557ZM12.9762 15.1449C12.9762 15.4083 12.8715 15.6609 12.6853 15.8471C12.4991 16.0334 12.2465 16.138 11.9831 16.138C11.7197 16.138 11.4671 16.0334 11.2809 15.8471C11.0946 15.6609 10.99 15.4083 10.99 15.1449V14.8139H12.9762V15.1449ZM15.6244 14.1518H8.34175V13.6268L9.23784 12.7307C9.29993 12.6686 9.33482 12.5845 9.33484 12.4967V11.1725C9.33484 10.4702 9.61384 9.7966 10.1105 9.29996C10.6071 8.80332 11.2807 8.52431 11.9831 8.52431C12.6854 8.52431 13.359 8.80332 13.8557 9.29996C14.3523 9.7966 14.6313 10.4702 14.6313 11.1725V12.4967C14.6313 12.5845 14.6662 12.6686 14.7283 12.7307L15.6244 13.6268V14.1518Z" fill="#035A86"/>
</svg>
