<svg width="24" height="24" viewBox="0 0 24 24" fill="none" xmlns="http://www.w3.org/2000/svg">
<circle cx="12" cy="12" r="12" fill="#FFCB2A"/>
<path d="M8.1602 15.8402C7.8962 15.8402 7.67012 15.7461 7.48196 15.5579C7.2938 15.3698 7.19988 15.1438 7.2002 14.8802V9.12016C7.2002 8.85616 7.29428 8.63008 7.48244 8.44192C7.6706 8.25376 7.89652 8.15984 8.1602 8.16016H15.8402C16.1042 8.16016 16.3303 8.25424 16.5184 8.4424C16.7066 8.63056 16.8005 8.85648 16.8002 9.12016V14.8802C16.8002 15.1442 16.7061 15.3702 16.518 15.5584C16.3298 15.7466 16.1039 15.8405 15.8402 15.8402H8.1602ZM15.8402 10.0802L12.2522 12.3242C12.2122 12.3482 12.1701 12.3662 12.126 12.3784C12.0818 12.3906 12.0399 12.3965 12.0002 12.3962C11.9602 12.3962 11.9181 12.3902 11.874 12.3784C11.8298 12.3666 11.7879 12.3485 11.7482 12.3242L8.1602 10.0802V14.8802H15.8402V10.0802ZM12.0002 11.5202L15.8402 9.12016H8.1602L12.0002 11.5202ZM8.1602 10.2002V9.49216V9.50416V9.4984V10.2002Z" fill="white"/>
</svg>
