<svg width="24" height="24" viewBox="0 0 24 24" fill="none" xmlns="http://www.w3.org/2000/svg">
<circle cx="12" cy="12" r="12" fill="#FFCB2A"/>
<path d="M13.6004 13.9207H12.9604V13.2807C12.9603 13.1959 12.9266 13.1145 12.8666 13.0545C12.8066 12.9946 12.7252 12.9608 12.6404 12.9607H11.3604C11.2755 12.9608 11.1942 12.9946 11.1342 13.0545C11.0742 13.1145 11.0405 13.1959 11.0404 13.2807V13.9207H10.4004V13.2807C10.4006 13.0262 10.5019 12.7822 10.6818 12.6022C10.8618 12.4222 11.1059 12.321 11.3604 12.3207H12.6404C12.8949 12.321 13.1389 12.4222 13.3189 12.6022C13.4989 12.7822 13.6001 13.0262 13.6004 13.2807V13.9207ZM12.0004 12.0007C11.7789 12.0007 11.5623 11.935 11.3781 11.812C11.194 11.6889 11.0504 11.514 10.9656 11.3093C10.8809 11.1047 10.8587 10.8795 10.9019 10.6622C10.9451 10.445 11.0518 10.2454 11.2084 10.0888C11.3651 9.93215 11.5646 9.82548 11.7819 9.78226C11.9991 9.73905 12.2243 9.76123 12.429 9.846C12.6336 9.93077 12.8086 10.0743 12.9316 10.2585C13.0547 10.4427 13.1204 10.6592 13.1204 10.8807C13.12 11.1777 13.0019 11.4624 12.792 11.6723C12.582 11.8823 12.2973 12.0004 12.0004 12.0007ZM12.0004 10.4007C11.9054 10.4007 11.8126 10.4289 11.7337 10.4816C11.6548 10.5344 11.5933 10.6093 11.5569 10.6971C11.5206 10.7848 11.5111 10.8813 11.5296 10.9744C11.5481 11.0675 11.5938 11.153 11.661 11.2201C11.7281 11.2873 11.8136 11.333 11.9067 11.3515C11.9999 11.37 12.0964 11.3605 12.1841 11.3242C12.2718 11.2879 12.3467 11.2263 12.3995 11.1474C12.4522 11.0685 12.4804 10.9757 12.4804 10.8807C12.4802 10.7535 12.4296 10.6315 12.3396 10.5415C12.2496 10.4515 12.1276 10.4009 12.0004 10.4007Z" fill="white"/>
<path d="M16.6128 12.4528C16.7328 12.3328 16.8002 12.1701 16.8002 12.0004C16.8002 11.8307 16.7328 11.6679 16.6128 11.5479L14.761 9.69605L15.689 8.78021C15.8259 8.81429 15.9702 8.80223 16.0995 8.74592C16.2288 8.68961 16.3359 8.59219 16.4043 8.46877C16.4726 8.34535 16.4982 8.20285 16.4773 8.06335C16.4563 7.92386 16.3899 7.79519 16.2883 7.6973C16.1868 7.5994 16.0557 7.53777 15.9156 7.52195C15.7754 7.50613 15.6339 7.53702 15.5131 7.60982C15.3923 7.68261 15.2989 7.79325 15.2474 7.92456C15.1958 8.05587 15.1891 8.20052 15.2282 8.33605L14.3085 9.24357L12.4528 7.38758C12.3328 7.2676 12.1701 7.2002 12.0004 7.2002C11.8307 7.2002 11.6679 7.2676 11.5479 7.38758L9.69605 9.24005L8.78021 8.31141C8.81411 8.1745 8.80188 8.03023 8.74541 7.90098C8.68895 7.77173 8.59141 7.66473 8.46792 7.59657C8.34444 7.52841 8.20191 7.50291 8.06246 7.52403C7.923 7.54514 7.79441 7.61168 7.69663 7.71334C7.59886 7.81499 7.53736 7.94607 7.52168 8.08624C7.50601 8.22642 7.53703 8.36784 7.60993 8.48858C7.68284 8.60933 7.79355 8.70263 7.9249 8.75403C8.05625 8.80543 8.20088 8.81205 8.33637 8.77285L9.24357 9.69221L7.38758 11.5479C7.2676 11.6679 7.2002 11.8307 7.2002 12.0004C7.2002 12.1701 7.2676 12.3328 7.38758 12.4528L9.24357 14.3085L8.33637 15.2279C8.20117 15.1889 8.0569 15.1957 7.92591 15.247C7.79493 15.2984 7.68456 15.3916 7.6119 15.5121C7.53925 15.6326 7.50836 15.7737 7.52404 15.9135C7.53972 16.0533 7.60108 16.1841 7.69862 16.2855C7.79616 16.3869 7.92442 16.4533 8.06353 16.4744C8.20264 16.4955 8.34483 16.4701 8.46805 16.4022C8.59127 16.3343 8.68865 16.2276 8.74508 16.0987C8.80152 15.9698 8.81387 15.8259 8.78021 15.6893L9.69605 14.7613L11.5479 16.6128C11.6679 16.7328 11.8307 16.8002 12.0004 16.8002C12.1701 16.8002 12.3328 16.7328 12.4528 16.6128L14.3088 14.7571L15.2279 15.6647C15.1889 15.7999 15.1957 15.9441 15.247 16.0751C15.2984 16.2061 15.3916 16.3165 15.5121 16.3891C15.6326 16.4618 15.7737 16.4927 15.9135 16.477C16.0533 16.4613 16.1841 16.3999 16.2855 16.3024C16.3869 16.2049 16.4533 16.0766 16.4744 15.9375C16.4955 15.7984 16.4701 15.6562 16.4022 15.533C16.3343 15.4098 16.2276 15.3124 16.0987 15.2559C15.9698 15.1995 15.8259 15.1872 15.6893 15.2208L14.7613 14.3047L16.6128 12.4528ZM12.0004 16.1603L7.84038 12.0004L12.0004 7.84038L16.1603 12.0004L12.0004 16.1603Z" fill="white"/>
</svg>
