<svg width="24" height="24" viewBox="0 0 24 24" fill="none" xmlns="http://www.w3.org/2000/svg">
<circle cx="12" cy="12" r="12" fill="white"/>
<path d="M8.6402 10.0802C9.02211 10.0802 9.38838 9.92848 9.65843 9.65843C9.92848 9.38838 10.0802 9.02211 10.0802 8.6402C10.0802 8.25828 9.92848 7.89201 9.65843 7.62196C9.38838 7.35191 9.02211 7.2002 8.6402 7.2002C8.25828 7.2002 7.89201 7.35191 7.62196 7.62196C7.35191 7.89201 7.2002 8.25828 7.2002 8.6402C7.2002 9.02211 7.35191 9.38838 7.62196 9.65843C7.89201 9.92848 8.25828 10.0802 8.6402 10.0802Z" stroke="#035A86" stroke-linecap="round" stroke-linejoin="round"/>
<path d="M7.74782 9.7706C7.53781 10.1703 7.38565 10.5977 7.2959 11.0402M9.7703 7.74812C10.17 7.53811 10.5974 7.38595 11.0399 7.2962M15.3599 10.0802C15.7418 10.0802 16.1081 9.92848 16.3781 9.65843C16.6482 9.38838 16.7999 9.02211 16.7999 8.6402C16.7999 8.25828 16.6482 7.89201 16.3781 7.62196C16.1081 7.35191 15.7418 7.2002 15.3599 7.2002C14.978 7.2002 14.6117 7.35191 14.3417 7.62196C14.0716 7.89201 13.9199 8.25828 13.9199 8.6402C13.9199 9.02211 14.0716 9.38838 14.3417 9.65843C14.6117 9.92848 14.978 10.0802 15.3599 10.0802Z" stroke="#035A86" stroke-linecap="round" stroke-linejoin="round"/>
<path d="M14.2296 7.74782C13.8299 7.53781 13.4024 7.38565 12.96 7.2959M16.2518 9.7703C16.4619 10.1699 16.6141 10.5974 16.704 11.0399M15.36 16.7999C15.7419 16.7999 16.1081 16.6482 16.3782 16.3781C16.6482 16.1081 16.8 15.7418 16.8 15.3599C16.8 14.978 16.6482 14.6117 16.3782 14.3417C16.1081 14.0716 15.7419 13.9199 15.36 13.9199C14.978 13.9199 14.6118 14.0716 14.3417 14.3417C14.0717 14.6117 13.92 14.978 13.92 15.3599C13.92 15.7418 14.0717 16.1081 14.3417 16.3781C14.6118 16.6482 14.978 16.7999 15.36 16.7999Z" stroke="#035A86" stroke-linecap="round" stroke-linejoin="round"/>
<path d="M16.252 14.2296C16.4621 13.8299 16.6144 13.4024 16.7042 12.96M14.2298 16.2518C13.8301 16.4619 13.4027 16.6141 12.9602 16.704M8.6402 16.8C9.02211 16.8 9.38838 16.6482 9.65843 16.3782C9.92848 16.1081 10.0802 15.7419 10.0802 15.36C10.0802 14.978 9.92848 14.6118 9.65843 14.3417C9.38838 14.0717 9.02211 13.92 8.6402 13.92C8.25828 13.92 7.89201 14.0717 7.62196 14.3417C7.35191 14.6118 7.2002 14.978 7.2002 15.36C7.2002 15.7419 7.35191 16.1081 7.62196 16.3782C7.89201 16.6482 8.25828 16.8 8.6402 16.8Z" stroke="#035A86" stroke-linecap="round" stroke-linejoin="round"/>
<path d="M9.7703 16.2524C10.1699 16.4625 10.5974 16.6147 11.0399 16.7045M7.74782 14.2301C7.53781 13.8305 7.38565 13.403 7.2959 12.9605M11.9999 13.4405V10.5605M10.5599 12.0005H13.4399" stroke="#035A86" stroke-linecap="round" stroke-linejoin="round"/>
</svg>
