<svg width="24" height="24" viewBox="0 0 24 24" fill="none" xmlns="http://www.w3.org/2000/svg">
<circle cx="12" cy="12" r="12" fill="#FFCB2A"/>
<path d="M10.8375 10.1554C11.1204 10.1554 11.3478 9.92803 11.3478 9.64508C11.3478 9.36213 11.1204 9.13477 10.8375 9.13477C10.5545 9.13477 10.3271 9.36213 10.3271 9.64508C10.3271 9.92803 10.5545 10.1554 10.8375 10.1554Z" fill="white"/>
<path fill-rule="evenodd" clip-rule="evenodd" d="M11.8632 11.2679C11.8632 10.7222 11.4034 10.3281 10.8375 10.3281C10.2717 10.3281 9.81186 10.7222 9.81186 11.2679V11.5256C9.81186 11.5711 9.83207 11.6165 9.86239 11.6469C9.89271 11.6772 9.93818 11.6974 9.98365 11.6974H11.6914C11.7369 11.6974 11.7824 11.6772 11.8127 11.6469C11.843 11.6165 11.8632 11.5711 11.8632 11.5256V11.2679ZM9.80176 12.7584C9.80176 12.6579 9.84168 12.5616 9.91275 12.4905C9.98382 12.4194 10.0802 12.3795 10.1807 12.3795H13.7175C13.8181 12.3795 13.9144 12.4194 13.9855 12.4905C14.0566 12.5616 14.0965 12.6579 14.0965 12.7584C14.0965 12.8589 14.0566 12.9553 13.9855 13.0264C13.9144 13.0975 13.8181 13.1374 13.7175 13.1374H10.1807C10.0802 13.1374 9.98382 13.0975 9.91275 13.0264C9.84168 12.9553 9.80176 12.8589 9.80176 12.7584ZM9.80176 14.2742C9.80176 14.1737 9.84168 14.0773 9.91275 14.0063C9.98382 13.9352 10.0802 13.8953 10.1807 13.8953H13.7175C13.8181 13.8953 13.9144 13.9352 13.9855 14.0063C14.0566 14.0773 14.0965 14.1737 14.0965 14.2742C14.0965 14.3747 14.0566 14.4711 13.9855 14.5422C13.9144 14.6133 13.8181 14.6532 13.7175 14.6532H10.1807C10.0802 14.6532 9.98382 14.6133 9.91275 14.5422C9.84168 14.4711 9.80176 14.3747 9.80176 14.2742Z" fill="white"/>
<path fill-rule="evenodd" clip-rule="evenodd" d="M8.16016 8.21072C8.16016 7.65392 8.61388 7.2002 9.17068 7.2002H12.5509C12.8349 7.2002 13.1026 7.32045 13.2911 7.51902L13.2941 7.52255L15.4728 9.8983C15.6542 10.0918 15.7391 10.345 15.7391 10.5855V15.7897C15.7391 16.3465 15.2854 16.8002 14.7286 16.8002H9.17068C8.61388 16.8002 8.16016 16.3465 8.16016 15.7897V8.21072ZM12.5504 8.21072H9.17068V15.7897H14.7286V10.5814L12.558 8.21426L12.5565 8.21375C12.5546 8.21242 12.5526 8.21139 12.5504 8.21072Z" fill="white"/>
<path fill-rule="evenodd" clip-rule="evenodd" d="M12.5512 7.2002C12.6852 7.2002 12.8137 7.25343 12.9084 7.34818C13.0032 7.44294 13.0564 7.57145 13.0564 7.70546V10.0802H15.2341C15.3005 10.0802 15.3662 10.0933 15.4275 10.1187C15.4888 10.144 15.5445 10.1813 15.5914 10.2282C15.6383 10.2751 15.6755 10.3308 15.7009 10.3921C15.7263 10.4534 15.7394 10.5191 15.7394 10.5855C15.7394 10.6518 15.7263 10.7175 15.7009 10.7788C15.6755 10.8401 15.6383 10.8958 15.5914 10.9427C15.5445 10.9897 15.4888 11.0269 15.4275 11.0523C15.3662 11.0777 15.3005 11.0907 15.2341 11.0907H12.5512C12.4172 11.0907 12.2886 11.0375 12.1939 10.9427C12.0991 10.848 12.0459 10.7195 12.0459 10.5855V7.70546C12.0459 7.57145 12.0991 7.44294 12.1939 7.34818C12.2886 7.25343 12.4172 7.2002 12.5512 7.2002Z" fill="white"/>
</svg>
