<svg width="1088" height="1082" viewBox="0 0 1088 1082" fill="none" xmlns="http://www.w3.org/2000/svg">
<g opacity="0.5">
<mask id="mask0_18_4282" style="mask-type:alpha" maskUnits="userSpaceOnUse" x="181" y="153" width="728" height="773">
<line x1="342.567" y1="346.641" x2="829.456" y2="557.441" stroke="#536476" stroke-width="4"/>
<line x1="335.063" y1="363.975" x2="821.951" y2="574.775" stroke="#536476" stroke-width="4"/>
<line x1="327.558" y1="381.308" x2="814.446" y2="592.108" stroke="#536476" stroke-width="4"/>
<line x1="320.054" y1="398.639" x2="806.942" y2="609.439" stroke="#536476" stroke-width="4"/>
<line x1="312.55" y1="415.971" x2="799.439" y2="626.771" stroke="#536476" stroke-width="4"/>
<line x1="305.046" y1="433.305" x2="791.934" y2="644.105" stroke="#536476" stroke-width="4"/>
<line x1="297.542" y1="450.637" x2="784.431" y2="661.437" stroke="#536476" stroke-width="4"/>
<line x1="290.038" y1="467.971" x2="776.926" y2="678.77" stroke="#536476" stroke-width="4"/>
<line x1="282.534" y1="485.302" x2="769.423" y2="696.102" stroke="#536476" stroke-width="4"/>
<line x1="275.029" y1="502.635" x2="761.917" y2="713.434" stroke="#536476" stroke-width="4"/>
<line x1="267.524" y1="519.968" x2="754.412" y2="730.767" stroke="#536476" stroke-width="4"/>
<line x1="420.46" y1="155.014" x2="907.348" y2="365.814" stroke="#536476" stroke-width="4"/>
<line x1="412.955" y1="172.348" x2="899.844" y2="383.148" stroke="#536476" stroke-width="4"/>
<line x1="405.45" y1="189.681" x2="892.339" y2="400.481" stroke="#536476" stroke-width="4"/>
<line x1="397.946" y1="207.012" x2="884.835" y2="417.812" stroke="#536476" stroke-width="4"/>
<line x1="390.443" y1="224.344" x2="877.331" y2="435.144" stroke="#536476" stroke-width="4"/>
<line x1="382.938" y1="241.678" x2="869.827" y2="452.478" stroke="#536476" stroke-width="4"/>
<line x1="375.435" y1="259.01" x2="862.323" y2="469.81" stroke="#536476" stroke-width="4"/>
<line x1="367.929" y1="276.345" x2="854.817" y2="487.144" stroke="#536476" stroke-width="4"/>
<line x1="360.426" y1="293.674" x2="847.314" y2="504.474" stroke="#536476" stroke-width="4"/>
<line x1="352.921" y1="311.008" x2="839.81" y2="521.807" stroke="#536476" stroke-width="4"/>
<line x1="345.416" y1="328.341" x2="832.305" y2="539.14" stroke="#536476" stroke-width="4"/>
<line x1="256.929" y1="539.087" x2="743.817" y2="749.887" stroke="#536476" stroke-width="4"/>
<line x1="249.424" y1="556.421" x2="736.313" y2="767.221" stroke="#536476" stroke-width="4"/>
<line x1="241.919" y1="573.754" x2="728.808" y2="784.554" stroke="#536476" stroke-width="4"/>
<line x1="234.415" y1="591.085" x2="721.304" y2="801.885" stroke="#536476" stroke-width="4"/>
<line x1="226.912" y1="608.417" x2="713.8" y2="819.217" stroke="#536476" stroke-width="4"/>
<line x1="219.407" y1="625.751" x2="706.296" y2="836.551" stroke="#536476" stroke-width="4"/>
<line x1="211.904" y1="643.083" x2="698.792" y2="853.883" stroke="#536476" stroke-width="4"/>
<line x1="204.4" y1="660.417" x2="691.288" y2="871.216" stroke="#536476" stroke-width="4"/>
<line x1="196.896" y1="677.749" x2="683.785" y2="888.548" stroke="#536476" stroke-width="4"/>
<line x1="189.391" y1="695.081" x2="676.279" y2="905.881" stroke="#536476" stroke-width="4"/>
<line x1="181.886" y1="712.414" x2="668.774" y2="923.214" stroke="#536476" stroke-width="4"/>
</mask>
<g mask="url(#mask0_18_4282)">
<circle cx="596.95" cy="590.372" r="144.231" transform="rotate(52.3697 596.95 590.372)" fill="white"/>
</g>
</g>
</svg>
