<svg width="101" height="15" viewBox="0 0 101 15" fill="none" xmlns="http://www.w3.org/2000/svg">
<path d="M15.5497 5.46361C15.4503 5.15808 15.1793 4.94176 14.86 4.91287L10.5042 4.51742L8.78275 0.4872C8.65565 0.191104 8.36647 0 8.04458 0C7.7227 0 7.43339 0.191104 7.30711 0.4872L5.58567 4.51742L1.2292 4.91287C0.909846 4.94234 0.639423 5.15865 0.539496 5.46361C0.440145 5.76915 0.531898 6.10427 0.773426 6.3161L4.06605 9.20326L3.09522 13.4792C3.02419 13.7936 3.14622 14.1187 3.40709 14.3072C3.54731 14.4091 3.71205 14.46 3.87737 14.46C4.01943 14.46 4.1616 14.4222 4.28859 14.3463L8.04458 12.1004L11.7999 14.3463C12.0754 14.5109 12.4218 14.4958 12.6821 14.3072C12.9429 14.1187 13.065 13.7936 12.9939 13.4792L12.0231 9.20326L15.3157 6.3161C15.5572 6.10427 15.649 5.76984 15.5497 5.46361Z" fill="#FD4C5C"/>
<path d="M36.6825 5.46361C36.5831 5.15808 36.3121 4.94176 35.9928 4.91287L31.637 4.51742L29.9156 0.4872C29.7885 0.191104 29.4993 0 29.1774 0C28.8555 0 28.5662 0.191104 28.4399 0.4872L26.7185 4.51742L22.362 4.91287C22.0427 4.94234 21.7722 5.15865 21.6723 5.46361C21.573 5.76915 21.6647 6.10427 21.9062 6.3161L25.1989 9.20326L24.228 13.4792C24.157 13.7936 24.279 14.1187 24.5399 14.3072C24.6801 14.4091 24.8449 14.46 25.0102 14.46C25.1522 14.46 25.2944 14.4222 25.4214 14.3463L29.1774 12.1004L32.9327 14.3463C33.2082 14.5109 33.5546 14.4958 33.8149 14.3072C34.0758 14.1187 34.1978 13.7936 34.1268 13.4792L33.1559 9.20326L36.4486 6.3161C36.69 6.10427 36.7818 5.76984 36.6825 5.46361Z" fill="#FD4C5C"/>
<path d="M57.8153 5.46361C57.7159 5.15808 57.4449 4.94176 57.1256 4.91287L52.7698 4.51742L51.0484 0.4872C50.9213 0.191104 50.6321 0 50.3102 0C49.9883 0 49.699 0.191104 49.5727 0.4872L47.8513 4.51742L43.4948 4.91287C43.1755 4.94234 42.905 5.15865 42.8051 5.46361C42.7058 5.76915 42.7975 6.10427 43.0391 6.3161L46.3317 9.20326L45.3608 13.4792C45.2898 13.7936 45.4118 14.1187 45.6727 14.3072C45.8129 14.4091 45.9777 14.46 46.143 14.46C46.2851 14.46 46.4272 14.4222 46.5542 14.3463L50.3102 12.1004L54.0655 14.3463C54.341 14.5109 54.6874 14.4958 54.9477 14.3072C55.2086 14.1187 55.3306 13.7936 55.2596 13.4792L54.2887 9.20326L57.5814 6.3161C57.8228 6.10427 57.9146 5.76984 57.8153 5.46361Z" fill="#FD4C5C"/>
<path d="M78.9481 5.46361C78.8488 5.15808 78.5778 4.94176 78.2584 4.91287L73.9026 4.51742L72.1812 0.4872C72.0541 0.191104 71.7649 0 71.443 0C71.1211 0 70.8318 0.191104 70.7055 0.4872L68.9841 4.51742L64.6276 4.91287C64.3083 4.94234 64.0379 5.15865 63.9379 5.46361C63.8386 5.76915 63.9303 6.10427 64.1719 6.3161L67.4645 9.20326L66.4937 13.4792C66.4226 13.7936 66.5447 14.1187 66.8055 14.3072C66.9457 14.4091 67.1105 14.46 67.2758 14.46C67.4179 14.46 67.56 14.4222 67.687 14.3463L71.443 12.1004L75.1983 14.3463C75.4738 14.5109 75.8202 14.4958 76.0805 14.3072C76.3414 14.1187 76.4634 13.7936 76.3924 13.4792L75.4215 9.20326L78.7142 6.3161C78.9556 6.10427 79.0475 5.76984 78.9481 5.46361Z" fill="#FD4C5C"/>
<path d="M100.081 5.46361C99.9816 5.15808 99.7106 4.94176 99.3912 4.91287L95.0354 4.51742L93.314 0.4872C93.1869 0.191104 92.8977 0 92.5758 0C92.2539 0 91.9646 0.191104 91.8384 0.4872L90.1169 4.51742L85.7604 4.91287C85.4411 4.94234 85.1707 5.15865 85.0707 5.46361C84.9714 5.76915 85.0631 6.10427 85.3047 6.3161L88.5973 9.20326L87.6265 13.4792C87.5554 13.7936 87.6775 14.1187 87.9383 14.3072C88.0786 14.4091 88.2433 14.46 88.4086 14.46C88.5507 14.46 88.6929 14.4222 88.8198 14.3463L92.5758 12.1004L96.3311 14.3463C96.6066 14.5109 96.953 14.4958 97.2133 14.3072C97.4742 14.1187 97.5962 13.7936 97.5252 13.4792L96.5544 9.20326L99.847 6.3161C100.088 6.10427 100.18 5.76984 100.081 5.46361Z" fill="#FD4C5C"/>
</svg>
