<svg width="101" height="15" viewBox="0 0 101 15" fill="none" xmlns="http://www.w3.org/2000/svg">
<path d="M15.7997 5.46361C15.7003 5.15808 15.4293 4.94176 15.11 4.91287L10.7542 4.51742L9.03275 0.4872C8.90565 0.191104 8.61647 0 8.29458 0C7.9727 0 7.68339 0.191104 7.55711 0.4872L5.83567 4.51742L1.4792 4.91287C1.15985 4.94234 0.889423 5.15865 0.789496 5.46361C0.690145 5.76915 0.781898 6.10427 1.02343 6.3161L4.31605 9.20326L3.34522 13.4792C3.27419 13.7936 3.39622 14.1187 3.65709 14.3072C3.79731 14.4091 3.96205 14.46 4.12737 14.46C4.26943 14.46 4.4116 14.4222 4.53859 14.3463L8.29458 12.1004L12.0499 14.3463C12.3254 14.5109 12.6718 14.4958 12.9321 14.3072C13.1929 14.1187 13.315 13.7936 13.2439 13.4792L12.2731 9.20326L15.5657 6.3161C15.8072 6.10427 15.899 5.76984 15.7997 5.46361Z" fill="#FD4C5C"/>
<path d="M36.9325 5.46361C36.8331 5.15808 36.5621 4.94176 36.2428 4.91287L31.887 4.51742L30.1656 0.4872C30.0385 0.191104 29.7493 0 29.4274 0C29.1055 0 28.8162 0.191104 28.6899 0.4872L26.9685 4.51742L22.612 4.91287C22.2927 4.94234 22.0222 5.15865 21.9223 5.46361C21.823 5.76915 21.9147 6.10427 22.1562 6.3161L25.4489 9.20326L24.478 13.4792C24.407 13.7936 24.529 14.1187 24.7899 14.3072C24.9301 14.4091 25.0949 14.46 25.2602 14.46C25.4022 14.46 25.5444 14.4222 25.6714 14.3463L29.4274 12.1004L33.1827 14.3463C33.4582 14.5109 33.8046 14.4958 34.0649 14.3072C34.3258 14.1187 34.4478 13.7936 34.3768 13.4792L33.4059 9.20326L36.6986 6.3161C36.94 6.10427 37.0318 5.76984 36.9325 5.46361Z" fill="#FD4C5C"/>
<path d="M58.0653 5.46361C57.9659 5.15808 57.6949 4.94176 57.3756 4.91287L53.0198 4.51742L51.2984 0.4872C51.1713 0.191104 50.8821 0 50.5602 0C50.2383 0 49.949 0.191104 49.8227 0.4872L48.1013 4.51742L43.7448 4.91287C43.4255 4.94234 43.155 5.15865 43.0551 5.46361C42.9558 5.76915 43.0475 6.10427 43.2891 6.3161L46.5817 9.20326L45.6108 13.4792C45.5398 13.7936 45.6618 14.1187 45.9227 14.3072C46.0629 14.4091 46.2277 14.46 46.393 14.46C46.5351 14.46 46.6772 14.4222 46.8042 14.3463L50.5602 12.1004L54.3155 14.3463C54.591 14.5109 54.9374 14.4958 55.1977 14.3072C55.4586 14.1187 55.5806 13.7936 55.5096 13.4792L54.5387 9.20326L57.8314 6.3161C58.0728 6.10427 58.1646 5.76984 58.0653 5.46361Z" fill="#FD4C5C"/>
<path d="M79.1981 5.46361C79.0988 5.15808 78.8278 4.94176 78.5084 4.91287L74.1526 4.51742L72.4312 0.4872C72.3041 0.191104 72.0149 0 71.693 0C71.3711 0 71.0818 0.191104 70.9555 0.4872L69.2341 4.51742L64.8776 4.91287C64.5583 4.94234 64.2879 5.15865 64.1879 5.46361C64.0886 5.76915 64.1803 6.10427 64.4219 6.3161L67.7145 9.20326L66.7437 13.4792C66.6726 13.7936 66.7947 14.1187 67.0555 14.3072C67.1957 14.4091 67.3605 14.46 67.5258 14.46C67.6679 14.46 67.81 14.4222 67.937 14.3463L71.693 12.1004L75.4483 14.3463C75.7238 14.5109 76.0702 14.4958 76.3305 14.3072C76.5914 14.1187 76.7134 13.7936 76.6424 13.4792L75.6715 9.20326L78.9642 6.3161C79.2056 6.10427 79.2975 5.76984 79.1981 5.46361Z" fill="#FD4C5C"/>
<path d="M100.331 5.46361C100.232 5.15808 99.9606 4.94176 99.6412 4.91287L95.2854 4.51742L93.564 0.4872C93.4369 0.191104 93.1477 0 92.8258 0C92.5039 0 92.2146 0.191104 92.0884 0.4872L90.3669 4.51742L86.0104 4.91287C85.6911 4.94234 85.4207 5.15865 85.3207 5.46361C85.2214 5.76915 85.3131 6.10427 85.5547 6.3161L88.8473 9.20326L87.8765 13.4792C87.8054 13.7936 87.9275 14.1187 88.1883 14.3072C88.3286 14.4091 88.4933 14.46 88.6586 14.46C88.8007 14.46 88.9429 14.4222 89.0698 14.3463L92.8258 12.1004L96.5811 14.3463C96.8566 14.5109 97.203 14.4958 97.4633 14.3072C97.7242 14.1187 97.8462 13.7936 97.7752 13.4792L96.8044 9.20326L100.097 6.3161C100.338 6.10427 100.43 5.76984 100.331 5.46361Z" fill="#FD4C5C"/>
</svg>
