<svg width="100" height="15" viewBox="0 0 100 15" fill="none" xmlns="http://www.w3.org/2000/svg">
<path d="M15.0497 5.96361C14.9503 5.65808 14.6793 5.44176 14.36 5.41287L10.0042 5.01742L8.28275 0.9872C8.15565 0.691104 7.86647 0.5 7.54458 0.5C7.2227 0.5 6.93339 0.691104 6.80711 0.9872L5.08567 5.01742L0.729197 5.41287C0.409846 5.44234 0.139423 5.65865 0.0394963 5.96361C-0.0598547 6.26915 0.0318981 6.60427 0.273426 6.8161L3.56605 9.70326L2.59522 13.9792C2.52419 14.2936 2.64622 14.6187 2.90709 14.8072C3.04731 14.9091 3.21205 14.96 3.37737 14.96C3.51943 14.96 3.6616 14.9222 3.78859 14.8463L7.54458 12.6004L11.2999 14.8463C11.5754 15.0109 11.9218 14.9958 12.1821 14.8072C12.4429 14.6187 12.565 14.2936 12.4939 13.9792L11.5231 9.70326L14.8157 6.8161C15.0572 6.60427 15.149 6.26984 15.0497 5.96361Z" fill="#FD4C5C"/>
<path d="M36.1825 5.96361C36.0831 5.65808 35.8121 5.44176 35.4928 5.41287L31.137 5.01742L29.4156 0.9872C29.2885 0.691104 28.9993 0.5 28.6774 0.5C28.3555 0.5 28.0662 0.691104 27.9399 0.9872L26.2185 5.01742L21.862 5.41287C21.5427 5.44234 21.2722 5.65865 21.1723 5.96361C21.073 6.26915 21.1647 6.60427 21.4062 6.8161L24.6989 9.70326L23.728 13.9792C23.657 14.2936 23.779 14.6187 24.0399 14.8072C24.1801 14.9091 24.3449 14.96 24.5102 14.96C24.6522 14.96 24.7944 14.9222 24.9214 14.8463L28.6774 12.6004L32.4327 14.8463C32.7082 15.0109 33.0546 14.9958 33.3149 14.8072C33.5758 14.6187 33.6978 14.2936 33.6268 13.9792L32.6559 9.70326L35.9486 6.8161C36.19 6.60427 36.2818 6.26984 36.1825 5.96361Z" fill="#FD4C5C"/>
<path d="M57.3153 5.96361C57.2159 5.65808 56.9449 5.44176 56.6256 5.41287L52.2698 5.01742L50.5484 0.9872C50.4213 0.691104 50.1321 0.5 49.8102 0.5C49.4883 0.5 49.199 0.691104 49.0727 0.9872L47.3513 5.01742L42.9948 5.41287C42.6755 5.44234 42.405 5.65865 42.3051 5.96361C42.2058 6.26915 42.2975 6.60427 42.5391 6.8161L45.8317 9.70326L44.8608 13.9792C44.7898 14.2936 44.9118 14.6187 45.1727 14.8072C45.3129 14.9091 45.4777 14.96 45.643 14.96C45.7851 14.96 45.9272 14.9222 46.0542 14.8463L49.8102 12.6004L53.5655 14.8463C53.841 15.0109 54.1874 14.9958 54.4477 14.8072C54.7086 14.6187 54.8306 14.2936 54.7596 13.9792L53.7887 9.70326L57.0814 6.8161C57.3228 6.60427 57.4146 6.26984 57.3153 5.96361Z" fill="#FD4C5C"/>
<path d="M78.4481 5.96361C78.3488 5.65808 78.0778 5.44176 77.7584 5.41287L73.4026 5.01742L71.6812 0.9872C71.5541 0.691104 71.2649 0.5 70.943 0.5C70.6211 0.5 70.3318 0.691104 70.2055 0.9872L68.4841 5.01742L64.1276 5.41287C63.8083 5.44234 63.5379 5.65865 63.4379 5.96361C63.3386 6.26915 63.4303 6.60427 63.6719 6.8161L66.9645 9.70326L65.9937 13.9792C65.9226 14.2936 66.0447 14.6187 66.3055 14.8072C66.4457 14.9091 66.6105 14.96 66.7758 14.96C66.9179 14.96 67.06 14.9222 67.187 14.8463L70.943 12.6004L74.6983 14.8463C74.9738 15.0109 75.3202 14.9958 75.5805 14.8072C75.8414 14.6187 75.9634 14.2936 75.8924 13.9792L74.9215 9.70326L78.2142 6.8161C78.4556 6.60427 78.5475 6.26984 78.4481 5.96361Z" fill="#FD4C5C"/>
<path d="M99.5809 5.96361C99.4816 5.65808 99.2106 5.44176 98.8912 5.41287L94.5354 5.01742L92.814 0.9872C92.6869 0.691104 92.3977 0.5 92.0758 0.5C91.7539 0.5 91.4646 0.691104 91.3384 0.9872L89.6169 5.01742L85.2604 5.41287C84.9411 5.44234 84.6707 5.65865 84.5707 5.96361C84.4714 6.26915 84.5631 6.60427 84.8047 6.8161L88.0973 9.70326L87.1265 13.9792C87.0554 14.2936 87.1775 14.6187 87.4383 14.8072C87.5786 14.9091 87.7433 14.96 87.9086 14.96C88.0507 14.96 88.1929 14.9222 88.3198 14.8463L92.0758 12.6004L95.8311 14.8463C96.1066 15.0109 96.453 14.9958 96.7133 14.8072C96.9742 14.6187 97.0962 14.2936 97.0252 13.9792L96.0544 9.70326L99.347 6.8161C99.5884 6.60427 99.6803 6.26984 99.5809 5.96361Z" fill="#FD4C5C"/>
</svg>
