<svg width="22" height="21" viewBox="0 0 22 21" fill="none" xmlns="http://www.w3.org/2000/svg">
<g clip-path="url(#clip0_63_1592)">
<path d="M19.7492 4.66206C19.1125 4.94731 18.4373 5.13465 17.7459 5.21788C18.4746 4.77646 19.02 4.08175 19.2805 3.26321C18.5966 3.67543 17.8468 3.96432 17.0654 4.12059C15.9861 2.95093 14.2651 2.66269 12.8715 3.41817C11.4779 4.17366 10.7601 5.78397 11.1224 7.34235C8.31772 7.19996 5.70461 5.85817 3.93343 3.65093C3.62343 4.19024 3.46052 4.80332 3.46139 5.42737C3.46139 6.65221 4.07687 7.73429 5.01261 8.36783C4.45885 8.35017 3.91728 8.1987 3.43304 7.92604L3.43304 7.96997C3.43304 9.6511 4.60291 11.1001 6.23035 11.434C5.71653 11.575 5.17778 11.5959 4.65483 11.495C5.11113 12.9345 6.42076 13.9208 7.91322 13.9489C6.45202 15.1112 4.59456 15.6376 2.75 15.4119C4.34433 16.4505 6.20029 17.0018 8.09586 17C14.5117 17 18.0203 11.6166 18.0203 6.94786C18.0203 6.79581 18.0161 6.64207 18.0095 6.49172C18.6924 5.99178 19.2818 5.37248 19.75 4.6629L19.7492 4.66206Z" fill="white"/>
</g>
<defs>
<clipPath id="clip0_63_1592">
<rect width="21" height="21" fill="white" transform="translate(0.75)"/>
</clipPath>
</defs>
</svg>
