<svg width="22" height="21" viewBox="0 0 22 21" fill="none" xmlns="http://www.w3.org/2000/svg">
<g clip-path="url(#clip0_18_4650)">
<path d="M19.4992 4.66206C18.8625 4.94731 18.1873 5.13465 17.4959 5.21788C18.2246 4.77646 18.77 4.08175 19.0305 3.26321C18.3466 3.67543 17.5968 3.96432 16.8154 4.12059C15.7361 2.95093 14.0151 2.66269 12.6215 3.41817C11.2279 4.17366 10.5101 5.78397 10.8724 7.34235C8.06772 7.19996 5.45461 5.85817 3.68343 3.65093C3.37343 4.19024 3.21052 4.80332 3.21139 5.42737C3.21139 6.65221 3.82687 7.73429 4.76261 8.36783C4.20885 8.35017 3.66728 8.1987 3.18304 7.92604L3.18304 7.96997C3.18304 9.6511 4.35291 11.1001 5.98035 11.434C5.46653 11.575 4.92778 11.5959 4.40483 11.495C4.86113 12.9345 6.17076 13.9208 7.66322 13.9489C6.20202 15.1112 4.34456 15.6376 2.5 15.4119C4.09433 16.4505 5.95029 17.0018 7.84586 17C14.2617 17 17.7703 11.6166 17.7703 6.94786C17.7703 6.79581 17.7661 6.64207 17.7595 6.49172C18.4424 5.99178 19.0318 5.37248 19.5 4.6629L19.4992 4.66206Z" fill="white"/>
</g>
<defs>
<clipPath id="clip0_18_4650">
<rect width="21" height="21" fill="white" transform="translate(0.5)"/>
</clipPath>
</defs>
</svg>
