<svg width="21" height="22" viewBox="0 0 21 22" fill="none" xmlns="http://www.w3.org/2000/svg">
<g clip-path="url(#clip0_474_1051)">
<path d="M18.9992 5.16206C18.3625 5.44731 17.6873 5.63465 16.9959 5.71788C17.7246 5.27646 18.27 4.58175 18.5305 3.76321C17.8466 4.17543 17.0968 4.46432 16.3154 4.62059C15.2361 3.45093 13.5151 3.16269 12.1215 3.91817C10.7279 4.67366 10.0101 6.28397 10.3724 7.84235C7.56772 7.69996 4.95461 6.35817 3.18343 4.15093C2.87343 4.69024 2.71052 5.30332 2.71139 5.92737C2.71139 7.15221 3.32687 8.23429 4.26261 8.86783C3.70885 8.85017 3.16728 8.6987 2.68304 8.42604L2.68304 8.46997C2.68304 10.1511 3.85291 11.6001 5.48035 11.934C4.96653 12.075 4.42778 12.0959 3.90483 11.995C4.36113 13.4345 5.67076 14.4208 7.16322 14.4489C5.70202 15.6112 3.84456 16.1376 2 15.9119C3.59433 16.9505 5.45029 17.5018 7.34586 17.5C13.7617 17.5 17.2703 12.1166 17.2703 7.44786C17.2703 7.29581 17.2661 7.14207 17.2595 6.99172C17.9424 6.49178 18.5318 5.87248 19 5.1629L18.9992 5.16206Z" fill="white"/>
</g>
<defs>
<clipPath id="clip0_474_1051">
<rect width="21" height="21" fill="white" transform="translate(0 0.5)"/>
</clipPath>
</defs>
</svg>
