<svg width="25" height="24" viewBox="0 0 25 24" fill="none" xmlns="http://www.w3.org/2000/svg">
<path d="M12.5 15.6721L20.1066 23.2787C20.5874 23.7596 21.1995 24 21.9426 24C22.6858 24 23.2978 23.7596 23.7787 23.2787C24.2596 22.7978 24.5 22.1858 24.5 21.4426C24.5 20.6995 24.2596 20.0874 23.7787 19.6066L16.1721 12L23.7787 4.39344C24.2596 3.91257 24.5 3.30054 24.5 2.55738C24.5 1.81421 24.2596 1.20218 23.7787 0.72131C23.2978 0.240436 22.6858 0 21.9426 0C21.1995 0 20.5874 0.240436 20.1066 0.72131L12.5 8.32787L4.89344 0.72131C4.41257 0.240436 3.80054 0 3.05738 0C2.31421 0 1.70218 0.240436 1.22131 0.72131C0.740436 1.20218 0.5 1.81421 0.5 2.55738C0.5 3.30054 0.740436 3.91257 1.22131 4.39344L8.82787 12L1.22131 19.6066C0.740436 20.0874 0.5 20.6995 0.5 21.4426C0.5 22.1858 0.740436 22.7978 1.22131 23.2787C1.70218 23.7596 2.31421 24 3.05738 24C3.80054 24 4.41257 23.7596 4.89344 23.2787L12.5 15.6721Z" fill="#FD4C5C"/>
</svg>
