<svg width="21" height="16" viewBox="0 0 21 16" fill="none" xmlns="http://www.w3.org/2000/svg">
<path d="M6.91256 11.4018L17.4955 0.507774C17.8244 0.169257 18.2429 0 18.7511 0C19.2593 0 19.6779 0.169257 20.0067 0.507774C20.3356 0.84629 20.5 1.27713 20.5 1.80029C20.5 2.32345 20.3356 2.75429 20.0067 3.09281L8.16816 15.2794C7.80942 15.6487 7.39088 15.8333 6.91256 15.8333C6.43423 15.8333 6.0157 15.6487 5.65695 15.2794L0.993273 10.4786C0.664424 10.1401 0.5 9.70926 0.5 9.1861C0.5 8.66294 0.664424 8.2321 0.993273 7.89359C1.32212 7.55507 1.74066 7.38581 2.24888 7.38581C2.7571 7.38581 3.17564 7.55507 3.50448 7.89359L6.91256 11.4018Z" fill="#00BB98"/>
</svg>
