<svg width="25" height="19" viewBox="0 0 25 19" fill="none" xmlns="http://www.w3.org/2000/svg">
<path d="M8.19507 13.6822L20.8946 0.609329C21.2892 0.203109 21.7915 0 22.4013 0C23.0112 0 23.5135 0.203109 23.9081 0.609329C24.3027 1.01555 24.5 1.53255 24.5 2.16035C24.5 2.78814 24.3027 3.30515 23.9081 3.71137L9.70179 18.3353C9.2713 18.7784 8.76906 19 8.19507 19C7.62108 19 7.11883 18.7784 6.68834 18.3353L1.09193 12.5743C0.697309 12.1681 0.5 11.6511 0.5 11.0233C0.5 10.3955 0.697309 9.87852 1.09193 9.4723C1.48655 9.06608 1.98879 8.86297 2.59865 8.86297C3.20852 8.86297 3.71076 9.06608 4.10538 9.4723L8.19507 13.6822Z" fill="#00BB98"/>
</svg>
