<svg width="19" height="15" viewBox="0 0 19 15" fill="none" xmlns="http://www.w3.org/2000/svg">
<path d="M6.2713 10.2617L15.796 0.456996C16.0919 0.152332 16.4686 0 16.926 0C17.3834 0 17.7601 0.152332 18.0561 0.456996C18.352 0.761661 18.5 1.14942 18.5 1.62026C18.5 2.09111 18.352 2.47886 18.0561 2.78353L7.40134 13.7515C7.07847 14.0838 6.70179 14.25 6.2713 14.25C5.84081 14.25 5.46413 14.0838 5.14126 13.7515L0.943946 9.43076C0.647981 9.12609 0.5 8.73834 0.5 8.26749C0.5 7.79665 0.647981 7.40889 0.943946 7.10423C1.23991 6.79956 1.61659 6.64723 2.07399 6.64723C2.53139 6.64723 2.90807 6.79956 3.20404 7.10423L6.2713 10.2617Z" fill="#00BB98"/>
</svg>
