<svg width="21" height="22" viewBox="0 0 21 22" fill="none" xmlns="http://www.w3.org/2000/svg">
<g clip-path="url(#clip0_474_1060)">
<path fill-rule="evenodd" clip-rule="evenodd" d="M19 11C19 11 19 7.9775 18.6115 6.52963C18.3982 5.73175 17.7675 5.10287 16.9642 4.88675C15.5116 4.5 10.5 4.5 10.5 4.5C10.5 4.5 5.49095 4.5 4.03575 4.88675C3.2359 5.09962 2.60435 5.72931 2.38845 6.52963C2 7.9775 2 11 2 11C2 11 2 14.0225 2.38845 15.4704C2.6018 16.2683 3.2325 16.8971 4.03575 17.1132C5.49095 17.5 10.5 17.5 10.5 17.5C10.5 17.5 15.5116 17.5 16.9642 17.1132C17.7641 16.9004 18.3956 16.2707 18.6115 15.4704C19 14.0225 19 11 19 11ZM13.9008 11L8.80078 13.8438V8.15625L13.9008 11Z" fill="white"/>
</g>
<defs>
<clipPath id="clip0_474_1060">
<rect width="21" height="21" fill="white" transform="translate(0 0.5)"/>
</clipPath>
</defs>
</svg>
