<svg width="22" height="21" viewBox="0 0 22 21" fill="none" xmlns="http://www.w3.org/2000/svg">
<g clip-path="url(#clip0_686_10788)">
<path fill-rule="evenodd" clip-rule="evenodd" d="M19.5 10.5C19.5 10.5 19.5 7.4775 19.1115 6.02963C18.8982 5.23175 18.2675 4.60287 17.4642 4.38675C16.0116 4 11 4 11 4C11 4 5.99095 4 4.53575 4.38675C3.7359 4.59962 3.10435 5.22931 2.88845 6.02963C2.5 7.4775 2.5 10.5 2.5 10.5C2.5 10.5 2.5 13.5225 2.88845 14.9704C3.1018 15.7683 3.7325 16.3971 4.53575 16.6132C5.99095 17 11 17 11 17C11 17 16.0116 17 17.4642 16.6132C18.2641 16.4004 18.8956 15.7707 19.1115 14.9704C19.5 13.5225 19.5 10.5 19.5 10.5ZM14.4008 10.5L9.30078 13.3438V7.65625L14.4008 10.5Z" fill="white"/>
</g>
<defs>
<clipPath id="clip0_686_10788">
<rect width="21" height="21" fill="white" transform="translate(0.5)"/>
</clipPath>
</defs>
</svg>
