<svg width="22" height="21" viewBox="0 0 22 21" fill="none" xmlns="http://www.w3.org/2000/svg">
<g clip-path="url(#clip0_63_1601)">
<path fill-rule="evenodd" clip-rule="evenodd" d="M19.75 10.5C19.75 10.5 19.75 7.4775 19.3615 6.02963C19.1482 5.23175 18.5175 4.60287 17.7142 4.38675C16.2616 4 11.25 4 11.25 4C11.25 4 6.24095 4 4.78575 4.38675C3.9859 4.59962 3.35435 5.22931 3.13845 6.02963C2.75 7.4775 2.75 10.5 2.75 10.5C2.75 10.5 2.75 13.5225 3.13845 14.9704C3.3518 15.7683 3.9825 16.3971 4.78575 16.6132C6.24095 17 11.25 17 11.25 17C11.25 17 16.2616 17 17.7142 16.6132C18.5141 16.4004 19.1456 15.7707 19.3615 14.9704C19.75 13.5225 19.75 10.5 19.75 10.5ZM14.65 10.5L9.55 13.3438V7.65625L14.65 10.5Z" fill="white"/>
</g>
<defs>
<clipPath id="clip0_63_1601">
<rect width="21" height="21" fill="white" transform="translate(0.75)"/>
</clipPath>
</defs>
</svg>
